<svg width="193" height="58" viewBox="0 0 193 58" fill="none" xmlns="http://www.w3.org/2000/svg">
<path d="M21.1234 51.9059C21.085 51.9709 21.0818 52.0349 21.1138 52.098C21.1185 52.1072 21.1207 52.1175 21.1202 52.1279C21.1197 52.1382 21.1165 52.1483 21.111 52.157C21.1055 52.1658 21.0978 52.1729 21.0887 52.1778C21.0796 52.1827 21.0694 52.1851 21.0591 52.1848C21.0418 52.1848 21.0261 52.1819 21.012 52.1761C20.9762 52.1613 20.9644 52.1356 20.9765 52.0989C21.0021 52.023 20.9743 51.9448 20.893 51.8644C19.4914 50.485 18.3375 48.9255 17.4312 47.1858C17.4195 47.1635 17.3998 47.1465 17.3761 47.1383C17.3524 47.13 17.3265 47.1312 17.3036 47.1414C13.8725 48.6797 9.99412 48.6421 6.38548 47.8864C5.1298 47.6239 3.89748 47.2456 2.68852 46.7515C2.6354 46.7297 2.61908 46.692 2.63956 46.6386C3.76852 43.6135 5.44532 40.9377 7.66996 38.6113C7.67833 38.6025 7.68307 38.5908 7.68325 38.5786C7.68343 38.5665 7.67902 38.5547 7.67092 38.5456C3.6994 34.0311 1.9378 27.9725 1.41172 22.0731C1.33492 21.2122 1.33492 20.3456 1.3426 19.4684C1.34324 19.4156 1.3698 19.3892 1.42228 19.3892C5.34772 19.3863 9.48148 20.0657 13.1688 21.496C13.1796 21.5001 13.1911 21.502 13.2026 21.5016C13.2141 21.5013 13.2255 21.4986 13.2359 21.4937C13.2464 21.4888 13.2558 21.4819 13.2636 21.4734C13.2713 21.4648 13.2773 21.4548 13.2812 21.4438C14.5628 17.8432 16.5596 14.563 19.0018 11.6138C19.5407 10.9633 20.0767 10.3708 20.6098 9.83613C20.9007 9.54468 21.2194 9.57942 21.4863 9.85832C24.613 13.1231 27.2674 17.1349 28.7765 21.4294C28.797 21.486 28.8354 21.504 28.8917 21.4834C32.6501 20.0937 36.589 19.396 40.5903 19.3815C40.6003 19.3815 40.6099 19.3853 40.6171 19.3922C40.6243 19.399 40.6284 19.4084 40.6287 19.4182C40.79 23.4087 39.9432 27.5971 38.5916 31.3367C38.5045 31.5779 38.2533 32.1624 37.838 33.0902C36.9711 35.0261 35.8047 36.9543 34.358 38.5099C34.349 38.5196 34.3421 38.531 34.3377 38.5434C34.3333 38.5559 34.3314 38.5691 34.3322 38.5822C34.333 38.5954 34.3365 38.6083 34.3424 38.6201C34.3483 38.6319 34.3566 38.6423 34.3666 38.6508C34.43 38.7042 34.4927 38.7644 34.5548 38.8313C36.6847 41.1159 38.2959 43.72 39.3884 46.6434C39.4063 46.6911 39.3919 46.7245 39.3452 46.7438C38.3544 47.1594 37.3384 47.4904 36.2972 47.7369C32.4956 48.6382 28.3637 48.7675 24.7167 47.1405C24.7046 47.1352 24.6911 47.1347 24.6788 47.139C24.6665 47.1433 24.6563 47.1521 24.6504 47.1636C23.749 48.8679 22.5663 50.5423 21.1532 51.8683C21.1417 51.8792 21.1317 51.8918 21.1234 51.9059ZM20.989 11.5491C18.2636 14.5765 16.0066 18.1318 14.6223 21.992C14.6134 22.0165 14.6142 22.0435 14.6245 22.0675C14.6348 22.0916 14.654 22.1108 14.678 22.1213C17.0268 23.1391 19.1234 24.5369 20.9679 26.3145C20.9986 26.3441 21.029 26.3441 21.0591 26.3145C22.8908 24.5147 25.0517 23.1192 27.3922 22.0885C27.4131 22.0794 27.4296 22.0625 27.4386 22.0414C27.4475 22.0202 27.4481 21.9963 27.4402 21.9746C26.0492 18.125 23.7922 14.5968 21.0773 11.5491C21.0717 11.543 21.0648 11.5382 21.0572 11.5349C21.0496 11.5316 21.0414 11.5298 21.0332 11.5298C21.0249 11.5298 21.0167 11.5316 21.0091 11.5349C21.0015 11.5382 20.9947 11.543 20.989 11.5491ZM12.2271 22.7004C9.42644 21.7186 6.54484 21.1241 3.58228 20.9169C3.34996 20.9002 3.12052 20.879 2.89396 20.8532C2.88201 20.8518 2.8699 20.853 2.85846 20.8568C2.84703 20.8606 2.83656 20.8668 2.82778 20.8751C2.819 20.8834 2.81212 20.8935 2.80764 20.9047C2.80315 20.9159 2.80116 20.928 2.8018 20.9401C2.95348 24.0637 3.52532 27.1058 4.51732 30.0666C4.52897 30.1017 4.55307 30.1313 4.58508 30.1498C4.61708 30.1683 4.65479 30.1744 4.69108 30.167C7.11348 29.6645 9.55668 29.5285 12.0207 29.7588C12.0279 29.7595 12.0351 29.7586 12.042 29.7562C12.0488 29.7538 12.055 29.7498 12.0602 29.7447C12.0654 29.7396 12.0695 29.7333 12.0721 29.7264C12.0747 29.7195 12.0758 29.7121 12.0754 29.7047C11.9269 27.4214 12.1676 25.1815 12.7973 22.985C12.8035 22.9639 12.8013 22.9412 12.7913 22.9217C12.7813 22.9021 12.7642 22.8871 12.7436 22.8799C12.5733 22.8207 12.4012 22.7608 12.2271 22.7004ZM31.4943 22.1406C30.7484 22.3529 30.036 22.627 29.3026 22.8712C29.2849 22.8772 29.2701 22.8898 29.2615 22.9064C29.2529 22.923 29.2511 22.9422 29.2565 22.96C29.8952 25.1667 30.1388 27.4176 29.9871 29.7125C29.9845 29.7536 30.0037 29.7723 30.0447 29.7684C32.4997 29.5355 34.9349 29.6632 37.3503 30.1516C37.4296 30.1677 37.4818 30.1371 37.5068 30.0599C38.4808 27.1049 39.0508 24.0717 39.2165 20.9604C39.2171 20.9482 39.2151 20.936 39.2107 20.9246C39.2063 20.9133 39.1996 20.9029 39.191 20.8943C39.1824 20.8857 39.1722 20.8789 39.1609 20.8745C39.1495 20.8701 39.1374 20.8681 39.1253 20.8687C36.541 21.0057 33.9973 21.4297 31.4943 22.1406ZM27.7935 23.4946C25.6527 24.4934 23.7279 25.7326 22.0383 27.3838C22.0245 27.3971 22.0164 27.4153 22.0155 27.4345C22.0146 27.4537 22.021 27.4725 22.0335 27.487C22.925 28.5435 23.6722 29.6954 24.2751 30.9429C24.2814 30.9561 24.2922 30.9665 24.3055 30.9722C24.3187 30.9779 24.3335 30.9784 24.3471 30.9738C25.6757 30.5209 27.0332 30.1873 28.4194 29.973C28.4497 29.9683 28.4776 29.9535 28.4985 29.9309C28.5194 29.9083 28.5321 29.8793 28.5346 29.8485C28.6959 27.7132 28.492 25.6155 27.9231 23.5554C27.9194 23.5422 27.913 23.53 27.9042 23.5196C27.8955 23.5092 27.8845 23.5008 27.8722 23.495C27.8599 23.4892 27.8465 23.4862 27.8329 23.4861C27.8193 23.486 27.8059 23.4889 27.7935 23.4946ZM17.6607 30.94C17.6794 30.9463 17.6997 30.9455 17.7178 30.9379C17.736 30.9302 17.7508 30.9163 17.7596 30.8985C18.3554 29.678 19.0895 28.548 19.9618 27.5083C20.0066 27.4549 20.0037 27.4037 19.9532 27.3548C18.2674 25.7335 16.3548 24.451 14.2152 23.5071C14.2075 23.5036 14.1991 23.5019 14.1906 23.502C14.1821 23.5021 14.1737 23.504 14.166 23.5077C14.1584 23.5113 14.1516 23.5167 14.1461 23.5232C14.1407 23.5298 14.1368 23.5375 14.1346 23.5457C13.5912 25.5839 13.3445 27.7244 13.5317 29.8341C13.5381 29.9119 13.5797 29.9566 13.6565 29.9682C15.0197 30.1747 16.3544 30.4987 17.6607 30.94ZM19.1717 31.5026C19.7362 31.7217 20.2892 31.9755 20.8229 32.2631C20.9362 32.3239 21.0994 32.3644 21.2012 32.3094C21.7388 32.0173 22.2892 31.76 22.8524 31.5374C22.8642 31.5328 22.875 31.5258 22.884 31.5168C22.893 31.5078 22.9 31.4969 22.9045 31.485C22.909 31.473 22.911 31.4603 22.9103 31.4475C22.9096 31.4348 22.9062 31.4223 22.9004 31.411C22.38 30.4009 21.764 29.4538 21.0524 28.5698C21.0472 28.5633 21.0406 28.558 21.0331 28.5544C21.0257 28.5507 21.0174 28.5489 21.009 28.5489C21.0007 28.5489 20.9924 28.5507 20.9847 28.5544C20.9771 28.558 20.9704 28.5633 20.965 28.5698C20.2552 29.4455 19.6431 30.3851 19.1285 31.3888C19.101 31.4428 19.1154 31.4808 19.1717 31.5026ZM8.85172 37.5487C10.1544 36.4418 11.6664 35.5733 13.3023 35.0589C13.3118 35.056 13.3205 35.0512 13.328 35.0447C13.3355 35.0382 13.3415 35.0301 13.3457 35.0211C13.3499 35.0121 13.3521 35.0023 13.3522 34.9923C13.3524 34.9823 13.3504 34.9725 13.3464 34.9633C12.846 33.7988 12.4917 32.5899 12.2837 31.3367C12.2794 31.3096 12.2661 31.2846 12.246 31.2658C12.2258 31.2469 12.1999 31.2352 12.1724 31.2324C9.821 30.9944 7.48628 31.0986 5.1682 31.5451C5.11892 31.5548 5.10356 31.5827 5.12212 31.6291C5.9906 33.803 7.18868 35.7727 8.71636 37.5381C8.73305 37.5574 8.75658 37.5692 8.78189 37.5712C8.80719 37.5732 8.83227 37.5651 8.85172 37.5487ZM28.7746 35.0821C30.3692 35.5569 31.9109 36.4756 33.1676 37.5487C33.2149 37.5886 33.2588 37.5851 33.2991 37.5381C34.8325 35.7656 36.0351 33.7885 36.9068 31.6069C36.9087 31.6011 36.9096 31.5956 36.9096 31.5905C36.9096 31.5532 36.8892 31.5306 36.8482 31.5229C34.5333 31.0912 32.2066 30.9982 29.868 31.244C29.838 31.2472 29.82 31.264 29.8143 31.2942C29.5864 32.5571 29.2207 33.7783 28.717 34.9576C28.712 34.9696 28.7095 34.9825 28.7097 34.9955C28.7099 35.0085 28.7128 35.0213 28.7183 35.033C28.7237 35.0448 28.7315 35.0552 28.7412 35.0637C28.7509 35.0721 28.7623 35.0784 28.7746 35.0821ZM17.1269 32.348C17.1293 32.3416 17.1304 32.3347 17.1301 32.3278C17.1298 32.3209 17.1282 32.3142 17.1252 32.308C17.1222 32.3017 17.1181 32.2962 17.1129 32.2916C17.1078 32.2871 17.1018 32.2836 17.0952 32.2815C16.0271 31.9321 14.94 31.658 13.8341 31.4592C13.813 31.4554 13.7986 31.4634 13.7909 31.4833C13.7832 31.502 13.7826 31.5265 13.789 31.5567C14.1909 33.4308 14.8988 35.1786 15.9125 36.7999C15.9349 36.8359 15.9586 36.8658 15.9836 36.8896C15.9881 36.8937 15.9938 36.8965 15.9998 36.8976C16.0058 36.8987 16.0121 36.8981 16.0178 36.8959C16.0235 36.8937 16.0286 36.89 16.0323 36.8852C16.0361 36.8803 16.0385 36.8745 16.0392 36.8684C16.2146 35.3159 16.5772 33.8091 17.1269 32.348ZM26.0424 36.8549C27.0456 35.1979 27.8511 33.4588 28.285 31.5596C28.2875 31.5484 28.2873 31.5367 28.2843 31.5255C28.2814 31.5144 28.2757 31.5043 28.2679 31.4959C28.2601 31.4876 28.2504 31.4814 28.2396 31.4778C28.2289 31.4743 28.2174 31.4735 28.2063 31.4756C27.101 31.6764 26.0146 31.952 24.9471 32.3027C24.8991 32.3181 24.884 32.3496 24.902 32.3973C25.4447 33.8326 25.8021 35.3137 25.9743 36.8404C25.9826 36.9124 26.0053 36.9173 26.0424 36.8549ZM17.7576 35.5057C18.3176 34.7298 18.9586 34.0272 19.6805 33.398C19.6875 33.392 19.6928 33.3843 19.6959 33.3756C19.6991 33.3669 19.7001 33.3576 19.6988 33.3485C19.6974 33.3394 19.6938 33.3307 19.6883 33.3233C19.6827 33.316 19.6755 33.3101 19.6671 33.3063L18.613 32.8296C18.5994 32.8235 18.5846 32.8202 18.5697 32.8201C18.5548 32.8199 18.5401 32.8228 18.5264 32.8286C18.5127 32.8344 18.5003 32.843 18.4901 32.8538C18.4799 32.8646 18.4721 32.8774 18.4671 32.8914C18.1618 33.722 17.9122 34.5719 17.7183 35.4411C17.7138 35.4623 17.716 35.4829 17.725 35.5028C17.7265 35.5058 17.7287 35.5083 17.7314 35.5102C17.7341 35.512 17.7372 35.5132 17.7405 35.5135C17.7438 35.5138 17.7471 35.5132 17.7501 35.5118C17.7531 35.5105 17.7557 35.5084 17.7576 35.5057ZM23.4284 32.8663L22.4232 33.3131C22.4136 33.3174 22.4051 33.324 22.3987 33.3325C22.3923 33.341 22.3881 33.3509 22.3866 33.3614C22.3851 33.3719 22.3862 33.3827 22.3899 33.3926C22.3937 33.4026 22.3998 33.4114 22.4079 33.4183C23.0607 33.9902 23.6485 34.6259 24.1714 35.3252C24.1989 35.3613 24.228 35.3902 24.2588 35.4121C24.2621 35.4146 24.2661 35.4161 24.2703 35.4162C24.2745 35.4163 24.2786 35.4151 24.2821 35.4128C24.2856 35.4105 24.2883 35.4071 24.2898 35.4032C24.2912 35.3992 24.2915 35.3949 24.2904 35.3909C24.0933 34.5532 23.8492 33.7303 23.558 32.9222C23.5534 32.9098 23.5464 32.8984 23.5373 32.8887C23.5282 32.8791 23.5173 32.8714 23.5052 32.8662C23.493 32.8609 23.48 32.8582 23.4668 32.8582C23.4535 32.8583 23.4405 32.861 23.4284 32.8663ZM22.0354 35.5935C22.3528 35.7216 22.5708 35.8029 22.6892 35.8377C22.7391 35.8525 22.7468 35.8403 22.7122 35.801C22.2143 35.2265 21.6773 34.6909 21.1013 34.1942C21.0814 34.1767 21.0558 34.1672 21.0291 34.1674C21.0025 34.1676 20.9766 34.1774 20.9564 34.1952C20.4079 34.6777 19.9061 35.1731 19.4511 35.6814C19.4114 35.7257 19.3868 35.756 19.3772 35.7721C19.3311 35.8544 19.3506 35.8753 19.4357 35.8348C19.8536 35.6347 20.2936 35.4607 20.7557 35.3127C21.158 35.1834 21.6178 35.4256 22.0354 35.5935ZM13.9224 36.3858C12.4354 36.8269 11.053 37.6076 9.86068 38.5939C9.85375 38.5998 9.84813 38.6071 9.84422 38.6153C9.84031 38.6236 9.83819 38.6325 9.83801 38.6416C9.83783 38.6506 9.83959 38.6596 9.84317 38.6678C9.84675 38.6761 9.85207 38.6835 9.85876 38.6894C11.5906 40.2573 13.572 41.3881 15.8031 42.0816C15.8111 42.0842 15.8196 42.0847 15.8278 42.0832C15.836 42.0817 15.8438 42.0782 15.8503 42.0729C15.8569 42.0677 15.8621 42.0609 15.8654 42.0531C15.8687 42.0454 15.87 42.0369 15.8693 42.0285C15.8296 41.5312 15.8264 41.0297 15.8597 40.524C15.8808 40.1959 15.8424 39.8388 15.8664 39.4943C15.876 39.3598 15.8527 39.2556 15.7964 39.1816C15.1365 38.3098 14.5461 37.3924 14.0252 36.4293C14.0028 36.3868 13.9685 36.3723 13.9224 36.3858ZM32.1461 38.5804C30.9519 37.598 29.6204 36.8655 28.1448 36.3974C28.1225 36.3903 28.0984 36.3912 28.0767 36.4C28.055 36.4088 28.037 36.425 28.0258 36.4457C27.501 37.423 26.9007 38.3507 26.2248 39.2289C26.1892 39.2754 26.1684 39.3316 26.1653 39.3901C26.124 40.2577 26.2536 41.1175 26.1989 41.9986C26.1981 42.0089 26.1998 42.0193 26.2039 42.0287C26.208 42.0382 26.2144 42.0465 26.2225 42.0529C26.2306 42.0593 26.2401 42.0636 26.2502 42.0654C26.2603 42.0672 26.2707 42.0665 26.2805 42.0633C28.4796 41.3672 30.4357 40.2458 32.149 38.6991C32.1573 38.6914 32.1638 38.682 32.1682 38.6716C32.1726 38.6612 32.1747 38.65 32.1745 38.6387C32.1742 38.6275 32.1715 38.6165 32.1666 38.6064C32.1617 38.5963 32.1547 38.5875 32.1461 38.5804ZM20.82 36.8259C20.2296 37.0585 19.6632 37.3239 19.0834 37.5767C19.0679 37.5834 19.0552 37.5954 19.0478 37.6107C19.0404 37.6259 19.0387 37.6433 19.0431 37.6597C19.4591 39.2295 20.1023 40.6977 20.9727 42.0642C20.9919 42.0951 21.0127 42.0964 21.0351 42.0681C21.1298 41.9465 21.2162 41.8194 21.2943 41.6869C22.0335 40.4285 22.5928 39.0964 22.9724 37.6906C22.9788 37.6665 22.9767 37.6409 22.9663 37.6183C22.956 37.5957 22.9381 37.5775 22.9157 37.5671C22.3199 37.284 21.7231 37.0289 21.1253 36.8018C21.0421 36.7703 20.9404 36.7783 20.82 36.8259ZM24.3125 38.5273C24.3106 38.5206 24.3065 38.5146 24.301 38.5104C24.2954 38.5061 24.2887 38.5037 24.2817 38.5036C24.2747 38.5035 24.2679 38.5057 24.2622 38.5098C24.2565 38.5139 24.2523 38.5197 24.2501 38.5263L23.8325 39.7433C23.8306 39.7503 23.831 39.7578 23.8337 39.7645C23.8364 39.7712 23.8413 39.7769 23.8476 39.7805C23.8539 39.7842 23.8612 39.7856 23.8683 39.7847C23.8755 39.7837 23.8822 39.7803 23.8872 39.7751L24.4709 39.0899C24.4744 39.0857 24.4767 39.0806 24.4777 39.0752C24.4787 39.0698 24.4784 39.0643 24.4767 39.0591L24.3125 38.5273ZM18.1109 39.7008C18.1157 39.7059 18.122 39.7092 18.1288 39.7102C18.1356 39.7112 18.1426 39.7099 18.1486 39.7065C18.1546 39.703 18.1593 39.6976 18.1618 39.6911C18.1644 39.6847 18.1647 39.6776 18.1628 39.6709L17.7884 38.5514C17.7862 38.5452 17.7821 38.5399 17.7767 38.5362C17.7713 38.5325 17.7649 38.5306 17.7584 38.5308C17.7519 38.531 17.7456 38.5333 17.7404 38.5374C17.7353 38.5414 17.7316 38.547 17.7298 38.5534L17.5906 39.0774C17.5894 39.0823 17.5893 39.0873 17.5905 39.0922C17.5917 39.0971 17.594 39.1016 17.5973 39.1054L18.1109 39.7008ZM13.3234 42.6867C11.6549 41.961 10.1007 40.8965 8.77972 39.6651C8.74644 39.6336 8.71348 39.6346 8.68084 39.668C6.94612 41.4669 5.59924 43.5369 4.54516 45.7923C4.53999 45.8032 4.53724 45.815 4.53709 45.8271C4.53695 45.8392 4.53943 45.8512 4.54435 45.8623C4.54927 45.8734 4.55652 45.8833 4.5656 45.8913C4.57469 45.8994 4.5854 45.9054 4.597 45.909C6.98932 46.6502 9.48724 47.0266 12.0034 46.9146C12.0508 46.9127 12.0783 46.8879 12.086 46.8403C12.3068 45.4217 12.7304 44.0674 13.357 42.7774C13.3609 42.7694 13.3632 42.7606 13.3636 42.7516C13.3641 42.7426 13.3627 42.7336 13.3595 42.7251C13.3564 42.7167 13.3516 42.7089 13.3454 42.7023C13.3392 42.6957 13.3317 42.6904 13.3234 42.6867ZM28.8908 42.5863C28.7922 42.632 28.7007 42.6758 28.6162 42.7176C28.5974 42.7269 28.583 42.7433 28.5762 42.7634C28.5694 42.7834 28.5706 42.8055 28.5797 42.8247C29.1922 44.0999 29.6114 45.4368 29.8373 46.8355C29.8424 46.8677 29.8607 46.8866 29.892 46.8924C30.0328 46.9188 30.1752 46.9333 30.3192 46.9359C32.7576 46.9841 35.1365 46.6364 37.4559 45.8926C37.4633 45.8903 37.4701 45.8864 37.4759 45.8813C37.4818 45.8761 37.4864 45.8697 37.4896 45.8626C37.4928 45.8555 37.4944 45.8478 37.4944 45.84C37.4944 45.8322 37.4927 45.8245 37.4895 45.8174C36.444 43.5582 35.0674 41.4611 33.3442 39.6661C33.3312 39.6523 33.3132 39.6442 33.2942 39.6437C33.2751 39.6431 33.2566 39.6501 33.2424 39.6632C31.9381 40.874 30.4876 41.8484 28.8908 42.5863ZM19.068 42.762C19.0746 42.7631 19.0812 42.762 19.0871 42.759C19.093 42.7559 19.0977 42.7511 19.1006 42.7451C19.1035 42.7392 19.1044 42.7324 19.1032 42.7259C19.102 42.7194 19.0988 42.7134 19.094 42.7089L17.3813 41.0587C17.3768 41.0543 17.3711 41.0514 17.3649 41.0505C17.3587 41.0495 17.3524 41.0504 17.3468 41.0531C17.3411 41.0559 17.3364 41.0603 17.3334 41.0657C17.3303 41.0712 17.3289 41.0775 17.3295 41.0837L17.437 42.4869C17.4376 42.4939 17.4404 42.5004 17.4451 42.5055C17.4498 42.5105 17.4561 42.5139 17.4629 42.5149L19.068 42.762ZM24.6783 41.1523C24.6788 41.146 24.6775 41.1397 24.6744 41.1342C24.6713 41.1288 24.6666 41.1244 24.661 41.1217C24.6554 41.1189 24.649 41.118 24.6429 41.119C24.6367 41.12 24.631 41.1228 24.6264 41.1272L22.9589 42.7089C22.9541 42.7134 22.9508 42.7194 22.9496 42.7259C22.9484 42.7324 22.9494 42.7392 22.9523 42.7451C22.9552 42.7511 22.9599 42.7559 22.9658 42.759C22.9716 42.762 22.9783 42.7631 22.9848 42.762L24.5573 42.5111C24.5641 42.51 24.5704 42.5067 24.5751 42.5016C24.5798 42.4965 24.5827 42.49 24.5832 42.4831L24.6783 41.1523ZM14.6981 43.3188C14.1634 44.308 13.7938 45.5635 13.5749 46.6637C13.5634 46.7203 13.5858 46.7438 13.6421 46.7342C14.6968 46.5617 15.7125 46.2594 16.6892 45.827C16.7144 45.816 16.7344 45.7954 16.7446 45.7696C16.7549 45.7437 16.7546 45.7148 16.7439 45.689C16.4789 45.0566 16.2725 44.4052 16.1247 43.7348C16.1217 43.7218 16.1154 43.7099 16.1063 43.7001C16.0972 43.6902 16.0857 43.6829 16.0728 43.6788L14.7826 43.2841C14.7668 43.2792 14.7498 43.28 14.7344 43.2863C14.7191 43.2926 14.7062 43.3041 14.6981 43.3188ZM25.3522 45.8328C26.3295 46.2227 27.2434 46.5392 28.2744 46.711C28.2845 46.7126 28.2948 46.7118 28.3045 46.7086C28.3141 46.7053 28.3228 46.6998 28.3299 46.6925C28.3369 46.6852 28.342 46.6762 28.3447 46.6665C28.3474 46.6568 28.3477 46.6465 28.3455 46.6367C28.0997 45.496 27.7285 44.3978 27.2319 43.342C27.2254 43.328 27.2141 43.317 27.2 43.3107C27.1859 43.3045 27.1699 43.3036 27.1551 43.3082L26.0386 43.6469C26.0104 43.6554 25.9849 43.6715 25.9648 43.6934C25.9447 43.7152 25.9307 43.7422 25.9244 43.7714C25.7791 44.4418 25.5733 45.0929 25.3071 45.7247C25.3029 45.7348 25.3007 45.7456 25.3007 45.7565C25.3007 45.7674 25.3028 45.7782 25.307 45.7883C25.3112 45.7984 25.3174 45.8075 25.3252 45.8151C25.3329 45.8228 25.3421 45.8288 25.3522 45.8328ZM17.8191 44.2279C17.8116 44.2273 17.8042 44.2286 17.7974 44.2317C17.7906 44.2347 17.7846 44.2394 17.78 44.2454C17.7755 44.2513 17.7724 44.2583 17.7712 44.2657C17.77 44.2731 17.7706 44.2806 17.773 44.2877L18.0245 45.0347C18.0269 45.0415 18.0308 45.0476 18.0359 45.0526C18.0411 45.0576 18.0473 45.0613 18.0542 45.0633C18.061 45.0654 18.0682 45.0658 18.0753 45.0645C18.0823 45.0632 18.0889 45.0603 18.0946 45.0559L18.9778 44.3958C18.985 44.3902 18.9903 44.3826 18.9931 44.3739C18.9959 44.3652 18.996 44.3558 18.9934 44.347C18.9908 44.3383 18.9856 44.3305 18.9786 44.3247C18.9715 44.319 18.9629 44.3155 18.9538 44.3148L17.8191 44.2279ZM23.9765 45.0936C23.9803 45.0964 23.9847 45.0983 23.9893 45.0991C23.994 45.0999 23.9987 45.0996 24.0032 45.0982C24.0077 45.0968 24.0118 45.0943 24.0152 45.091C24.0186 45.0877 24.0211 45.0836 24.0226 45.0791L24.3058 44.2482C24.3074 44.2435 24.3078 44.2384 24.307 44.2335C24.3062 44.2286 24.3042 44.2239 24.3011 44.22C24.2981 44.2161 24.2941 44.213 24.2895 44.211C24.285 44.209 24.28 44.2082 24.2751 44.2086L23.0463 44.3341C23.0402 44.3345 23.0344 44.3368 23.0297 44.3407C23.0249 44.3445 23.0215 44.3498 23.0198 44.3557C23.0181 44.3616 23.0183 44.3679 23.0203 44.3737C23.0223 44.3795 23.026 44.3845 23.0309 44.3881L23.9765 45.0936ZM18.8636 46.7863C19.4658 47.8845 20.1708 48.9001 20.9784 49.833C20.9851 49.8409 20.9935 49.8472 21.003 49.8515C21.0124 49.8558 21.0227 49.858 21.0332 49.8579C21.0437 49.8578 21.0541 49.8554 21.0637 49.851C21.0733 49.8465 21.0819 49.84 21.0888 49.832C21.9669 48.8007 22.726 47.6876 23.366 46.4929C23.3758 46.4747 23.3783 46.4534 23.3732 46.4335C23.368 46.4136 23.3555 46.3965 23.3381 46.3858C22.6399 45.9489 22.0031 45.4407 21.4277 44.861C21.3074 44.7394 21.1797 44.6155 21.0447 44.4894C21.0172 44.4643 20.9909 44.4653 20.966 44.4923C20.2927 45.22 19.5378 45.8489 18.7013 46.379C18.6937 46.3839 18.6871 46.3903 18.682 46.3978C18.6768 46.4052 18.6732 46.4137 18.6713 46.4225C18.6695 46.4314 18.6694 46.4406 18.6711 46.4495C18.6727 46.4585 18.6762 46.467 18.6812 46.4746C18.7266 46.5428 18.7874 46.6467 18.8636 46.7863Z" fill="#232323"/>
<path d="M167.432 25.6073C169.604 25.4567 171.51 26.2809 172.731 28.0846C172.92 28.3632 173.091 28.6427 173.246 28.9232C173.252 28.9334 173.255 28.9447 173.257 28.9563C173.258 28.9679 173.257 28.9797 173.253 28.9908C173.25 29.0019 173.244 29.0122 173.237 29.021C173.229 29.0297 173.22 29.0369 173.21 29.0419L170.617 30.337C170.585 30.3525 170.563 30.3441 170.551 30.3119C170.108 29.2369 169.219 28.6443 168.084 28.5864C166.783 28.5189 165.246 29.3199 165.464 30.8562C165.615 31.9159 168.794 32.5547 169.66 32.7487C174.707 33.8798 174.713 40.5792 170.04 42.2053C169.562 42.372 169.077 42.5177 168.585 42.6425C167.793 42.8432 167.209 42.6415 166.456 42.4553C164.684 42.0162 163.293 40.9469 162.404 39.3333C162.256 39.0637 162.144 38.7861 162.07 38.5005C162.063 38.4747 162.066 38.4473 162.077 38.4232C162.088 38.399 162.107 38.3796 162.131 38.3682L164.623 37.1976C164.633 37.1929 164.643 37.1903 164.655 37.19C164.666 37.1897 164.677 37.1917 164.687 37.1959C164.697 37.2001 164.706 37.2063 164.714 37.2142C164.722 37.2222 164.728 37.2316 164.732 37.242C165.082 38.1955 165.709 38.9801 166.651 39.3661C167.88 39.8689 169.714 39.5968 170.345 38.2245C170.979 36.8435 170.012 35.8552 168.726 35.6034C167.515 35.3666 166.414 35.0449 165.42 34.6383C164.242 34.1558 163.153 33.3123 162.704 32.0375C162.364 31.0782 162.355 30.1215 162.677 29.1674C163.396 27.0278 165.228 25.7598 167.432 25.6073Z" fill="#232323"/>
<path d="M55.3026 33.5246C56.1883 34.242 56.709 35.1781 56.8645 36.3329C56.8933 36.5472 56.9003 36.9979 56.8856 37.685C56.8366 40.0475 55.1029 41.8618 52.82 42.2835C52.3656 42.3678 51.8334 42.4099 51.2235 42.4099C48.5854 42.4093 46.8654 42.407 46.0635 42.4032C45.7035 42.4012 45.5576 42.1677 45.5576 41.8174C45.557 36.6118 45.557 31.4063 45.5576 26.2008C45.5576 25.7897 46.0194 25.7598 46.3995 25.7598C47.9752 25.7617 49.5512 25.7656 51.1275 25.7713C52.7086 25.7781 54.0517 26.1834 55.1902 27.2807C56.8414 28.874 56.7502 31.7653 55.2968 33.4561C55.275 33.4812 55.277 33.504 55.3026 33.5246ZM48.5355 28.8277V32.1475C48.5355 32.1713 48.5449 32.1941 48.5617 32.211C48.5784 32.2278 48.6011 32.2372 48.6248 32.2372H51.163C51.7606 32.2372 52.3337 32.0733 52.7562 31.7816C53.1788 31.4898 53.4162 31.0942 53.4162 30.6816V30.2936C53.4162 29.881 53.1788 29.4853 52.7562 29.1936C52.3337 28.9018 51.7606 28.7379 51.163 28.7379H48.6248C48.6011 28.7379 48.5784 28.7474 48.5617 28.7642C48.5449 28.7811 48.5355 28.8039 48.5355 28.8277ZM48.5019 35.3698L48.5154 39.2687C48.5155 39.2861 48.519 39.3034 48.5258 39.3195C48.5326 39.3357 48.5425 39.3503 48.5548 39.3625C48.5672 39.3748 48.5819 39.3845 48.598 39.3911C48.6142 39.3977 48.6314 39.401 48.6488 39.4009L51.6757 39.3903C52.2767 39.388 52.8523 39.1998 53.2761 38.867C53.6999 38.5342 53.9371 38.084 53.9355 37.6155L53.9336 36.9844C53.9328 36.7523 53.8734 36.5226 53.7588 36.3086C53.6441 36.0945 53.4764 35.9003 53.2653 35.7369C53.0542 35.5735 52.8038 35.4442 52.5284 35.3564C52.253 35.2686 51.958 35.224 51.6603 35.2251L48.6334 35.2357C48.616 35.2358 48.5988 35.2394 48.5828 35.2462C48.5668 35.253 48.5523 35.2629 48.5401 35.2754C48.5278 35.2878 48.5182 35.3026 48.5116 35.3188C48.5051 35.335 48.5018 35.3523 48.5019 35.3698Z" fill="#232323"/>
<path d="M70.5803 39.3324C70.4699 39.1809 70.3326 39.0091 70.2558 38.8943C68.1726 35.7666 68.3166 31.7548 70.6072 28.7988C72.2564 26.6718 74.7745 25.5688 77.4558 25.7965C80.0497 26.0175 82.2923 27.6147 83.5729 29.8459C85.5188 33.2362 84.8718 37.5895 82.0475 40.2753C81.4408 40.8524 80.6961 41.3414 79.8136 41.7422C78.6376 42.2768 77.5364 42.4023 76.2558 42.4023C70.6001 42.4029 64.9441 42.4036 59.2878 42.4042C58.8462 42.4042 58.7368 42.1967 58.7368 41.776C58.7355 37.0909 58.7342 32.4059 58.7329 27.7209C58.7329 27.2062 58.7387 26.6915 58.7502 26.1768C58.7598 25.783 59.1227 25.7685 59.4078 25.7695C60.0414 25.7714 60.6622 25.7705 61.2702 25.7666C61.3305 25.7661 61.3904 25.7776 61.4462 25.8005C61.5021 25.8234 61.553 25.8573 61.5958 25.9001C61.6386 25.9429 61.6726 25.9938 61.6958 26.0499C61.719 26.106 61.731 26.1662 61.731 26.2269V39.3238C61.731 39.3733 61.756 39.3981 61.8059 39.3981L70.5467 39.399C70.6011 39.399 70.6123 39.3768 70.5803 39.3324ZM76.7154 39.3913C77.3672 39.3936 78.0131 39.2583 78.6161 38.9933C79.2192 38.7282 79.7677 38.3385 80.2303 37.8464C80.6929 37.3544 81.0605 36.7696 81.3122 36.1254C81.5638 35.4813 81.6946 34.7904 81.697 34.0922C81.6995 33.3941 81.5735 32.7023 81.3263 32.0564C81.0791 31.4105 80.7156 30.8231 80.2564 30.3278C79.7973 29.8325 79.2515 29.439 78.6503 29.1697C78.049 28.9004 77.4041 28.7606 76.7523 28.7583C76.1006 28.756 75.4547 28.8913 74.8516 29.1564C74.2485 29.4214 73.7 29.8111 73.2374 30.3032C72.7748 30.7952 72.4072 31.38 72.1556 32.0242C71.9039 32.6683 71.7731 33.3592 71.7707 34.0574C71.7683 34.7556 71.8943 35.4473 72.1414 36.0932C72.3886 36.7391 72.7522 37.3265 73.2113 37.8218C73.6705 38.3171 74.2163 38.7106 74.8175 38.9799C75.4187 39.2492 76.0636 39.389 76.7154 39.3913Z" fill="#232323"/>
<path d="M93.7419 42.3983C91.6343 42.4057 89.6099 41.5363 88.1142 39.9815C86.6184 38.4267 85.7738 36.3137 85.7662 34.1074C85.7624 33.015 85.9642 31.9325 86.36 30.9219C86.7559 29.9112 87.3381 28.9921 88.0733 28.217C88.8086 27.442 89.6825 26.8261 90.6452 26.4047C91.6079 25.9833 92.6405 25.7645 93.6841 25.7608C95.7917 25.7534 97.8161 26.6227 99.3118 28.1776C100.808 29.7324 101.652 31.8454 101.66 34.0517C101.664 35.1441 101.462 36.2265 101.066 37.2372C100.67 38.2479 100.088 39.167 99.3527 39.9421C98.6174 40.7171 97.7435 41.333 96.7808 41.7544C95.8181 42.1758 94.7855 42.3946 93.7419 42.3983ZM93.6713 39.3901C94.323 39.3947 94.9694 39.2617 95.5734 38.9988C96.1774 38.7359 96.7272 38.3483 97.1915 37.8579C97.6558 37.3676 98.0255 36.7842 98.2794 36.141C98.5333 35.4979 98.6664 34.8076 98.6713 34.1095C98.6811 32.6998 98.1676 31.3441 97.2437 30.3408C96.3199 29.3374 95.0614 28.7685 93.7451 28.7593C93.0934 28.7547 92.447 28.8877 91.843 29.1506C91.239 29.4135 90.6892 29.8012 90.2249 30.2915C89.7606 30.7819 89.3909 31.3653 89.137 32.0084C88.8831 32.6516 88.75 33.3419 88.7451 34.0399C88.7353 35.4496 89.2488 36.8053 90.1727 37.8087C91.0965 38.812 92.355 39.3809 93.6713 39.3901Z" fill="#232323"/>
<path d="M106.619 32.7073C106.611 35.7948 106.61 38.894 106.618 42.0047C106.618 42.0561 106.573 42.142 106.484 42.2624C106.411 42.3595 106.331 42.4078 106.244 42.4071C105.536 42.4045 104.828 42.4068 104.12 42.4139C103.474 42.4206 103.519 41.997 103.519 41.4671C103.519 36.6277 103.522 31.7886 103.529 26.9498C103.529 26.538 103.537 26.2607 103.553 26.1179C103.594 25.7483 104.024 25.784 104.287 25.7811C105.084 25.7734 105.848 25.7685 106.579 25.7666C106.652 25.7663 106.723 25.7873 106.784 25.827C106.845 25.8668 106.894 25.9236 106.923 25.9905L112.107 37.6687C112.134 37.7298 112.162 37.7291 112.19 37.6667L117.444 25.8438C117.466 25.7943 117.504 25.7695 117.558 25.7695H120.323C120.444 25.7695 120.561 25.8179 120.646 25.904C120.732 25.9902 120.78 26.107 120.78 26.2289L120.781 41.9342C120.781 42.0585 120.732 42.1778 120.644 42.2659C120.557 42.354 120.438 42.4037 120.314 42.4042C119.561 42.4061 118.803 42.4049 118.039 42.4004C117.684 42.3984 117.682 41.8425 117.681 41.6167C117.679 38.6431 117.679 35.7041 117.682 32.8C117.682 32.6706 117.656 32.6648 117.603 32.7826L113.461 42.1311C113.427 42.2084 113.371 42.274 113.301 42.3201C113.23 42.3662 113.148 42.3907 113.064 42.3907C112.514 42.392 111.924 42.3888 111.294 42.3811C111.056 42.3785 110.888 42.2669 110.79 42.0462C109.414 38.9226 108.037 35.8068 106.66 32.6986C106.633 32.6362 106.619 32.6391 106.619 32.7073Z" fill="#232323"/>
<path d="M129.901 37.4428C131.414 33.6753 132.934 29.8958 134.461 26.1044C134.564 25.8496 134.728 25.7705 135.008 25.7695C135.96 25.7669 136.911 25.7666 137.861 25.7685C137.899 25.7685 137.911 25.7865 137.896 25.8226C135.676 31.2513 133.454 36.6837 131.232 42.1195C131.158 42.3016 131.005 42.3936 130.775 42.3955C130.186 42.402 129.597 42.4039 129.008 42.4013C128.74 42.4 128.555 42.2752 128.453 42.0269C126.322 36.8329 124.197 31.6371 122.076 26.4392C122.012 26.2829 122.003 26.0745 122.048 25.8139C122.053 25.7856 122.069 25.7714 122.098 25.7714L124.856 25.7666C124.935 25.7666 125.013 25.7905 125.079 25.8352C125.146 25.8798 125.197 25.9433 125.227 26.0175L129.825 37.4428C129.85 37.5059 129.876 37.5059 129.901 37.4428Z" fill="#232323"/>
<path d="M141.988 39.3991L148.182 39.4C148.191 39.4 148.199 39.4017 148.207 39.4049C148.214 39.4081 148.221 39.4128 148.227 39.4187C148.233 39.4246 148.238 39.4316 148.241 39.4393C148.244 39.4471 148.246 39.4554 148.246 39.4637C148.244 40.2827 148.245 41.1056 148.248 41.9323C148.248 42.2341 148.091 42.3856 147.775 42.3869C145.016 42.4004 142.256 42.4065 139.495 42.4052C139.043 42.4043 138.946 42.1697 138.947 41.749C138.957 36.5583 138.956 31.3772 138.944 26.2058C138.944 26.1486 138.955 26.0921 138.977 26.0393C138.999 25.9865 139.031 25.9385 139.071 25.898C139.111 25.8576 139.159 25.8255 139.211 25.8037C139.264 25.7818 139.32 25.7705 139.377 25.7705H147.771C148.085 25.7705 148.243 25.9288 148.243 26.2453L148.244 28.6927C148.244 28.7015 148.242 28.7103 148.239 28.7185C148.236 28.7267 148.231 28.7341 148.225 28.7404C148.219 28.7467 148.211 28.7517 148.203 28.7551C148.195 28.7585 148.186 28.7603 148.178 28.7603H142.016C141.961 28.7603 141.934 28.7876 141.934 28.8423L141.935 32.5066C141.935 32.5302 141.944 32.5527 141.961 32.5694C141.977 32.586 142 32.5954 142.023 32.5954L146.528 32.5925C146.638 32.5925 146.743 32.6361 146.82 32.7138C146.898 32.7914 146.941 32.8967 146.941 33.0065V35.147C146.941 35.2624 146.896 35.3732 146.814 35.4548C146.733 35.5364 146.623 35.5823 146.508 35.5823L141.994 35.5745C141.978 35.5745 141.963 35.5809 141.951 35.5923C141.94 35.6037 141.934 35.6192 141.934 35.6353L141.936 39.3469C141.936 39.3538 141.937 39.3606 141.94 39.3669C141.942 39.3732 141.946 39.379 141.951 39.3838C141.956 39.3886 141.961 39.3925 141.968 39.3951C141.974 39.3977 141.981 39.3991 141.988 39.3991Z" fill="#232323"/>
<path d="M153.27 37.0821C153.268 38.659 153.268 40.2356 153.271 41.8119C153.272 42.0493 153.197 42.2355 153.046 42.3706C153.02 42.3944 152.989 42.406 152.954 42.4054L150.776 42.4034C150.649 42.4034 150.528 42.3527 150.438 42.2624C150.348 42.1721 150.298 42.0496 150.298 41.9219C150.297 37.1931 150.296 32.4598 150.296 27.722C150.296 27.2665 150.301 26.8113 150.31 26.3564C150.32 25.898 150.472 25.7822 150.909 25.7793C152.168 25.769 153.428 25.7655 154.688 25.7687C155.762 25.7719 156.402 25.7842 156.607 25.8054C160.197 26.1769 162.767 29.7428 161.463 33.2827C160.947 34.6801 159.935 35.7165 158.619 36.4288C158.614 36.4316 158.609 36.4356 158.605 36.4404C158.601 36.4452 158.599 36.4507 158.597 36.4566C158.595 36.4626 158.595 36.4688 158.596 36.475C158.597 36.4811 158.599 36.4871 158.602 36.4925C159.625 38.2617 160.651 40.0342 161.679 41.8099C161.739 41.9161 161.744 42.0052 161.693 42.0772C161.627 42.1709 161.401 42.388 161.245 42.388C160.458 42.3919 159.673 42.3922 158.888 42.389C158.607 42.3883 158.414 42.2925 158.308 42.1014C157.378 40.4299 156.445 38.76 155.508 37.0918C155.498 37.0739 155.483 37.059 155.465 37.0487C155.448 37.0384 155.427 37.0329 155.407 37.0329L153.321 37.031C153.287 37.031 153.27 37.048 153.27 37.0821ZM153.27 28.8434L153.253 33.937C153.253 33.9616 153.262 33.9853 153.28 34.0028C153.297 34.0204 153.32 34.0303 153.345 34.0306L155.881 34.0393C156.264 34.0407 156.643 33.9744 156.998 33.8443C157.352 33.7141 157.674 33.5227 157.946 33.2808C158.217 33.0389 158.433 32.7514 158.581 32.4346C158.728 32.1179 158.805 31.778 158.806 31.4346V31.3844C158.809 30.6908 158.504 30.0245 157.959 29.532C157.414 29.0396 156.674 28.7613 155.9 28.7585L153.364 28.7498C153.352 28.7497 153.34 28.752 153.328 28.7566C153.317 28.7613 153.306 28.7682 153.298 28.7769C153.289 28.7856 153.282 28.7959 153.277 28.8074C153.272 28.8188 153.27 28.831 153.27 28.8434Z" fill="#232323"/>
<path d="M178.173 35.6322L178.169 39.3312C178.169 39.3401 178.171 39.3489 178.174 39.3571C178.178 39.3653 178.183 39.3727 178.189 39.379C178.195 39.3853 178.203 39.3903 178.211 39.3937C178.219 39.397 178.228 39.3988 178.236 39.3988L184.423 39.3998C184.47 39.3998 184.494 39.4232 184.494 39.4702L184.495 41.963C184.495 42.0208 184.484 42.0782 184.462 42.1317C184.44 42.1852 184.407 42.2338 184.367 42.2748C184.326 42.3157 184.278 42.3482 184.225 42.3704C184.171 42.3926 184.114 42.404 184.057 42.404L175.611 42.4059C175.497 42.4059 175.388 42.3606 175.308 42.2799C175.228 42.1991 175.183 42.0897 175.183 41.9755V26.1997C175.183 26.086 175.228 25.9769 175.308 25.8964C175.388 25.8159 175.496 25.7705 175.61 25.7702C178.391 25.7657 181.201 25.7702 184.04 25.7838C184.423 25.7857 184.488 26.0279 184.49 26.3715C184.496 27.1474 184.497 27.9214 184.494 28.6934C184.494 28.7113 184.487 28.7285 184.474 28.7412C184.461 28.7538 184.444 28.761 184.426 28.761L178.26 28.76C178.2 28.76 178.17 28.7902 178.17 28.8507V32.5025C178.17 32.5265 178.18 32.5496 178.196 32.5666C178.213 32.5836 178.236 32.5932 178.259 32.5932L182.766 32.5942C182.874 32.5942 182.978 32.6373 183.055 32.7141C183.132 32.791 183.176 32.8953 183.177 33.0043C183.18 33.7429 183.181 34.4754 183.178 35.2018C183.177 35.5279 182.805 35.5859 182.504 35.5849C181.077 35.5817 179.652 35.5785 178.23 35.5752C178.215 35.5752 178.2 35.5812 178.19 35.5919C178.179 35.6026 178.173 35.6171 178.173 35.6322Z" fill="#232323"/>
<path d="M186.155 26.1516L185.486 26.1565C185.468 26.1565 185.451 26.1495 185.438 26.1371C185.425 26.1247 185.418 26.1078 185.417 26.0899L185.405 25.8399C185.405 25.8306 185.406 25.8214 185.41 25.8127C185.413 25.804 185.418 25.796 185.424 25.7892C185.431 25.7825 185.438 25.7771 185.447 25.7734C185.455 25.7696 185.464 25.7677 185.473 25.7675L187.454 25.7637C187.463 25.7637 187.473 25.7656 187.481 25.7693C187.49 25.773 187.498 25.7785 187.504 25.7854C187.511 25.7922 187.516 25.8004 187.519 25.8092C187.522 25.8181 187.524 25.8276 187.523 25.837L187.509 26.0928C187.508 26.1107 187.5 26.1275 187.487 26.1397C187.474 26.152 187.456 26.1587 187.439 26.1584L186.752 26.1516C186.743 26.1515 186.734 26.1532 186.725 26.1566C186.717 26.1601 186.709 26.1652 186.703 26.1716C186.696 26.1781 186.691 26.1858 186.687 26.1943C186.684 26.2028 186.682 26.2119 186.682 26.2211L186.685 28.5614C186.685 28.5705 186.683 28.5795 186.68 28.588C186.676 28.5964 186.671 28.6041 186.665 28.6105C186.658 28.617 186.651 28.6221 186.642 28.6256C186.634 28.6291 186.625 28.6309 186.616 28.6309L186.292 28.6328C186.274 28.6328 186.256 28.6255 186.244 28.6124C186.231 28.5994 186.223 28.5817 186.223 28.5633L186.224 26.2211C186.224 26.2027 186.217 26.185 186.204 26.172C186.191 26.1589 186.173 26.1516 186.155 26.1516Z" fill="#232323"/>
<path d="M188.357 26.5096V28.5362C188.357 28.5961 188.328 28.6263 188.269 28.627L187.99 28.6289C187.979 28.629 187.968 28.6269 187.958 28.6227C187.947 28.6185 187.938 28.6123 187.93 28.6044C187.922 28.5965 187.916 28.5871 187.911 28.5767C187.907 28.5663 187.905 28.5552 187.905 28.544V25.8379C187.905 25.8187 187.912 25.8003 187.926 25.7868C187.939 25.7732 187.958 25.7656 187.977 25.7656L188.528 25.7617C188.547 25.7617 188.566 25.7676 188.582 25.7786C188.599 25.7896 188.611 25.8053 188.618 25.8235L189.388 27.8153C189.424 27.9086 189.461 27.9086 189.498 27.8153L190.293 25.8177C190.299 25.8026 190.31 25.7897 190.323 25.7805C190.336 25.7714 190.352 25.7665 190.368 25.7665L190.932 25.7598C190.94 25.7596 190.947 25.7611 190.955 25.764C190.962 25.7669 190.969 25.7712 190.974 25.7767C190.98 25.7821 190.984 25.7887 190.988 25.7959C190.991 25.8031 190.992 25.8108 190.992 25.8186L190.989 28.5198C190.989 28.5951 190.952 28.6324 190.877 28.6318H190.612C190.533 28.6311 190.494 28.5913 190.494 28.5121C190.494 27.8121 190.496 27.1221 190.501 26.4421C190.501 26.4183 190.491 26.4048 190.471 26.4015C190.449 26.3983 190.436 26.4073 190.431 26.4286C190.264 27.0626 189.934 27.7179 189.739 28.266C189.545 28.8103 189.342 28.8142 189.13 28.2776L188.422 26.4971C188.379 26.3883 188.357 26.3925 188.357 26.5096Z" fill="#232323"/>
</svg>
