<svg width="26" height="26" viewBox="0 0 26 26" fill="none" xmlns="http://www.w3.org/2000/svg">
<path fill-rule="evenodd" clip-rule="evenodd" d="M7.2154 1.00008C7.07743 1.0017 6.94114 1.03061 6.81441 1.08514C6.68768 1.13967 6.573 1.21873 6.477 1.31777C6.381 1.4168 6.30558 1.53386 6.25508 1.66217C6.20458 1.79048 6.18 1.92752 6.18277 2.06537V3.1056H3.04936C2.9114 3.10505 2.7747 3.13179 2.64714 3.18429C2.51957 3.23679 2.40367 3.31401 2.30612 3.41149C2.20857 3.50897 2.1313 3.62479 2.07876 3.75226C2.02622 3.87973 1.99946 4.01633 2.00001 4.15418V22.9514C1.99946 23.0893 2.02622 23.2259 2.07876 23.3533C2.1313 23.4808 2.20857 23.5966 2.30612 23.6941C2.40367 23.7916 2.51957 23.8688 2.64714 23.9213C2.7747 23.9738 2.9114 24.0005 3.04936 24H23.9506C24.0886 24.0005 24.2253 23.9738 24.3529 23.9213C24.4804 23.8688 24.5963 23.7916 24.6939 23.6941C24.7914 23.5966 24.8687 23.4808 24.9212 23.3533C24.9738 23.2259 25.0005 23.0893 25 22.9514V4.15418C25.0005 4.01633 24.9738 3.87973 24.9212 3.75226C24.8687 3.62479 24.7914 3.50897 24.6939 3.41149C24.5963 3.31401 24.4804 3.23679 24.3529 3.18429C24.2253 3.13179 24.0886 3.10505 23.9506 3.1056H20.8193V2.06537C20.8193 1.7881 20.7091 1.52219 20.5129 1.32613C20.3167 1.13007 20.0506 1.01992 19.7731 1.01992C19.4956 1.01992 19.2295 1.13007 19.0333 1.32613C18.8371 1.52219 18.7269 1.7881 18.7269 2.06537V3.1056H14.5462V2.06537C14.5462 1.7881 14.436 1.52219 14.2398 1.32613C14.0436 1.13007 13.7775 1.01992 13.5 1.01992C13.2225 1.01992 12.9564 1.13007 12.7602 1.32613C12.564 1.52219 12.4538 1.7881 12.4538 2.06537V3.1056H8.27311V2.06537C8.27592 1.92541 8.25055 1.78631 8.19849 1.65634C8.14644 1.52637 8.06877 1.40819 7.9701 1.30881C7.87143 1.20944 7.75378 1.13089 7.62413 1.07786C7.49448 1.02482 7.35548 0.99837 7.2154 1.00008ZM4.09035 5.1965H6.18277V6.24509C6.15142 7.66861 8.30447 7.66861 8.27311 6.24509V5.1965H12.4538V6.24509C12.4538 7.63937 14.5462 7.63937 14.5462 6.24509V5.1965H18.7269V6.24509C18.7269 7.63937 20.8193 7.63937 20.8193 6.24509V5.1965H22.9097V9.37413H4.09035V5.1965ZM4.09035 11.4629H22.9097V21.9112H4.09035V11.4629ZM11.4107 13.5518C11.1335 13.5518 10.8677 13.6618 10.6717 13.8577C10.4757 14.0535 10.3655 14.3192 10.3655 14.5962C10.3655 14.8732 10.4757 15.1388 10.6717 15.3347C10.8677 15.5305 11.1335 15.6406 11.4107 15.6406C11.6879 15.6406 11.9537 15.5305 12.1498 15.3347C12.3458 15.1388 12.4559 14.8732 12.4559 14.5962C12.4559 14.3192 12.3458 14.0535 12.1498 13.8577C11.9537 13.6618 11.6879 13.5518 11.4107 13.5518ZM15.5914 13.5518C15.3142 13.5518 15.0483 13.6618 14.8523 13.8577C14.6563 14.0535 14.5462 14.3192 14.5462 14.5962C14.5462 14.8732 14.6563 15.1388 14.8523 15.3347C15.0483 15.5305 15.3142 15.6406 15.5914 15.6406C15.8686 15.6406 16.1344 15.5305 16.3304 15.3347C16.5264 15.1388 16.6365 14.8732 16.6365 14.5962C16.6365 14.3192 16.5264 14.0535 16.3304 13.8577C16.1344 13.6618 15.8686 13.5518 15.5914 13.5518ZM19.7721 13.5518C19.4949 13.5518 19.229 13.6618 19.033 13.8577C18.837 14.0535 18.7269 14.3192 18.7269 14.5962C18.7269 14.8732 18.837 15.1388 19.033 15.3347C19.229 15.5305 19.4949 15.6406 19.7721 15.6406C20.0493 15.6406 20.3151 15.5305 20.5111 15.3347C20.7071 15.1388 20.8172 14.8732 20.8172 14.5962C20.8172 14.3192 20.7071 14.0535 20.5111 13.8577C20.3151 13.6618 20.0493 13.5518 19.7721 13.5518ZM7.23003 17.7294C6.95284 17.7294 6.68699 17.8394 6.49099 18.0353C6.29498 18.2311 6.18486 18.4968 6.18486 18.7738C6.18486 19.0508 6.29498 19.3164 6.49099 19.5123C6.68699 19.7082 6.95284 19.8182 7.23003 19.8182C7.50723 19.8182 7.77307 19.7082 7.96908 19.5123C8.16508 19.3164 8.2752 19.0508 8.2752 18.7738C8.2752 18.4968 8.16508 18.2311 7.96908 18.0353C7.77307 17.8394 7.50723 17.7294 7.23003 17.7294ZM11.4107 17.7294C11.1335 17.7294 10.8677 17.8394 10.6717 18.0353C10.4757 18.2311 10.3655 18.4968 10.3655 18.7738C10.3655 19.0508 10.4757 19.3164 10.6717 19.5123C10.8677 19.7082 11.1335 19.8182 11.4107 19.8182C11.6879 19.8182 11.9537 19.7082 12.1498 19.5123C12.3458 19.3164 12.4559 19.0508 12.4559 18.7738C12.4559 18.4968 12.3458 18.2311 12.1498 18.0353C11.9537 17.8394 11.6879 17.7294 11.4107 17.7294ZM15.5914 17.7294C15.3142 17.7294 15.0483 17.8394 14.8523 18.0353C14.6563 18.2311 14.5462 18.4968 14.5462 18.7738C14.5462 19.0508 14.6563 19.3164 14.8523 19.5123C15.0483 19.7082 15.3142 19.8182 15.5914 19.8182C15.8686 19.8182 16.1344 19.7082 16.3304 19.5123C16.5264 19.3164 16.6365 19.0508 16.6365 18.7738C16.6365 18.4968 16.5264 18.2311 16.3304 18.0353C16.1344 17.8394 15.8686 17.7294 15.5914 17.7294Z" fill="#FCF9DB"/>
</svg>
