<svg width="32" height="16" viewBox="0 0 32 16" fill="none" xmlns="http://www.w3.org/2000/svg">
<path d="M3.59961 3.69998L13.2996 1.1C14.0996 0.900003 14.9996 0.999991 15.6996 1.39999L19.3996 3.1C20.0996 3.4 20.5996 4.19997 20.5996 4.99997C20.5996 5.59997 20.3996 5.99999 20.0996 6.39999" stroke="#FCF9DB" stroke-width="2" stroke-miterlimit="10" stroke-linecap="round"/>
<path d="M15.5996 6.7001L20.3996 7.60012C20.7996 7.70012 21.1996 7.70012 21.5996 7.60012C22.9996 7.30012 26.6996 6.40011 28.8996 5.90011C29.7996 5.60011 30.5996 6.3001 30.5996 7.2001C30.5996 7.9001 30.2996 8.4001 29.5996 8.7001C27.0996 9.9001 20.5996 13.1001 20.5996 13.1001C18.4996 14.1001 16.0996 14.1001 14.0996 12.9001C12.2996 11.9001 10.2996 10.7001 9.29962 10.1001C8.89962 9.80012 8.29962 9.80011 7.79962 9.90011C6.69962 10.2001 4.59961 10.7001 4.59961 10.7001M3.19962 14.2001L4.09961 14.0001C4.59961 13.9001 4.89962 13.4001 4.79962 12.9001L3.19962 1.90011C3.09962 1.30011 2.4996 0.900123 1.8996 1.10012L0.999603 1.40011" stroke="#FCF9DB" stroke-width="2" stroke-miterlimit="10" stroke-linecap="round"/>
</svg>
