<svg width="106" height="44" viewBox="0 0 106 44" fill="none" xmlns="http://www.w3.org/2000/svg">
<g clip-path="url(#clip0_1669_24041)">
<path d="M14.0322 40.8062L14.0482 41.6952" stroke="#468157" stroke-width="2"/>
<path d="M14.0322 38.5088L14.0411 39.3185" stroke="#468157" stroke-width="2"/>
<path d="M22.943 16.0762L14.4951 16.0726C14.4479 16.0726 14.4027 16.0536 14.3693 16.0197C14.3359 15.9859 14.3172 15.9401 14.3172 15.8922L14.3225 12.4389C14.3225 12.38 14.3516 12.3506 14.4097 12.3506H26.5054C26.5483 12.3506 26.5897 12.3664 26.6218 12.395C26.6539 12.4236 26.6745 12.4629 26.6797 12.5057C27.1813 16.4134 26.3614 20.5285 23.626 23.3416C21.5155 25.5139 18.9265 26.7245 15.8592 26.9734C15.1881 27.0275 14.8282 27.0557 14.7796 27.0581C14.4464 27.075 14.1186 27.0726 13.7961 27.0509C9.24427 26.7335 5.68188 24.7127 3.10895 20.9883C0.787978 17.627 0.17261 13.0935 1.57409 9.12092C3.56959 3.46042 8.91227 -0.146136 14.833 0.00714253C18.1114 0.0924977 20.9825 1.30791 23.4464 3.65337C23.5021 3.70627 23.5033 3.75977 23.4499 3.81386L21.0062 6.28977C20.9821 6.31354 20.95 6.32716 20.9166 6.32783C20.8832 6.3285 20.851 6.31617 20.8266 6.29337C17.1877 2.85993 11.6974 2.90321 8.01767 6.196C3.05204 10.6411 4.03556 19.0768 9.90825 22.2019C12.9495 23.8194 16.9192 23.7437 19.8271 21.6862C21.723 20.3457 22.7806 18.4968 23 16.1393C23.0007 16.1313 22.9998 16.1232 22.9973 16.1155C22.9947 16.1079 22.9907 16.1009 22.9853 16.0949C22.9799 16.089 22.9734 16.0842 22.9661 16.081C22.9589 16.0778 22.951 16.0761 22.943 16.0762Z" fill="#4285F4"/>
<path d="M87.651 1.00977H84.1686C84.1008 1.00977 84.0459 1.06547 84.0459 1.13419V26.4162C84.0459 26.4849 84.1008 26.5406 84.1686 26.5406H87.651C87.7187 26.5406 87.7737 26.4849 87.7737 26.4162V1.13419C87.7737 1.06547 87.7187 1.00977 87.651 1.00977Z" fill="#34A853"/>
<path d="M45.5271 18.3322C45.5271 20.6584 44.6156 22.8894 42.9933 24.5343C41.371 26.1792 39.1706 27.1033 36.8763 27.1033C34.582 27.1033 32.3817 26.1792 30.7593 24.5343C29.137 22.8894 28.2256 20.6584 28.2256 18.3322C28.2256 16.0059 29.137 13.775 30.7593 12.13C32.3817 10.4851 34.582 9.56104 36.8763 9.56104C39.1706 9.56104 41.371 10.4851 42.9933 12.13C44.6156 13.775 45.5271 16.0059 45.5271 18.3322ZM36.9035 23.5923C38.1855 23.5855 39.4122 23.0249 40.3136 22.034C41.2151 21.0431 41.7175 19.7029 41.7103 18.3083C41.7067 17.6178 41.5781 16.9347 41.3319 16.298C41.0857 15.6613 40.7266 15.0836 40.2752 14.5977C39.8238 14.1118 39.289 13.7273 38.7011 13.4661C38.1133 13.205 37.484 13.0723 36.8492 13.0757C35.5671 13.0825 34.3404 13.643 33.439 14.634C32.5375 15.6249 32.0352 16.9651 32.0424 18.3596C32.0459 19.0502 32.1745 19.7333 32.4207 20.37C32.6669 21.0066 33.026 21.5844 33.4774 22.0703C33.9288 22.5562 34.4637 22.9407 35.0515 23.2018C35.6394 23.463 36.2687 23.5956 36.9035 23.5923Z" fill="#EA4335"/>
<path d="M64.0928 18.3323C64.0928 20.6581 63.1816 22.8886 61.5596 24.5332C59.9376 26.1778 57.7377 27.1017 55.4439 27.1017C53.15 27.1017 50.9501 26.1778 49.3281 24.5332C47.7062 22.8886 46.7949 20.6581 46.7949 18.3323C46.7949 16.0066 47.7062 13.776 49.3281 12.1315C50.9501 10.4869 53.15 9.56299 55.4439 9.56299C57.7377 9.56299 59.9376 10.4869 61.5596 12.1315C63.1816 13.776 64.0928 16.0066 64.0928 18.3323ZM55.4348 23.5943C56.0696 23.5954 56.6985 23.4605 57.2854 23.1972C57.8724 22.9339 58.4059 22.5473 58.8557 22.0597C59.3054 21.572 59.6625 20.9928 59.9065 20.355C60.1505 19.7172 60.2767 19.0335 60.2779 18.3427C60.2791 17.6519 60.1552 16.9677 59.9134 16.3291C59.6716 15.6904 59.3165 15.1099 58.8685 14.6207C58.4204 14.1314 57.8882 13.743 57.3021 13.4776C56.7161 13.2123 56.0877 13.0751 55.4529 13.074C54.8181 13.0728 54.1893 13.2078 53.6023 13.4711C53.0154 13.7344 52.4818 14.1209 52.0321 14.6086C51.5824 15.0962 51.2253 15.6755 50.9813 16.3133C50.7373 16.951 50.611 17.6348 50.6099 18.3256C50.6087 19.0164 50.7325 19.7006 50.9744 20.3392C51.2162 20.9778 51.5713 21.5583 52.0193 22.0476C52.4673 22.5368 52.9996 22.9252 53.5856 23.1906C54.1717 23.456 54.8 23.5932 55.4348 23.5943Z" fill="#FBBC05"/>
<path d="M78.2568 11.4112L78.2355 10.268C78.2352 10.2519 78.2381 10.236 78.244 10.2212C78.2499 10.2063 78.2586 10.1928 78.2697 10.1814C78.2808 10.1699 78.294 10.1609 78.3086 10.1547C78.3232 10.1485 78.3388 10.1453 78.3546 10.1453L81.8103 10.1471C81.8249 10.1471 81.8389 10.1532 81.8493 10.164C81.8596 10.1749 81.8654 10.1895 81.8654 10.2048C81.8737 15.486 81.8726 20.8231 81.8619 26.2162C81.8595 27.4893 81.6413 28.7233 81.2074 29.9183C79.9606 33.3463 76.9994 34.9098 73.4904 34.8448C70.1983 34.7835 67.5252 32.8829 66.1042 29.8443C66.0591 29.747 66.0852 29.6778 66.1824 29.637L69.277 28.3242C69.3423 28.2965 69.3897 28.3152 69.4193 28.3801C70.0738 29.8335 71.2886 31.0039 72.8625 31.3014C74.7958 31.6657 76.9087 30.8902 77.741 28.9716C78.2693 27.7543 78.239 26.6237 78.2568 25.3307C78.2592 25.1204 78.1874 25.0897 78.0416 25.2388C75.9785 27.3522 72.8074 27.5163 70.2659 26.2612C66.9863 24.6419 65.0779 21.2409 65.4265 17.4919C65.832 13.1298 69.5225 9.42221 73.9421 9.62779C75.5795 9.70353 76.9703 10.3184 78.1145 11.4725C78.1263 11.4843 78.1413 11.4923 78.1576 11.4955C78.1738 11.4986 78.1907 11.4968 78.2059 11.4902C78.2212 11.4836 78.2341 11.4726 78.2432 11.4586C78.2523 11.4445 78.257 11.428 78.2568 11.4112ZM73.869 23.6014C74.4826 23.6025 75.0904 23.4675 75.6577 23.2042C76.225 22.9408 76.7407 22.5543 77.1754 22.0666C77.6101 21.5789 77.9553 20.9996 78.1912 20.3618C78.4271 19.7241 78.5491 19.0403 78.5503 18.3495C78.5514 17.6587 78.4318 16.9745 78.1981 16.3359C77.9644 15.6973 77.6212 15.1168 77.1882 14.6276C76.7552 14.1384 76.2408 13.75 75.6744 13.4846C75.108 13.2193 74.5007 13.0822 73.8871 13.0811C73.2736 13.08 72.6658 13.215 72.0985 13.4783C71.5312 13.7417 71.0154 14.1282 70.5808 14.6159C70.1461 15.1036 69.8009 15.6828 69.565 16.3206C69.3291 16.9584 69.2071 17.6422 69.2059 18.333C69.2047 19.0238 69.3244 19.708 69.5581 20.3466C69.7918 20.9852 70.1349 21.5657 70.568 22.0549C71.001 22.5441 71.5154 22.9325 72.0818 23.1978C72.6482 23.4632 73.2555 23.6003 73.869 23.6014Z" fill="#4285F4"/>
<path d="M93.8133 20.9468C93.8012 20.952 93.7903 20.9597 93.7813 20.9694C93.7723 20.9791 93.7654 20.9906 93.7611 21.0032C93.7567 21.0158 93.755 21.0291 93.756 21.0424C93.7571 21.0556 93.7608 21.0686 93.767 21.0803C94.4998 22.4562 95.6292 23.3632 97.1729 23.5454C99.2769 23.7942 100.774 22.934 102.016 21.2462C102.054 21.1945 102.099 21.1861 102.151 21.2209L104.966 23.1288C104.977 23.1358 104.985 23.1449 104.992 23.1554C104.999 23.1659 105.003 23.1777 105.005 23.19C105.007 23.2023 105.006 23.2149 105.004 23.227C105.001 23.2391 104.995 23.2505 104.988 23.2604C103.136 25.7995 100.723 27.0636 97.7492 27.0527C93.3971 27.0383 89.945 23.8736 89.3883 19.5403C88.7 14.1845 92.3264 9.41487 97.8132 9.62224C101.614 9.76651 104.006 12.6626 105.144 16.096C105.162 16.1489 105.146 16.1856 105.096 16.206L93.8133 20.9468ZM95.759 13.4758C93.9645 14.4045 93.173 15.9013 93.0645 17.9101C93.0638 17.9247 93.0667 17.9392 93.0729 17.9523C93.0791 17.9654 93.0886 17.9767 93.1003 17.9852C93.112 17.9936 93.1256 17.999 93.1399 18.0006C93.1541 18.0023 93.1686 18.0004 93.1819 17.9949L100.645 14.8499C100.655 14.8456 100.664 14.8391 100.671 14.8309C100.679 14.8227 100.684 14.813 100.688 14.8025C100.691 14.7919 100.693 14.7808 100.692 14.7697C100.691 14.7586 100.687 14.7478 100.682 14.7381C99.7162 12.9854 97.4379 12.6067 95.759 13.4758Z" fill="#EA4335"/>
<path d="M14.0328 40.8063L14.0488 41.6953L14.0701 43.6789C14.0713 43.7042 14.0594 43.7168 14.0345 43.7168L12.4588 43.7276C12.4374 43.7288 12.4268 43.718 12.4268 43.6951L12.4285 36.2837C12.4285 36.2681 12.4316 36.2527 12.4375 36.2384C12.4434 36.224 12.4521 36.211 12.463 36.2001C12.4739 36.1892 12.4869 36.1806 12.5011 36.1748C12.5154 36.1691 12.5306 36.1662 12.5459 36.1664C14.743 36.1689 15.9008 36.1664 16.0194 36.1592C17.1896 36.0871 18.3226 36.5379 18.5573 37.7786C18.7565 38.8269 18.4245 39.5861 17.5614 40.0561C17.4831 40.0982 17.4849 40.1361 17.5667 40.1697C18.1738 40.4198 18.4868 40.9812 18.5057 41.854C18.52 42.52 18.6083 43.1205 18.7708 43.6555C18.7862 43.7035 18.7684 43.7276 18.7174 43.7276L17.2981 43.7258C17.2721 43.7257 17.2465 43.7187 17.224 43.7054C17.2016 43.6921 17.1829 43.673 17.1701 43.6501C17.1262 43.5719 17.1007 43.4823 17.0936 43.3814C17.0509 42.8211 16.9904 42.2735 16.9122 41.7386C16.8162 41.0774 16.4385 40.7438 15.7793 40.7378C15.2161 40.733 14.6624 40.7348 14.1181 40.7432C14.1004 40.7432 14.0843 40.7486 14.0701 40.7594C14.0511 40.7738 14.0387 40.7895 14.0328 40.8063ZM14.0328 38.5089L14.0417 39.3186C14.0251 39.3486 14.0185 39.3793 14.0221 39.4105C14.028 39.4719 14.0612 39.5031 14.1217 39.5043C14.8888 39.5236 15.5469 39.5205 16.0959 39.4953C16.2749 39.4869 16.4462 39.431 16.6098 39.3276C17.1292 39.0012 17.1221 37.8291 16.5636 37.5369C16.3881 37.4456 16.2055 37.3987 16.0158 37.3963C15.4313 37.3855 14.8165 37.3855 14.1715 37.3963C14.1364 37.3968 14.103 37.4112 14.0783 37.4365C14.0537 37.4618 14.0399 37.496 14.0399 37.5315L14.0328 38.5089Z" fill="#58595B"/>
<path d="M32.4488 36.1694L31.1576 36.1671C31.1105 36.1671 31.0722 36.2057 31.0721 36.2535L31.0703 37.3031C31.0702 37.3509 31.1084 37.3897 31.1555 37.3898L32.4467 37.392C32.4939 37.3921 32.5322 37.3534 32.5323 37.3056L32.5341 36.2561C32.5341 36.2083 32.496 36.1695 32.4488 36.1694Z" fill="#58595B"/>
<path d="M67.6369 42.6513L65.9456 43.5637C65.9352 43.5693 65.9236 43.5719 65.9119 43.5711C65.9003 43.5703 65.889 43.5662 65.8796 43.5592C65.8701 43.5522 65.8628 43.5427 65.8584 43.5317C65.854 43.5207 65.8528 43.5087 65.8549 43.497L66.1874 41.5729C66.1889 41.5627 66.1879 41.5522 66.1845 41.5425C66.1811 41.5327 66.1754 41.524 66.1679 41.517L64.7931 40.1862C64.7846 40.1781 64.7786 40.1679 64.7756 40.1566C64.7726 40.1452 64.7727 40.1333 64.7761 40.122C64.7794 40.1108 64.7857 40.1007 64.7944 40.0929C64.8031 40.0852 64.8137 40.08 64.8251 40.078L66.7174 39.784C66.7273 39.7825 66.7366 39.7786 66.7447 39.7726C66.7527 39.7667 66.7592 39.7588 66.7637 39.7498L67.612 38.024C67.6173 38.0138 67.6252 38.0053 67.6349 37.9993C67.6447 37.9934 67.6558 37.9902 67.6672 37.9902C67.6785 37.9902 67.6897 37.9934 67.6994 37.9993C67.7091 38.0053 67.717 38.0138 67.7223 38.024L68.5831 39.7606C68.5875 39.7697 68.5941 39.7775 68.6021 39.7834C68.6102 39.7894 68.6195 39.7933 68.6293 39.7949L70.4915 40.0708C70.5026 40.0727 70.5131 40.0778 70.5217 40.0853C70.5302 40.0929 70.5366 40.1027 70.5401 40.1136C70.5436 40.1246 70.544 40.1363 70.5414 40.1475C70.5388 40.1587 70.5332 40.1689 70.5252 40.1772L69.1665 41.5495C69.1593 41.5566 69.1539 41.5654 69.1508 41.5752C69.1477 41.5849 69.1469 41.5953 69.1487 41.6054L69.4777 43.4916C69.4798 43.5033 69.4785 43.5153 69.4742 43.5263C69.4698 43.5373 69.4624 43.5468 69.453 43.5538C69.4435 43.5607 69.4323 43.5649 69.4206 43.5657C69.409 43.5665 69.3973 43.5639 69.387 43.5583L67.6938 42.6513C67.685 42.6467 67.6753 42.6443 67.6654 42.6443C67.6555 42.6443 67.6457 42.6467 67.6369 42.6513Z" fill="#FBBC05"/>
<path d="M58.8385 39.7605L59.7028 38.0041C59.7072 37.995 59.714 37.9873 59.7225 37.9819C59.731 37.9765 59.7408 37.9736 59.7508 37.9736C59.7609 37.9736 59.7707 37.9765 59.7792 37.9819C59.7877 37.9873 59.7945 37.995 59.7989 38.0041L60.6597 39.7569C60.6635 39.7645 60.669 39.7711 60.6758 39.7761C60.6826 39.7811 60.6905 39.7844 60.6988 39.7858L62.6231 40.0797C62.6328 40.0814 62.6419 40.0857 62.6493 40.0923C62.6567 40.0988 62.6622 40.1074 62.6652 40.1169C62.6681 40.1264 62.6684 40.1365 62.666 40.1462C62.6636 40.1559 62.6586 40.1647 62.6516 40.1717L61.2519 41.5187C61.2455 41.5249 61.2406 41.5325 61.2378 41.541C61.235 41.5495 61.2344 41.5586 61.2359 41.5674L61.5703 43.5114C61.5716 43.5211 61.5703 43.531 61.5665 43.54C61.5626 43.5491 61.5565 43.5569 61.5486 43.5626C61.5407 43.5684 61.5315 43.5719 61.5218 43.5727C61.5122 43.5735 61.5025 43.5716 61.4938 43.5673L59.7811 42.6494C59.7734 42.6453 59.7648 42.6431 59.7562 42.6431C59.7475 42.6431 59.7389 42.6453 59.7313 42.6494L58.0061 43.5745C57.9973 43.579 57.9874 43.5809 57.9775 43.58C57.9677 43.5791 57.9583 43.5755 57.9503 43.5695C57.9424 43.5635 57.9363 43.5554 57.9326 43.5461C57.929 43.5368 57.9279 43.5266 57.9296 43.5168L58.2711 41.5909C58.2728 41.5822 58.2725 41.5732 58.27 41.5647C58.2675 41.5562 58.263 41.5485 58.2569 41.5422L56.8732 40.1681C56.8661 40.161 56.8612 40.152 56.8589 40.1422C56.8566 40.1324 56.857 40.1221 56.8602 40.1126C56.8633 40.103 56.869 40.0945 56.8767 40.0881C56.8843 40.0817 56.8936 40.0775 56.9034 40.0761L58.7993 39.7894C58.8076 39.788 58.8155 39.7847 58.8223 39.7797C58.8291 39.7747 58.8346 39.7681 58.8385 39.7605Z" fill="#FBBC05"/>
<path d="M80.669 40.0669L82.5435 39.7892C82.5545 39.7876 82.5649 39.7833 82.5739 39.7767C82.5828 39.7701 82.5901 39.7614 82.5951 39.7514L83.431 38.0256C83.4367 38.0138 83.4456 38.0039 83.4566 37.997C83.4676 37.99 83.4803 37.9863 83.4933 37.9863C83.5062 37.9863 83.5189 37.99 83.5299 37.997C83.5409 38.0039 83.5498 38.0138 83.5555 38.0256L84.4039 39.7604C84.4089 39.7704 84.4161 39.7791 84.4251 39.7857C84.4341 39.7923 84.4445 39.7966 84.4554 39.7983L86.3193 40.0633C86.3319 40.0655 86.3436 40.0711 86.3532 40.0796C86.3627 40.0881 86.3698 40.099 86.3737 40.1113C86.3776 40.1236 86.378 40.1367 86.375 40.1493C86.372 40.1618 86.3657 40.1732 86.3567 40.1824L84.9997 41.5348C84.9915 41.5425 84.9853 41.5521 84.9816 41.5628C84.9779 41.5735 84.9768 41.5849 84.9783 41.5961L85.2967 43.4733C85.2989 43.4864 85.2975 43.4998 85.2926 43.512C85.2877 43.5242 85.2794 43.5348 85.2689 43.5425C85.2583 43.5502 85.2458 43.5548 85.2328 43.5556C85.2197 43.5565 85.2068 43.5536 85.1953 43.5473L83.5217 42.6492C83.5118 42.644 83.5008 42.6413 83.4897 42.6413C83.4786 42.6413 83.4676 42.644 83.4577 42.6492L81.7734 43.5617C81.7619 43.5677 81.7489 43.5702 81.736 43.5691C81.7231 43.5679 81.7107 43.5632 81.7004 43.5553C81.69 43.5474 81.682 43.5367 81.6773 43.5245C81.6726 43.5122 81.6714 43.4989 81.6738 43.486L82.0189 41.5925C82.0213 41.5809 82.0207 41.5689 82.0173 41.5575C82.0139 41.5462 82.0077 41.5359 81.9993 41.5276L80.6316 40.186C80.6226 40.1768 80.6163 40.1654 80.6133 40.1529C80.6103 40.1403 80.6107 40.1272 80.6146 40.1149C80.6184 40.1027 80.6256 40.0917 80.6352 40.0832C80.6447 40.0748 80.6564 40.0691 80.669 40.0669Z" fill="#FBBC05"/>
<path d="M90.4997 39.7585L91.3534 38.031C91.3591 38.0192 91.368 38.0093 91.379 38.0023C91.39 37.9954 91.4027 37.9917 91.4157 37.9917C91.4286 37.9917 91.4413 37.9954 91.4523 38.0023C91.4633 38.0093 91.4722 38.0192 91.4779 38.031L92.3031 39.7513C92.3079 39.7617 92.3151 39.7707 92.3241 39.7776C92.3331 39.7846 92.3436 39.7891 92.3547 39.791L94.2293 40.0669C94.2422 40.0688 94.2543 40.0744 94.2642 40.083C94.2741 40.0916 94.2814 40.1028 94.2853 40.1154C94.2892 40.1281 94.2895 40.1415 94.2862 40.1543C94.2829 40.1671 94.2761 40.1787 94.2666 40.1877L92.8918 41.5185C92.8834 41.5268 92.8772 41.5371 92.8738 41.5485C92.8704 41.5598 92.8699 41.5718 92.8723 41.5835L93.2226 43.4859C93.2253 43.4991 93.2242 43.5127 93.2194 43.5253C93.2147 43.5378 93.2065 43.5487 93.1958 43.5567C93.1852 43.5646 93.1725 43.5693 93.1593 43.5702C93.1461 43.5711 93.1329 43.5681 93.1213 43.5617L91.4406 42.651C91.4307 42.6458 91.4197 42.6431 91.4085 42.6431C91.3974 42.6431 91.3864 42.6458 91.3765 42.651L89.6923 43.5617C89.6808 43.568 89.6678 43.5709 89.6548 43.57C89.6418 43.5692 89.6293 43.5646 89.6187 43.5569C89.6081 43.5492 89.5999 43.5386 89.595 43.5264C89.5901 43.5141 89.5886 43.5007 89.5909 43.4877L89.9217 41.6051C89.9237 41.5942 89.9232 41.5829 89.9201 41.5723C89.917 41.5616 89.9114 41.5519 89.9039 41.5438L88.554 40.1805C88.545 40.1712 88.5387 40.1594 88.5359 40.1466C88.533 40.1338 88.5338 40.1205 88.538 40.1081C88.5423 40.0958 88.5499 40.0848 88.5599 40.0766C88.57 40.0684 88.5821 40.0631 88.5949 40.0615L90.4481 39.7964C90.4591 39.7947 90.4695 39.7904 90.4785 39.7838C90.4874 39.7772 90.4947 39.7686 90.4997 39.7585Z" fill="#FBBC05"/>
<path d="M76.5321 39.7895L78.4511 40.078C78.4636 40.0798 78.4754 40.0851 78.4851 40.0934C78.4948 40.1017 78.502 40.1126 78.5059 40.1248C78.5098 40.137 78.5102 40.1501 78.5071 40.1625C78.504 40.175 78.4976 40.1863 78.4884 40.1952L77.0763 41.5441C77.0683 41.5519 77.0624 41.5615 77.059 41.5722C77.0556 41.5829 77.0548 41.5943 77.0567 41.6054L77.4 43.4862C77.4021 43.4988 77.4007 43.5117 77.3959 43.5234C77.3911 43.5352 77.3833 43.5454 77.3731 43.5529C77.3629 43.5604 77.3509 43.5649 77.3384 43.5658C77.3259 43.5668 77.3133 43.5642 77.3022 43.5583L75.6126 42.6495C75.6026 42.6444 75.5915 42.6419 75.5803 42.6422C75.5692 42.6425 75.5582 42.6456 75.5486 42.6513L73.8785 43.5547C73.8674 43.5606 73.8548 43.5632 73.8423 43.5622C73.8298 43.5613 73.8178 43.5568 73.8076 43.5493C73.7974 43.5418 73.7895 43.5316 73.7848 43.5198C73.78 43.508 73.7786 43.4951 73.7807 43.4826L74.0937 41.5982C74.0954 41.5874 74.0944 41.5764 74.091 41.566C74.0876 41.5557 74.0819 41.5463 74.0742 41.5387L72.7207 40.1862C72.7115 40.1772 72.7051 40.1657 72.7021 40.1531C72.6991 40.1405 72.6997 40.1273 72.7038 40.1151C72.7079 40.1028 72.7153 40.092 72.7252 40.0838C72.7351 40.0756 72.7471 40.0705 72.7598 40.069L74.6344 39.7931C74.6454 39.7916 74.6559 39.7873 74.6649 39.7807C74.6738 39.7741 74.6811 39.7653 74.686 39.7552L75.5308 38.0277C75.5364 38.0163 75.545 38.0067 75.5557 38C75.5664 37.9933 75.5787 37.9897 75.5912 37.9897C75.6038 37.9897 75.6161 37.9933 75.6268 38C75.6375 38.0067 75.6461 38.0163 75.6517 38.0277L76.4805 39.7516C76.4854 39.7617 76.4926 39.7705 76.5016 39.7771C76.5106 39.7837 76.5211 39.7879 76.5321 39.7895Z" fill="#FBBC05"/>
<path d="M20.9488 41.4376C21.0353 42.3236 21.4385 42.7948 22.1582 42.8513C22.687 42.8922 23.0955 42.6902 23.3836 42.2454C23.4027 42.216 23.4288 42.1919 23.4596 42.1753C23.4903 42.1586 23.5247 42.1499 23.5597 42.1499H24.6232C24.6979 42.1499 24.7228 42.1859 24.6979 42.2581C24.3481 43.2667 23.6272 43.8101 22.5352 43.8882C21.1065 43.9916 20.1526 43.4242 19.6736 42.1859C18.9728 40.3736 20.0204 38.2404 22.0212 38.0997C23.8371 37.9699 24.9611 39.4594 24.8206 41.1977C24.8171 41.2374 24.7957 41.2572 24.7566 41.2572L21.1089 41.259C20.9903 41.259 20.9369 41.3185 20.9488 41.4376ZM20.9861 40.3899L23.3089 40.3863C23.3178 40.3863 23.3264 40.3826 23.3328 40.3762C23.3391 40.3698 23.3427 40.3611 23.3427 40.352V40.3213C23.3425 40.1668 23.3113 40.0138 23.2511 39.8711C23.1909 39.7284 23.1028 39.5989 22.9918 39.4898C22.8808 39.3808 22.7491 39.2944 22.6042 39.2357C22.4593 39.1769 22.3042 39.1469 22.1475 39.1474H22.1404C21.8247 39.1484 21.5222 39.2729 21.2995 39.4937C21.0767 39.7145 20.9519 40.0134 20.9523 40.3249V40.3556C20.9523 40.3647 20.9559 40.3734 20.9622 40.3798C20.9686 40.3862 20.9772 40.3899 20.9861 40.3899Z" fill="#58595B"/>
<path d="M34.8269 41.3454C34.866 42.1875 35.2306 42.8024 36.0558 42.8511C36.5799 42.8824 36.9818 42.6798 37.2617 42.2434C37.2802 42.2147 37.3056 42.191 37.3354 42.1747C37.3652 42.1583 37.3985 42.1497 37.4324 42.1496H38.496C38.5754 42.1496 38.6015 42.1875 38.5742 42.2632C38.3561 42.8692 38.033 43.2905 37.6049 43.5273C36.2835 44.2595 34.384 43.9782 33.6851 42.4814C33.263 41.575 33.2381 40.6698 33.6104 39.7657C33.8843 39.1033 34.3075 38.632 34.8802 38.3519C35.6717 37.966 36.8633 37.9823 37.5925 38.5395C38.3691 39.1298 38.7414 39.9965 38.7094 41.1398C38.707 41.218 38.6673 41.257 38.5902 41.257L34.9087 41.2588C34.8518 41.2588 34.8245 41.2877 34.8269 41.3454ZM34.9105 40.056C34.901 40.1077 34.8743 40.145 34.8304 40.1678C34.7783 40.1943 34.77 40.231 34.8055 40.2778C34.8601 40.35 34.933 40.386 35.0243 40.386C35.6764 40.3872 36.3481 40.3908 37.0394 40.3969C37.2089 40.3981 37.2629 40.3187 37.2012 40.1588C37.1206 39.9508 37.034 39.7537 36.9415 39.5674C36.8336 39.3498 36.6605 39.2241 36.4222 39.1905C35.5412 39.0642 35.0373 39.3528 34.9105 40.056Z" fill="#58595B"/>
<path d="M49.3632 39.7711C49.3823 39.8522 49.4215 39.927 49.4772 39.9885C49.533 40.0501 49.6033 40.0962 49.6815 40.1227C50.1617 40.2874 50.6656 40.4202 51.1933 40.5212C52.095 40.6943 52.8882 41.2516 52.7139 42.3083C52.5882 43.0705 52.1323 43.5555 51.3462 43.7635C49.9447 44.1332 48.0133 43.8988 47.7465 42.1261C47.7299 42.0179 47.7755 41.9644 47.8834 41.9657L48.9577 41.9729C49.0762 41.9741 49.1515 42.0324 49.1835 42.1478C49.3234 42.6611 49.7467 42.8943 50.4534 42.8475C51.0279 42.8078 51.7304 42.0414 50.9194 41.7042C50.4712 41.5166 49.9625 41.3682 49.3934 41.2588C48.5877 41.1037 47.8016 40.6691 47.8817 39.7097C48.015 38.103 49.8398 37.9317 51.0528 38.1806C51.9159 38.3573 52.4264 38.8706 52.5841 39.7206C52.5872 39.7373 52.5867 39.7545 52.5825 39.771C52.5783 39.7874 52.5706 39.8028 52.5599 39.8159C52.5492 39.829 52.5358 39.8395 52.5206 39.8467C52.5054 39.8539 52.4888 39.8577 52.472 39.8576L51.2697 39.854C51.2514 39.854 51.2332 39.8503 51.2162 39.8431C51.1993 39.836 51.1839 39.8254 51.171 39.8122C51.1581 39.7989 51.1479 39.7832 51.1411 39.7659C51.1342 39.7487 51.1308 39.7302 51.131 39.7116C51.1452 38.9812 49.1533 38.8856 49.3632 39.7711Z" fill="#58595B"/>
<path d="M27.7185 41.8395L28.7749 38.3357C28.7792 38.3214 28.7879 38.3089 28.7998 38.3002C28.8117 38.2914 28.826 38.2868 28.8407 38.287L30.1586 38.3086C30.1692 38.3089 30.1795 38.3117 30.1888 38.3168C30.1981 38.3219 30.2061 38.3291 30.2121 38.3378C30.2182 38.3466 30.2221 38.3567 30.2236 38.3673C30.2252 38.3779 30.2242 38.3887 30.2209 38.3988L28.453 43.6842C28.4485 43.6978 28.44 43.7097 28.4285 43.7181C28.417 43.7265 28.4032 43.7311 28.389 43.7311L26.8417 43.7275C26.8275 43.7275 26.8137 43.7229 26.8022 43.7145C26.7907 43.7061 26.7821 43.6942 26.7777 43.6806L24.9849 38.3699C24.9815 38.3597 24.9806 38.3487 24.9822 38.338C24.9838 38.3273 24.9879 38.3171 24.9942 38.3083C25.0004 38.2995 25.0087 38.2923 25.0182 38.2873C25.0277 38.2824 25.0382 38.2798 25.0489 38.2798L26.4557 38.2816C26.4701 38.2817 26.4841 38.2865 26.4956 38.2953C26.5071 38.304 26.5156 38.3163 26.5198 38.3303L27.5887 41.8395C27.5927 41.8537 27.6013 41.8663 27.613 41.8752C27.6247 41.8841 27.6389 41.8889 27.6536 41.8889C27.6682 41.8889 27.6825 41.8841 27.6942 41.8752C27.7059 41.8663 27.7144 41.8537 27.7185 41.8395Z" fill="#58595B"/>
<path d="M32.4471 38.2783H31.1559C31.1097 38.2783 31.0723 38.3163 31.0723 38.3631V43.6431C31.0723 43.6899 31.1097 43.7278 31.1559 43.7278H32.4471C32.4932 43.7278 32.5307 43.6899 32.5307 43.6431V38.3631C32.5307 38.3163 32.4932 38.2783 32.4471 38.2783Z" fill="#58595B"/>
<path d="M42.5207 38.2729L43.8795 38.2766C43.8935 38.2766 43.9071 38.2814 43.918 38.2902C43.929 38.2991 43.9367 38.3114 43.9399 38.3252L44.7847 41.7839C44.7878 41.7977 44.7954 41.81 44.8062 41.8189C44.8171 41.8278 44.8306 41.8328 44.8445 41.833C44.8584 41.8332 44.872 41.8287 44.8831 41.8201C44.8942 41.8115 44.9022 41.7994 44.9057 41.7857L45.8287 38.3216C45.8323 38.3081 45.8401 38.2962 45.8511 38.2877C45.862 38.2792 45.8754 38.2747 45.8892 38.2748L47.2764 38.2838C47.2862 38.2836 47.2959 38.2858 47.3046 38.2902C47.3134 38.2945 47.321 38.3009 47.3269 38.3088C47.3328 38.3167 47.3368 38.3259 47.3385 38.3357C47.3403 38.3454 47.3397 38.3554 47.3369 38.3649L45.6722 43.6882C45.6683 43.7014 45.6603 43.7129 45.6494 43.721C45.6385 43.7292 45.6253 43.7335 45.6117 43.7333L44.1889 43.7279C44.1751 43.7279 44.1617 43.7234 44.1508 43.7149C44.1399 43.7064 44.132 43.6945 44.1285 43.681L43.2339 40.2349C43.2305 40.2212 43.2228 40.209 43.2118 40.2003C43.2009 40.1915 43.1873 40.1868 43.1734 40.1868C43.1594 40.1868 43.1459 40.1915 43.1349 40.2003C43.124 40.209 43.1162 40.2212 43.1129 40.2349L42.2735 43.681C42.2702 43.6948 42.2625 43.7072 42.2516 43.716C42.2406 43.7248 42.227 43.7296 42.213 43.7297H40.7635C40.7502 43.73 40.7371 43.7259 40.7262 43.7181C40.7153 43.7103 40.7072 43.6992 40.703 43.6864L39.0383 38.3613C39.0352 38.3517 39.0344 38.3415 39.0359 38.3315C39.0375 38.3215 39.0414 38.3121 39.0473 38.3039C39.0533 38.2958 39.061 38.2892 39.07 38.2848C39.0789 38.2803 39.0888 38.2781 39.0988 38.2784L40.5305 38.282C40.5443 38.2819 40.5577 38.2865 40.5686 38.2949C40.5796 38.3034 40.5874 38.3154 40.591 38.3289L41.5194 41.8236C41.5229 41.8373 41.5308 41.8494 41.5419 41.858C41.553 41.8665 41.5666 41.8711 41.5805 41.8709C41.5945 41.8707 41.6079 41.8657 41.6188 41.8568C41.6296 41.8479 41.6372 41.8356 41.6403 41.8218L42.4602 38.3216C42.4634 38.3078 42.4711 38.2955 42.4821 38.2866C42.4931 38.2778 42.5067 38.273 42.5207 38.2729Z" fill="#58595B"/>
<path d="M14.0322 40.8066C14.0868 41.0988 14.0921 41.3951 14.0482 41.6957L14.0322 40.8066Z" fill="#34A853"/>
</g>
<defs>
<clipPath id="clip0_1669_24041">
<rect width="106" height="44" fill="white"/>
</clipPath>
</defs>
</svg>
