<svg width="36" height="30" viewBox="0 0 36 30" fill="none" xmlns="http://www.w3.org/2000/svg">
<path fill-rule="evenodd" clip-rule="evenodd" d="M10.8 6C12.06 6 12.06 7.8 10.8 7.8C9.53998 7.8 9.53998 6 10.8 6Z" fill="#FDFADC"/>
<path fill-rule="evenodd" clip-rule="evenodd" d="M23.4 5.9999H14.4C13.86 5.9999 13.5 6.3599 13.5 6.8999C13.5 7.4399 13.86 7.7999 14.4 7.7999H23.4C23.94 7.7999 24.3 7.4399 24.3 6.8999C24.3 6.3599 23.94 5.9999 23.4 5.9999ZM15.3 5.9999H18.9C17.64 5.9999 17.64 4.1999 18.72 4.1999H19.8C20.34 4.1999 20.7 3.8399 20.7 3.2999C20.7 2.7599 20.34 2.3999 19.8 2.3999H10.8C10.26 2.3999 9.90002 2.7599 9.90002 3.2999C9.90002 3.8399 10.26 4.1999 10.8 4.1999H15.3C16.38 4.1999 16.38 5.9999 15.3 5.9999ZM25.2 2.3999H23.4C22.86 2.3999 22.5 2.7599 22.5 3.2999C22.5 3.8399 22.86 4.1999 23.4 4.1999H25.2C25.74 4.1999 26.1 3.8399 26.1 3.2999C26.1 2.7599 25.74 2.3999 25.2 2.3999Z" fill="#FDFADC"/>
<path d="M9 16.8002L9.36 11.2202C9.36 10.8602 9.72 10.6802 10.08 10.6802H12.96C13.32 10.6802 13.68 10.8602 13.68 11.2202L13.86 16.8002" stroke="#FCF9DB" stroke-width="1.5" stroke-miterlimit="10"/>
<path d="M28.62 14.9999L25.38 17.3399C25.02 17.6999 24.3 17.3399 24.3 16.7999V15.3599C24.3 14.8199 23.58 14.4599 23.22 14.8199L19.98 17.1599C19.62 17.5199 18.9 17.1599 18.9 16.6199V14.9999C18.9 14.4599 18.36 14.0999 17.82 14.4599L14.22 16.7999H8.99998C8.45998 16.7999 8.09998 17.1599 8.09998 17.6999V27.5999C8.09998 28.1399 8.45998 28.4999 8.99998 28.4999H28.98C29.34 28.4999 29.7 28.1399 29.7 27.7799V15.3599C29.7 14.8199 28.98 14.6399 28.62 14.9999Z" stroke="#FCF9DB" stroke-width="1.5" stroke-miterlimit="10"/>
<path d="M17.1 20.3999H18.9V22.1999H17.1V20.3999ZM20.7 20.3999H22.5V22.1999H20.7V20.3999ZM24.3 20.3999H26.1V22.1999H24.3V20.3999ZM17.1 23.9999H18.9V25.7999H17.1V23.9999ZM20.7 23.9999H22.5V25.7999H20.7V23.9999ZM24.3 23.9999H26.1V25.7999H24.3V23.9999Z" fill="#FDFADC"/>
</svg>
