<svg width="152" height="80" viewBox="0 0 152 80" fill="none" xmlns="http://www.w3.org/2000/svg">
<g clip-path="url(#clip0_2742_31010)">
<path d="M57.0017 0H58.0876L63.5479 2.15493C63.6525 2.19718 63.7034 2.27324 63.7006 2.3831L63.497 19.5493C63.497 19.5662 63.4885 19.5803 63.4715 19.5831C63.4546 19.5859 63.4404 19.5746 63.4376 19.5577L57.0017 0ZM63.3075 2.52394C63.3075 2.48732 63.2849 2.45634 63.251 2.44225L57.6351 0.264789C57.5899 0.247887 57.539 0.270423 57.522 0.312676C57.5135 0.332394 57.5135 0.352113 57.522 0.371831L62.9738 16.9324C62.9908 16.9775 63.0417 17 63.0869 16.9831C63.1209 16.9718 63.1407 16.9408 63.1435 16.907L63.3103 2.52394H63.3075Z" fill="#232323"/>
<path d="M151.693 49.4057V50.6423C151.334 52.1353 150.607 53.4282 149.51 54.5212C149.439 54.5916 149.394 54.6789 149.374 54.7775L149.072 56.262C149.052 56.3578 149.083 56.4339 149.162 56.4874C151.806 58.2733 152.03 61.3353 151.159 64.1972C149.685 69.0367 145.684 72.0367 140.837 73.048C139.82 73.2592 138.092 73.3803 135.654 73.4057C120.354 73.5606 105.03 73.955 89.7633 75.0508C85.0891 75.386 79.8804 76.0339 74.1402 76.9916C71.8865 77.3663 70.0004 78.2423 68.4763 79.617C68.4621 79.6311 68.4565 79.6451 68.465 79.6648L68.5017 79.7691C68.5272 79.8367 68.5074 79.8874 68.4452 79.9212L68.3123 80.0001H67.9135L67.9305 79.6958C67.9333 79.6085 67.8994 79.5381 67.8287 79.4846C63.0979 76.0733 57.7366 73.2649 52.6213 70.4902C52.5477 70.4508 52.4572 70.4761 52.4205 70.5494C52.4205 70.5494 52.4205 70.5494 52.4205 70.5522C50.7182 73.9381 48.5182 77.493 44.6019 78.5888C41.9862 79.3212 38.986 78.5944 36.9727 76.7888C35.0244 75.0423 34.391 72.6987 35.0753 69.755C35.0979 69.6564 35.0583 69.6085 34.9565 69.6141C33.3391 69.7127 31.7725 69.4818 30.2597 68.9212C30.172 68.8874 30.0844 68.8874 29.9967 68.9212C25.0906 70.7663 21.3524 68.6958 17.3879 66.0339C17.3031 65.9775 17.2239 65.9832 17.1504 66.0536C15.1399 67.8874 12.8579 69.0198 10.2988 69.4479C5.49738 70.2508 1.63472 68.3099 0.695923 63.2705V61.4001C1.71107 55.7353 6.80662 52.9606 12.2556 53.2564C12.3659 53.262 12.4507 53.217 12.5073 53.124L12.9088 52.4536C12.9626 52.3663 12.9484 52.2874 12.8692 52.2226C9.8662 49.7268 10.0839 45.4987 13.0955 43.1268C13.6469 42.693 14.7864 41.8789 16.5142 40.6818C16.6018 40.6226 16.6753 40.6339 16.7404 40.7184L17.9987 42.4142C18.0609 42.4987 18.1825 42.5184 18.2673 42.4536C18.29 42.4367 18.3098 42.4141 18.3239 42.3888C20.3966 38.3719 24.559 35.8987 29.1003 37.3972C29.188 37.4254 29.2361 37.3972 29.2445 37.3043C29.7903 31.4818 32.3324 26.7353 36.8652 23.0705C39.4328 20.9944 42.252 19.5071 45.3201 18.6085C45.5605 18.5381 45.5859 18.4226 45.3964 18.262C41.9495 15.2874 38.5308 12.2451 35.146 9.13246C30.6075 4.96063 35.8162 0.360631 39.8541 4.51274C43.7564 8.52683 47.6558 12.5409 51.5496 16.5606C51.6146 16.6282 51.6966 16.662 51.7927 16.6649C60.0836 16.8029 67.0709 21.8311 70.6875 29.0536C70.7299 29.1409 70.795 29.1606 70.8798 29.1156C73.8546 27.5381 76.8293 25.955 79.8041 24.3663C82.0012 23.1944 85.1824 20.6818 87.1844 23.6339C88.2165 25.1578 86.7829 27.093 85.4001 27.7043C81.1331 29.5972 76.8548 31.4705 72.5708 33.3268C72.4916 33.3606 72.4492 33.448 72.4746 33.5296C73.8574 38.1888 73.8404 42.8367 72.4238 47.4705C72.4096 47.5156 72.4322 47.5409 72.4916 47.5494C72.5284 47.5522 72.5567 47.5381 72.5764 47.5043L73.0713 46.6085C73.1222 46.5156 73.2014 46.4705 73.306 46.4733L78.7465 46.4818C78.9077 46.4818 78.9247 46.4339 78.7974 46.3353C78.263 45.9212 77.5645 45.5127 77.1489 45.1663C73.3795 42.0339 73.9592 36.5691 77.5306 33.5775C78.4411 32.8141 79.7532 31.8818 81.4696 30.786C81.5488 30.7353 81.6195 30.7465 81.6789 30.817C82.7675 32.124 83.9014 33.6818 84.9562 34.7691C89.0592 39.0029 94.1293 41.3916 100.166 41.9381C100.265 41.9465 100.342 41.9099 100.393 41.8226C102.496 38.2677 105.788 36.1296 109.919 36.7663C114.554 37.4789 117.404 41.8057 115.594 46.3127C115.552 46.4226 115.589 46.4789 115.708 46.4789H120.823C120.922 46.4789 120.973 46.4254 120.973 46.3268C120.959 42.231 124.558 38.5296 128.65 38.3972C131.964 38.2902 134.642 40.7409 134.447 44.1043C134.444 44.1888 134.495 44.2677 134.574 44.2987C137.246 45.2987 138.454 47.2451 138.202 50.1353C138.191 50.2649 138.287 50.3803 138.417 50.3916C138.457 50.3944 138.499 50.3888 138.536 50.3719C138.765 50.2677 139.011 49.9888 139.138 49.7381C139.995 48.0508 141.216 46.8564 142.797 46.1494C146.159 44.6479 150.833 45.155 151.696 49.4057H151.693ZM55.9693 23.3071C50.1555 17.3099 44.3389 11.3156 38.5166 5.32964C37.821 4.61415 36.2884 4.02824 35.4203 4.69303C34.2524 5.58598 35.3213 7.21697 36.0904 7.90993C42.3058 13.493 48.5352 19.0649 54.776 24.6254C54.8495 24.6902 54.8891 24.7747 54.8919 24.8733C54.9513 26.4085 55.7572 27.462 57.304 28.0311C61.0563 29.4113 60.3381 23.3663 56.1927 23.4001C56.105 23.4001 56.0287 23.3719 55.9693 23.3071ZM69.4858 30.5437C66.4375 24.0846 60.208 19.0311 52.8333 18.9381C52.7683 18.9381 52.7174 18.9888 52.7174 19.0536C52.7174 19.0818 52.7287 19.1099 52.7457 19.1296L53.9757 20.4958C54.0408 20.5663 54.1228 20.6057 54.2161 20.6142C60.57 21.0958 65.6174 25.2705 68.1596 30.9494C68.2048 31.0508 68.2812 31.0846 68.3858 31.0508L69.4038 30.7296C69.5027 30.6987 69.5282 30.6367 69.4858 30.5437ZM40.5102 38.2789C39.4102 30.7719 42.0569 24.2649 49.2252 21.1832C49.3411 21.1353 49.3524 21.0705 49.2534 20.9888L48.0913 20.0508C48.0319 20.0029 47.9668 19.9944 47.899 20.0282C37.5128 25.0113 36.8624 38.1719 42.2011 46.8761C42.7186 47.7212 43.7818 48.1916 44.5001 48.9465C44.5764 49.0254 44.698 49.0339 44.7857 48.9691L44.9779 48.8198C45.0684 48.7494 45.0769 48.6677 45.0062 48.5803C42.5716 45.5634 41.0729 42.1296 40.5102 38.2789ZM32.5021 31.1325C32.3861 31.386 32.4512 31.448 32.7 31.3212L38.5392 28.3184C38.6326 28.2705 38.6976 28.2001 38.7372 28.1043C39.6138 25.9775 40.8382 24.217 42.4132 22.8226C42.8685 22.4198 43.2248 22.0818 43.4849 21.8085C43.5188 21.7719 43.516 21.7156 43.4793 21.6818C43.451 21.6564 43.4057 21.6508 43.3718 21.6705C41.2849 22.924 39.2264 24.2029 37.1989 25.5127C36.0933 26.2254 35.2619 26.9156 34.7049 27.5832C33.8537 28.5972 33.1213 29.7803 32.5021 31.1325ZM68.5667 33.4113C74.0271 31.0536 79.4732 28.662 84.9025 26.2395C85.7621 25.8564 86.0873 25.2282 85.8808 24.355C85.8611 24.262 85.8045 24.1832 85.7253 24.1325C84.9025 23.6198 84.2379 23.7325 83.3614 24.2001C78.2884 26.9071 73.2099 29.6085 68.1256 32.3043C68.0464 32.3465 67.9531 32.355 67.8626 32.3325C66.7485 32.0282 65.2809 32.3043 64.7606 33.4395C64.2941 34.4564 64.9501 35.1916 66.0161 35.2113C67.1387 35.2311 67.9249 34.6958 68.3773 33.6057C68.4112 33.5184 68.4791 33.448 68.5667 33.4113ZM60.635 44.9663C64.3563 43.1353 65.5948 38.0705 63.4033 33.6536C61.2119 29.2367 56.4189 27.1409 52.7004 28.9719C48.9792 30.8029 47.7406 35.8677 49.9321 40.2846C52.1236 44.7015 56.9166 46.7972 60.635 44.9663ZM37.5948 37.3071C37.3233 34.7719 37.5184 32.6987 38.1603 29.9832C38.1943 29.8395 38.1462 29.8029 38.0189 29.8733L31.9676 33.124C31.8771 33.1719 31.8206 33.248 31.798 33.3494C31.4077 35.093 31.2607 36.8564 31.354 38.6395C31.3597 38.7325 31.3936 38.8113 31.453 38.8818L32.1656 39.7268C32.2306 39.8029 32.3098 39.8226 32.4031 39.7803L37.4591 37.5381C37.5608 37.493 37.6061 37.417 37.5948 37.3071ZM69.613 34.1888C70.7158 38.2451 70.7073 42.7944 69.0814 46.7184C69.0333 46.8282 69.0644 46.9099 69.1747 46.9578L70.2068 47.4339C70.303 47.4789 70.3708 47.4536 70.4132 47.355C72.2117 43.1099 72.0675 38.0789 70.7893 33.7268C70.7582 33.617 70.6904 33.586 70.5857 33.6282L69.7035 34.0057C69.6187 34.0423 69.5875 34.1015 69.613 34.1888ZM108.466 63.5409C108.047 64.417 108.251 65.3184 109.226 65.6592C110.609 66.1437 112.608 64.7775 113.677 63.7522C115.518 61.986 117.325 60.2029 119.101 58.4029C119.115 58.3832 119.14 58.3803 119.16 58.3944C119.18 58.4085 119.183 58.4339 119.169 58.4536C118.34 59.9325 117.54 61.4113 116.768 62.8874C116.4 63.5888 116.183 64.6761 116.802 65.3212C118.171 66.7381 121.137 64.4761 122.268 63.3606C125.367 60.2987 128.401 57.2705 131.37 54.2761C131.495 54.1494 131.695 54.1494 131.823 54.2761C131.888 54.3381 131.922 54.4254 131.919 54.5156C131.899 55.0648 131.763 55.5409 131.517 55.9381C130.463 57.631 129.34 59.862 127.906 62.5719C127.448 63.4339 127.041 64.6846 127.881 65.4367C128.347 65.8508 128.938 65.9437 129.66 65.7099C131.353 65.1606 132.801 63.7494 134.218 62.3606C136.624 60.0029 139.016 57.6282 141.395 55.2367C141.505 55.1268 141.547 55.1465 141.516 55.3015L140.546 60.186C140.526 60.2874 140.464 60.3494 140.362 60.3719C139.124 60.6479 135.131 61.5296 134.602 62.7578C133.785 64.6423 135.29 65.5747 136.921 65.7099C140.416 66.0001 142.316 64.4198 143.677 61.4282C143.71 61.3522 143.775 61.293 143.857 61.2649C144.972 60.8958 146.957 60.631 146.527 62.4057C145.947 64.8001 142.885 66.4705 140.724 67.0958C139.738 67.3832 138.126 67.5353 135.895 67.555C109.605 67.7832 83.2794 68.017 56.9166 68.2564C56.8911 68.2564 56.8713 68.2761 56.8713 68.3015C56.8713 68.3184 56.8798 68.3325 56.8939 68.3409L68.103 74.8198C68.185 74.8677 68.267 74.8705 68.3518 74.8282C70.0343 74.0339 71.7281 73.4818 73.4361 73.1691C83.1436 71.3972 93.3715 70.8057 103.339 70.3634C113.867 69.893 124.397 69.6141 134.933 69.5325C136.927 69.5155 138.697 69.5127 140.657 69.0677C144.369 68.2254 147.599 65.3043 147.675 61.293C147.712 59.3296 146.007 59.186 144.519 59.4451C144.46 59.4536 144.437 59.431 144.451 59.3747L145.817 52.7268C145.831 52.6564 145.871 52.5916 145.927 52.5494C146.467 52.1156 149.058 49.5888 147.044 49.3494C144.969 49.1043 143.479 49.8508 142.577 51.5832C142.333 52.0479 142.079 52.4113 141.813 52.6733C139.308 55.1156 136.763 57.5156 134.178 59.8761C133.887 60.1437 133.59 60.3494 133.287 60.493C133.177 60.5465 133.041 60.4987 132.991 60.3888C132.962 60.3296 132.962 60.2592 132.991 60.2001C133.74 58.5353 134.58 56.9437 135.507 55.4198C135.801 54.9381 135.994 54.4592 136.087 53.9888C136.166 53.5803 135.897 53.1832 135.487 53.1043C135.451 53.0958 135.411 53.093 135.374 53.0902C134.379 53.048 133.463 52.7691 132.626 52.2508C132.555 52.2085 132.535 52.1156 132.581 52.0423C132.586 52.0339 132.595 52.0254 132.6 52.017C133.276 51.3409 135.145 49.217 133.946 48.3381C130.446 45.7719 126.312 50.6339 130.089 53.2817C130.135 53.3127 130.146 53.3775 130.115 53.4226C130.112 53.4282 130.106 53.4339 130.101 53.4395L122.553 60.4789C122.435 60.5916 122.248 60.586 122.138 60.4677C122.064 60.3888 122.039 60.2789 122.07 60.1747C122.228 59.6761 122.46 59.1465 122.763 58.5916C124.222 55.9043 125.672 53.2113 127.115 50.5127C127.168 50.4113 127.14 50.3606 127.024 50.3606H123.636C123.549 50.3606 123.484 50.4001 123.441 50.4761C122.751 51.6987 122.214 53.1325 121.205 54.1212C119.03 56.2536 116.802 58.3268 114.517 60.3409C114.458 60.3944 114.39 60.431 114.316 60.4536C114.229 60.4789 114.155 60.4958 114.09 60.5071C113.997 60.5212 113.909 60.462 113.895 60.3719C113.889 60.3437 113.895 60.3184 113.901 60.2902C114.138 59.5775 114.435 58.8958 114.794 58.2451C116.205 55.6789 117.602 53.1043 118.988 50.5156C119.041 50.4113 119.01 50.3606 118.894 50.3606H115.507C115.411 50.3606 115.34 50.4029 115.298 50.4874L114.116 52.7381C114.065 52.8367 114.017 52.8339 113.971 52.7353C113.499 51.6677 113.154 50.786 111.927 50.4423C109.882 49.8677 106.998 52.1832 105.729 53.6536C104.612 54.9494 103.678 56.2198 102.564 57.2536C101.385 58.3494 100.186 59.4254 98.9703 60.4874C98.8714 60.5747 98.7187 60.5634 98.631 60.4648C98.5858 60.4113 98.5631 60.3437 98.5745 60.2733C98.5999 60.1071 98.6706 59.9071 98.7922 59.6677C100.777 55.7634 102.791 51.8705 104.832 47.9916C104.875 47.9099 104.954 47.8592 105.044 47.8536C106.911 47.7156 110.858 46.7494 111.862 44.9437C113.573 41.8592 109.716 39.9691 107.233 40.7325C104.838 41.4677 103.662 43.8958 102.474 45.8592C102.423 45.9465 102.347 45.9888 102.248 45.986C93.6203 45.7634 86.4973 42.4733 80.873 36.1184C80.8107 36.048 80.7429 36.0395 80.6665 36.093C79.51 36.8677 78.7974 37.8677 78.5231 39.0874C78.1583 40.7184 79.0236 41.8226 80.412 42.7127C86.3446 46.5156 94.2085 47.7775 101.142 47.9437C101.261 47.9465 101.292 48.0001 101.235 48.1015L98.7102 52.7071C98.6338 52.8479 98.5745 52.8395 98.5377 52.6846C98.286 51.6001 97.695 50.8818 96.7591 50.5296C94.1208 49.5409 90.4335 53.2761 89.0281 55.1578C87.5153 57.1803 85.533 58.7944 83.5904 60.4846C83.4914 60.5691 83.3416 60.5606 83.2567 60.462C83.2058 60.4057 83.1889 60.3268 83.2058 60.2536C83.2935 59.8479 83.466 59.4141 83.7176 58.9494C84.5518 57.4085 85.369 55.8564 86.1636 54.2958C88.2561 50.1832 84.4246 49.6085 81.8429 51.2508C79.3799 52.8141 77.327 54.7494 75.6813 57.0508C75.6332 57.1156 75.5993 57.1099 75.5738 57.0339C75.5597 56.9916 75.5682 56.9437 75.5964 56.893C76.7813 54.7888 77.9378 52.6649 79.0604 50.524C79.1198 50.4141 79.0858 50.3606 78.9614 50.3606H75.5767C75.5003 50.3606 75.4437 50.3944 75.407 50.4648C74.2618 52.5916 73.1165 54.7184 71.9713 56.8423C71.533 57.6592 71.0495 58.3353 70.5207 58.8733C69.0927 60.324 67.529 61.4902 65.8323 62.3691C64.0254 63.3043 60.1345 63.4874 60.8471 60.1747C60.8669 60.0761 60.9206 60.0564 61.0026 60.1099C62.3118 60.9747 63.6493 61.0987 65.018 60.4818C67.2292 59.4874 69.9863 56.6001 70.1163 53.9465C70.2521 51.1409 67.2066 49.7381 64.8596 50.5916C62.2638 51.5381 60.3494 53.5325 58.7461 55.8282C57.3973 57.7578 55.1464 59.4226 53.4045 60.9296C53.1642 61.1381 53.1189 61.1015 53.2688 60.8198L58.7574 50.5043C58.8055 50.4085 58.7772 50.3606 58.6697 50.3606H55.2708C55.169 50.3606 55.0955 50.4057 55.0503 50.4958L53.8768 52.8001C53.823 52.9015 53.7778 52.8987 53.7382 52.7888C53.1981 51.2987 52.2763 50.0029 50.5372 50.4001C46.5049 51.3212 43.0438 56.017 41.4263 59.6902C41.2227 60.1494 40.9626 60.5127 40.6487 60.7803C39.3564 61.8705 37.377 62.9747 35.6408 62.9916C33.9499 63.0085 32.8131 62.0141 33.1751 60.2395C33.1892 60.1634 33.2316 60.1437 33.2995 60.1803C35.2308 61.1803 37.0858 60.9747 38.8673 59.5606C39.8824 58.755 40.7138 57.8592 41.3556 56.8733C42.8996 54.5071 43.0721 51.5071 39.84 50.5268C36.1046 49.3972 31.9478 54.1127 30.3869 56.9071C29.5867 58.3353 29.1201 59.9015 28.9872 61.6029C28.9787 61.6958 28.9278 61.7409 28.8345 61.7353C25.2773 61.5071 21.7426 59.7832 18.4964 58.4113C18.4087 58.3747 18.3889 58.3127 18.4314 58.231L22.3025 51.0339C22.3449 50.955 22.4241 50.9015 22.5146 50.8902C25.7636 50.4818 27.941 48.8761 29.0438 46.0733C29.4425 45.062 29.5895 44.1465 29.4877 43.3325C29.1965 41.0367 26.889 40.3972 24.969 41.1127C22.2827 42.1099 20.7331 45.9944 19.4974 48.3494C19.4522 48.4367 19.3815 48.4677 19.2853 48.4367C17.9365 48.0141 16.8196 47.2564 15.9345 46.1606C15.8525 46.062 15.7592 46.048 15.6545 46.1184C14.5941 46.8198 14.2039 48.1325 15.2219 49.0902C16.0419 49.8592 17.0175 50.3663 18.1486 50.6141C18.2504 50.6367 18.2758 50.693 18.2278 50.7832L14.6846 57.293C14.6366 57.3803 14.563 57.4141 14.4612 57.3944C11.0425 56.6395 6.09969 57.2649 4.80742 60.9803C4.03263 63.2113 5.22875 65.5634 7.69452 65.6958C11.5572 65.9015 14.054 63.9606 16.4152 61.1437C16.4802 61.0677 16.5566 61.0536 16.6442 61.1043C18.2928 62.0479 19.9187 63.0254 21.5249 64.031C24.1037 65.6451 27.4093 66.8451 29.8666 64.2367C29.9345 64.1634 30.0052 64.1634 30.0759 64.2367C30.6952 64.8564 31.3653 65.262 32.0864 65.4536C35.375 66.3296 37.9907 65.2001 40.6826 63.3381C40.759 63.2846 40.8099 63.3043 40.8297 63.3972C41.3867 65.9127 43.5782 66.1916 45.6311 65.2367C46.6011 64.786 47.4635 64.1437 48.2185 63.3071C48.2383 63.2789 48.2807 63.2705 48.309 63.2902C48.3373 63.3099 48.3458 63.3522 48.326 63.3803L47.2543 65.3719C47.2203 65.4395 47.1666 65.493 47.1016 65.5268C45.1363 66.5944 43.1739 67.6677 41.2143 68.7522C35.7228 71.7916 40.3801 76.5832 44.6019 74.4423C45.2126 74.1325 45.8545 73.5437 46.5304 72.6789C48.4532 70.2113 49.8444 67.1437 51.3629 64.4057C51.575 64.0254 51.8606 63.7043 52.2197 63.4423C53.7495 62.3325 55.2567 61.1803 56.7384 59.9888C56.8543 59.8958 56.8996 59.9212 56.8685 60.0677C56.1107 63.6057 58.2428 65.5888 61.5879 65.7381C64.1697 65.8536 66.4573 64.7634 68.465 63.231C68.4847 63.217 68.5102 63.2226 68.5243 63.2423C68.5328 63.2564 68.5356 63.2705 68.5272 63.2846L67.2632 65.5522C67.1981 65.6677 67.2349 65.7268 67.3678 65.7268H70.7413C70.8233 65.7296 70.8883 65.693 70.9307 65.6198C73.3003 61.5494 76.6851 57.431 80.593 54.7381C80.9097 54.5184 81.2575 54.417 81.6336 54.4339C81.7354 54.4395 81.8202 54.5099 81.84 54.6085C81.9192 55.0001 81.857 55.3944 81.6534 55.7888C80.412 58.186 79.1565 60.5775 77.8897 62.9578C77.4769 63.7325 77.4429 64.4958 77.7879 65.2479C77.8247 65.3268 77.8869 65.3916 77.9661 65.431C79.5128 66.2282 80.9946 65.3578 82.2189 64.3015C83.4207 63.2649 84.5942 62.186 85.7395 61.0648C85.8724 60.9353 85.9148 60.9606 85.861 61.1381C84.5603 65.6451 88.7255 66.9663 91.7399 64.4874C92.2969 64.031 92.7098 63.6846 92.9728 63.4479C93.001 63.4198 93.0491 63.4198 93.0774 63.4479C93.0972 63.4705 93.1028 63.5015 93.0915 63.5296C92.1386 66.0367 95.1133 66.1296 96.4084 65.2113C98.1418 63.9803 99.7027 62.5803 101.088 61.017C101.125 60.9775 101.187 60.9747 101.227 61.0141C101.255 61.0395 101.264 61.0789 101.255 61.1127C100.735 62.693 100.978 64.662 102.573 65.4818C104.479 66.462 106.905 64.8395 108.341 63.4536C108.375 63.4226 108.426 63.4254 108.457 63.4592C108.477 63.4818 108.483 63.5156 108.471 63.5465L108.466 63.5409ZM32.8866 41.0198C33.455 42.9296 33.5681 44.5212 33.0393 46.4564C33.0139 46.555 33.0195 46.6508 33.0563 46.7437L33.5229 47.8648C33.554 47.9353 33.636 47.9719 33.7067 47.9409C33.7123 47.9409 33.718 47.9353 33.7236 47.9325C35.0442 47.1409 36.4665 46.662 37.9907 46.493C38.7202 46.4113 39.5572 46.5578 40.3744 46.6001C40.4451 46.6029 40.5073 46.5494 40.5102 46.4761C40.5102 46.4536 40.5073 46.431 40.496 46.4113C39.2942 44.0339 38.4205 41.5409 37.8719 38.9353C37.8464 38.8141 37.7786 38.7775 37.6655 38.8254L32.9941 40.7944C32.8923 40.8395 32.8555 40.9156 32.8866 41.0198ZM130.259 42.862C129.546 41.9691 127.841 42.1381 126.453 43.2395C125.064 44.3409 124.513 45.9578 125.226 46.8479C125.938 47.7409 127.643 47.5719 129.032 46.4705C130.42 45.3691 130.972 43.7522 130.259 42.862Z" fill="#232323"/>
<path d="M38.1012 5.77229C36.9616 6.25116 36.7722 7.22299 37.4622 8.20891C37.5498 8.33567 37.5244 8.36384 37.3886 8.29342C36.5064 7.84835 35.7146 6.58919 36.4046 5.65961C36.4611 5.58356 36.5347 5.53849 36.628 5.51877C37.12 5.41736 37.6092 5.45398 38.0984 5.62863C38.2256 5.6737 38.2256 5.72159 38.0984 5.77229H38.1012Z" fill="#232323"/>
<path d="M74.4003 10.1296L67.6647 20.6C67.5771 20.7408 67.5459 20.7296 67.5742 20.5662L69.9297 7.05068C69.9495 6.93519 70.0089 6.90984 70.1079 6.97744L74.3579 9.92955C74.423 9.97463 74.4427 10.0619 74.4003 10.1296ZM73.914 10.1859C73.9422 10.1436 73.9309 10.0873 73.8885 10.0591L70.3595 7.61406C70.3171 7.58589 70.2577 7.59716 70.2294 7.63941C70.221 7.65068 70.2181 7.66195 70.2153 7.67322L68.3038 18.5831C68.2896 18.6338 68.3207 18.6845 68.3688 18.6958C68.4112 18.707 68.4536 18.6873 68.4763 18.6507L73.914 10.1859Z" fill="#232323"/>
<path d="M76.9175 21.324L69.4099 24.6479C69.3675 24.6648 69.3166 24.6451 69.2996 24.6001C69.2883 24.5719 69.2939 24.5409 69.3109 24.5184L75.1501 17.1071C75.1784 17.0705 75.2321 17.0648 75.2689 17.093C75.2802 17.1015 75.2887 17.1127 75.2943 17.1268L76.9627 21.2141C76.9797 21.2564 76.9627 21.3071 76.9175 21.324ZM76.4169 21.1296C76.4622 21.1099 76.4848 21.0564 76.4678 21.0085L75.1982 17.8846C75.1784 17.8367 75.1219 17.8141 75.0738 17.8339C75.0596 17.8395 75.0455 17.8508 75.0342 17.862L70.5523 23.5409C70.5183 23.5832 70.5268 23.6423 70.5664 23.6761C70.5947 23.6986 70.6343 23.7043 70.6682 23.6874L76.4169 21.1296Z" fill="#232323"/>
<path d="M84.3911 25.4677C84.3034 24.9635 83.8086 24.8367 83.3505 24.9297C83.178 24.9635 83.1582 24.9212 83.2883 24.8057C84.0829 24.1043 85.3214 24.1719 84.9482 25.6339C84.9142 25.7776 84.7672 25.8649 84.6202 25.8283C84.541 25.8085 84.4759 25.755 84.442 25.6818C84.425 25.6452 84.4081 25.5747 84.3911 25.4677Z" fill="#232323"/>
<path d="M59.2724 26.7408C58.2204 28.6 56.4701 27.2422 55.7745 26.0253C55.766 26.0056 55.7745 25.9831 55.7971 25.9746C55.8112 25.969 55.8254 25.9718 55.8367 25.9802C56.784 26.9971 57.9066 27.2281 59.2073 26.6704C59.2978 26.6309 59.3204 26.6535 59.2724 26.7408Z" fill="#232323"/>
<path d="M60.0948 43.8756C56.8854 45.4559 52.7512 43.6446 50.8567 39.8306C48.9649 36.0165 50.031 31.6418 53.2404 30.0644C56.4499 28.4841 60.584 30.2953 62.4786 34.1094C64.3703 37.9235 63.3043 42.2982 60.0948 43.8756ZM58.7516 41.132C60.6915 40.1686 61.3277 37.5263 60.1796 35.2277C59.0288 32.9291 56.5262 31.8475 54.5864 32.808C52.6466 33.7714 52.0104 36.4137 53.1584 38.7122C54.3093 41.0108 56.8118 42.0925 58.7516 41.132Z" fill="#232323"/>
<path d="M66.6326 32.7182C66.101 32.9718 65.1368 33.7351 65.3884 34.4394C65.4252 34.5408 65.3941 34.5689 65.2979 34.521C65.0689 34.4112 64.9586 34.2365 64.9728 33.9971C65.0095 33.3408 66.036 32.8168 66.6044 32.645C66.6241 32.6394 66.6468 32.6506 66.6524 32.6732C66.6581 32.6901 66.6496 32.7098 66.6326 32.7182Z" fill="#232323"/>
<path d="M106.054 45.6903C106.501 44.8452 107.635 42.0678 108.763 42.1128C109.329 42.1354 109.614 42.6368 109.563 43.1748C109.405 44.8621 107.584 45.5607 106.136 45.803C106.094 45.8086 106.051 45.7805 106.046 45.7382C106.046 45.7213 106.046 45.7044 106.054 45.6903Z" fill="#232323"/>
<path d="M23.6372 48.4085C24.3356 47.0479 24.9209 45.9212 25.396 45.0282C25.659 44.5353 26.1906 43.6817 26.824 43.8395C27.0559 43.8986 27.1888 44.0733 27.2227 44.3634C27.4489 46.3014 25.3705 48.0536 23.6881 48.4733C23.6258 48.4874 23.6089 48.4676 23.6372 48.4085Z" fill="#232323"/>
<path d="M39.5881 53.499C39.4383 55.3864 36.537 58.9835 34.2042 58.0343C34.1109 57.9976 34.0656 57.8934 34.1024 57.7976C34.1052 57.7892 34.108 57.7807 34.1137 57.7751C35.0355 56.1075 37.0771 53.4089 39.0424 53.0173C39.2912 52.9695 39.5316 53.1272 39.5797 53.3723C39.5881 53.4145 39.591 53.4568 39.5881 53.499Z" fill="#232323"/>
<path d="M50.4424 58.592C52.1748 56.1635 52.9188 53.7273 52.1041 53.1505C51.2894 52.5738 49.2245 54.0748 47.4921 56.5033C45.7596 58.9317 45.0157 61.368 45.8304 61.9447C46.6451 62.5215 48.71 61.0204 50.4424 58.592Z" fill="#232323"/>
<path d="M67.1419 54.2617C66.5254 55.7716 63.7825 59.2476 61.8371 57.9518C61.7551 57.8983 61.7381 57.8279 61.7862 57.7406C62.872 55.8448 64.4244 53.9237 66.4887 53.0166C66.6357 52.9518 66.8082 52.9687 66.9411 53.0589C67.3002 53.3068 67.3681 53.7068 67.1419 54.2617Z" fill="#232323"/>
<path d="M95.3027 58.5929C97.0378 56.1606 97.784 53.7213 96.9693 53.1446C96.1546 52.5678 94.0875 54.072 92.3523 56.5042C90.6172 58.9365 89.871 61.3758 90.6857 61.9525C91.5005 62.5293 93.5675 61.0251 95.3027 58.5929Z" fill="#232323"/>
<path d="M110.676 58.5913C112.41 56.1603 113.156 53.722 112.341 53.1453C111.526 52.5685 109.46 54.0716 107.726 56.5026C105.992 58.9336 105.246 61.3719 106.061 61.9486C106.876 62.5254 108.942 61.0223 110.676 58.5913Z" fill="#232323"/>
<path d="M7.87794 63.0532C7.08335 62.7011 7.23039 61.7687 7.66586 61.1743C8.76018 59.6701 10.9121 59.5631 12.5748 59.8814C12.6851 59.9011 12.7048 59.9574 12.6398 60.0448C11.8367 61.1321 9.43884 63.7405 7.87794 63.0532Z" fill="#232323"/>
<path d="M139.313 62.524C139.393 62.5015 139.412 62.524 139.37 62.5972C138.971 63.3155 138.428 63.8817 137.735 64.2902C137.518 64.4169 137.241 64.3465 137.111 64.1296C137.099 64.1071 137.088 64.0874 137.079 64.0648C136.763 63.2451 138.762 62.6902 139.313 62.524Z" fill="#232323"/>
<path d="M45.7948 68.1406C44.9126 69.8505 44.1463 71.2955 43.4931 72.4814C43.1509 73.1012 42.1471 73.8364 41.5674 73.0843C40.4561 71.6336 44.7033 68.7716 45.7326 68.0871C45.8231 68.0279 45.8429 68.0448 45.7948 68.1406Z" fill="#232323"/>
</g>
<defs>
<clipPath id="clip0_2742_31010">
<rect width="151" height="80" fill="white" transform="translate(0.693115)"/>
</clipPath>
</defs>
</svg>
