<svg width="1077" height="403" viewBox="0 0 1077 403" fill="none" xmlns="http://www.w3.org/2000/svg">
<path d="M36.61 0H1037.49C1052.07 3.57333 1062.61 11.4467 1069.11 23.62C1073.06 31.02 1075.03 38.9833 1075.03 47.51C1074.98 146.903 1074.98 246.853 1075.05 347.36C1075.06 355.127 1074.59 360.87 1073.64 364.59C1068.22 385.93 1049.58 401.03 1027.38 401.02C702.987 400.98 378.47 400.99 53.83 401.05C45.3167 401.05 38.9967 400.54 34.87 399.52C17.26 395.15 4.22 381.17 0 363.37V36.28C5.23333 17.0133 17.4367 4.92 36.61 0ZM1072.02 46.43C1072.02 34.6491 1067.34 23.3507 1059.01 15.0203C1050.68 6.68995 1039.38 2.01 1027.6 2.01H46.42C34.6391 2.01 23.3407 6.68995 15.0103 15.0203C6.67995 23.3507 2 34.6491 2 46.43V353.61C2 365.391 6.67995 376.689 15.0103 385.02C23.3407 393.35 34.6391 398.03 46.42 398.03H1027.6C1039.38 398.03 1050.68 393.35 1059.01 385.02C1067.34 376.689 1072.02 365.391 1072.02 353.61V46.43Z" fill="white"/>
<path d="M301.651 77.85C286.451 75.46 262.341 76.3 266.401 99.23C267.088 103.123 269.258 106.183 272.911 108.41C276.178 110.397 279.294 111.903 282.261 112.93C292.021 116.3 303.391 119.05 314.011 123.15C325.878 127.73 335.381 132.997 342.521 138.95C350.901 145.943 355.981 154.94 357.761 165.94C358.874 172.833 359.021 179.547 358.201 186.08C355.674 206.173 344.961 220.737 326.061 229.77C318.474 233.403 310.394 235.647 301.821 236.5C276.601 239.02 252.644 234.853 229.951 224C229.816 223.934 229.702 223.832 229.623 223.705C229.543 223.577 229.501 223.43 229.501 223.28V181.5C229.5 181.464 229.51 181.428 229.528 181.396C229.546 181.365 229.573 181.339 229.605 181.322C229.637 181.304 229.673 181.296 229.709 181.297C229.745 181.299 229.781 181.31 229.811 181.33C246.998 192.077 265.521 198.357 285.381 200.17C296.041 201.14 312.761 198.59 315.531 185.65C317.418 176.837 315.214 170.103 308.921 165.45C304.501 162.18 297.391 159.96 291.701 158.32C285.408 156.513 279.191 154.65 273.051 152.73C261.858 149.237 251.591 144.17 242.251 137.53C226.441 126.3 221.901 108.96 223.931 90.32C227.231 59.84 252.041 42.72 281.061 40.44C304.141 38.63 328.451 42.49 348.831 53.62C349.111 53.7733 349.251 54.0067 349.251 54.32V94.95C349.251 95.3767 349.068 95.4767 348.701 95.25C334.401 86.3367 318.718 80.5367 301.651 77.85Z" fill="white"/>
<path d="M705.219 150.8C702.219 121.11 710.099 93.24 730.689 71.56C745.943 55.4933 764.636 45.5867 786.769 41.84C811.999 37.56 838.269 40.57 861.469 51.65C861.823 51.8167 861.999 52.0967 861.999 52.49V94.44C862.001 94.4811 861.99 94.5214 861.969 94.5565C861.948 94.5916 861.917 94.6201 861.88 94.6388C861.842 94.6575 861.8 94.6657 861.758 94.6623C861.715 94.659 861.674 94.6444 861.639 94.62C847.133 84.5933 831.106 79.09 813.559 78.11C796.939 77.17 780.639 81.15 767.879 91.88C755.586 102.213 748.673 115.48 747.139 131.68C746.573 137.74 746.776 143.767 747.749 149.76C751.319 171.58 767.089 189.66 788.329 196.11C793.929 197.81 799.839 198.82 806.059 199.14C826.879 200.21 846.719 193.78 864.129 181.86C864.543 181.58 864.749 181.69 864.749 182.19V224.04C864.749 224.44 864.569 224.733 864.209 224.92C850.683 231.787 835.789 235.77 819.529 236.87C806.909 237.723 795.153 237.1 784.259 235C742.059 226.84 709.559 193.9 705.219 150.8Z" fill="white"/>
<path d="M209.9 153.73C207.41 174.78 198.48 193.88 182.55 207.95C168.42 220.43 150.08 227.57 131.43 230.97C119.91 233.07 108.683 234.15 97.75 234.21C88.8633 234.257 69.7967 234.267 40.55 234.24C40.1833 234.24 40 234.06 40 233.7V43.79C40 43.5831 40.0822 43.3847 40.2285 43.2385C40.3747 43.0922 40.5731 43.01 40.78 43.01C60.0467 42.9767 79.5333 42.9833 99.24 43.03C118.11 43.07 138.79 46.3 156.2 53.3C185.25 64.98 204.4 87.59 209.35 119.16C211.117 130.407 211.3 141.93 209.9 153.73ZM130.74 192.42C159.6 183.22 170.49 160.8 168.33 131.67C167.07 114.66 159.37 99.7 144.95 90.49C132.42 82.47 115.43 80.39 100.09 79.97C92.1033 79.7567 86.3367 79.68 82.79 79.74C82.43 79.7467 82.25 79.93 82.25 80.29V196.96C82.25 197.287 82.41 197.45 82.73 197.45C90.2633 197.557 97.9267 197.39 105.72 196.95C114.473 196.463 122.813 194.953 130.74 192.42Z" fill="white"/>
<path d="M468 80.11V233.89C468 233.985 467.962 234.077 467.895 234.145C467.827 234.212 467.735 234.25 467.64 234.25H426.11C426.015 234.25 425.923 234.212 425.855 234.145C425.788 234.077 425.75 233.985 425.75 233.89V80.11C425.75 80.0145 425.712 79.923 425.645 79.8554C425.577 79.7879 425.485 79.75 425.39 79.75H364.36C364.265 79.75 364.173 79.7121 364.105 79.6446C364.038 79.577 364 79.4855 364 79.39V43.36C364 43.2645 364.038 43.173 364.105 43.1054C364.173 43.0379 364.265 43 364.36 43H529.39C529.437 43 529.484 43.0093 529.528 43.0274C529.571 43.0455 529.611 43.072 529.645 43.1054C529.678 43.1389 529.704 43.1786 529.723 43.2222C529.741 43.2659 529.75 43.3127 529.75 43.36V79.39C529.75 79.4373 529.741 79.4841 529.723 79.5278C529.704 79.5714 529.678 79.6111 529.645 79.6446C529.611 79.678 529.571 79.7045 529.528 79.7226C529.484 79.7407 529.437 79.75 529.39 79.75H468.36C468.265 79.75 468.173 79.7879 468.105 79.8554C468.038 79.923 468 80.0145 468 80.11Z" fill="white"/>
<path d="M588 159.38V233.75C588 234.083 587.833 234.25 587.5 234.25H546.25C545.917 234.25 545.75 234.083 545.75 233.75V43.54C545.75 43.2067 545.92 43.04 546.26 43.04C570.187 42.9467 592.187 42.96 612.26 43.08C620.433 43.1333 628.82 43.97 637.42 45.59C661.89 50.22 682.72 62.43 687.23 88.74C690.06 105.23 687.16 122.1 676.71 135.38C669.89 144.05 660.63 149.73 650.05 153.29C649.988 153.311 649.932 153.346 649.886 153.393C649.84 153.439 649.805 153.495 649.784 153.556C649.763 153.618 649.756 153.684 649.764 153.749C649.772 153.813 649.795 153.875 649.83 153.93L703.14 233.89C703.164 233.925 703.177 233.965 703.18 234.007C703.182 234.049 703.173 234.09 703.154 234.127C703.134 234.164 703.105 234.195 703.069 234.217C703.033 234.239 702.992 234.25 702.95 234.25H655.3C654.893 234.25 654.58 234.08 654.36 233.74L606.71 159.26C606.49 158.92 606.173 158.75 605.76 158.75H588.63C588.21 158.75 588 158.96 588 159.38ZM644.86 95.79C640.95 82.93 624.79 80.69 613.28 80.14C605.167 79.7533 596.903 79.6333 588.49 79.78C588.163 79.7867 588 79.9533 588 80.28V126.7C588 127.027 588.163 127.193 588.49 127.2C598.763 127.413 608.077 127.3 616.43 126.86C623.95 126.467 630.427 124.863 635.86 122.05C645.44 117.09 647.83 105.54 644.86 95.79Z" fill="white"/>
<path d="M978 80.07V233.93C978 234.015 977.966 234.096 977.906 234.156C977.846 234.216 977.765 234.25 977.68 234.25H936.07C935.985 234.25 935.904 234.216 935.844 234.156C935.784 234.096 935.75 234.015 935.75 233.93V80.07C935.75 79.9851 935.716 79.9037 935.656 79.8437C935.596 79.7837 935.515 79.75 935.43 79.75H874.07C873.985 79.75 873.904 79.7163 873.844 79.6563C873.784 79.5963 873.75 79.5149 873.75 79.43V43.32C873.75 43.2351 873.784 43.1537 873.844 43.0937C873.904 43.0337 873.985 43 874.07 43H1039.43C1039.51 43 1039.6 43.0337 1039.66 43.0937C1039.72 43.1537 1039.75 43.2351 1039.75 43.32V79.43C1039.75 79.5149 1039.72 79.5963 1039.66 79.6563C1039.6 79.7163 1039.51 79.75 1039.43 79.75H978.32C978.235 79.75 978.154 79.7837 978.094 79.8437C978.034 79.9037 978 79.9851 978 80.07Z" fill="white"/>
<path d="M147.5 325.49H128.5C128.34 325.49 128.26 325.41 128.26 325.25L128.25 319.63C128.25 319.383 128.373 319.26 128.62 319.26L154.25 319.25C154.583 319.25 154.75 319.417 154.75 319.75V349.77C154.749 349.932 154.708 350.09 154.629 350.23C154.55 350.37 154.437 350.487 154.3 350.57C143.58 357.07 131.843 359.047 119.09 356.5C114.54 355.59 109.5 353.41 105.7 350.66C93.813 342.06 88.333 330.013 89.2597 314.52C90.4297 294.87 104.9 280.14 124.42 278.19C134.653 277.163 143.94 279.047 152.28 283.84C152.426 283.92 152.5 284.047 152.5 284.22L152.48 291.42C152.48 291.439 152.475 291.457 152.465 291.473C152.455 291.488 152.441 291.501 152.424 291.509C152.408 291.518 152.389 291.521 152.371 291.52C152.352 291.518 152.335 291.511 152.32 291.5C131.86 277.32 102.07 283.79 96.5197 310.52C95.2997 316.39 95.7097 323.77 97.7397 329.55C102.34 342.63 113.46 350.62 127.62 351.3C134.786 351.64 141.476 350.2 147.69 346.98C147.783 346.932 147.862 346.858 147.916 346.766C147.971 346.674 148 346.568 148 346.46V326C148 325.66 147.833 325.49 147.5 325.49Z" fill="white"/>
<path d="M538.37 357.77C527.979 357.752 518.02 353.516 510.686 345.994C503.351 338.472 499.241 328.281 499.26 317.662C499.278 307.042 503.424 296.865 510.785 289.369C518.146 281.873 528.118 277.672 538.51 277.69C548.901 277.708 558.859 281.944 566.194 289.466C573.528 296.988 577.638 307.179 577.62 317.798C577.601 328.418 573.455 338.595 566.095 346.091C558.734 353.587 548.761 357.788 538.37 357.77ZM538.312 351.45C546.908 351.48 555.164 347.955 561.264 341.651C567.364 335.346 570.808 326.779 570.84 317.833C570.855 313.404 570.032 309.015 568.418 304.917C566.803 300.819 564.429 297.092 561.43 293.949C558.432 290.807 554.867 288.31 550.941 286.601C547.015 284.892 542.804 284.005 538.547 283.99C529.952 283.96 521.696 287.485 515.596 293.789C509.496 300.094 506.051 308.661 506.02 317.607C506.004 322.036 506.827 326.425 508.442 330.523C510.056 334.621 512.431 338.348 515.429 341.491C518.428 344.633 521.992 347.13 525.918 348.839C529.845 350.548 534.056 351.435 538.312 351.45Z" fill="white"/>
<path d="M310.75 322.5V356.25C310.75 356.417 310.667 356.5 310.5 356.5H304.25C304.083 356.5 304 356.417 304 356.25V279.29C304 279.221 304.026 279.155 304.073 279.106C304.12 279.057 304.184 279.03 304.25 279.03C311.47 278.963 318.567 278.967 325.54 279.04C338.14 279.16 353.03 282.45 354.87 297.22C356.51 310.44 348.06 319.67 335.4 321.12C335.32 321.13 335.244 321.16 335.179 321.208C335.114 321.256 335.063 321.319 335.03 321.392C334.998 321.465 334.985 321.545 334.994 321.624C335.003 321.702 335.032 321.777 335.08 321.84C343.1 332.753 351.553 344.243 360.44 356.31C360.444 356.318 360.447 356.326 360.447 356.335C360.448 356.343 360.446 356.351 360.443 356.358C360.44 356.365 360.436 356.371 360.43 356.375C360.424 356.379 360.417 356.38 360.41 356.38C359.183 356.493 356.557 356.53 352.53 356.49C352.37 356.49 352.243 356.427 352.15 356.3L327.6 322.58C327.47 322.4 327.299 322.254 327.101 322.153C326.903 322.052 326.683 322 326.46 322H311.25C310.917 322 310.75 322.167 310.75 322.5ZM310.8 285.54L310.7 315.68C310.699 315.712 310.704 315.745 310.715 315.775C310.727 315.805 310.744 315.833 310.767 315.856C310.789 315.88 310.816 315.898 310.846 315.911C310.876 315.924 310.908 315.93 310.94 315.93L330.32 315.99C335.066 316.007 339.623 314.541 342.989 311.916C346.355 309.291 348.254 305.72 348.27 301.99V299.51C348.278 297.662 347.822 295.83 346.929 294.119C346.036 292.408 344.723 290.851 343.066 289.538C341.408 288.225 339.438 287.181 337.268 286.466C335.098 285.751 332.771 285.378 330.42 285.37L311.04 285.31C310.978 285.31 310.918 285.334 310.874 285.377C310.829 285.42 310.803 285.478 310.8 285.54Z" fill="white"/>
<path d="M782.709 323.06C782.659 338.07 778.759 352.77 762.059 356.54C746.989 359.94 730.449 355.77 725.239 339.61C723.613 334.577 722.793 328.257 722.779 320.65C722.746 306.89 722.739 293.093 722.759 279.26C722.759 279.191 722.787 279.125 722.835 279.076C722.884 279.027 722.95 279 723.019 279H729.229C729.301 279 729.37 279.028 729.42 279.079C729.471 279.13 729.499 279.198 729.499 279.27C729.466 292.837 729.486 306.61 729.559 320.59C729.566 322.65 729.669 324.82 729.869 327.1C730.779 337.63 733.729 347.33 745.259 350.31C748.853 351.237 752.653 351.493 756.659 351.08C773.549 349.34 776.239 335.34 776.239 321.3C776.253 307.22 776.256 293.21 776.249 279.27C776.249 279.198 776.277 279.13 776.325 279.079C776.374 279.028 776.44 279 776.509 279H782.479C782.646 279 782.733 279.087 782.739 279.26C782.773 293.6 782.763 308.2 782.709 323.06Z" fill="white"/>
<path d="M939.5 324.81V356.25C939.5 356.417 939.417 356.5 939.25 356.5H933C932.833 356.5 932.75 356.417 932.75 356.25V279.55C932.75 279.243 932.903 279.087 933.21 279.08C944.217 278.753 953.643 278.873 961.49 279.44C965.77 279.753 970.157 281.05 974.65 283.33C984.7 288.43 987.69 302.15 982.9 311.57C980.42 316.437 976.463 319.787 971.03 321.62C961.35 324.88 950.4 324.31 940.08 324.23C939.693 324.223 939.5 324.417 939.5 324.81ZM939.52 285.56L939.46 317.92C939.46 317.986 939.486 318.05 939.533 318.097C939.58 318.144 939.644 318.17 939.71 318.17L958.38 318.2C960.986 318.205 963.568 317.812 965.977 317.045C968.386 316.278 970.576 315.151 972.421 313.728C974.266 312.305 975.731 310.615 976.731 308.754C977.731 306.892 978.247 304.896 978.25 302.88V300.72C978.256 296.65 976.172 292.744 972.457 289.86C968.742 286.976 963.7 285.35 958.44 285.34L939.77 285.31C939.704 285.31 939.64 285.336 939.593 285.383C939.546 285.43 939.52 285.494 939.52 285.56Z" fill="white"/>
</svg>
