<svg width="174" height="98" viewBox="0 0 174 98" fill="none" xmlns="http://www.w3.org/2000/svg">
<path d="M22.2066 31.7559H5.82202C5.79465 31.7559 5.77246 31.778 5.77246 31.8053V48.0923C5.77246 48.1196 5.79465 48.1417 5.82202 48.1417H22.2066C22.2339 48.1417 22.2561 48.1196 22.2561 48.0923V31.8053C22.2561 31.778 22.2339 31.7559 22.2066 31.7559Z" fill="#232323"/>
<path d="M40.4068 31.7559H24.0169C23.9995 31.7559 23.9854 31.7699 23.9854 31.7873V48.1084C23.9854 48.1258 23.9995 48.1399 24.0169 48.1399H40.4068C40.4243 48.1399 40.4384 48.1258 40.4384 48.1084V31.7873C40.4384 31.7699 40.4243 31.7559 40.4068 31.7559Z" fill="#232323"/>
<path d="M164.635 44.4197C164.635 44.4285 164.638 44.4369 164.644 44.4432C164.651 44.4494 164.659 44.4529 164.668 44.4529L168.171 44.4502C168.187 44.4502 168.201 44.4562 168.212 44.4668C168.223 44.4774 168.229 44.4918 168.229 44.5068L168.228 47.2731C168.228 47.3042 168.213 47.3198 168.182 47.3198H164.692C164.677 47.3198 164.663 47.3259 164.652 47.3366C164.642 47.3474 164.636 47.362 164.636 47.3773C164.636 49.6867 164.636 52.0015 164.636 54.3218C164.636 55.1346 164.783 56.1666 165.629 56.5411C166.509 56.9309 167.319 56.7602 168.103 56.321C168.109 56.3176 168.116 56.3158 168.123 56.3159C168.13 56.3159 168.137 56.3178 168.143 56.3214C168.149 56.3249 168.154 56.33 168.158 56.336C168.161 56.3421 168.163 56.349 168.163 56.3561L168.157 59.1044C168.157 59.1379 168.142 59.1622 168.113 59.1771C167.774 59.3541 167.468 59.4107 167.028 59.496C166.066 59.6828 165.101 59.684 164.132 59.4996C161.876 59.0694 161.067 57.1473 161.081 55.0627C161.098 52.5072 161.114 49.9535 161.127 47.4015C161.127 47.3967 161.126 47.392 161.124 47.3875C161.123 47.383 161.12 47.379 161.117 47.3755C161.113 47.3721 161.109 47.3694 161.105 47.3675C161.1 47.3657 161.096 47.3647 161.091 47.3647H155.928C155.916 47.3647 155.905 47.3692 155.897 47.3773C155.889 47.3854 155.885 47.3964 155.885 47.4078V59.3289C155.885 59.3439 155.877 59.3514 155.862 59.3514H152.345C152.339 59.3514 152.333 59.3489 152.329 59.3445C152.324 59.3402 152.322 59.3342 152.322 59.328L152.323 47.3845C152.323 47.3787 152.321 47.3733 152.317 47.3692C152.312 47.3652 152.307 47.3629 152.301 47.3629L149.855 47.3674C149.851 47.3674 149.847 47.3666 149.844 47.3651C149.84 47.3636 149.837 47.3615 149.834 47.3587C149.831 47.356 149.829 47.3527 149.827 47.3491C149.826 47.3455 149.825 47.3416 149.825 47.3378V44.5328C149.825 44.5212 149.83 44.51 149.838 44.5017C149.846 44.4935 149.858 44.4888 149.869 44.4888H152.261C152.305 44.4888 152.326 44.4673 152.326 44.4242C152.313 42.6548 152.156 41.0184 153.168 39.4628C154.066 38.0832 155.392 37.3069 157.145 37.1339C157.667 37.0824 158.361 37.1034 159.228 37.1968C159.396 37.2147 159.555 37.2749 159.715 37.3234C159.734 37.3293 159.751 37.3411 159.763 37.3571C159.774 37.3731 159.781 37.3925 159.781 37.4123L159.782 40.3088C159.782 40.3169 159.78 40.3249 159.776 40.332C159.772 40.339 159.766 40.345 159.759 40.3493C159.753 40.3536 159.745 40.3561 159.737 40.3566C159.729 40.3571 159.721 40.3555 159.713 40.352C158.475 39.7619 156.626 39.7762 156.087 41.3202C155.976 41.6381 155.916 41.9977 155.905 42.3988C155.889 43.0772 155.881 43.7506 155.883 44.4188C155.883 44.423 155.884 44.4272 155.885 44.4311C155.887 44.4351 155.889 44.4386 155.892 44.4416C155.895 44.4446 155.899 44.447 155.903 44.4486C155.907 44.4503 155.911 44.4511 155.915 44.4511L161.08 44.452C161.093 44.452 161.105 44.447 161.115 44.4381C161.124 44.4291 161.129 44.417 161.129 44.4044L161.128 41.145C161.128 41.1103 161.144 41.0881 161.177 41.0786L164.591 40.0529C164.622 40.0433 164.637 40.0544 164.637 40.0861L164.635 44.4197Z" fill="#232323"/>
<path d="M78.417 42.2519C79.6016 42.2787 80.5825 41.3951 80.6079 40.2783C80.6333 39.1615 79.6936 38.2345 78.5091 38.2077C77.3245 38.1809 76.3436 39.0645 76.3182 40.1813C76.2928 41.2981 77.2325 42.2251 78.417 42.2519Z" fill="#232323"/>
<path d="M54.1942 43.2505L54.1951 59.3319C54.1951 59.3445 54.1888 59.3507 54.1762 59.3507H50.9153C50.8865 59.3507 50.8721 59.3364 50.8721 59.3076V38.6915C50.8721 38.6628 50.8865 38.6484 50.9153 38.6484H56.0242C56.0543 38.6484 56.075 38.6628 56.0864 38.6915L61.9909 53.8711C62.051 54.0256 62.1126 54.0262 62.1756 53.8729L68.4127 38.6951C68.4259 38.664 68.4493 38.6484 68.4829 38.6484H73.2999C73.3107 38.6484 73.321 38.6527 73.3286 38.6603C73.3362 38.6679 73.3405 38.6781 73.3405 38.6889V59.3328C73.3405 59.3375 73.3386 59.3421 73.3352 59.3455C73.3318 59.3489 73.3272 59.3507 73.3224 59.3507H69.748C69.7427 59.3507 69.7377 59.3487 69.734 59.345C69.7303 59.3413 69.7282 59.3362 69.7282 59.331L69.7291 43.1311C69.7291 43.1272 69.7282 43.1233 69.7265 43.1197C69.7248 43.1161 69.7223 43.113 69.7192 43.1104C69.6927 43.0895 69.6729 43.0955 69.6597 43.1284C67.529 48.5239 65.3948 53.9167 63.2569 59.3067C63.2515 59.3198 63.2425 59.3309 63.2309 59.3388C63.2194 59.3466 63.2058 59.3508 63.192 59.3507H60.8718C60.8599 59.3508 60.8483 59.3472 60.8384 59.3405C60.8286 59.3337 60.8211 59.3241 60.8169 59.313L54.2933 43.2317C54.2273 43.0688 54.1942 43.0751 54.1942 43.2505Z" fill="#232323"/>
<path d="M122.752 55.4581C124.261 56.4846 126.428 57.2445 128.221 56.675C129.207 56.3616 129.304 55.167 128.755 54.4431C128.602 54.242 128.347 54.0348 127.99 53.8216C127.051 53.2603 125.981 52.9684 125.037 52.4097C123.936 51.7586 123.094 50.9341 122.841 49.6533C122.28 46.8089 124.148 44.6569 126.869 44.154C128.639 43.827 130.15 44.1351 131.782 44.6201C131.797 44.6242 131.809 44.6329 131.818 44.6449C131.827 44.6569 131.832 44.6715 131.832 44.6866V48.0025C131.832 48.0076 131.83 48.0127 131.828 48.0171C131.825 48.0215 131.821 48.0251 131.817 48.0276C131.812 48.0301 131.807 48.0313 131.802 48.0311C131.797 48.031 131.792 48.0295 131.788 48.0268C130.689 47.3316 129.447 46.8331 128.132 46.8933C127.228 46.9346 126.387 47.3038 126.308 48.3052C126.253 48.9974 126.512 49.5099 127.084 49.8428C127.605 50.1455 128.106 50.3575 128.797 50.6287C130.77 51.4038 132.538 52.4744 132.672 54.8159C132.761 56.3816 132.183 57.6205 130.938 58.5324C129.447 59.6246 127.418 59.8257 125.633 59.6039C124.61 59.4764 123.673 59.2869 122.734 58.8899C122.709 58.8791 122.697 58.8605 122.697 58.8342L122.695 55.4877C122.695 55.4422 122.714 55.4323 122.752 55.4581Z" fill="#232323"/>
<path d="M89.9528 47.1532C87.811 47.5259 86.463 49.2055 86.3171 51.335C86.172 53.4582 86.6892 55.497 88.7544 56.4068C89.4752 56.7241 90.2366 56.8565 91.0385 56.8038C92.1891 56.7274 93.329 56.1688 94.2787 55.4916C94.2823 55.4889 94.2866 55.4873 94.2911 55.487C94.2956 55.4866 94.3001 55.4875 94.3042 55.4895C94.3082 55.4916 94.3116 55.4947 94.3139 55.4986C94.3162 55.5024 94.3174 55.5068 94.3174 55.5114L94.3165 58.6567C94.3165 58.6794 94.3102 58.7018 94.2983 58.7214C94.2864 58.7411 94.2693 58.7572 94.2489 58.768C92.5802 59.6509 90.4763 59.8323 88.6463 59.5916C87.4362 59.4327 86.2837 58.9549 85.3187 58.186C82.6588 56.0655 82.1056 52.6678 83.0202 49.4938C83.7338 47.0167 85.6935 45.0165 88.2669 44.4228C90.2105 43.9746 92.3883 44.0627 94.2048 44.9428C94.221 44.9506 94.2346 44.9628 94.2442 44.9781C94.2537 44.9933 94.2588 45.011 94.2588 45.0291L94.2606 48.2795C94.2612 48.2968 94.2525 48.304 94.2345 48.301C94.2105 48.2968 94.1892 48.2878 94.1705 48.2741C92.9694 47.3642 91.4386 46.8945 89.9528 47.1532Z" fill="#232323"/>
<path d="M110.918 44.5176C112.963 43.9419 115.67 43.9859 117.588 45.0619C119.961 46.3938 120.996 48.8862 121.044 51.5609C121.071 52.9961 120.884 54.3361 120.294 55.6214C119.134 58.147 116.911 59.496 114.151 59.7044C109.936 60.0232 106.456 57.9602 105.892 53.5359C105.405 49.7152 106.868 45.6573 110.918 44.5176ZM113.131 47.0557C111.205 47.2219 109.917 48.6877 109.602 50.5064C109.132 53.2278 109.746 56.5573 113.154 56.7971C115.135 56.9372 116.66 56.0848 117.229 54.1197C117.692 52.5246 117.632 49.9756 116.685 48.5548C115.883 47.3512 114.518 46.9372 113.131 47.0557Z" fill="#232323"/>
<path d="M139.299 44.5171C140.804 44.0923 142.65 44.0348 144.195 44.3806C148.661 45.3802 150.06 50.0622 149.207 54.0276C148.58 56.9331 146.455 59.077 143.499 59.5907C141.875 59.8727 140.341 59.7874 138.894 59.3347C134.624 57.9983 133.501 53.2516 134.546 49.403C135.19 47.031 136.902 45.1934 139.299 44.5171ZM139.875 47.5708C137.929 48.7501 137.646 51.3744 137.949 53.3782C138.338 55.9514 140.385 57.163 142.887 56.7229C145.827 56.2065 146.133 52.6929 145.755 50.391C145.533 49.042 144.801 47.7899 143.542 47.3148C142.401 46.8846 140.938 46.9259 139.875 47.5708Z" fill="#232323"/>
<path d="M100.418 46.667C100.418 46.9017 100.461 46.9101 100.548 46.6922C101.369 44.6453 103.48 43.881 105.524 44.4109C105.584 44.4264 105.614 44.4654 105.614 44.5276L105.615 47.9388C105.615 47.9461 105.613 47.9533 105.609 47.9596C105.605 47.9658 105.6 47.9707 105.593 47.9737C105.586 47.9768 105.579 47.9778 105.571 47.9767C105.564 47.9756 105.557 47.9724 105.552 47.9675C105.086 47.5643 104.129 47.4349 103.534 47.4251C101.284 47.3873 100.444 49.754 100.435 51.605C100.422 54.1725 100.418 56.7404 100.421 59.3085C100.421 59.3372 100.407 59.3516 100.378 59.3516H96.9551C96.9238 59.3516 96.9082 59.336 96.9082 59.3049V44.5348C96.9082 44.5043 96.9235 44.489 96.9542 44.489H100.369C100.405 44.489 100.423 44.507 100.423 44.5429L100.418 46.667Z" fill="#232323"/>
<path d="M80.185 44.4883H76.7376C76.7202 44.4883 76.7061 44.5024 76.7061 44.5197V59.3194C76.7061 59.3368 76.7202 59.3508 76.7376 59.3508H80.185C80.2024 59.3508 80.2165 59.3368 80.2165 59.3194V44.5197C80.2165 44.5024 80.2024 44.4883 80.185 44.4883Z" fill="#232323"/>
<path d="M22.1823 49.8564H5.84822C5.80692 49.8564 5.77344 49.8898 5.77344 49.931V66.1695C5.77344 66.2107 5.80692 66.2441 5.84822 66.2441H22.1823C22.2236 66.2441 22.2571 66.2107 22.2571 66.1695V49.931C22.2571 49.8898 22.2236 49.8564 22.1823 49.8564Z" fill="#232323"/>
<path d="M40.3888 49.8564H24.0349C24.0075 49.8564 23.9854 49.8786 23.9854 49.9058V66.1947C23.9854 66.2219 24.0075 66.2441 24.0349 66.2441H40.3888C40.4162 66.2441 40.4384 66.2219 40.4384 66.1947V49.9058C40.4384 49.8786 40.4162 49.8564 40.3888 49.8564Z" fill="#232323"/>
</svg>
