<svg width="75" height="78" viewBox="0 0 75 78" fill="none" xmlns="http://www.w3.org/2000/svg">
<path d="M11.1907 9.64144C-0.427923 20.4078 -1.12366 38.5489 9.63401 50.1675C20.4004 61.7862 38.5414 62.4819 50.1688 51.7155C61.7874 40.9578 62.4832 22.8081 51.7168 11.1895C40.9591 -0.429173 22.8093 -1.12492 11.1994 9.64144H11.1907ZM45.8292 47.0367C36.7934 55.4029 22.6789 54.8637 14.3128 45.828C5.94667 36.7922 6.48584 22.6863 15.5216 14.3202C24.5573 5.9541 38.6632 6.4933 47.0293 15.529C55.3954 24.5648 54.8649 38.6706 45.8292 47.0367Z" fill="#FDE783" stroke="#231F20" stroke-width="4" stroke-miterlimit="10"/>
<path d="M30.6799 52.9766C42.9947 52.9766 52.9779 42.9935 52.9779 30.6786C52.9779 18.3637 42.9947 8.3806 30.6799 8.3806C18.365 8.3806 8.38184 18.3637 8.38184 30.6786C8.38184 42.9935 18.365 52.9766 30.6799 52.9766Z" stroke="#231F20" stroke-width="4" stroke-miterlimit="10"/>
<path d="M52.8483 49.2234L47.5146 54.1641L64.3284 72.3149L69.662 67.3742L52.8483 49.2234Z" fill="#DDDDEF" stroke="#231F20" stroke-width="4" stroke-miterlimit="10"/>
<path d="M49.8899 59.496L57.9796 52.0022L71.0406 66.1018C73.1091 68.3348 72.9756 71.8251 70.7426 73.8935C68.5096 75.962 65.0193 75.8286 62.9509 73.5956L49.8899 59.496Z" fill="#5899CD" stroke="#231F20" stroke-width="4" stroke-miterlimit="10"/>
</svg>
