<svg width="183" height="102" viewBox="0 0 183 102" fill="none" xmlns="http://www.w3.org/2000/svg">
<path d="M17.6448 30.0463C17.6499 30.0465 17.655 30.0453 17.6594 30.0428C17.6639 30.0404 17.6675 30.0367 17.6699 30.0323C17.6723 30.0279 17.6734 30.023 17.673 30.0181C17.6726 30.0132 17.6707 30.0085 17.6676 30.0047L13.2844 24.3192C13.2452 24.2682 13.2538 24.2581 13.31 24.2889C15.6172 25.5318 17.9368 26.7823 20.2687 28.0403C20.3862 28.1039 20.4816 28.1917 20.5549 28.3038C20.8361 28.7369 21.1114 29.1582 21.3806 29.5674C21.4249 29.6347 21.4543 29.7107 21.4668 29.7903L21.9787 33.0496C21.9825 33.0729 21.9942 33.0915 22.0138 33.1053L23.284 34.0148C23.3086 34.0324 23.3361 34.0394 23.3664 34.0356C24.5134 33.8876 25.6601 33.7362 26.8064 33.5813C26.953 33.5618 27.0965 33.5747 27.2368 33.62C28.4615 34.0136 29.6641 34.4014 30.8446 34.7836C30.9375 34.8132 30.9356 34.8365 30.8389 34.8535L29.089 35.1576C29.0625 35.162 29.0394 35.173 29.0198 35.1906C28.3 35.819 27.5812 36.4471 26.8633 37.0748C26.6358 37.2731 26.39 37.4454 26.1258 37.5914C23.8925 38.8242 21.6649 40.0536 19.443 41.2795C19.3925 41.3078 19.3381 41.3239 19.28 41.3276L16.6059 41.4948C16.5711 41.4973 16.5405 41.5099 16.514 41.5326L13.0057 44.6172C13.0024 44.6201 12.9984 44.622 12.994 44.6227C12.9897 44.6233 12.9852 44.6227 12.9812 44.6209C12.9772 44.6191 12.9738 44.6162 12.9714 44.6125C12.969 44.6088 12.9678 44.6045 12.9678 44.6001L12.9687 40.5882C12.9688 40.5789 12.9718 40.57 12.9773 40.5628C12.9828 40.5556 12.9905 40.5506 12.9991 40.5485L16.4978 39.6985C16.5294 39.6903 16.5544 39.6727 16.5727 39.6456L18.733 36.4477C18.7495 36.4232 18.7466 36.4011 18.7245 36.3816C18.1336 35.8596 17.5421 35.3358 16.95 34.81C16.6821 34.5714 16.4365 34.3104 16.2135 34.0271C15.0779 32.5859 13.9448 31.1462 12.8142 29.7081C12.8119 29.705 12.8105 29.7012 12.8102 29.6973C12.81 29.6933 12.8108 29.6894 12.8127 29.6859C12.8146 29.6825 12.8174 29.6796 12.8209 29.6777C12.8244 29.6758 12.8283 29.6749 12.8322 29.6751L17.6448 30.0463Z" fill="#232323"/>
<path d="M59.6818 54.4855C59.6717 58.1694 59.6708 61.8631 59.679 65.5666C59.6809 66.2041 59.3434 66.2325 58.7927 66.2325C55.4617 66.2331 52.1313 66.2328 48.8016 66.2315C48.2007 66.2309 47.7649 66.1843 47.4945 66.0917C46.7304 65.8301 46.1114 65.1803 45.8858 64.4002C45.8226 64.1818 45.791 63.8547 45.791 63.419C45.791 60.5781 45.7898 57.7369 45.7873 54.8953C45.786 54.0598 45.7557 53.2256 45.6963 52.3926C45.6394 51.5945 45.4839 50.4706 44.9161 49.9143C44.5199 49.5271 43.9123 49.4081 43.3047 49.3685C41.8777 49.2759 40.4555 49.3338 39.0381 49.5422C39.0059 49.5473 38.9942 49.5652 39.003 49.5961C39.324 50.7546 39.4846 51.9071 39.4846 53.0537C39.4839 55.9336 39.4691 60.0863 39.44 65.5118C39.4381 65.9586 39.3784 66.2277 38.8741 66.2306C38.167 66.2343 37.4595 66.2347 36.7517 66.2315C36.1387 66.229 35.6948 66.1789 35.4199 66.0813C34.6502 65.8084 34.035 65.1303 33.835 64.3322C33.7838 64.1282 33.7585 63.8002 33.7591 63.3481C33.7629 59.9324 33.7572 56.5166 33.7421 53.1009C33.7389 52.2415 33.6489 51.4862 33.4719 50.8352C33.1174 49.5271 31.9553 49.3656 30.7694 49.3505C29.6679 49.336 28.5668 49.3376 27.4659 49.3552C27.4324 49.3552 27.4157 49.3719 27.4157 49.4053C27.4163 54.8094 27.4163 60.2123 27.4157 65.6138C27.4157 66.1918 27.1209 66.2551 26.6052 66.2542C25.2232 66.2517 23.8414 66.2513 22.46 66.2532C21.9718 66.2542 21.6656 66.189 21.6656 65.6384C21.6644 58.9253 21.6644 52.2119 21.6656 45.4981C21.6656 45.2664 21.8018 45.1248 22.0742 45.0731C24.4288 44.6255 26.882 44.4441 29.2764 44.412C31.6946 44.379 34.2748 44.6547 36.5147 45.6181C36.5444 45.6307 36.5748 45.6313 36.6057 45.62C39.3367 44.6377 42.0951 44.2316 45.0593 44.4347C47.757 44.6207 50.1278 45.3876 51.0359 48.187C51.5032 49.6282 51.5989 51.093 51.5999 52.5843C51.6011 55.5278 51.5936 58.4669 51.5771 61.4016C51.5771 61.4096 51.5802 61.4173 51.5857 61.423C51.5912 61.4287 51.5987 61.4319 51.6065 61.4319H53.8967C53.9289 61.4319 53.945 61.4158 53.945 61.3837C53.9463 52.6022 53.9466 43.8217 53.946 35.0422C53.945 34.5775 54.0597 34.1771 54.5858 34.1771C55.4547 34.1764 56.3237 34.1768 57.1926 34.178C58.2561 34.1799 59.2022 34.9081 59.5292 35.8695C59.6278 36.1598 59.6771 36.6811 59.6771 37.4335C59.6771 42.2464 59.6771 47.0539 59.6771 51.8561C59.6771 51.9128 59.6948 51.9188 59.7302 51.8741C61.5679 49.5369 63.4141 47.1903 65.2688 44.8342C65.4508 44.6028 65.8016 44.5272 66.1201 44.5272C70.071 44.5247 74.0064 44.5244 77.9264 44.5263C78.0126 44.5266 78.0962 44.5555 78.164 44.6083C78.2318 44.6612 78.2799 44.735 78.3008 44.8181C79.6449 50.1801 80.9856 55.5281 82.3228 60.8623C82.3749 61.0692 82.4546 61.3714 82.6062 61.5244C82.8413 61.7624 83.466 61.7142 83.7077 61.5017C83.8145 61.4092 83.908 61.2011 83.9883 60.8775C86.0042 52.7452 88.0204 44.6166 90.0369 36.4919C90.0393 36.4815 90.0453 36.4722 90.0539 36.4655C90.0625 36.4588 90.0732 36.4551 90.0844 36.4551H95.9633C95.9675 36.4551 95.9716 36.4561 95.9753 36.4579C95.9791 36.4597 95.9823 36.4624 95.9849 36.4656C95.9874 36.4689 95.9892 36.4727 95.9901 36.4768C95.991 36.4808 95.9909 36.485 95.9899 36.4891C93.8052 44.9211 91.6219 53.3556 89.4398 61.7926C89.2066 62.6943 88.9036 63.5716 88.5307 64.4248C87.9259 65.8103 86.7714 66.2041 85.3685 66.3052C83.9712 66.4053 82.5734 66.4179 81.1749 66.343C80.6693 66.3153 80.1726 66.2343 79.6848 66.1002C78.0913 65.6611 77.6041 64.0687 77.205 62.6143C75.9948 58.2081 74.7872 53.8014 73.5821 49.394C73.5739 49.3625 73.5533 49.3467 73.5205 49.3467H68.3771C68.3617 49.3467 68.3465 49.3502 68.3325 49.3569C68.3186 49.3636 68.3063 49.3733 68.2965 49.3855L65.3797 53.0168C65.3723 53.0263 65.368 53.0377 65.3675 53.0496C65.367 53.0615 65.3703 53.0732 65.3769 53.083C68.0077 57.0981 70.6391 61.1142 73.2711 65.1312C73.6939 65.7763 73.4882 66.206 72.7081 66.207C71.0518 66.2101 69.3951 66.2107 67.7382 66.2088C67.3088 66.2088 67.0708 66.0379 66.8339 65.6658C64.4596 61.9308 62.0889 58.2 59.7216 54.4732C59.6951 54.4316 59.6818 54.4357 59.6818 54.4855Z" fill="#232323"/>
<path d="M62.5143 70.7425C62.5098 70.689 62.4978 70.6871 62.4782 70.7369L59.9331 77.1412C59.9198 77.1738 59.8972 77.2018 59.8679 77.2215C59.8387 77.2412 59.8043 77.2517 59.7691 77.2517H59.116C59.0769 77.2517 59.0387 77.24 59.0064 77.2181C58.9741 77.1962 58.9492 77.1651 58.9349 77.1289L56.4116 70.7822C56.38 70.7023 56.3607 70.7051 56.3537 70.7907L55.8277 77.3754C55.825 77.4081 55.8102 77.4386 55.7861 77.4609C55.762 77.4831 55.7305 77.4954 55.6978 77.4953H55.1309C55.1123 77.4954 55.0938 77.4916 55.0767 77.4841C55.0595 77.4767 55.0442 77.4658 55.0315 77.4521C55.0188 77.4384 55.0092 77.4223 55.0031 77.4047C54.9971 77.3871 54.9948 77.3684 54.9963 77.3499L55.6911 69.3684C55.694 69.3339 55.7097 69.3017 55.7351 69.2781C55.7605 69.2545 55.7939 69.2412 55.8286 69.2409C56.1518 69.2381 56.6988 69.1228 56.8476 69.511C57.7039 71.7456 58.5614 73.9738 59.4203 76.1958C59.4223 76.2009 59.4258 76.2053 59.4304 76.2084C59.4349 76.2115 59.4403 76.2132 59.4459 76.2132C59.4514 76.2132 59.4568 76.2115 59.4613 76.2084C59.4659 76.2053 59.4694 76.2009 59.4714 76.1958C60.3359 73.965 61.2027 71.7279 62.0716 69.4845C62.2081 69.1304 62.7399 69.238 63.0394 69.238C63.0752 69.2384 63.1097 69.2519 63.136 69.276C63.1623 69.3001 63.1785 69.333 63.1816 69.3684L63.8755 77.3452C63.8843 77.4446 63.8385 77.4947 63.738 77.4953L63.2072 77.4963C63.1048 77.4963 63.0498 77.4459 63.0422 77.3452L62.5143 70.7425Z" fill="#232323"/>
<path d="M91.3634 72.1698C91.3589 72.1698 91.3545 72.1707 91.3504 72.1724C91.3462 72.1741 91.3425 72.1766 91.3393 72.1798C91.3361 72.183 91.3336 72.1867 91.3319 72.1908C91.3302 72.195 91.3293 72.1994 91.3293 72.2038V77.3227C91.3293 77.4228 91.2794 77.4729 91.1795 77.4729L90.6819 77.4719C90.5871 77.4719 90.5397 77.4247 90.5397 77.3303V69.3724C90.5397 69.283 90.5849 69.2383 90.6752 69.2383L91.152 69.2392C91.255 69.2392 91.3065 69.2905 91.3065 69.3932L91.3056 71.4511C91.3056 71.4914 91.3261 71.5106 91.3672 71.5087C92.2671 71.4577 93.064 71.4533 93.7579 71.4955C95.029 71.573 95.3191 72.4362 95.3323 73.5251C95.3481 74.8196 95.3535 76.0975 95.3485 77.3586C95.3485 77.4499 95.3026 77.4956 95.211 77.4956H94.7029C94.6107 77.4956 94.5645 77.4496 94.5645 77.3577C94.5652 76.208 94.5658 75.0406 94.5664 73.8557C94.5674 73.2012 94.4925 72.2076 93.5929 72.1849C92.8447 72.1661 92.1015 72.161 91.3634 72.1698Z" fill="#232323"/>
<path d="M106.436 73.3372V77.352C106.436 77.4477 106.388 77.4956 106.292 77.4956L105.752 77.4965C105.655 77.4965 105.607 77.4483 105.607 77.352V69.3752C105.607 69.2839 105.653 69.2383 105.744 69.2383L106.3 69.2392C106.391 69.2392 106.436 69.2846 106.436 69.3752V72.7932C106.436 72.8297 106.449 72.835 106.475 72.8092L109.828 69.3979C109.933 69.2915 110.06 69.2383 110.21 69.2383L110.75 69.2392C110.914 69.2399 110.94 69.2994 110.825 69.4177L107.35 73.0179C107.327 73.0419 107.326 73.0667 107.348 73.0926C108.579 74.4752 109.812 75.8655 111.047 77.2632C111.076 77.2953 111.092 77.323 111.096 77.3463C111.1 77.3643 111.1 77.3827 111.096 77.4004C111.092 77.418 111.084 77.4344 111.074 77.4485C111.063 77.4626 111.05 77.4739 111.035 77.4817C111.02 77.4895 111.003 77.4936 110.986 77.4937L110.234 77.4965C110.209 77.4965 110.185 77.4913 110.162 77.4812C110.14 77.4711 110.12 77.4563 110.104 77.4379L106.471 73.3239C106.468 73.3212 106.464 73.3193 106.461 73.3184C106.457 73.3176 106.453 73.3179 106.449 73.3193C106.446 73.3207 106.442 73.3232 106.44 73.3264C106.438 73.3295 106.437 73.3333 106.436 73.3372Z" fill="#232323"/>
<path d="M112.719 69.2393H112.165C112.101 69.2393 112.049 69.2913 112.049 69.3554V77.3794C112.049 77.4436 112.101 77.4956 112.165 77.4956H112.719C112.783 77.4956 112.835 77.4436 112.835 77.3794V69.3554C112.835 69.2913 112.783 69.2393 112.719 69.2393Z" fill="#232323"/>
<path d="M132.571 73.6177C132.571 73.6529 132.584 73.658 132.608 73.6328L134.486 71.6948C134.589 71.5896 134.713 71.5374 134.86 71.538H135.489C135.647 71.538 135.67 71.5937 135.559 71.7052L133.451 73.8302C133.443 73.838 133.439 73.8485 133.438 73.8596C133.438 73.8708 133.441 73.8818 133.448 73.8906C134.369 75.0057 135.282 76.1091 136.187 77.2009C136.244 77.2695 136.265 77.3391 136.25 77.4096C136.246 77.4331 136.233 77.4542 136.214 77.4694C136.195 77.4845 136.172 77.4928 136.148 77.4927L135.493 77.4974C135.406 77.4974 135.335 77.4641 135.28 77.3973L132.632 74.1437C132.592 74.094 132.571 74.1009 132.571 74.1645V77.3539C132.571 77.4483 132.524 77.4956 132.429 77.4956H131.932C131.832 77.4956 131.782 77.4458 131.782 77.3463V69.3922C131.782 69.2896 131.833 69.2383 131.936 69.2383H132.399C132.514 69.2389 132.571 69.2962 132.571 69.4102V73.6177Z" fill="#232323"/>
<path d="M142.397 76.5407C143.069 74.116 143.735 71.6925 144.397 69.2704C144.403 69.2483 144.417 69.2373 144.44 69.2373L145.227 69.2449C145.25 69.2449 145.258 69.2559 145.252 69.2779C144.56 71.7933 143.875 74.2797 143.198 76.7371C143.15 76.9134 143.08 77.0806 142.988 77.2386C142.765 77.6211 141.798 77.5768 141.414 77.4927C141.071 77.4171 140.903 76.9827 140.8 76.6191C140.118 74.2032 139.435 71.7791 138.751 69.3469C138.747 69.3342 138.747 69.3209 138.749 69.308C138.752 69.2951 138.757 69.2829 138.765 69.2725C138.773 69.2621 138.783 69.2536 138.795 69.2479C138.806 69.2421 138.819 69.2391 138.832 69.2392H139.566C139.582 69.2392 139.598 69.2445 139.611 69.2542C139.623 69.2639 139.633 69.2776 139.637 69.293C140.306 71.685 140.979 74.0798 141.656 76.4774C141.766 76.8684 142.286 76.9449 142.397 76.5407Z" fill="#232323"/>
<path d="M153.019 69.2393H152.473C152.406 69.2393 152.351 69.2938 152.351 69.3611V77.3738C152.351 77.441 152.406 77.4956 152.473 77.4956H153.019C153.087 77.4956 153.142 77.441 153.142 77.3738V69.3611C153.142 69.2938 153.087 69.2393 153.019 69.2393Z" fill="#232323"/>
<path d="M75.0343 71.5292C75.0392 71.5297 75.0442 71.5292 75.0489 71.5277C75.0536 71.5262 75.0579 71.5237 75.0616 71.5204C75.0652 71.5171 75.0682 71.513 75.0702 71.5085C75.0721 71.504 75.0732 71.4992 75.0731 71.4942V69.3711C75.0731 69.3019 75.1079 69.2666 75.1774 69.2653L75.7793 69.2568C75.8451 69.2562 75.8779 69.2883 75.8779 69.3532V77.2525C75.8778 77.2744 75.8701 77.2956 75.8561 77.3124C75.842 77.3291 75.8226 77.3404 75.8011 77.3441C74.9764 77.4927 74.1372 77.5585 73.2835 77.5415C72.255 77.5207 71.3289 77.2865 71.1554 76.0975C70.9999 75.0365 70.9987 73.9743 71.1516 72.9109C71.3165 71.7634 72.2066 71.5046 73.2124 71.4753C73.826 71.4583 74.4333 71.4763 75.0343 71.5292ZM73.3783 72.1676C72.2351 72.1818 71.9355 72.6738 71.8976 73.7373C71.8742 74.3959 71.8831 74.9937 71.9241 75.5308C71.9867 76.3364 72.254 76.7321 73.1005 76.7954C73.7558 76.8445 74.4127 76.8159 75.0712 76.7095C75.0984 76.705 75.112 76.689 75.112 76.6613V72.2252C75.112 72.19 75.094 72.172 75.058 72.1714C74.4981 72.162 73.9382 72.1607 73.3783 72.1676Z" fill="#232323"/>
<path d="M77.9444 70.3706C78.2428 70.3706 78.4847 70.1296 78.4847 69.8323C78.4847 69.535 78.2428 69.2939 77.9444 69.2939C77.646 69.2939 77.4041 69.535 77.4041 69.8323C77.4041 70.1296 77.646 70.3706 77.9444 70.3706Z" fill="#232323"/>
<path d="M114.875 70.3705C115.174 70.3705 115.416 70.1291 115.416 69.8313C115.416 69.5334 115.174 69.292 114.875 69.292C114.576 69.292 114.334 69.5334 114.334 69.8313C114.334 70.1291 114.576 70.3705 114.875 70.3705Z" fill="#232323"/>
<path d="M123.793 70.3706C124.091 70.3706 124.333 70.1296 124.333 69.8323C124.333 69.535 124.091 69.2939 123.793 69.2939C123.494 69.2939 123.253 69.535 123.253 69.8323C123.253 70.1296 123.494 70.3706 123.793 70.3706Z" fill="#232323"/>
<path d="M87.1229 72.1552C86.137 72.209 85.8982 72.8588 85.8631 73.7135C85.841 74.2525 85.8457 74.7914 85.8773 75.3304C85.9446 76.4779 86.4081 76.8047 87.5257 76.8047C88.0793 76.8047 88.619 76.8037 89.1448 76.8018C89.2307 76.8012 89.274 76.8437 89.2746 76.9293L89.2756 77.2552C89.2762 77.3414 89.2336 77.389 89.1476 77.3978C88.297 77.4897 87.449 77.4947 86.6034 77.4129C85.5806 77.3147 85.2128 76.6177 85.1114 75.6968C85.0046 74.7322 85.0109 73.8193 85.1303 72.9579C85.2261 72.2723 85.5872 71.6848 86.3171 71.5177C87.2385 71.308 88.1751 71.461 89.1125 71.5281C89.2212 71.5362 89.2756 71.5948 89.2756 71.7037V71.9889C89.2756 72.0954 89.2225 72.1476 89.1163 72.1457C88.1236 72.1338 87.4591 72.1369 87.1229 72.1552Z" fill="#232323"/>
<path d="M65.9797 74.9469C65.9778 75.9773 66.1152 76.8018 67.3826 76.8112C68.0095 76.8163 68.6534 76.8188 69.3144 76.8188C69.3341 76.8187 69.3535 76.8224 69.3717 76.8298C69.3899 76.8372 69.4064 76.8481 69.4203 76.8619C69.4342 76.8757 69.4453 76.8921 69.4528 76.9101C69.4603 76.9282 69.4642 76.9475 69.4642 76.9671L69.4652 77.2768C69.4652 77.3707 69.4184 77.4217 69.3249 77.4298C68.5798 77.4922 67.4783 77.5413 66.6641 77.4336C65.4678 77.275 65.2375 76.3107 65.1872 75.2954C65.1588 74.7369 65.1585 74.1781 65.1863 73.619C65.2564 72.1721 65.6659 71.529 67.1845 71.4336C68.0348 71.3797 69.2434 71.4317 69.6519 72.345C69.9458 73.0023 69.9372 73.8447 69.9344 74.6116C69.9344 74.8005 69.8421 74.8943 69.6576 74.8931C68.4499 74.8861 67.242 74.8865 66.0337 74.894C65.9983 74.894 65.9803 74.9116 65.9797 74.9469ZM66.0309 74.1668H69.0794C69.0867 74.1668 69.0936 74.1639 69.0988 74.1588C69.104 74.1536 69.1069 74.1467 69.1069 74.1394V73.4273C69.1069 73.0944 68.9877 72.7751 68.7756 72.5398C68.5636 72.3044 68.2759 72.1721 67.976 72.1721H67.1342C66.8343 72.1721 66.5467 72.3044 66.3346 72.5398C66.1225 72.7751 66.0034 73.0944 66.0034 73.4273V74.1394C66.0034 74.1467 66.0063 74.1536 66.0114 74.1588C66.0166 74.1639 66.0236 74.1668 66.0309 74.1668Z" fill="#232323"/>
<path d="M97.5767 74.9428C97.5379 75.9827 97.7284 76.8053 98.9721 76.8128C99.6091 76.8172 100.252 76.8191 100.901 76.8185C101.003 76.8185 101.054 76.8692 101.054 76.9705V77.2747C101.054 77.314 101.039 77.352 101.012 77.381C100.985 77.4099 100.948 77.4276 100.909 77.4305C100.327 77.4758 99.737 77.501 99.138 77.506C97.9682 77.5155 97.0393 77.2794 96.8601 75.9553C96.7192 74.912 96.7141 73.9131 96.8449 72.9585C96.9293 72.3418 97.2203 71.7685 97.9114 71.5882C98.7183 71.3772 99.5257 71.3782 100.333 71.591C101.606 71.9263 101.492 73.4827 101.517 74.5868C101.522 74.7876 101.432 74.888 101.247 74.888C100.04 74.8862 98.8334 74.888 97.627 74.8937C97.5948 74.8943 97.578 74.9107 97.5767 74.9428ZM97.6128 74.1665H100.673C100.678 74.1665 100.684 74.1642 100.688 74.1601C100.692 74.1561 100.694 74.1505 100.694 74.1448V73.4289C100.694 73.0955 100.575 72.7757 100.363 72.54C100.151 72.3043 99.8628 72.1718 99.5626 72.1718H98.7228C98.4226 72.1718 98.1347 72.3043 97.9225 72.54C97.7102 72.7757 97.591 73.0955 97.591 73.4289V74.1448C97.591 74.1505 97.5933 74.1561 97.5973 74.1601C97.6014 74.1642 97.607 74.1665 97.6128 74.1665Z" fill="#232323"/>
<path d="M126.479 74.9465C126.462 75.9712 126.617 76.8051 127.86 76.8136C128.492 76.8174 129.141 76.819 129.806 76.8184C129.906 76.8184 129.957 76.8684 129.957 76.9685L129.958 77.2764C129.959 77.3696 129.913 77.4203 129.819 77.4285C128.928 77.5047 128.117 77.5185 127.386 77.47C126.282 77.3964 125.824 76.7504 125.718 75.7209C125.619 74.75 125.629 73.8292 125.749 72.9584C125.837 72.3134 126.162 71.7221 126.891 71.555C127.986 71.3038 129.798 71.2405 130.23 72.5476C130.408 73.0812 130.467 74.0729 130.417 74.7085C130.407 74.8331 130.321 74.8948 130.158 74.8936C128.949 74.8829 127.739 74.8841 126.528 74.8974C126.496 74.8974 126.479 74.9137 126.479 74.9465ZM126.517 74.1664H129.573C129.579 74.1664 129.586 74.1637 129.591 74.1589C129.596 74.1541 129.598 74.1476 129.598 74.1409V73.4382C129.598 73.1023 129.479 72.7802 129.268 72.5426C129.056 72.3051 128.769 72.1717 128.469 72.1717H127.62C127.321 72.1717 127.033 72.3051 126.822 72.5426C126.61 72.7802 126.491 73.1023 126.491 73.4382V74.1409C126.491 74.1476 126.494 74.1541 126.498 74.1589C126.503 74.1637 126.51 74.1664 126.517 74.1664Z" fill="#232323"/>
<path d="M147.065 74.9318C147.051 75.9282 147.179 76.7857 148.406 76.8046C149.056 76.8147 149.719 76.8191 150.394 76.8179C150.493 76.8179 150.543 76.8673 150.543 76.9661V77.2778C150.544 77.3722 150.496 77.4232 150.402 77.4308C149.662 77.4862 148.942 77.5032 148.24 77.4818C147.509 77.4591 146.785 77.2769 146.498 76.5185C146.213 75.7648 146.242 74.9422 146.255 74.0676C146.272 73.0354 146.321 71.8539 147.503 71.5356C148.172 71.3561 149.604 71.3316 150.253 71.7679C151.06 72.311 151.033 73.7871 151.011 74.64C151.007 74.8068 150.921 74.8902 150.753 74.8902H147.107C147.08 74.8902 147.066 74.9041 147.065 74.9318ZM147.098 74.1687H150.168C150.171 74.1687 150.175 74.168 150.178 74.1665C150.182 74.1651 150.185 74.163 150.188 74.1604C150.19 74.1578 150.192 74.1546 150.194 74.1512C150.195 74.1478 150.196 74.1441 150.196 74.1404V73.4868C150.196 73.1376 150.077 72.8028 149.866 72.5559C149.654 72.309 149.368 72.1702 149.069 72.1702H148.197C147.898 72.1702 147.611 72.309 147.4 72.5559C147.188 72.8028 147.07 73.1376 147.07 73.4868V74.1404C147.07 74.1479 147.073 74.1551 147.078 74.1604C147.083 74.1657 147.091 74.1687 147.098 74.1687Z" fill="#232323"/>
<path d="M160.684 74.9368C160.644 75.9568 160.828 76.803 162.056 76.8124C162.709 76.8168 163.36 76.8187 164.01 76.8181C164.05 76.8181 164.088 76.834 164.117 76.8624C164.145 76.8907 164.161 76.9291 164.161 76.9692V77.2743C164.161 77.3687 164.114 77.42 164.02 77.4282C163.147 77.5031 162.342 77.5173 161.606 77.4707C160.375 77.3923 159.983 76.6311 159.9 75.5318C159.829 74.575 159.788 73.436 160.068 72.5105C160.283 71.7955 160.879 71.5207 161.581 71.4508C162.281 71.3819 163.136 71.4008 163.782 71.7115C164.663 72.1346 164.673 73.9168 164.613 74.7139C164.61 74.7616 164.588 74.8062 164.553 74.8387C164.518 74.8713 164.471 74.8895 164.423 74.8895L160.732 74.8914C160.701 74.8914 160.686 74.9065 160.684 74.9368ZM160.718 74.1831L163.774 74.1623C163.779 74.1623 163.783 74.1615 163.787 74.1599C163.791 74.1582 163.794 74.1559 163.797 74.1529C163.8 74.1499 163.802 74.1463 163.804 74.1424C163.805 74.1385 163.806 74.1344 163.806 74.1302L163.801 73.4587C163.799 73.1144 163.678 72.7849 163.465 72.5428C163.252 72.3007 162.965 72.1657 162.666 72.1677L161.8 72.1733C161.652 72.1743 161.506 72.2088 161.37 72.2749C161.233 72.3411 161.11 72.4376 161.006 72.5589C160.902 72.6802 160.82 72.8239 160.765 72.9819C160.709 73.1398 160.681 73.3089 160.682 73.4795L160.687 74.1519C160.687 74.1602 160.69 74.1681 160.696 74.174C160.702 74.1798 160.71 74.1831 160.718 74.1831Z" fill="#232323"/>
<path d="M83.1185 76.3469C83.2399 75.7978 83.0332 75.4172 82.4986 75.205C82.0569 75.03 81.6161 74.8531 81.1763 74.6743C80.2672 74.305 79.8018 74.0339 79.7942 73.029C79.7913 72.6314 79.7733 72.3075 80.0122 71.993C80.3828 71.5047 81.2151 71.4292 81.7914 71.4405C82.3899 71.4531 82.9805 71.4839 83.5631 71.533C83.6585 71.5412 83.7066 71.5929 83.7072 71.6879V71.992C83.7073 72.0121 83.7035 72.032 83.6958 72.0505C83.6882 72.0691 83.677 72.086 83.6628 72.1002C83.6486 72.1144 83.6318 72.1257 83.6132 72.1334C83.5946 72.1411 83.5747 72.145 83.5546 72.145C82.5043 72.1413 81.7823 72.1422 81.3886 72.1479C81.3248 72.1491 81.2429 72.1598 81.1431 72.18C80.4122 72.3292 80.4672 73.2916 80.9156 73.6562C80.987 73.7134 81.2575 73.8384 81.727 74.0311C82.2047 74.2263 82.68 74.4271 83.1527 74.6337C83.9119 74.9652 84.0077 75.5923 83.9356 76.3592C83.8781 76.9718 83.5435 77.3294 82.9318 77.432C81.9517 77.5973 80.8331 77.5199 79.8539 77.4292C79.7629 77.421 79.7174 77.3716 79.7174 77.2809L79.7184 76.9778C79.7186 76.9419 79.7331 76.9075 79.7587 76.8822C79.7842 76.8569 79.8188 76.8427 79.8549 76.8427C80.5797 76.844 81.2963 76.8449 82.0047 76.8455C82.4104 76.8455 83.0143 76.8238 83.1185 76.3469Z" fill="#232323"/>
<path d="M155.399 72.7861C155.329 73.2923 155.551 73.6468 156.064 73.8495C156.965 74.2059 157.58 74.4533 157.907 74.5918C158.383 74.7939 158.666 75.1528 158.731 75.6798C158.899 77.0417 158.295 77.4799 157.032 77.5092C156.238 77.5275 155.445 77.5007 154.652 77.4289C154.564 77.4214 154.52 77.3735 154.52 77.2854V76.9718C154.52 76.9546 154.524 76.9376 154.53 76.9217C154.537 76.9059 154.547 76.8915 154.559 76.8793C154.571 76.8672 154.586 76.8576 154.602 76.8511C154.618 76.8447 154.635 76.8414 154.652 76.8415C155.45 76.8453 156.236 76.8399 157.008 76.8254C157.313 76.8198 157.772 76.7877 157.881 76.4363C158.132 75.6288 157.7 75.3757 157.009 75.0962C156.527 74.9016 156.044 74.7096 155.562 74.5201C154.75 74.1999 154.519 73.4991 154.594 72.6756C154.669 71.8397 155.206 71.5214 155.988 71.4761C156.79 71.4308 157.586 71.4525 158.376 71.5413C158.46 71.5507 158.501 71.5973 158.501 71.6811V72.0116C158.501 72.1023 158.456 72.147 158.365 72.1457C157.272 72.1338 156.52 72.1372 156.109 72.1561C155.721 72.1741 155.453 72.3884 155.399 72.7861Z" fill="#232323"/>
<path d="M117.753 72.2221V77.3221C117.753 77.4222 117.703 77.4723 117.602 77.4723L117.105 77.4713C117.01 77.4707 116.963 77.4235 116.963 77.3297V71.731C116.962 71.705 116.972 71.6797 116.989 71.66C117.006 71.6402 117.03 71.6272 117.055 71.6233C117.949 71.4924 118.833 71.4436 119.708 71.477C121.201 71.5346 121.728 71.9511 121.75 73.4773C121.77 74.7504 121.777 76.0345 121.771 77.3297C121.771 77.4241 121.723 77.4713 121.628 77.4713H121.127C121.033 77.4713 120.985 77.4244 120.985 77.3306C120.991 76.089 120.986 74.8439 120.972 73.5953C120.965 72.9305 120.824 72.2297 120.039 72.1966C119.308 72.1664 118.564 72.1573 117.805 72.1692C117.791 72.1695 117.778 72.1752 117.768 72.1851C117.759 72.195 117.753 72.2083 117.753 72.2221Z" fill="#232323"/>
<path d="M166.752 72.2267V77.3503C166.752 77.3664 166.749 77.3823 166.743 77.3971C166.737 77.412 166.728 77.4254 166.716 77.4368C166.705 77.4481 166.692 77.457 166.677 77.4631C166.662 77.4692 166.646 77.4722 166.63 77.4721L166.087 77.4712C166.007 77.4712 165.966 77.4315 165.966 77.3522V71.7299C165.966 71.7044 165.976 71.6798 165.992 71.6606C166.009 71.6413 166.032 71.6287 166.057 71.6251C167.113 71.4683 168.171 71.428 169.233 71.5042C170.493 71.5939 170.748 72.4817 170.761 73.5489C170.776 74.8044 170.78 76.0652 170.775 77.3314C170.775 77.3688 170.76 77.4046 170.733 77.431C170.707 77.4573 170.671 77.4721 170.633 77.4721H170.133C170.038 77.4727 169.99 77.4258 169.99 77.3314C169.992 76.2402 169.994 75.1289 169.997 73.9975C169.999 73.4403 169.987 72.4779 169.358 72.2522C169.182 72.1886 168.944 72.1562 168.644 72.1549C168.03 72.1517 167.416 72.1593 166.802 72.1776C166.769 72.1782 166.752 72.1946 166.752 72.2267Z" fill="#232323"/>
<path d="M78.2196 71.5146H77.6661C77.6022 71.5146 77.5504 71.5662 77.5504 71.6299V77.357C77.5504 77.4206 77.6022 77.4722 77.6661 77.4722H78.2196C78.2835 77.4722 78.3353 77.4206 78.3353 77.357V71.6299C78.3353 71.5662 78.2835 71.5146 78.2196 71.5146Z" fill="#232323"/>
<path d="M115.173 71.5146H114.629C114.561 71.5146 114.505 71.5696 114.505 71.6374V77.3494C114.505 77.4172 114.561 77.4722 114.629 77.4722H115.173C115.241 77.4722 115.296 77.4172 115.296 77.3494V71.6374C115.296 71.5696 115.241 71.5146 115.173 71.5146Z" fill="#232323"/>
<path d="M124.071 71.5146H123.516C123.452 71.5146 123.4 71.5662 123.4 71.6299V77.357C123.4 77.4206 123.452 77.4722 123.516 77.4722H124.071C124.135 77.4722 124.187 77.4206 124.187 77.357V71.6299C124.187 71.5662 124.135 71.5146 124.071 71.5146Z" fill="#232323"/>
</svg>
