<svg width="347" height="690" viewBox="0 0 347 690" fill="none" xmlns="http://www.w3.org/2000/svg">
<path d="M184.413 605.398L137.003 621.246C118.126 548.672 161.466 471.393 109.85 419.177L185.039 384.815C213.546 432.368 193.391 505.197 184.413 605.389V605.398Z" fill="#595959" stroke="#231F20" stroke-width="3" stroke-linecap="round" stroke-linejoin="round"/>
<path d="M139.847 645.709C140.168 656.489 145.846 663.495 146.701 663.749C159.088 667.379 193.459 667.083 224.191 664.536C237.493 663.436 258.046 655.279 261.447 650.304C266.389 643.078 258.113 627.365 257.377 627.686L139.847 645.709Z" fill="#F3E3EF" stroke="#231F20" stroke-width="3" stroke-linecap="round" stroke-linejoin="round"/>
<path d="M218.462 649.991C209.383 651.7 156.075 655.364 141.936 647.046C136.157 643.644 130.564 612.43 131.562 592.207C131.562 592.207 162.921 604.611 188.348 587.502C188.348 587.545 173.955 610.611 220.62 608.622C222.896 608.529 231.577 608.529 233.151 608.927C233.151 608.927 204.585 622.398 218.462 649.982V649.991Z" fill="url(#paint0_radial_1367_23713)" stroke="#231F20" stroke-width="3" stroke-linecap="round" stroke-linejoin="round"/>
<path d="M188.888 593.434C188.888 593.434 179.361 596.971 171.864 606.634C170.493 608.402 167.845 608.461 166.381 606.769C161.532 601.168 153.265 590.227 159.798 587.426C163.106 586.005 178.151 580.775 186.883 573.414C191.977 569.115 188.897 593.434 188.897 593.434H188.888Z" fill="#B1C3FF" stroke="#231F20" stroke-width="3" stroke-linecap="round" stroke-linejoin="round"/>
<path d="M229.953 608.655C229.953 608.655 215.137 619.283 210.652 626.391C210.652 626.391 208.393 627.914 203.985 627.415C202.665 627.262 201.793 625.968 202.165 624.69C203.189 621.221 206.337 614.384 215.873 607.894C229.386 598.696 229.944 608.655 229.944 608.655H229.953Z" fill="#F3E3EF" stroke="#231F20" stroke-width="3" stroke-linecap="round" stroke-linejoin="round"/>
<path d="M217.962 604.899C217.962 604.899 203.146 615.527 198.662 622.634C198.662 622.634 196.403 624.157 191.994 623.658C190.674 623.506 189.803 622.211 190.175 620.934C191.199 617.464 194.346 610.628 203.882 604.138C217.396 594.94 217.954 604.899 217.954 604.899H217.962Z" fill="#F3E3EF" stroke="#231F20" stroke-width="3" stroke-linecap="round" stroke-linejoin="round"/>
<path d="M207.165 600.677C207.165 600.677 192.349 611.304 187.865 618.412C187.865 618.412 185.605 619.935 181.197 619.436C179.877 619.283 179.005 617.989 179.378 616.711C180.402 613.242 183.549 606.405 193.085 599.915C206.598 590.717 207.157 600.677 207.157 600.677H207.165Z" fill="#F3E3EF" stroke="#231F20" stroke-width="3" stroke-linecap="round" stroke-linejoin="round"/>
<path d="M197.308 595.651C197.308 595.651 181.316 606.803 176.366 614.114C176.366 614.114 173.929 615.713 169.275 615.324C167.879 615.205 166.99 613.919 167.422 612.616C168.607 609.079 172.118 602.073 182.407 595.253C196.978 585.582 197.308 595.651 197.308 595.651Z" fill="#F3E3EF" stroke="#231F20" stroke-width="3" stroke-linecap="round" stroke-linejoin="round"/>
<path d="M256.835 636.994C245.226 646.454 231.112 649.255 218.462 649.982C204.585 622.398 233.151 608.927 233.151 608.927C239.074 609.384 244.921 612.058 249.838 615.561C255.803 619.809 264.273 630.927 256.827 636.994H256.835Z" fill="#F3E3EF" stroke="#231F20" stroke-width="3" stroke-linecap="round" stroke-linejoin="round"/>
<path d="M131.469 599.712C131.469 599.712 146.852 604.679 163.174 602.834" stroke="#231F20" stroke-width="3" stroke-linecap="round" stroke-linejoin="round"/>
<path d="M137.105 433.342C146.252 484.441 132.434 527.958 102.049 607.937L46.3047 600.702C93.1053 471.004 51.4916 511.89 54.1993 384.223" fill="#595959"/>
<path d="M137.105 433.342C146.252 484.441 132.434 527.958 102.049 607.937L46.3047 600.702C93.1053 471.004 51.4916 511.89 54.1993 384.223" stroke="#231F20" stroke-width="3" stroke-linecap="round" stroke-linejoin="round"/>
<path d="M42.8431 646.58C36.9285 656.2 43.1477 665.593 43.943 666.058C55.5184 672.81 86.7837 680.536 118.633 686.577C132.417 689.192 155.457 687.263 160.255 683.582C167.227 678.234 163.09 661.413 162.26 661.506L42.8431 646.571V646.58Z" fill="#F3E3EF" stroke="#231F20" stroke-width="3" stroke-linecap="round" stroke-linejoin="round"/>
<path d="M117.405 671.567C107.742 670.67 56.3641 660.889 44.281 649.313C39.348 644.583 41.8187 612.844 48.3087 594.381C48.3087 594.381 76.3586 613.462 103.808 605.432C103.808 605.474 82.9586 622.905 130.8 633.829C133.135 634.362 141.935 636.74 143.425 637.543C143.425 637.543 110.814 642.214 117.405 671.567Z" fill="url(#paint1_radial_1367_23713)" stroke="#231F20" stroke-width="3" stroke-linecap="round" stroke-linejoin="round"/>
<path d="M102.75 611.075C102.75 611.075 92.1311 611.744 81.9181 618.657C80.0481 619.918 77.3489 619.249 76.325 617.286C72.932 610.762 67.5081 598.366 74.8866 597.562C78.6266 597.148 95.2957 596.42 106.135 591.978C112.464 589.389 102.75 611.084 102.75 611.084V611.075Z" fill="#B1C3FF" stroke="#231F20" stroke-width="3" stroke-linecap="round" stroke-linejoin="round"/>
<path d="M140.253 636.41C140.253 636.41 122.348 642.206 115.884 647.562C115.884 647.562 113.176 648.357 108.852 646.682C107.558 646.183 107.025 644.744 107.752 643.661C109.732 640.733 114.775 635.25 126.198 631.849C142.394 627.026 140.253 636.41 140.253 636.41Z" fill="#F3E3EF" stroke="#231F20" stroke-width="3" stroke-linecap="round" stroke-linejoin="round"/>
<path d="M129.116 629.648C129.116 629.648 111.211 635.445 104.747 640.801C104.747 640.801 102.039 641.596 97.715 639.921C96.4204 639.422 95.8873 637.983 96.615 636.9C98.595 633.972 103.638 628.489 115.061 625.088C131.256 620.265 129.116 629.648 129.116 629.648Z" fill="#F3E3EF" stroke="#231F20" stroke-width="3" stroke-linecap="round" stroke-linejoin="round"/>
<path d="M119.309 622.786C119.309 622.786 101.405 628.582 94.9399 633.938C94.9399 633.938 92.2322 634.734 87.9084 633.058C86.6138 632.559 86.0807 631.121 86.8084 630.037C88.7884 627.11 93.8315 621.627 105.254 618.225C121.45 613.402 119.309 622.786 119.309 622.786Z" fill="#F3E3EF" stroke="#231F20" stroke-width="3" stroke-linecap="round" stroke-linejoin="round"/>
<path d="M110.68 615.433C110.68 615.433 91.4468 621.39 84.4492 626.814C84.4492 626.814 81.5469 627.634 76.9353 625.993C75.5561 625.502 74.9977 624.064 75.793 622.981C77.9507 620.028 83.4169 614.494 95.6861 610.991C113.083 606.015 110.68 615.433 110.68 615.433Z" fill="#F3E3EF" stroke="#231F20" stroke-width="3" stroke-linecap="round" stroke-linejoin="round"/>
<path d="M159.823 670.027C145.489 675.62 130.419 674.351 117.406 671.567C110.814 642.214 143.425 637.543 143.425 637.543C149.306 639.591 154.509 643.669 158.546 648.255C163.445 653.823 169.021 666.448 159.823 670.027Z" fill="#F3E3EF" stroke="#231F20" stroke-width="3" stroke-linecap="round" stroke-linejoin="round"/>
<path d="M46.1094 601.599C46.1094 601.599 57.1009 609.993 74.1424 612.743" stroke="#231F20" stroke-width="3" stroke-linecap="round" stroke-linejoin="round"/>
<path d="M184.82 173.57C196.648 176.812 196.979 192.319 196.979 192.319C208.353 298.917 224.859 297.426 261.447 323.251C264.952 325.726 267.209 329.593 267.681 333.856C268.446 340.869 268.041 351.74 260.493 360.172C248.219 373.885 237.126 370.378 237.126 370.378C183.955 353.349 139.444 286.956 128.275 188.727" fill="url(#paint2_radial_1367_23713)"/>
<path d="M184.82 173.57C196.648 176.812 196.979 192.319 196.979 192.319C208.353 298.917 224.859 297.426 261.447 323.251C264.952 325.726 267.209 329.593 267.681 333.856C268.446 340.869 268.041 351.74 260.493 360.172C248.219 373.885 237.126 370.378 237.126 370.378C183.955 353.349 139.444 286.956 128.275 188.727" stroke="#231F20" stroke-width="3" stroke-linecap="round" stroke-linejoin="round"/>
<path d="M304.827 367.704C316.869 373.745 329.293 381.273 333.539 375.518C342.799 362.962 309.174 351.321 304.614 347.119C301.253 344.023 291.528 337.028 287.145 335.812C280.881 334.076 270.915 337.177 266.14 334.587C262.763 332.751 263.647 332.138 261.465 330.43C261.465 330.43 252.929 327.896 242.912 340.521C232.895 353.146 238.494 365.164 238.494 365.164C243.375 368.407 243.418 370.175 248.996 371.03C257.01 372.269 254.111 378.463 261.176 385.896C266.16 391.138 294.99 407.791 300.311 409.089C313.061 412.2 316.219 398.87 293.094 387.429" fill="#F8C999"/>
<path d="M304.827 367.704C316.869 373.745 329.293 381.273 333.539 375.518C342.799 362.962 309.174 351.321 304.614 347.119C301.253 344.023 291.528 337.028 287.145 335.812C280.881 334.076 270.915 337.177 266.14 334.587C262.763 332.751 263.647 332.138 261.465 330.43C261.465 330.43 252.929 327.896 242.912 340.521C232.895 353.146 238.494 365.164 238.494 365.164C243.375 368.407 243.418 370.175 248.996 371.03C257.01 372.269 254.111 378.463 261.176 385.896C266.16 391.138 294.99 407.791 300.311 409.089C313.061 412.2 316.219 398.87 293.094 387.429" stroke="#231F20" stroke-width="3" stroke-linecap="round" stroke-linejoin="round"/>
<path d="M301.212 374.521C309.363 382.774 314.799 379.518 316.044 375.549C317.663 370.398 315.263 364.339 308.134 359.566C305.368 357.72 302.078 357.543 299.6 359.109C296.01 361.379 292.789 365.997 301.212 374.521Z" fill="#F8C999" stroke="#231F20" stroke-width="3" stroke-linecap="round" stroke-linejoin="round"/>
<path d="M293.511 370.337C295.719 370.34 297.784 371.061 299.48 372.246C303.425 374.991 310.752 381.221 306.157 386.966C303.255 390.595 298.725 392.347 289.449 384.338C286.844 382.091 285.641 378.557 286.641 375.074C287.359 372.574 289.197 370.325 293.511 370.337Z" fill="#F8C999" stroke="#231F20" stroke-width="3" stroke-linecap="round" stroke-linejoin="round"/>
<path d="M292.488 346.034C301.132 342.304 305.724 333.673 303.243 329.125C300.306 323.744 287.001 326.715 274.302 338.218" fill="#F8C999"/>
<path d="M292.488 346.034C301.132 342.304 305.724 333.673 303.243 329.125C300.306 323.744 287.001 326.715 274.302 338.218" stroke="#231F20" stroke-width="3" stroke-linecap="round" stroke-linejoin="round"/>
<path d="M61.4488 186.663C77.4157 175.57 126.56 183.371 146.749 188.372C181.391 196.944 193.448 205.634 190.106 222.438C172.904 308.983 187.221 341.644 194.455 393.276C194.455 393.276 193.745 438.968 50.6434 408.989C22.7712 403.151 12.6174 220.594 61.4488 186.663Z" fill="url(#paint3_radial_1367_23713)"/>
<mask id="mask0_1367_23713" style="mask-type:luminance" maskUnits="userSpaceOnUse" x="27" y="181" width="168" height="239">
<path d="M61.4488 186.662C77.4157 175.569 126.56 183.371 146.749 188.371C181.391 196.943 193.448 205.633 190.106 222.437C172.904 308.982 187.221 341.643 194.455 393.275C194.455 393.275 193.745 438.968 50.6434 408.988C22.7712 403.15 12.6174 220.593 61.4488 186.662Z" fill="white"/>
</mask>
<g mask="url(#mask0_1367_23713)">
<path d="M202.147 383.74C224.528 395.874 83.5251 414.083 101.015 395.586C115.4 380.373 117.405 359.76 117.092 347.407C116.94 341.45 121.5 336.432 127.449 336.068L159.112 334.097C164.459 333.767 169.291 337.295 170.535 342.507C173.149 353.516 180.663 372.089 202.139 383.732L202.147 383.74Z" fill="url(#paint4_radial_1367_23713)" stroke="#231F20" stroke-width="3" stroke-linecap="round" stroke-linejoin="round"/>
<path d="M194.261 442.302L18.9127 415.564C18.9127 415.564 18.7604 370.667 29.1258 373.815C155.862 412.205 193.186 377.047 193.186 377.047L194.252 442.302H194.261Z" fill="url(#paint5_radial_1367_23713)" stroke="#231F20" stroke-width="3" stroke-linecap="round" stroke-linejoin="round"/>
</g>
<path d="M61.4488 186.663C77.4157 175.57 126.56 183.371 146.749 188.372C181.391 196.944 193.448 205.634 190.106 222.438C172.904 308.983 187.221 341.644 194.455 393.276C194.455 393.276 193.745 438.968 50.6434 408.989C22.7712 403.151 12.6174 220.594 61.4488 186.663Z" stroke="#231F20" stroke-width="3" stroke-linecap="round" stroke-linejoin="round"/>
<path d="M83.5855 196.969C92.6562 205.168 83.137 221.575 79.9386 226.161C56.6779 259.593 42.2256 290.452 70.9947 319.72C74.0578 322.843 75.217 327.361 74.4047 331.66C72.924 339.588 67.0009 352.23 59.3771 355.64C47.9794 360.733 40.161 359.388 36.311 358C34.8302 357.467 33.4679 356.613 32.3172 355.546C-21.9042 305.454 5.32493 206.243 53.124 181.51" fill="url(#paint6_radial_1367_23713)"/>
<path d="M83.5855 196.969C92.6562 205.168 83.137 221.575 79.9386 226.161C56.6779 259.593 42.2256 290.452 70.9947 319.72C74.0578 322.843 75.217 327.361 74.4047 331.66C72.924 339.588 67.0009 352.23 59.3771 355.64C47.9794 360.733 40.161 359.388 36.311 358C34.8302 357.467 33.4679 356.613 32.3172 355.546C-21.9042 305.454 5.32493 206.243 53.124 181.51" stroke="#231F20" stroke-width="3" stroke-linecap="round" stroke-linejoin="round"/>
<path d="M93.4006 344.648C102.184 343.345 103.673 340.197 102.201 336.44C100.466 331.998 91.886 329.527 77.8652 335.873" fill="#F8C999"/>
<path d="M93.4006 344.648C102.184 343.345 103.673 340.197 102.201 336.44C100.466 331.998 91.886 329.527 77.8652 335.873" stroke="#231F20" stroke-width="3" stroke-linecap="round" stroke-linejoin="round"/>
<path d="M99.6706 368.433C109.706 376.454 113.488 372.867 113.488 372.867C122.779 364.54 106.964 354.006 103.546 349.183C101.024 345.629 93.333 337.176 89.483 335.179C83.9745 332.319 74.0746 333.241 70.1315 329.874C67.3392 327.496 68.2869 327.098 66.5861 325.068C66.5861 325.068 59.1231 321.014 47.2769 330.813C39.7631 337.032 38.0877 343.979 37.9185 348.396C37.8254 350.833 38.68 353.211 40.2285 355.089C42.2931 357.602 42.9108 358.956 46.9216 360.479C57.9723 364.659 60.68 382.284 74.1761 391.457C84.533 398.497 90.0414 390.373 85.2099 384.104" fill="#F8C999"/>
<path d="M99.6706 368.433C109.706 376.454 113.488 372.867 113.488 372.867C122.779 364.54 106.964 354.006 103.546 349.183C101.024 345.629 93.3329 337.176 89.483 335.179C83.9745 332.319 74.0746 333.241 70.1315 329.874C67.3392 327.496 68.2869 327.098 66.5861 325.068C66.5861 325.068 59.1231 321.014 47.2769 330.813C39.7631 337.032 38.0877 343.979 37.9185 348.396C37.8254 350.833 38.68 353.211 40.2285 355.089C42.2931 357.602 42.9108 358.956 46.9216 360.479C57.9723 364.659 60.68 382.284 74.1761 391.457C84.533 398.497 90.0414 390.373 85.2099 384.104" stroke="#231F20" stroke-width="3" stroke-linecap="round" stroke-linejoin="round"/>
<path d="M101.565 361.427C109.155 370.007 110.653 375.287 105.652 379.67C102.369 382.555 95.8962 382.843 91.5132 372.579" fill="#F8C999"/>
<path d="M101.565 361.427C109.155 370.007 110.653 375.287 105.652 379.67C102.369 382.555 95.8962 382.843 91.5132 372.579" stroke="#231F20" stroke-width="3" stroke-linecap="round" stroke-linejoin="round"/>
<path d="M90.5912 370.311C90.5912 370.311 102.133 381.514 95.795 387.133C92.5035 390.052 87.8751 390.467 79.9551 377.901" fill="#F8C999"/>
<path d="M90.5912 370.311C90.5912 370.311 102.133 381.514 95.795 387.133C92.5035 390.052 87.8751 390.467 79.9551 377.901" stroke="#231F20" stroke-width="3" stroke-linecap="round" stroke-linejoin="round"/>
<path d="M77.3753 192.578C54.8 173.387 48.3861 207.284 27.9093 187.247C-5.226 154.831 35.9562 116.39 56.2638 111.923C87.6476 105.018 166.983 95.5751 191.436 150.101C199.906 168.979 206.143 194.558 169.555 204.153" fill="#A8D8F9"/>
<path d="M77.3753 192.578C54.8 173.387 48.3861 207.284 27.9093 187.247C-5.226 154.831 35.9562 116.39 56.2638 111.923C87.6476 105.018 166.983 95.5751 191.436 150.101C199.906 168.979 206.143 194.558 169.555 204.153" stroke="#231F20" stroke-width="3" stroke-linecap="round" stroke-linejoin="round"/>
<path d="M153.629 190.462C152.884 194.253 144.118 204.974 144.118 204.974C126.425 201.496 102.225 177.195 102.97 173.404C103.715 169.613 108.622 177.195 126.315 180.672C144.008 184.15 154.374 186.672 153.629 190.462Z" fill="#F8C89A" stroke="#231F20" stroke-width="3" stroke-linecap="round" stroke-linejoin="round"/>
<path d="M195.632 120.123C186.486 167.279 186.596 182.62 158.529 196.903C153.029 199.704 149.069 199.424 139.761 199.314C125.47 199.145 121.51 197.081 113.42 193.806C77.5267 179.294 67.4321 153.665 64.2421 112.195C60.1552 59.0987 97.3774 37.6403 134.261 39.2141C165.163 40.5341 184.751 43.7918 190.979 76.4786C192.18 82.7994 198.569 104.943 195.624 120.123H195.632Z" fill="#F8C89A"/>
<mask id="mask1_1367_23713" style="mask-type:luminance" maskUnits="userSpaceOnUse" x="63" y="39" width="134" height="161">
<path d="M195.632 120.124C186.486 167.28 186.596 182.621 158.529 196.904C153.029 199.705 149.069 199.425 139.761 199.315C125.47 199.146 121.51 197.082 113.42 193.807C77.5267 179.295 67.4321 153.666 64.2421 112.196C60.1552 59.0996 97.3774 37.6413 134.261 39.2151C165.163 40.5351 184.751 43.7928 190.979 76.4796C192.18 82.8004 198.569 104.944 195.624 120.124H195.632Z" fill="white"/>
</mask>
<g mask="url(#mask1_1367_23713)">
<path d="M195.979 134.999C195.979 134.999 190.073 148.774 182.373 152.481C174.673 156.187 158.528 125.387 119.419 153.158C89.2625 174.582 78.6264 139.89 78.6264 139.89L72.1279 147.768C72.1279 147.768 76.0456 207.497 141.343 201.498C206.649 195.499 195.979 134.991 195.979 134.991V134.999Z" fill="#BD814A"/>
</g>
<path d="M195.632 120.123C186.486 167.279 186.596 182.62 158.529 196.903C153.029 199.704 149.069 199.424 139.761 199.314C125.47 199.145 121.51 197.081 113.42 193.806C77.5267 179.294 67.4321 153.665 64.2421 112.195C60.1552 59.0987 97.3774 37.6403 134.261 39.2141C165.163 40.5341 184.751 43.7918 190.979 76.4786C192.18 82.7994 198.569 104.943 195.624 120.123H195.632Z" stroke="#231F20" stroke-width="3" stroke-miterlimit="10"/>
<path d="M78.0603 138.01C76.1226 144.475 72.1711 149.188 66.8234 150.448C56.9404 152.775 46.0335 142.385 42.4627 127.247C38.892 112.101 44.0197 97.9363 53.9027 95.6094C61.0865 93.9171 68.8119 98.9432 73.8719 107.633" fill="#F8C89A"/>
<path d="M78.0603 138.01C76.1226 144.475 72.1711 149.188 66.8234 150.448C56.9404 152.775 46.0335 142.385 42.4627 127.247C38.892 112.101 44.0197 97.9363 53.9027 95.6094C61.0865 93.9171 68.8119 98.9432 73.8719 107.633" stroke="#231F20" stroke-width="3" stroke-miterlimit="10" stroke-linecap="round"/>
<path d="M64.1423 134.558C59.7677 135.591 54.9362 130.988 53.3539 124.286C52.7954 121.925 52.7193 119.624 53.0408 117.576" stroke="#231F20" stroke-width="3" stroke-miterlimit="10" stroke-linecap="round"/>
<path d="M158.901 109.317C164.012 113.286 165.019 147.038 158.207 148.054C152.826 148.858 150.245 138.365 143.349 141.75" fill="#F8C999"/>
<path d="M158.901 109.317C164.012 113.286 165.019 147.038 158.207 148.054C152.826 148.858 150.245 138.365 143.349 141.75" stroke="#231F20" stroke-width="2" stroke-miterlimit="10" stroke-linecap="round"/>
<path d="M133.025 154.417C146.395 162.76 165.848 154.095 165.848 154.095" stroke="#231F20" stroke-width="2" stroke-miterlimit="10" stroke-linecap="round"/>
<path d="M134.798 117.48C135.185 108.399 131.407 100.863 126.36 100.648C121.313 100.433 116.907 107.62 116.52 116.701C116.134 125.782 119.911 133.318 124.958 133.533C130.006 133.748 134.411 126.561 134.798 117.48Z" fill="white" stroke="#231F20" stroke-width="2" stroke-miterlimit="10"/>
<path d="M133.99 117.441C134.166 113.299 132.444 109.863 130.142 109.765C127.84 109.666 125.831 112.944 125.654 117.086C125.478 121.227 127.201 124.664 129.503 124.762C131.804 124.86 133.814 121.582 133.99 117.441Z" fill="#935E2A" stroke="#231F20" stroke-width="2" stroke-miterlimit="10"/>
<path d="M185.599 115.858C185.986 106.777 182.208 99.2406 177.161 99.0255C172.114 98.8104 167.709 105.998 167.322 115.079C166.935 124.16 170.713 131.696 175.76 131.911C180.807 132.126 185.212 124.939 185.599 115.858Z" fill="white" stroke="#231F20" stroke-width="2" stroke-miterlimit="10"/>
<path d="M184.799 115.818C184.976 111.677 183.253 108.24 180.951 108.142C178.649 108.044 176.64 111.322 176.464 115.463C176.287 119.605 178.01 123.041 180.312 123.139C182.614 123.238 184.623 119.96 184.799 115.818Z" fill="#935E2A" stroke="#231F20" stroke-width="2" stroke-miterlimit="10"/>
<path d="M190.386 70.2924C189.658 69.9878 142.993 51.0171 67.1102 96.8362C46.3541 101.372 42.1064 110.662 42.1064 110.662C42.1064 110.662 30.3534 84.8293 42.978 46.3971C49.7557 25.7848 105.415 -6.34352 162.201 19.2018C175.697 25.2687 182.034 50.6025 190.386 70.2839V70.2924Z" fill="#ADD8F8"/>
<mask id="mask2_1367_23713" style="mask-type:luminance" maskUnits="userSpaceOnUse" x="37" y="9" width="154" height="102">
<path d="M190.386 70.2919C189.658 69.9873 142.993 51.0166 67.1102 96.8357C46.3541 101.371 42.1064 110.662 42.1064 110.662C42.1064 110.662 30.3534 84.8288 42.978 46.3966C49.7557 25.7844 105.415 -6.34401 162.201 19.2013C175.697 25.2682 182.034 50.602 190.386 70.2835V70.2919Z" fill="white"/>
</mask>
<g mask="url(#mask2_1367_23713)">
<path d="M104.612 10.292C104.612 10.292 71.1719 23.1535 64.7157 44.0112C61.7204 53.6742 67.1104 96.8448 67.1104 96.8448" stroke="#231F20" stroke-width="3" stroke-linejoin="round"/>
</g>
<path d="M190.386 70.2924C189.658 69.9878 142.993 51.0171 67.1102 96.8362C46.3541 101.372 42.1064 110.662 42.1064 110.662C42.1064 110.662 30.3534 84.8293 42.978 46.3971C49.7557 25.7848 105.415 -6.34352 162.201 19.2018C175.697 25.2687 182.034 50.6025 190.386 70.2839V70.2924Z" stroke="#231F20" stroke-width="3" stroke-linejoin="round"/>
<path d="M225.949 96.7093C210.668 88.9501 179.233 79.1179 142.087 101.947C132.331 107.946 75.2837 95.0509 67.1099 96.8447C142.993 51.0256 189.658 69.9963 190.386 70.301C210.38 76.6556 222.125 85.8109 228.649 92.7917C230.485 94.7632 228.31 97.9193 225.941 96.7093H225.949Z" fill="#A8D8F8" stroke="#231F20" stroke-width="3" stroke-linejoin="round"/>
<path d="M113.599 7.4913C114.428 11.4174 109.266 9.1836 103.724 10.3513C98.1818 11.5274 94.3742 15.6736 93.5365 11.739C92.7073 7.81284 96.5149 3.67516 102.057 2.49901C107.6 1.32286 112.761 3.55669 113.599 7.4913Z" fill="#9E9A9F" stroke="#231F20" stroke-width="3" stroke-miterlimit="10"/>
<path d="M94.262 258.889C94.2517 254.647 94.2414 250.405 94.2311 246.163C95.9802 245.762 97.7359 245.379 99.4957 245.033C103.683 244.204 106.588 246.336 106.603 250.2C106.615 254.081 103.711 257.02 99.5297 257.805C97.7722 258.133 96.0189 258.498 94.2632 258.881L94.262 258.889ZM103.698 250.675C103.689 248.409 102.247 246.893 99.5046 247.434C98.6991 247.59 97.8925 247.755 97.0847 247.928C97.0875 250.581 97.0981 253.244 97.1009 255.897C97.9075 255.733 98.7142 255.568 99.5273 255.423C102.174 254.923 103.709 252.851 103.707 250.676L103.698 250.675Z" fill="#1A1A1A"/>
<path d="M108.026 254.609C108.541 253.847 109.049 253.074 109.564 252.312C110.512 253.132 111.975 253.739 113.814 253.548C115.37 253.383 116.129 252.616 116.127 251.876C116.128 249.539 108.441 252.002 108.43 247.218C108.423 245.079 110.347 243.004 113.482 242.632C115.598 242.387 117.362 242.835 118.682 243.911C118.155 244.627 117.635 245.353 117.107 246.077C116.031 245.205 114.59 244.907 113.224 245.07C112.005 245.216 111.321 245.821 111.327 246.598C111.334 248.602 118.992 246.424 118.997 251.325C118.999 253.707 117.27 255.6 113.666 255.974C111.105 256.241 109.26 255.656 108.016 254.617L108.026 254.609Z" fill="#1A1A1A"/>
<path d="M125.157 254.905C125.153 251.368 125.148 247.839 125.144 244.302C123.845 244.365 122.554 244.439 121.261 244.531C121.26 243.719 121.258 242.906 121.257 242.094C124.792 241.837 128.329 241.698 131.843 241.664C131.843 242.485 131.845 243.298 131.845 244.119C130.562 244.13 129.278 244.151 127.992 244.189C127.996 247.727 127.998 251.273 128.002 254.81C127.052 254.83 126.11 254.859 125.158 254.896L125.157 254.905Z" fill="#1A1A1A"/>
<path d="M141.602 255.066C140.751 253.447 139.888 251.845 139.025 250.242C138.343 250.216 137.66 250.189 136.977 250.171C136.979 251.733 136.981 253.294 136.974 254.854C136.04 254.821 135.104 254.806 134.167 254.791C134.167 250.406 134.165 246.03 134.164 241.654C136.22 241.663 138.28 241.708 140.325 241.797C143.062 241.913 144.721 243.846 144.723 246.3C144.721 248.646 143.271 249.791 141.857 250.047C142.837 251.782 143.817 253.526 144.794 255.287C143.732 255.202 142.667 255.134 141.602 255.066ZM141.876 246.124C141.878 245.015 141.034 244.299 139.912 244.251C138.934 244.212 137.954 244.183 136.975 244.153C136.973 245.335 136.979 246.518 136.976 247.708C137.956 247.738 138.935 247.767 139.914 247.806C141.035 247.854 141.885 247.226 141.878 246.115L141.876 246.124Z" fill="#1A1A1A"/>
<path d="M146.114 248.774C146.117 244.705 149.161 242.137 153.035 242.593C155.887 242.932 157.52 244.789 158.419 246.595C157.634 246.87 156.847 247.155 156.069 247.449C155.527 246.286 154.371 245.268 153.038 245.111C150.693 244.829 148.972 246.525 148.967 249.032C148.962 251.54 150.672 253.561 153.015 253.86C154.354 254.036 155.508 253.358 156.058 252.329C156.84 252.838 157.62 253.356 158.4 253.874C157.469 255.393 155.856 256.751 153.008 256.376C149.141 255.868 146.111 252.843 146.115 248.765L146.114 248.774Z" fill="#1A1A1A"/>
<path d="M163.469 257.852C163.488 254.21 163.498 250.566 163.516 246.932C162.275 246.697 161.032 246.479 159.786 246.279C159.788 245.44 159.79 244.601 159.791 243.771C163.201 244.319 166.579 244.98 169.916 245.744C169.913 246.592 169.911 247.431 169.899 248.277C168.681 248 167.454 247.73 166.224 247.478C166.205 251.12 166.193 254.773 166.173 258.425C165.269 258.234 164.364 258.042 163.458 257.869L163.469 257.852Z" fill="#1A1A1A"/>
<path d="M94.0563 271.439C94.0509 269.011 94.0467 266.574 94.0413 264.146C94.2735 264.096 94.5058 264.045 94.738 263.994C95.6728 265.119 96.6165 266.244 97.5489 267.387C98.4774 265.885 99.4058 264.383 100.333 262.89C100.564 262.848 100.795 262.806 101.035 262.766C101.038 265.211 101.05 267.658 101.053 270.103C100.822 270.145 100.591 270.187 100.352 270.219C100.346 268.143 100.339 266.067 100.34 264C99.4119 265.502 98.4734 267.012 97.5438 268.523C96.6125 267.372 95.67 266.237 94.7352 265.113C94.7441 267.171 94.7441 269.228 94.753 271.287C94.5208 271.337 94.2886 271.388 94.0575 271.43L94.0563 271.439Z" fill="#1A1A1A"/>
<path d="M114.152 268.389C114.143 265.916 114.144 263.444 114.134 260.979C115.596 260.838 117.066 260.707 118.524 260.601C118.524 260.808 118.525 261.007 118.524 261.214C117.294 261.305 116.063 261.405 114.83 261.522C114.829 262.415 114.83 263.3 114.839 264.194C115.98 264.092 117.129 263.999 118.268 263.914C118.268 264.122 118.268 264.329 118.269 264.528C117.13 264.613 115.981 264.705 114.839 264.808C114.839 265.773 114.847 266.74 114.845 267.714C116.078 267.605 117.309 267.506 118.538 267.424C118.537 267.631 118.537 267.839 118.538 268.037C117.073 268.133 115.613 268.257 114.152 268.389Z" fill="#1A1A1A"/>
<path d="M131.439 267.659C131.435 265.15 131.439 262.652 131.435 260.143C132.184 260.142 132.941 260.151 133.689 260.16C134.373 260.168 134.972 260.347 135.497 260.677C136.022 261.008 136.431 261.468 136.724 262.048C137.018 262.628 137.175 263.289 137.168 264.028C137.171 264.759 137.022 265.407 136.724 265.964C136.425 266.52 136.016 266.953 135.489 267.254C134.961 267.563 134.366 267.702 133.681 267.693C132.934 267.676 132.178 267.666 131.43 267.658L131.439 267.659ZM132.124 267.046C132.647 267.051 133.169 267.057 133.691 267.071C134.078 267.077 134.439 267.007 134.775 266.853C135.111 266.699 135.41 266.485 135.663 266.203C135.917 265.921 136.122 265.596 136.262 265.217C136.402 264.839 136.473 264.442 136.475 264.009C136.478 263.576 136.405 263.17 136.258 262.78C136.12 262.392 135.912 262.049 135.653 261.753C135.395 261.458 135.101 261.221 134.762 261.05C134.424 260.879 134.065 260.796 133.678 260.79C133.155 260.784 132.633 260.779 132.11 260.773C132.114 262.867 132.111 264.951 132.115 267.045L132.124 267.046Z" fill="#1A1A1A"/>
<path d="M149.433 268.783C149.443 266.24 149.443 263.704 149.444 261.16C149.665 261.189 149.896 261.219 150.119 261.24C150.118 263.784 150.109 266.318 150.108 268.862C149.887 268.833 149.656 268.803 149.434 268.774L149.433 268.783Z" fill="#1A1A1A"/>
<path d="M161.748 270.719C162.754 268.352 163.76 265.985 164.765 263.627C164.994 263.675 165.222 263.723 165.45 263.771C164.454 266.13 163.457 268.498 162.452 270.856C162.215 270.807 161.977 270.758 161.748 270.719ZM163.171 268.614C163.172 268.398 163.172 268.19 163.174 267.974C164.448 268.232 165.729 268.508 166.99 268.801C166.989 269.017 166.988 269.224 166.987 269.441C165.717 269.147 164.445 268.872 163.171 268.614ZM167.678 272.004C166.712 269.197 165.745 266.399 164.774 263.628C165.002 263.676 165.231 263.724 165.459 263.772C166.437 266.553 167.414 269.353 168.377 272.177C168.141 272.119 167.914 272.062 167.677 272.013L167.678 272.004Z" fill="#1A1A1A"/>
<defs>
<radialGradient id="paint0_radial_1367_23713" cx="0" cy="0" r="1" gradientUnits="userSpaceOnUse" gradientTransform="translate(230.493 567.506) rotate(148.129) scale(131.61 157.413)">
<stop stop-color="#C2FFDA"/>
<stop offset="0.447917" stop-color="#A7D7F8"/>
<stop offset="0.75" stop-color="#FEEAEC"/>
<stop offset="1" stop-color="#FFFFF2"/>
</radialGradient>
<radialGradient id="paint1_radial_1367_23713" cx="0" cy="0" r="1" gradientUnits="userSpaceOnUse" gradientTransform="translate(140.765 570.556) rotate(143.481) scale(139.136 177.491)">
<stop stop-color="#C2FFDA"/>
<stop offset="0.447917" stop-color="#A7D7F8"/>
<stop offset="0.75" stop-color="#FEEAEC"/>
<stop offset="1" stop-color="#FFFFF2"/>
</radialGradient>
<radialGradient id="paint2_radial_1367_23713" cx="0" cy="0" r="1" gradientUnits="userSpaceOnUse" gradientTransform="translate(326.907 303.109) rotate(-151.844) scale(262.171 263.133)">
<stop stop-color="#C2FFDA"/>
<stop offset="0.447917" stop-color="#A7D7F8"/>
<stop offset="0.75" stop-color="#FEEAEC"/>
<stop offset="1" stop-color="#FFFFF2"/>
</radialGradient>
<radialGradient id="paint3_radial_1367_23713" cx="0" cy="0" r="1" gradientUnits="userSpaceOnUse" gradientTransform="translate(190.085 107.493) rotate(125.719) scale(314.683 397.856)">
<stop stop-color="#C2FFDA"/>
<stop offset="0.447917" stop-color="#A7D7F8"/>
<stop offset="0.75" stop-color="#FEEAEC"/>
<stop offset="1" stop-color="#FFFFF2"/>
</radialGradient>
<radialGradient id="paint4_radial_1367_23713" cx="0" cy="0" r="1" gradientUnits="userSpaceOnUse" gradientTransform="translate(201.816 312.651) rotate(147.182) scale(137.373 166.896)">
<stop stop-color="#C2FFDA"/>
<stop offset="0.447917" stop-color="#A7D7F8"/>
<stop offset="0.75" stop-color="#FEEAEC"/>
<stop offset="1" stop-color="#FFFFF2"/>
</radialGradient>
<radialGradient id="paint5_radial_1367_23713" cx="0" cy="0" r="1" gradientUnits="userSpaceOnUse" gradientTransform="translate(189.677 352.468) rotate(159.086) scale(206.287 183.476)">
<stop stop-color="#C2FFDA"/>
<stop offset="0.447917" stop-color="#A7D7F8"/>
<stop offset="0.75" stop-color="#FEEAEC"/>
<stop offset="1" stop-color="#FFFFF2"/>
</radialGradient>
<radialGradient id="paint6_radial_1367_23713" cx="0" cy="0" r="1" gradientUnits="userSpaceOnUse" gradientTransform="translate(85.1828 126.642) rotate(116.092) scale(212.316 223.693)">
<stop stop-color="#C2FFDA"/>
<stop offset="0.447917" stop-color="#A7D7F8"/>
<stop offset="0.75" stop-color="#FEEAEC"/>
<stop offset="1" stop-color="#FFFFF2"/>
</radialGradient>
</defs>
</svg>
