<svg width="29" height="24" viewBox="0 0 29 24" fill="none" xmlns="http://www.w3.org/2000/svg">
<path d="M22.6227 12.2051C24.4005 12.3419 25.8364 12.9231 26.9304 13.9487C28.0244 14.9744 28.5714 16.3419 28.5714 18.0513C28.5714 19.9658 27.9902 21.4359 26.8278 22.4615C25.6654 23.4872 24.2296 24 22.5201 24C20.1954 23.8633 18.5201 23.0085 17.4945 21.4359C16.4689 19.8632 15.956 18.0855 15.956 16.1026C15.956 14.188 16.2295 12.4103 16.7766 10.7692C17.3919 9.12821 18.1783 7.58975 19.1355 6.15385C20.0928 4.71795 21.1868 3.45299 22.4176 2.35897C23.7167 1.26496 25.0501 0.478634 26.4176 0L28.8791 3.38462C27.5116 4.34189 26.2125 5.64103 24.9817 7.28206C23.8193 8.92308 23.033 10.5641 22.6227 12.2051ZM6.66667 12.2051C8.44444 12.3419 9.88034 12.9231 10.9744 13.9487C12.0684 14.9744 12.6154 16.3419 12.6154 18.0513C12.6154 19.9658 12 21.4359 10.7692 22.4615C9.60684 23.4872 8.23932 24 6.66667 24C4.2735 23.9316 2.5641 23.1111 1.53846 21.5385C0.51282 19.8974 0 18.0855 0 16.1026C0 14.188 0.273504 12.4103 0.820512 10.7692C1.4359 9.12821 2.22222 7.58975 3.17949 6.15385C4.13675 4.71795 5.23077 3.45299 6.46154 2.35897C7.76068 1.26496 9.09402 0.478634 10.4615 0L12.9231 3.38462C11.5556 4.34189 10.2564 5.64103 9.02564 7.28206C7.86325 8.92308 7.07692 10.5641 6.66667 12.2051Z" fill="#232323"/>
</svg>
