<svg width="169" height="96" viewBox="0 0 169 96" fill="none" xmlns="http://www.w3.org/2000/svg">
<path d="M17.573 41.8608C17.5738 41.7196 17.5231 41.4371 17.4758 41.2967C17.2531 40.6317 16.7938 40.2261 16.098 40.0799C15.3378 39.9193 14.3982 40.0684 13.9144 40.7133C13.7057 40.9917 13.5925 41.3221 13.575 41.7046C13.5488 42.267 13.5164 42.7144 13.8725 43.1908C14.3947 43.8892 15.2503 44.4085 16.007 44.8182C16.9163 45.3119 17.8255 45.8055 18.7347 46.2991C20.7599 47.3975 22.9881 48.8846 23.4859 51.2963C23.5069 51.4007 23.478 51.5367 23.534 51.6604C23.546 51.6867 23.5496 51.7164 23.5445 51.7455C23.513 51.9227 23.5812 52.0631 23.5804 52.2184C23.5786 52.7249 23.5783 53.2311 23.5795 53.737C23.5795 53.8669 23.5086 54.0046 23.5436 54.1616C23.5499 54.1896 23.5478 54.2189 23.5375 54.2459C23.4798 54.4011 23.5104 54.5503 23.4868 54.688C23.4273 55.0343 23.3818 55.2679 23.3503 55.389C22.6076 58.2271 20.1266 59.3799 17.4339 59.6957C16.6141 59.7914 15.6107 59.7563 14.7053 59.7554C14.5391 59.7554 14.3475 59.701 14.1533 59.7238C14.1241 59.7273 14.0961 59.7229 14.0693 59.7106C13.9862 59.6729 13.8935 59.6861 13.8296 59.6773C11.9758 59.4238 10.0836 58.7781 8.90959 57.2489C8.26047 56.4032 7.88838 55.4402 7.79331 54.3599C7.78194 54.2371 7.7522 54.1257 7.7522 54.0309C7.75745 53.253 7.75745 52.4754 7.7522 51.6981C7.7522 51.6736 7.76415 51.6613 7.78806 51.6613H13.6021C13.6116 51.6613 13.6208 51.6652 13.6275 51.6721C13.6342 51.679 13.638 51.6884 13.638 51.6981C13.6351 52.3994 13.6351 53.0951 13.638 53.7853C13.6424 54.8223 14.2206 55.4916 15.1996 55.7364C15.4264 55.7931 15.7294 55.806 16.1085 55.775C16.4724 55.7446 16.7649 55.6773 16.9859 55.5732C17.5318 55.3153 17.8605 54.8521 17.9719 54.1836C18.0255 53.8642 18.0349 53.5431 17.9999 53.2203C17.9585 52.8378 17.8197 52.4936 17.5835 52.1877C17.4426 52.0043 17.3586 51.8596 17.1618 51.7078C17.0306 51.6069 16.9203 51.4683 16.7996 51.3762C15.2363 50.1795 13.3931 49.3618 11.7143 48.3389C10.0801 47.3423 8.42144 45.9754 8.02514 43.9892C7.90792 43.4037 7.8563 42.8127 7.8703 42.2161C7.87467 42.0468 7.92804 41.8529 7.90967 41.652C7.90675 41.6251 7.91287 41.6005 7.92804 41.5783C7.96011 41.5298 7.96857 41.4757 7.95341 41.416C7.94939 41.4005 7.94939 41.3845 7.95341 41.3695C7.97965 41.2642 8.0021 41.1578 8.02077 41.0502C8.37682 38.9727 9.74067 37.5067 11.7195 36.8469C12.3016 36.6528 12.9527 36.4984 13.673 36.3837C13.8042 36.3627 13.8993 36.3559 13.9582 36.3635C13.9821 36.3665 14.0037 36.3609 14.0229 36.3469L14.0579 36.3214C14.0748 36.309 14.0957 36.3034 14.1165 36.3056C14.3081 36.3267 14.4901 36.267 14.6554 36.267C15.3547 36.2665 16.054 36.2665 16.7532 36.267C16.7929 36.267 16.8641 36.2773 16.9667 36.2977C17.0901 36.3223 17.2685 36.2723 17.3691 36.3337C17.3904 36.347 17.4141 36.3551 17.4382 36.3574C18.4699 36.4527 19.4086 36.6975 20.2543 37.0917C21.8313 37.8275 22.7472 39.0744 23.0021 40.8326C23.0108 40.8931 22.9934 41.023 23.024 41.1054C23.0403 41.1487 23.0488 41.1844 23.0493 41.2125C23.0558 41.9155 23.0558 42.6185 23.0493 43.3215C23.0488 43.3496 23.0348 43.3636 23.0073 43.3636H17.6053C17.596 43.3636 17.5871 43.3599 17.5806 43.3534C17.574 43.3468 17.5703 43.3379 17.5703 43.3285C17.5721 42.8413 17.573 42.3521 17.573 41.8608Z" fill="#232323"/>
<path d="M84.7837 59.5378C83.1163 59.2843 81.4296 58.7026 80.2915 57.3928C79.4878 56.4687 79.0495 55.3697 78.9766 54.0959C78.9726 54.0257 78.9632 53.9713 78.9486 53.9327C78.937 53.9023 78.9312 53.8707 78.9312 53.8379V51.706C78.9312 51.6762 78.9457 51.6613 78.9749 51.6613H84.7487C84.7564 51.6613 84.7637 51.6644 84.7691 51.67C84.7745 51.6756 84.7776 51.6832 84.7776 51.6911C84.7747 52.2462 84.7732 52.8036 84.7732 53.3633C84.7741 53.4695 84.8301 53.5414 84.8187 53.659C84.779 54.0754 84.856 54.45 85.0497 54.7828C85.4871 55.5347 86.2412 55.6733 87.0399 55.7399C87.0682 55.7423 87.0967 55.7393 87.1239 55.7312C87.1775 55.7148 87.267 55.7005 87.3924 55.6882C88.5647 55.575 89.1053 54.703 89.1325 53.6089C89.1406 53.2867 89.1015 53.0024 89.0152 52.7562C88.8184 52.1956 88.3119 51.6455 87.8386 51.2937C87.2035 50.8217 86.6036 50.4337 86.0391 50.1295C85.1048 49.6254 84.1789 49.106 83.2615 48.5714C81.2844 47.4186 79.2977 45.8614 79.1324 43.3795C79.1306 43.3435 79.1149 43.3233 79.1 43.2917C79.0947 43.28 79.0921 43.2677 79.0921 43.2549C79.0962 42.8724 79.0968 42.6089 79.0939 42.4644C79.0898 42.2632 79.0971 42.0626 79.1157 41.8626C79.1513 41.4719 79.2158 41.0838 79.3091 40.6984C79.5464 39.7216 79.9949 38.9151 80.6546 38.2787C82.0499 36.9329 84.2676 36.4294 86.1677 36.3943C86.1753 36.3937 86.3359 36.3811 86.6497 36.3565C86.8798 36.3381 87.1274 36.389 87.3286 36.3916C88.5434 36.4033 89.7256 36.608 90.8751 37.0058C91.0681 37.073 91.314 37.1885 91.6126 37.3523C93.0954 38.1647 93.9553 39.4929 94.0735 41.2107C94.0752 41.2382 94.0828 41.264 94.0962 41.2879C94.1061 41.3067 94.1111 41.3213 94.1111 41.3318C94.1093 42.0138 94.1096 42.6943 94.1119 43.3733C94.1119 43.3903 94.1035 43.3988 94.0866 43.3988H88.6644C88.6598 43.3988 88.6551 43.3978 88.6508 43.396C88.6465 43.3942 88.6426 43.3915 88.6394 43.3882C88.6361 43.3848 88.6335 43.3808 88.6318 43.3765C88.6301 43.3721 88.6293 43.3675 88.6294 43.3628C88.6312 42.9458 88.6329 42.5299 88.6347 42.1152C88.6364 41.7245 88.5979 41.4277 88.5192 41.2248C88.3332 40.744 87.9829 40.415 87.4685 40.2378C87.1046 40.1115 86.7564 40.1071 86.3776 40.1378C85.4218 40.2162 84.8645 40.7349 84.7059 41.6941C84.6825 41.838 84.6624 41.9828 84.6455 42.1284C84.642 42.1588 84.6469 42.1878 84.6604 42.2153C84.7207 42.3442 84.6796 42.4495 84.705 42.5609C84.9456 43.6225 86.1318 44.2901 87.0679 44.8121C87.9106 45.2812 88.7572 45.7432 89.6075 46.1983C90.4876 46.6691 91.302 47.1817 92.0509 47.7362C93.4663 48.7846 94.5642 50.2015 94.5913 52.035C94.5925 52.0988 94.603 52.1544 94.6228 52.2017C94.6333 52.2275 94.6386 52.2541 94.6386 52.2816C94.636 52.7044 94.6797 53.1817 94.6027 53.5949C94.5791 53.7186 94.601 53.8599 94.5887 53.9713C94.5292 54.4906 94.4861 54.8325 94.4593 54.9969C94.3432 55.6934 94.0816 56.3447 93.6745 56.9506C92.4192 58.8158 90.1009 59.4712 87.9926 59.6317C87.3723 59.6782 86.7748 59.7124 86.1642 59.6545C85.7416 59.615 85.3497 59.6238 84.7837 59.5378Z" fill="#232323"/>
<path d="M155.216 49.827H153.081C153.058 49.827 153.036 49.8179 153.02 49.8018C153.004 49.7856 152.994 49.7638 152.994 49.741V46.594C152.994 46.5889 152.997 46.584 153 46.5804C153.004 46.5768 153.009 46.5747 153.014 46.5747H160.704C160.733 46.5747 160.747 46.5891 160.747 46.6177C160.752 49.0479 160.752 51.4748 160.747 53.8986C160.746 53.9784 160.715 54.0635 160.703 54.1626C160.312 57.5614 157.339 59.0931 154.269 59.2941C153.901 59.3186 153.614 59.3382 153.41 59.3528C153.037 59.3797 152.75 59.3803 152.547 59.3546C152.29 59.3218 152.109 59.3022 152.003 59.2958C151.4 59.2578 150.905 59.2046 150.52 59.1361C150.308 59.0987 150.021 59.0282 149.66 58.9247C147.463 58.2983 145.801 56.8437 145.382 54.5294C145.369 54.4574 145.378 54.3583 145.335 54.2776C145.321 54.2518 145.317 54.2246 145.322 54.196C145.337 54.1194 145.326 54.0462 145.29 53.9767C145.276 53.9497 145.272 53.9214 145.278 53.8916C145.317 53.6828 145.239 53.5117 145.247 53.3222C145.258 53.0546 145.203 52.7782 145.203 52.5422C145.203 49.4635 145.203 46.385 145.203 43.3067C145.203 43.055 145.269 42.7356 145.237 42.4347C145.234 42.4053 145.238 42.3761 145.248 42.3496C145.309 42.1969 145.279 42.0338 145.297 41.903C145.358 41.4574 145.41 41.1494 145.452 40.9792C146.13 38.2271 148.251 36.8769 150.931 36.5023C151.24 36.4593 151.54 36.4093 151.856 36.4014C152.007 36.3979 152.142 36.3575 152.284 36.3584C153.052 36.3619 153.762 36.3505 154.559 36.4304C156.695 36.6444 158.837 37.4077 159.983 39.3588C160.334 39.9572 160.683 40.9424 160.701 41.7232C160.703 41.8153 160.744 41.8794 160.745 41.9636C160.75 42.6397 160.752 43.3144 160.749 43.9875C160.749 43.9936 160.747 43.9994 160.742 44.0037C160.738 44.008 160.732 44.0104 160.726 44.0104L155.28 44.0112C155.255 44.0112 155.232 44.0014 155.215 43.984C155.197 43.9666 155.188 43.9429 155.188 43.9182L155.189 42.2522C155.189 42.2224 155.183 42.1937 155.17 42.1662C155.13 42.0794 155.158 41.9908 155.138 41.9074C154.905 40.971 154.304 40.4525 153.334 40.352C152.329 40.2467 151.363 40.5511 150.931 41.5512C150.861 41.7144 150.763 42.1048 150.765 42.3838C150.765 42.4917 150.723 42.5759 150.723 42.6751C150.725 46.1902 150.724 49.7053 150.723 53.2204C150.723 53.2368 150.73 53.3093 150.744 53.438C150.768 53.6678 150.772 53.8424 150.868 54.1074C151.563 56.0225 155.285 55.7348 155.228 53.4564C155.227 53.4272 155.233 53.4003 155.248 53.3757C155.258 53.3576 155.263 53.3424 155.263 53.3301C155.275 52.1773 155.275 51.0245 155.261 49.8717C155.261 49.8419 155.245 49.827 155.216 49.827Z" fill="#232323"/>
<path d="M106.1 59.5211C105.769 59.5059 105.345 59.4515 104.828 59.3579C101.97 58.8438 100.012 57.1962 99.7169 54.1871C99.709 54.1081 99.7291 53.9212 99.6959 53.8019C99.6772 53.737 99.6679 53.6841 99.6679 53.6431C99.6661 48.085 99.6664 42.527 99.6687 36.9689C99.6687 36.9408 99.6827 36.9268 99.7107 36.9268H105.198C105.217 36.9268 105.226 36.9361 105.226 36.9548C105.229 42.4421 105.237 47.9297 105.25 53.4176C105.25 53.4545 105.254 53.4913 105.261 53.5282C105.27 53.568 105.273 53.6045 105.269 53.6379C105.251 53.8396 105.277 54.0373 105.345 54.2309C105.624 55.0147 106.167 55.4603 106.974 55.5679C108.029 55.7074 109.012 55.3284 109.375 54.3011C109.455 54.0765 109.495 53.7461 109.495 53.3097C109.494 47.8599 109.493 42.4047 109.494 36.9443C109.494 36.942 109.494 36.9397 109.495 36.9376C109.496 36.9355 109.497 36.9335 109.499 36.9319C109.501 36.9303 109.503 36.929 109.505 36.9281C109.507 36.9272 109.509 36.9268 109.511 36.9268H115.063C115.071 36.9268 115.079 36.9301 115.085 36.936C115.091 36.9419 115.094 36.95 115.094 36.9583C115.094 42.4071 115.094 47.859 115.094 53.3141C115.094 53.3328 115.088 53.3548 115.074 53.3799C115.062 53.4051 115.055 53.432 115.056 53.4606C115.064 53.7004 115.035 54.073 114.97 54.5783C114.498 58.2622 111.176 59.5167 107.915 59.5641C107.709 59.5676 107.454 59.622 107.214 59.5992C106.793 59.5589 106.566 59.558 106.226 59.558C106.186 59.558 106.15 59.5238 106.1 59.5211Z" fill="#232323"/>
<path d="M36.0342 39.0876L33.058 58.8561C33.0561 58.8697 33.0494 58.8821 33.0392 58.8911C33.0289 58.9001 33.0157 58.9051 33.002 58.9052L27.1215 58.9044C27.1188 58.9044 27.116 58.9039 27.1135 58.9027C27.1111 58.9015 27.1088 58.8998 27.1071 58.8976C27.1053 58.8954 27.1041 58.8928 27.1034 58.8901C27.1027 58.8873 27.1026 58.8844 27.1031 58.8815L31.1431 37.0294C31.1463 37.0126 31.1553 36.9975 31.1686 36.9866C31.1818 36.9758 31.1984 36.9698 31.2157 36.9697H40.9174C40.9192 36.9697 40.9208 36.9703 40.9221 36.9715C40.9234 36.9726 40.9242 36.9742 40.9244 36.9759L44.9574 58.8631C44.9626 58.8918 44.951 58.9061 44.9224 58.9061L39.1013 58.9044C39.0675 58.9044 39.0468 58.8883 39.0392 58.8561C38.9412 58.4604 38.9193 58.0621 38.8529 57.648C38.7281 56.8678 38.6091 56.087 38.4959 55.3056C38.2504 53.6095 38.0034 51.9136 37.755 50.2181C37.6622 49.5881 37.578 48.9974 37.5021 48.4459C37.4757 48.2565 37.4399 48.0076 37.3972 47.7177C37.0064 45.077 36.5982 42.2903 36.1724 39.3578C36.1602 39.2727 36.1873 39.163 36.1567 39.1077C36.1415 39.0803 36.1205 39.0615 36.0937 39.0516C36.0593 39.0387 36.0394 39.0507 36.0342 39.0876Z" fill="#232323"/>
<path d="M67.9437 39.1928L67.9183 39.1981C67.9168 39.1983 67.9154 39.1991 67.9141 39.2003C67.9129 39.2016 67.9119 39.2032 67.9113 39.2051L64.2677 58.8631C64.2625 58.8912 64.2458 58.9052 64.2178 58.9052H58.7091C58.6788 58.9052 58.6607 58.8903 58.6548 58.8605L55.0138 39.2192C55.0062 39.1806 54.9861 39.1721 54.9535 39.1937L54.9316 39.2078C54.9176 39.2165 54.9121 39.2291 54.915 39.2455C54.9762 39.5639 54.9124 39.935 54.9124 40.1544C54.9124 42.4184 54.9071 44.6825 54.8966 46.9466C54.8957 47.0211 54.8686 47.0536 54.8686 47.1229C54.8692 48.9594 54.8695 50.7959 54.8695 52.6324C54.8695 52.7193 54.8327 52.7763 54.8327 52.8684C54.8333 54.6985 54.831 56.5283 54.8257 58.3578C54.8257 58.4964 54.7584 58.6464 54.796 58.8368C54.7977 58.8451 54.7975 58.8537 54.7956 58.862C54.7936 58.8702 54.7898 58.8779 54.7845 58.8845C54.7792 58.891 54.7726 58.8963 54.765 58.8999C54.7575 58.9035 54.7492 58.9053 54.7409 58.9052H49.2969C49.2895 58.9052 49.2824 58.9024 49.277 58.8974C49.2717 58.8923 49.2684 58.8854 49.268 58.878C49.2505 58.5315 49.3126 58.1586 49.3135 57.8542C49.3147 57.4132 49.3179 56.9722 49.3231 56.5312C49.3249 56.4338 49.3502 56.3593 49.3494 56.268C49.3464 55.7779 49.3453 55.2881 49.3459 54.7985C49.3459 54.7117 49.3896 54.6081 49.3896 54.5037C49.389 53.9586 49.3943 53.4135 49.4053 52.8684C49.4062 52.8105 49.4281 52.771 49.4281 52.721C49.4298 52.1783 49.4357 51.6352 49.4456 51.0919C49.4465 51.0103 49.4718 50.9638 49.471 50.8874C49.4698 50.3412 49.4692 49.7952 49.4692 49.2495C49.4692 49.1942 49.5147 49.1477 49.5138 49.0723C49.5127 48.5319 49.5121 47.9914 49.5121 47.451C49.5121 47.4063 49.5497 47.3501 49.5497 47.2887C49.5491 46.7465 49.5488 46.2046 49.5488 45.663C49.5488 45.6016 49.5716 45.5621 49.5733 45.4937C49.5873 44.958 49.5931 44.4219 49.5908 43.8856C49.5908 43.804 49.6311 43.7479 49.6311 43.6786C49.6287 42.9691 49.6281 42.2599 49.6293 41.5511C49.6293 41.5329 49.636 41.5113 49.6494 41.4861C49.6529 41.4792 49.655 41.4717 49.6555 41.4642L49.7544 37.0127C49.7546 37.0012 49.7593 36.9903 49.7675 36.9823C49.7757 36.9742 49.7867 36.9697 49.7981 36.9697H58.6758C58.69 36.9698 58.7038 36.9749 58.7147 36.9842C58.7255 36.9935 58.7329 37.0064 58.7353 37.0206L61.4158 53.6642C61.4176 53.6748 61.4229 53.6846 61.4308 53.6918C61.4388 53.699 61.4489 53.7031 61.4595 53.7036C61.4805 53.7054 61.4977 53.6989 61.5111 53.6843C61.5222 53.672 61.5295 53.6525 61.533 53.6255C61.5581 53.4086 61.6176 53.0082 61.7115 52.4245C62.083 50.1107 62.3186 48.6649 62.4183 48.0871C62.4201 48.0754 62.4233 48.054 62.428 48.023C62.6 46.903 62.7741 45.7832 62.9502 44.6638C63.0937 43.7484 63.2468 42.8346 63.4095 41.9222C63.4142 41.8976 63.425 41.8096 63.4419 41.6581C63.4541 41.544 63.4944 41.4133 63.5084 41.3098C63.5708 40.8559 63.6396 40.403 63.7148 39.9508C63.839 39.2051 63.9676 38.4603 64.1006 37.7163C64.1391 37.4999 64.1584 37.2902 64.1584 37.0873C64.1584 37.0718 64.1614 37.0566 64.1673 37.0423C64.1732 37.028 64.1818 37.0151 64.1927 37.0042C64.2036 36.9932 64.2165 36.9846 64.2307 36.9787C64.2449 36.9728 64.2602 36.9697 64.2756 36.9697H73.1297C73.1388 36.9697 73.1476 36.9734 73.1541 36.98C73.1606 36.9865 73.1644 36.9954 73.1646 37.0048L73.6371 58.8473C73.6376 58.8859 73.619 58.9052 73.5811 58.9052H68.1913C68.1575 58.9052 68.1403 58.8883 68.1397 58.8543C68.1335 58.6192 68.1983 58.0437 68.1204 57.8577C68.1099 57.832 68.1047 57.8057 68.1047 57.7788L68.0504 46.9773C68.0504 46.9468 68.0437 46.9179 68.0303 46.8904C68.021 46.8705 68.0163 46.8527 68.0163 46.8369C68.0157 45.0747 68.016 43.3127 68.0172 41.5511C68.0172 41.4712 67.977 41.4081 67.9761 41.3159C67.9691 40.6194 67.9743 39.9254 67.9918 39.2341C67.9921 39.228 67.9909 39.2219 67.9885 39.2163C67.9861 39.2107 67.9824 39.2057 67.9778 39.2017C67.9731 39.1978 67.9677 39.1949 67.9618 39.1934C67.9559 39.1918 67.9497 39.1916 67.9437 39.1928Z" fill="#232323"/>
<path d="M134.354 54.1756L134.382 54.1642C134.391 54.1601 134.396 54.1525 134.396 54.1414L134.229 44.6269C134.229 44.6035 134.224 44.5807 134.214 44.5585C134.207 44.5421 134.204 44.5266 134.204 44.512C134.203 43.7844 134.197 43.0571 134.186 42.3301C134.186 42.2816 134.185 42.2322 134.185 42.1819C134.176 41.5186 134.171 40.8554 134.171 40.1921C134.17 40.05 134.123 39.9061 134.123 39.7526C134.124 39.2092 134.125 38.6656 134.126 38.1216C134.127 37.7891 134.073 37.3882 134.082 37.018C134.083 37.0051 134.088 36.9928 134.097 36.9838C134.107 36.9748 134.119 36.9697 134.132 36.9697H139.532C139.539 36.9697 139.546 36.9726 139.551 36.9777C139.557 36.9828 139.56 36.9897 139.56 36.9969L139.559 58.6587C139.559 58.6708 139.554 58.6824 139.545 58.691C139.537 58.6995 139.525 58.7043 139.513 58.7043H131.793C131.777 58.7044 131.761 58.699 131.747 58.6891C131.734 58.6791 131.724 58.6651 131.719 58.6491L126.339 40.9159C126.338 40.9095 126.335 40.9036 126.331 40.8983C126.308 40.8697 126.287 40.8603 126.266 40.8703C126.248 40.879 126.239 40.8934 126.24 40.9133C126.251 41.1019 126.211 41.4897 126.282 41.6414C126.289 41.6543 126.292 41.6677 126.292 41.6818C126.299 42.4059 126.3 43.1299 126.294 43.854C126.294 43.9391 126.333 44.0198 126.333 44.1181C126.331 44.827 126.331 45.5358 126.331 46.2447C126.331 46.3017 126.374 46.3473 126.374 46.4219C126.375 47.1495 126.375 47.8768 126.373 48.6038C126.373 48.688 126.415 48.7477 126.415 48.8108C126.414 49.5419 126.419 50.273 126.431 51.0041C126.432 51.0626 126.433 51.1211 126.435 51.1796C126.448 51.8961 126.46 52.6125 126.47 53.329C126.471 53.4694 126.497 53.6098 126.497 53.7396C126.499 55.3819 126.526 57.0234 126.539 58.664C126.539 58.6693 126.538 58.6745 126.536 58.6794C126.534 58.6843 126.531 58.6888 126.527 58.6925C126.524 58.6962 126.519 58.6992 126.514 58.7013C126.51 58.7033 126.505 58.7043 126.499 58.7043H121.187C121.175 58.7043 121.163 58.6996 121.154 58.6912C121.146 58.6828 121.141 58.6714 121.141 58.6596V36.9917C121.141 36.9858 121.143 36.9803 121.148 36.9761C121.152 36.972 121.157 36.9697 121.163 36.9697H129.22C129.242 36.9697 129.263 36.9767 129.28 36.9896C129.298 37.0026 129.311 37.0208 129.317 37.0417L134.312 54.1554C134.319 54.1777 134.333 54.1844 134.354 54.1756Z" fill="#232323"/>
</svg>
