<svg width="605" height="450" viewBox="0 0 605 450" fill="none" xmlns="http://www.w3.org/2000/svg">
<path fill-rule="evenodd" clip-rule="evenodd" d="M151.494 2.35599L122.987 0V397.67L151.494 392.144V2.35599Z" fill="#D27E40"/>
<path fill-rule="evenodd" clip-rule="evenodd" d="M146.547 1.94905L142.906 1.6492C145.433 9.95942 148.71 17.5629 151.494 24.9521V13.2364C150.059 9.18837 147.939 5.6758 146.547 1.97047V1.94905ZM135.067 1.00666C137.016 9.01703 141.257 18.8908 143.42 27.9506C145.583 37.0105 151.173 51.7247 150.938 52.6243C150.702 53.5239 142.071 32.0415 137.144 16.8989C135.281 11.1588 133.803 6.42544 132.304 0.792474L135.067 1.02807V1.00666ZM127.014 0.342693C129.412 9.61673 131.404 17.0917 132.968 23.5385C134.531 29.9854 144.876 50.1184 151.494 69.1591V77.2337C148.496 68.3666 133.246 33.1552 131.854 27.0297C130.462 20.9041 128.042 12.0156 125.065 0.171349L127.014 0.342693ZM122.987 11.5444C127.356 26.5156 132.004 43.0076 134.938 50.7823C140.271 64.9825 149.396 79.4184 151.516 94.7751V117.264C149.503 104.263 148.153 90.5343 145.048 82.8667C140.871 72.5646 132.732 57.4434 126.564 35.3399C125.15 30.2638 123.972 25.8302 122.987 22.0178V11.5444ZM122.987 32.4056V42.4293C124.893 49.0475 127.142 55.9441 129.755 62.6051C136.737 80.3393 145.583 120.284 151.494 150.912V135.063C150.295 129.622 149.096 124.461 147.982 119.834C140.336 88.3497 139.864 77.7477 131.469 59.5852C127.999 52.0674 125.129 41.9152 122.966 32.427L122.987 32.4056ZM122.987 66.0106V72.0505C127.72 89.0137 133.632 112.017 136.052 127.074C137.765 137.697 141.535 158.323 144.898 176.442C145.326 176.892 145.754 177.278 146.183 177.642C143.249 158.858 139.757 136.669 137.765 124.054C135.281 108.461 129.691 89.2707 122.987 66.032V66.0106ZM122.987 105.034V116.986C135.945 165.819 141.192 228.81 151.494 284.475V258.988C145.519 218.272 138.558 149.755 124.572 109.811C124.015 108.226 123.48 106.641 122.966 105.034H122.987ZM122.987 218.807C128.877 239.155 136.223 264.578 142.799 287.881C146.247 300.132 149.16 315.767 151.516 332.495V350.722C144.319 307.264 132.133 260.958 125.557 236.884C124.679 233.672 123.822 230.523 122.987 227.439V218.807ZM122.987 271.903C127.142 285.375 129.562 292.721 134.403 317.395C139.243 342.069 143.548 373.061 145.712 393.237L144.127 393.579C140.057 364.493 134.06 327.569 123.094 294.371L123.008 294.092V271.881L122.987 271.903ZM122.987 313.497V329.111C126.971 349.522 130.312 371.733 131.19 396.064L135.924 395.143C134.917 382.378 133.46 373.339 131.447 357.961C129.434 342.583 126.135 325.898 122.987 313.497ZM151.494 243.909C150.445 235.749 149.76 225.725 149.438 209.619C149.331 204.5 146.525 191.349 151.452 200.067L151.516 200.559V243.909H151.494Z" fill="#B5652B"/>
<path fill-rule="evenodd" clip-rule="evenodd" d="M112.856 5.31169L122.987 0V397.67L112.856 388.974V5.31169Z" fill="#8A4311"/>
<path fill-rule="evenodd" clip-rule="evenodd" d="M122.987 397.67L124.786 307.628L122.987 139.175V397.67Z" fill="#DE925B"/>
<path fill-rule="evenodd" clip-rule="evenodd" d="M261.22 91.134L256.529 82.2455C256.529 82.2455 252.481 80.4893 251.518 80.682C250.554 80.8962 248.348 82.5454 249.033 83.9804C249.718 85.4368 256.551 91.1555 261.241 91.1126L261.22 91.134Z" fill="#7A421A"/>
<path fill-rule="evenodd" clip-rule="evenodd" d="M9 137.44C9 137.44 9.59971 130.929 11.8914 130.158C14.1618 129.408 181.287 121.162 181.244 119.62C181.18 118.057 167.558 129.258 159.783 132.15C152.03 135.041 11.7629 147.164 9 137.419V137.44Z" fill="#663613"/>
<path fill-rule="evenodd" clip-rule="evenodd" d="M10.1994 175.222L9 137.419C9 137.419 14.0975 135.898 26.2202 135.898C38.3428 135.898 177.796 121.569 177.796 121.569C177.796 121.569 12.4483 131.486 9.96382 126.26C7.47932 121.034 11.0561 58.7499 10.7991 52.6885C10.5207 46.6272 12.1699 15.2069 15.4897 14.65C18.7881 14.0931 33.1168 8.58866 51.8576 13.8147C70.5985 19.0407 256.208 27.458 256.208 27.458C256.208 27.458 261.584 76.6554 261.305 78.583C261.027 80.5107 260.813 81.6244 260.813 81.6244C260.813 81.6244 253.852 82.4597 252.331 83.2736C250.81 84.1089 252.824 85.137 253.509 85.4797C254.195 85.8224 261.155 89.0565 261.22 91.134C261.284 93.2116 260.406 146.307 260.406 146.307C260.406 146.307 264.539 175.243 254.066 177.727C243.593 180.212 38.0001 204.457 30.568 203.365C23.136 202.273 13.4764 201.159 12.3841 195.933C11.2917 190.707 10.1994 175.243 10.1994 175.243V175.222Z" fill="#CC783D"/>
<path fill-rule="evenodd" clip-rule="evenodd" d="M9.53544 154.682L9.47119 152.947C17.2031 152.347 24.7209 151.854 25.9631 151.683C50.5725 148.32 74.6893 143.78 99.4701 141.916C121.552 140.117 141.064 136.176 163.317 138.746C169.058 139.496 174.798 140.203 180.538 140.931C197.179 143.137 209.366 145.536 225.451 150.441C229.135 151.619 233.248 152.454 237.039 153.461C240.059 154.317 255.201 160.357 243.057 157.123C240.872 156.588 238.731 156.181 236.546 155.71C232.626 154.96 228.493 154.317 224.637 153.375C202.427 147.506 185.4 145.622 162.825 142.602C140.25 140.032 121.916 143.694 99.6843 145.022C89.1251 145.579 78.9087 146.65 68.4352 147.913C48.1095 150.526 29.3258 153.204 9.53544 154.66V154.682Z" fill="#B5652B"/>
<path fill-rule="evenodd" clip-rule="evenodd" d="M9.96391 168.261L9.89966 166.526C20.4588 164.641 31.7461 162.542 42.0911 162.199C71.1126 162.413 100.52 154.746 129.241 155.774C140.4 156.181 151.88 155.774 163.082 155.795C169.872 155.838 176.64 155.945 183.429 156.202C193.41 156.652 202.92 157.316 212.772 158.965C219.647 160.25 225.516 161.471 231.834 164.448C239.523 169.246 221.853 161.792 212.558 160.336C209.516 159.929 206.496 159.586 203.455 159.308C196.837 158.708 190.026 158.387 183.365 158.301C165.117 158.066 147.318 159.008 129.199 159.051C106.517 159.543 87.4975 162.906 65.5011 164.962C57.5335 165.669 50.0586 166.055 42.0482 165.883C41.3414 165.905 21.3798 167.661 9.9425 168.239L9.96391 168.261Z" fill="#B5652B"/>
<path fill-rule="evenodd" clip-rule="evenodd" d="M18.21 173.015C37.3363 172.073 54.7707 171.066 74.047 169.546C85.42 168.732 96.6003 168.175 108.016 168.368C126.093 168.668 144.063 168.453 162.118 168.496C174.819 168.496 197.33 169.996 208.874 169.182C209.26 169.117 209.581 169.075 209.945 168.86C212.515 169.246 211.508 168.389 210.502 167.554C207.053 161.707 168.03 162.049 162.097 161.985C160.576 161.985 159.034 161.985 157.513 161.985C141.021 161.985 124.487 162.435 107.995 162.842C85.5271 163.313 64.6658 166.826 42.4767 169.332C40.1849 169.589 5.9374 171.473 18.1886 173.015H18.21Z" fill="#B5652B"/>
<path fill-rule="evenodd" clip-rule="evenodd" d="M260.62 133.756L260.556 137.783C248.412 137.804 235.368 137.568 231.663 137.419C231.813 137.419 231.941 137.376 232.07 137.269C232.134 137.204 232.327 137.076 232.348 136.947C232.348 136.862 232.455 136.648 232.412 136.54C232.412 136.391 232.348 136.283 232.263 136.155C232.755 136.862 233.419 137.333 234.126 137.804C235.24 138.489 236.311 138.961 237.51 139.432C237.638 139.475 237.81 139.539 237.917 139.582C240.83 140.674 243.85 141.381 246.87 142.023C250.082 142.623 256.144 143.865 260.427 144.401V145.429C257.215 145.279 252.588 144.701 252.374 144.679C250.425 144.465 248.497 144.208 246.548 143.93C243.164 143.416 239.973 142.837 236.696 141.852C235.283 141.402 234.062 140.931 232.734 140.246C231.556 139.582 230.678 138.982 229.842 137.933C229.585 137.568 229.478 137.269 229.414 136.819C229.393 136.391 229.435 136.048 229.628 135.662C229.821 135.277 230.056 135.02 230.421 134.763C230.806 134.527 231.127 134.42 231.556 134.399C241.023 133.863 251.046 133.777 260.62 133.756Z" fill="#B5652B"/>
<path fill-rule="evenodd" clip-rule="evenodd" d="M9.15019 141.959L9.08594 140.032C11.2063 140.053 13.3267 140.117 15.3614 140.053C52.1363 140.203 92.1025 137.162 128.363 131.443C138.837 129.772 150.424 129.023 160.598 126.752C164.838 125.51 168.158 123.904 171.392 122.233L177.818 121.569C177.818 121.569 175.719 121.698 172.013 121.912C174.648 120.541 177.261 119.128 180.259 117.821C182.637 121.955 157.835 121.248 152.266 121.462C141.75 121.762 131.255 121.569 120.717 121.205C106.281 120.648 92.1239 119.727 77.7524 118.335C63.8949 116.9 50.5086 115.165 36.8652 112.252C28.5978 110.346 20.3519 108.376 12.7056 104.627C1.63244 97.8593 26.8201 108.825 37.1222 111.031C43.6548 112.274 50.123 113.302 56.7198 114.159C63.8092 115.079 70.8129 115.808 77.9237 116.429C102.233 118.378 127.721 119.577 152.116 118.442C156.614 118.121 187.906 113.345 181.138 121.119C175.997 124.289 167.323 128.509 161.519 130.244C151.152 132.664 139.672 133.435 129.049 135.234C118.64 137.033 108.337 138.404 97.8426 139.496C71.2841 142.109 41.9841 144.251 15.2972 142.495C13.4766 142.216 11.2706 142.088 9.17161 141.959H9.15019Z" fill="#B5652B"/>
<path fill-rule="evenodd" clip-rule="evenodd" d="M260.706 128.145V129.28C253.659 129.837 242.158 130.286 241.729 130.329C236.353 130.65 231.042 130.907 225.644 130.993C219.412 130.907 209.795 128.851 203.412 127.78C199.493 127.138 195.552 126.495 191.59 126.131C190.347 126.024 189.041 125.938 187.777 126.003C187.499 126.003 187.156 126.046 186.878 126.131C186.856 126.131 186.792 126.174 186.835 126.131C186.942 126.067 187.049 125.96 187.113 125.874C187.113 125.896 187.027 125.981 187.049 126.024C187.092 126.131 187.135 126.303 187.22 126.388C187.841 127.245 188.934 127.93 189.812 128.466C193.517 130.565 197.544 132.021 201.549 133.392C209.217 135.919 217.227 137.761 224.616 140.267C226.565 140.953 228.536 141.681 230.485 142.366C241.901 146.521 250.939 149.413 260.963 152.283C261.027 153.332 261.091 154.489 261.134 155.71C248.262 153.225 234.854 148.17 223.31 143.951C215.899 141.381 208.039 139.496 200.371 136.84C196.13 135.32 191.911 133.713 188.056 131.357C186.663 130.479 185.421 129.58 184.457 128.209C184.029 127.523 183.793 126.945 183.75 126.131C183.75 125.275 183.965 124.653 184.457 123.947C184.671 123.668 184.886 123.475 185.185 123.304C185.443 123.197 185.678 123.047 185.935 123.004C186.471 122.919 187.006 122.769 187.563 122.769C189.019 122.811 190.39 122.769 191.847 123.004C195.873 123.497 199.857 124.225 203.862 124.996C207.353 125.66 210.844 126.367 214.336 127.052C217.784 127.716 222.11 128.659 225.601 128.851C237.039 128.873 249.076 128.594 260.663 128.145H260.706Z" fill="#B5652B"/>
<path fill-rule="evenodd" clip-rule="evenodd" d="M9.51416 90.7057L9.57842 88.9708C12.0201 90.6843 14.8687 92.4834 17.5888 93.6186C24.6139 96.1459 31.1679 97.4738 38.5143 98.5876C38.9426 98.6518 39.371 98.7161 39.8208 98.7803C53.2285 100.579 66.1865 100.965 79.4229 102.507C111.422 106.726 142.306 111.481 174.648 112.017C186.235 112.017 197.051 111.61 208.531 110.239C228.15 107.69 243.614 104.006 261.155 97.6452L261.113 100.858C232.305 112.466 207.096 115.915 174.584 115.808C144.063 114.951 116.283 110.539 86.2552 105.955C83.8778 105.591 81.4576 105.27 79.0802 104.884C65.4583 102.978 52.0291 102.379 38.2573 100.172C30.868 98.8874 24.1427 97.431 17.1604 94.668C14.1191 93.3401 11.7845 92.2478 9.51416 90.7271V90.7057Z" fill="#B5652B"/>
<path fill-rule="evenodd" clip-rule="evenodd" d="M18.6386 51.6605C32.6032 53.2668 41.4703 53.8665 56.0774 53.888C76.596 53.6309 96.9432 52.0674 117.376 51.789C123.373 51.6819 129.627 51.0393 135.646 50.611C140.508 50.2897 144.941 50.1184 149.782 50.0327C158.477 49.6043 139.201 47.2269 135.453 47.2698C129.413 47.3769 123.33 47.8266 117.333 47.8695C116.755 47.8695 116.155 47.8695 115.577 47.8695C88.2046 48.255 61.946 51.7461 33.6955 51.7247C31.7679 51.6819 12.4273 49.6258 18.66 51.6605H18.6386Z" fill="#B5652B"/>
<path fill-rule="evenodd" clip-rule="evenodd" d="M259.871 62.1768L260.256 66.1177L259.871 65.9892C245.799 60.9131 239.074 61.32 224.852 58.9426C194.631 54.659 144.47 59.628 114.634 66.3961C110.565 67.4242 106.688 68.5379 102.812 70.1657C90.0249 75.4988 80.4939 77.0623 67.4931 80.3607C56.2914 82.7596 56.1629 81.5387 46.6319 81.3888C33.4169 80.425 61.7745 80.3607 67.1504 79.0542C70.7701 78.0476 74.3683 77.1266 78.0094 76.1842C86.8122 73.9353 93.5804 71.9648 101.912 68.1953C132.433 57.3149 192.275 49.69 225.537 55.0445C227.015 55.3016 228.579 55.58 230.078 55.7942C242.886 57.6575 247.812 57.679 259.871 62.1768Z" fill="#B5652B"/>
<path fill-rule="evenodd" clip-rule="evenodd" d="M261.091 74.9634C261.134 75.6059 261.198 76.1842 261.22 76.6768C256.786 74.5564 252.353 72.3932 251.025 71.922C239.288 67.7455 228.279 68.7521 216.135 68.2167C197.801 68.131 179.531 68.7735 161.219 68.6665C150.552 68.5379 140.186 68.131 129.627 66.5675C129.091 66.3747 112.964 65.4109 123.052 64.2115C125.279 63.9545 127.614 63.826 129.841 63.9116C158.777 65.1753 187.327 64.2757 216.177 65.3038C221.104 65.4966 226.03 65.6893 230.956 66.0534C246.741 67.8097 251.56 69.9087 261.07 74.9848L261.091 74.9634Z" fill="#B5652B"/>
<path fill-rule="evenodd" clip-rule="evenodd" d="M10.4777 64.9825L10.5633 62.8836C13.5619 62.5837 16.6032 62.3909 19.8374 61.8555C38.7067 58.5785 56.1196 56.7366 75.2032 55.2587C115.127 52.4744 161.24 52.56 199.835 44.3141C203.283 43.3931 208.552 41.1228 211.744 39.5592C212.836 39.0024 213.885 38.4455 214.913 37.7387C215.47 37.3532 216.156 36.8606 216.541 36.3037C216.606 36.218 216.627 36.1109 216.627 36.1966C216.627 36.2394 216.627 36.3251 216.648 36.3465L216.691 36.4322C216.606 36.3251 216.413 36.2394 216.306 36.1752C215.899 36.0253 215.385 35.7468 214.956 35.704C188.119 29.3 166.316 29.5784 139.136 29.3856C138.708 29.3856 138.301 29.3856 137.873 29.3856C104.653 28.893 71.5621 27.1367 38.3854 26.7726C24.6564 26.0658 25.0634 25.3805 14.2472 20.4543L13.3048 20.0045L13.4119 19.5119C19.5803 21.7608 30.1181 25.2305 38.3854 25.5732C48.0022 25.5304 57.5761 25.5946 67.1928 25.766C91.1811 26.2158 115.105 26.9226 139.115 26.8797C166.466 26.7298 188.805 26.2158 215.749 32.4699C216.156 32.5984 217.527 32.9625 217.805 33.1981C218.448 33.5408 218.897 33.862 219.368 34.4189C219.604 34.7402 219.733 34.9972 219.861 35.3613C219.968 35.7468 220.011 36.0253 219.99 36.4322C219.925 37.1176 219.733 37.6102 219.368 38.1885C218.662 39.2166 217.826 39.8805 216.82 40.5873C215.663 41.3798 214.528 42.0223 213.286 42.6649C209.602 44.4854 204.654 46.6272 200.692 47.8052C172.249 53.9736 143.077 55.4729 114.077 57.015C101.205 57.679 88.3111 58.2358 75.4388 59.0283C56.6337 60.292 38.8781 61.8341 20.1801 64.3186C16.132 64.854 13.5404 64.9611 10.4348 65.0254L10.4777 64.9825Z" fill="#B5652B"/>
<path fill-rule="evenodd" clip-rule="evenodd" d="M230.956 26.28L234.833 26.4728C235.283 30.9706 235.497 33.1124 238.731 38.9167C240.444 41.8296 242.136 44.721 244.235 47.3554C245.242 48.5763 246.141 49.4972 247.405 50.4396C250.896 52.5814 254.88 53.6524 258.971 53.5667L259.057 54.2949C256.529 54.402 252.053 54.2306 250.596 53.8665C248.99 53.4596 247.791 52.9884 246.334 52.1745C241.687 49.2831 238.966 45.128 236.011 40.6302C231.941 33.8192 231.727 31.8916 230.956 26.3014V26.28Z" fill="#B5652B"/>
<path fill-rule="evenodd" clip-rule="evenodd" d="M241.344 26.7726L245.67 26.9868C246.099 27.8864 246.506 28.6788 246.848 29.3428C248.219 31.913 249.568 34.2261 251.26 36.6035C251.475 36.9034 252.738 38.574 252.952 38.7239C254.237 40.0733 255.994 41.7439 257.879 42.9005L258.007 44.1856C256.872 43.8 255.78 43.3717 255.244 43.0718C253.809 42.2151 252.674 41.3798 251.432 40.266C248.283 37.396 246.206 34.6331 243.914 31.0777C243.036 29.6641 242.179 28.2076 241.344 26.7512V26.7726Z" fill="#B5652B"/>
<path fill-rule="evenodd" clip-rule="evenodd" d="M10.1994 175.222L9 137.419C9 137.419 11.8914 136.562 18.4668 136.133C18.4454 138.34 18.4454 139.817 18.4668 140.417C18.7881 146.05 17.8671 185.845 21.4439 201.801C16.8604 200.752 13.0266 199.081 12.3626 195.911C11.2703 190.685 10.178 175.222 10.178 175.222H10.1994ZM18.6381 127.609C13.4335 127.395 10.2851 126.967 9.96382 126.281C7.47932 121.055 11.0561 58.7713 10.7991 52.71C10.5207 46.6486 12.1699 15.2283 15.4897 14.6714C17.4816 14.3501 23.4358 12.2297 31.9388 11.7157C31.7889 11.7585 22.7076 14.4572 22.1721 20.8827C21.7224 26.1515 19.3449 97.6023 18.6596 127.609H18.6381Z" fill="#AB602B"/>
<path fill-rule="evenodd" clip-rule="evenodd" d="M9.68526 137.269C10.0494 137.183 10.5634 137.076 11.2274 136.969C13.0907 157.295 16.0893 178.349 20.7584 198.01C20.9726 199.381 21.2082 200.666 21.4652 201.823C20.8441 201.673 20.2658 201.523 19.6875 201.373C16.3249 188.222 12.6195 168.004 9.70668 137.269H9.68526ZM14.2473 16.3634C15.0184 17.4772 15.768 19.6618 16.4962 23.0887C21.7222 47.6125 15.8965 19.2977 12.1483 27.9078C12.6838 22.9816 13.3906 18.6338 14.2473 16.3634ZM9.1498 105.12C9.42824 112.06 9.81377 119.256 10.3492 126.581C10.135 126.474 10.0065 126.367 9.94228 126.26C9.08555 124.461 8.95705 115.851 9.12839 105.12H9.1498Z" fill="#874A1F"/>
<path fill-rule="evenodd" clip-rule="evenodd" d="M14.0543 136.54C14.5684 136.476 15.1252 136.412 15.725 136.369C16.5388 141.252 17.4812 146.35 18.5736 151.683C18.5736 154.06 18.5736 156.673 18.6164 159.458C16.9886 152.69 15.4037 145.065 14.0329 136.54H14.0543ZM12.6836 127.138C12.4051 125.039 12.1481 122.876 11.8911 120.67C10.3704 107.133 9.72788 94.9036 9.7493 84.3231C9.96348 78.2617 10.1991 72.3718 10.3918 67.3385C11.7626 50.354 15.1252 40.5873 18.6592 40.5231C23.564 40.416 5.38 61.3629 14.3756 127.331C13.7545 127.266 13.1762 127.202 12.6836 127.138Z" fill="#874A1F"/>
<path fill-rule="evenodd" clip-rule="evenodd" d="M17.1816 127.523C15.618 119.727 14.3758 110.517 14.0974 100.429C13.2835 70.4013 19.0449 59.7137 20.6727 59.4781L20.6085 61.2772C18.9807 67.6598 11.6557 90.877 18.3167 127.566C17.9312 127.566 17.5457 127.523 17.1816 127.502V127.523Z" fill="#874A1F"/>
<path fill-rule="evenodd" clip-rule="evenodd" d="M18.895 117.05C18.1454 112.809 17.5885 108.333 17.46 103.963C17.0745 90.0631 19.2163 79.3755 20.1373 75.4774L20.073 77.3836C19.4305 82.781 18.4666 93.8756 19.1734 106.919C19.0663 110.475 18.9807 113.88 18.895 117.071V117.05Z" fill="#874A1F"/>
<path fill-rule="evenodd" clip-rule="evenodd" d="M26.4134 88.1784C23.6077 70.5084 25.9208 42.0009 42.6269 29.9854C59.3331 17.9912 119.389 44.9566 164.41 50.6538C209.431 56.3725 238.688 63.5475 239.395 69.2448C240.102 74.9634 252.353 87.3002 243.529 96.3815C234.705 105.484 193.924 106.577 191.44 113.752C188.955 120.927 206.882 126.71 223.139 127.245C239.395 127.802 249.869 130.286 252.632 145.429C255.394 160.593 254.002 168.582 239.674 171.066C225.345 173.551 50.466 199.445 37.4438 192.699C24.443 185.952 22.5153 163.356 26.3706 154.532C30.2259 145.707 78.2881 149.413 126.05 143.994C173.813 138.554 186.728 121.055 175.719 118.228C127.657 105.891 35.5804 145.836 26.4349 88.1569L26.4134 88.1784Z" fill="#D27E40"/>
<path fill-rule="evenodd" clip-rule="evenodd" d="M27.591 153.032C28.8332 152.047 30.8037 151.276 33.4167 150.634C37.1221 150.098 40.806 149.541 44.4899 148.984C52.0719 148.278 61.5815 147.892 72.2478 147.485C70.9841 147.635 69.699 147.785 68.4139 147.935C54.3422 149.755 40.9987 151.597 27.5696 153.032H27.591ZM140.357 141.831C146.033 140.738 151.066 139.475 155.436 138.083C158.049 138.211 160.683 138.425 163.339 138.747C169.079 139.496 174.819 140.203 180.559 140.931C197.201 143.137 209.388 145.536 225.473 150.441C229.157 151.619 233.269 152.454 237.06 153.461C240.08 154.317 255.223 160.357 243.079 157.123C240.894 156.588 238.752 156.181 236.567 155.71C232.648 154.96 228.514 154.317 224.659 153.375C202.448 147.507 185.421 145.622 162.846 142.602C154.943 141.702 147.575 141.574 140.357 141.831Z" fill="#BF6C31"/>
<path fill-rule="evenodd" clip-rule="evenodd" d="M24.6567 167.275C24.5925 166.162 24.5925 165.069 24.6139 163.998C30.5467 163.077 36.4581 162.371 42.1125 162.199C71.134 162.413 100.541 154.746 129.263 155.774C140.422 156.181 151.902 155.774 163.103 155.795C169.893 155.838 176.661 155.945 183.451 156.202C193.431 156.652 202.941 157.316 212.793 158.965C219.669 160.25 225.537 161.471 231.855 164.448C239.545 169.246 221.875 161.792 212.579 160.336C209.538 159.929 206.518 159.586 203.477 159.308C196.858 158.708 190.047 158.387 183.386 158.301C165.138 158.066 147.34 159.008 129.22 159.051C106.538 159.543 87.5189 162.906 65.5225 164.962C57.5549 165.669 50.08 166.055 42.0696 165.883C41.6199 165.883 33.4596 166.611 24.6567 167.275Z" fill="#BF6C31"/>
<path fill-rule="evenodd" clip-rule="evenodd" d="M25.2349 172.651C25.1278 171.987 25.0207 171.323 24.9351 170.681C32.2386 169.996 41.3413 169.46 42.4765 169.31C64.6656 166.783 85.5483 163.292 107.994 162.82C124.465 162.413 141.021 161.964 157.513 161.964C159.034 161.964 160.576 161.964 162.097 161.964C168.029 162.028 207.053 161.685 210.502 167.532C211.487 168.368 212.493 169.246 209.945 168.839C209.602 169.053 209.281 169.096 208.874 169.16C197.329 169.974 174.819 168.475 162.118 168.475C144.063 168.432 126.071 168.646 108.016 168.346C96.6 168.154 85.4412 168.689 74.0468 169.524C57.1479 170.852 41.684 171.795 25.2349 172.651Z" fill="#BF6C31"/>
<path fill-rule="evenodd" clip-rule="evenodd" d="M247.126 133.885C248.24 134.977 249.225 136.262 250.039 137.761C241.643 137.697 234.297 137.547 231.641 137.44C231.791 137.44 231.919 137.397 232.048 137.29C232.112 137.226 232.305 137.097 232.326 136.969C232.326 136.883 232.433 136.669 232.391 136.562C232.391 136.412 232.326 136.305 232.241 136.176C232.733 136.883 233.397 137.354 234.104 137.826C235.218 138.511 236.289 138.982 237.488 139.453C237.617 139.496 237.788 139.56 237.895 139.603C240.808 140.696 243.828 141.402 246.848 142.045C248.197 142.302 250.039 142.666 252.074 143.052C252.224 143.587 252.352 144.144 252.459 144.722H252.352C250.403 144.487 248.476 144.251 246.526 143.951C243.142 143.437 239.951 142.859 236.674 141.874C235.261 141.424 234.04 140.953 232.712 140.267C231.534 139.603 230.656 139.004 229.82 137.954C229.563 137.59 229.456 137.29 229.392 136.84C229.371 136.412 229.413 136.069 229.606 135.684C229.799 135.298 230.035 135.041 230.399 134.784C230.784 134.549 231.105 134.441 231.534 134.42C236.61 134.142 241.857 133.97 247.105 133.885H247.126Z" fill="#BF6C31"/>
<path fill-rule="evenodd" clip-rule="evenodd" d="M179.381 122.147C179.445 121.269 179.188 120.477 178.631 119.834C180.066 119.342 180.73 118.699 180.238 117.842C179.338 118.228 178.481 118.635 177.646 119.02C177.111 118.699 176.468 118.421 175.718 118.228C173.491 117.65 171.178 117.2 168.779 116.836C177.196 116.365 184.821 116.879 181.116 121.098C180.58 121.441 179.981 121.783 179.381 122.126V122.147ZM110.564 118.442C105.124 118.935 99.6841 119.427 94.3724 119.77C88.8465 119.363 83.2992 118.892 77.7305 118.356C65.9077 117.136 54.449 115.679 42.8832 113.495C41.8337 112.895 40.8271 112.252 39.8633 111.546C45.4748 112.574 51.0435 113.43 56.7193 114.159C63.8087 115.079 70.8125 115.808 77.9233 116.429C88.6537 117.286 99.5984 117.992 110.586 118.421L110.564 118.442Z" fill="#BF6C31"/>
<path fill-rule="evenodd" clip-rule="evenodd" d="M237.081 128.787C238.752 129.194 240.294 129.687 241.708 130.308C236.332 130.629 231.02 130.886 225.623 130.95C219.39 130.865 209.773 128.808 203.391 127.738C199.471 127.095 195.53 126.452 191.568 126.088C190.326 125.981 189.019 125.896 187.755 125.96C187.477 125.96 187.134 126.003 186.856 126.088C186.834 126.088 186.77 126.131 186.813 126.088C186.92 126.024 187.027 125.917 187.091 125.831C187.091 125.853 187.006 125.938 187.027 125.981C187.07 126.088 187.113 126.26 187.198 126.345C187.82 127.202 188.912 127.888 189.79 128.423C193.495 130.522 197.522 131.978 201.527 133.349C209.195 135.876 217.205 137.718 224.595 140.224C226.544 140.91 228.514 141.638 230.463 142.323C238.923 145.386 246.077 147.785 253.295 149.991C253.488 151.405 253.616 152.733 253.68 153.996C243.185 151.297 232.626 147.335 223.288 143.93C215.877 141.359 208.017 139.475 200.349 136.819C196.108 135.298 191.889 133.692 188.034 131.336C186.642 130.458 185.399 129.558 184.436 128.187C184.007 127.502 183.772 126.924 183.729 126.11C183.729 125.253 183.943 124.632 184.436 123.925C184.65 123.647 184.864 123.454 185.164 123.283C185.421 123.176 185.656 123.026 185.913 122.983C186.449 122.897 186.984 122.747 187.541 122.747C188.998 122.79 190.368 122.747 191.825 122.983C195.851 123.475 199.835 124.204 203.84 124.975C207.332 125.639 210.823 126.345 214.314 127.031C217.762 127.695 222.089 128.637 225.58 128.83C229.349 128.83 233.162 128.83 237.017 128.766L237.081 128.787Z" fill="#BF6C31"/>
<path fill-rule="evenodd" clip-rule="evenodd" d="M193.603 111.567C192.468 112.231 191.718 112.959 191.439 113.752C191.225 114.351 191.161 114.93 191.225 115.508C185.871 115.743 180.345 115.829 174.605 115.808C144.084 114.951 116.305 110.539 86.2766 105.955C83.8992 105.591 81.4789 105.27 79.1015 104.884C65.4796 102.978 52.0504 102.379 38.2786 100.172C35.1944 99.637 32.2173 99.0587 29.3044 98.3948C29.0902 97.8807 28.876 97.3453 28.6619 96.8098C31.8532 97.5166 35.1087 98.0949 38.5142 98.609C38.9426 98.6732 39.3709 98.7375 39.8207 98.8017C53.2284 100.601 66.1864 100.986 79.4228 102.528C111.421 106.748 142.306 111.503 174.648 112.038C181.116 112.038 187.349 111.91 193.603 111.567Z" fill="#BF6C31"/>
<path fill-rule="evenodd" clip-rule="evenodd" d="M28.2549 52.6671C28.3834 52.2173 28.5119 51.7676 28.6618 51.3178C31.1035 51.5105 33.1382 51.7033 33.6951 51.7247C61.9456 51.7461 88.2042 48.255 115.577 47.8695C116.155 47.8695 116.755 47.8695 117.333 47.8695C123.33 47.8481 129.413 47.3983 135.453 47.2698C139.201 47.2483 158.477 49.6258 149.781 50.0327C144.941 50.1398 140.507 50.2897 135.645 50.611C129.648 51.0393 123.373 51.6819 117.376 51.789C96.9213 52.0674 76.5956 53.6309 56.077 53.888C45.0895 53.888 37.3576 53.5239 28.2549 52.6885V52.6671Z" fill="#BF6C31"/>
<path fill-rule="evenodd" clip-rule="evenodd" d="M185.614 53.6309C193.667 54.8732 200.971 56.1797 207.418 57.4862C177.732 56.4367 139.265 60.7846 114.634 66.3747C110.565 67.4028 106.688 68.5165 102.812 70.1443C90.0249 75.4774 80.4939 77.0409 67.4931 80.3393C56.2914 82.7382 56.1629 81.5173 46.6319 81.3674C33.4169 80.4036 61.7745 80.3393 67.1504 79.0328C70.7701 78.0262 74.3683 77.1052 78.0094 76.1628C86.8122 73.9139 93.5804 71.9434 101.912 68.1738C122.281 60.9131 155.736 55.1088 185.614 53.6309Z" fill="#BF6C31"/>
<path fill-rule="evenodd" clip-rule="evenodd" d="M237.574 66.8673C238.667 67.6598 239.266 68.4523 239.395 69.2019C231.791 68.2381 224.209 68.5594 216.156 68.1953C197.822 68.1096 179.553 68.7521 161.24 68.645C150.574 68.5165 140.207 68.1096 129.648 66.5461C129.113 66.3533 112.985 65.3895 123.073 64.1901C125.3 63.9331 127.635 63.8045 129.863 63.8902C158.798 65.1539 187.349 64.2543 216.199 65.2824C221.125 65.4752 226.051 65.6679 230.977 66.032C233.419 66.3105 235.604 66.5889 237.574 66.8673Z" fill="#BF6C31"/>
<path fill-rule="evenodd" clip-rule="evenodd" d="M26.0918 63.5261C26.1989 62.6051 26.3488 61.6627 26.4987 60.7418C42.8622 58.1502 58.3689 56.5652 75.2035 55.2587C102.19 53.3739 132.026 52.8171 160.426 50.097C161.754 50.2897 163.103 50.4825 164.41 50.6538C168.222 51.1464 171.906 51.6391 175.483 52.1317C155.157 54.8304 134.575 55.9013 114.099 56.9936C101.227 57.6575 88.3328 58.2144 75.4605 59.0069C58.6259 60.142 42.648 61.4914 26.0918 63.5475V63.5261ZM52.9501 26.9868C55.3275 26.8583 57.9619 26.9226 60.7891 27.1796C58.1761 27.1153 55.5631 27.0511 52.9501 26.9868Z" fill="#BF6C31"/>
<path fill-rule="evenodd" clip-rule="evenodd" d="M260.963 111.417C260.877 116.772 260.792 122.533 260.706 127.78C259.399 126.495 257.236 124.76 253.852 122.94C246.977 119.213 192.532 120.862 195.573 120.605C198.615 120.327 236.503 117.029 251.389 114.673C256.615 113.859 259.464 112.659 260.984 111.417H260.963Z" fill="#7A421A"/>
<path fill-rule="evenodd" clip-rule="evenodd" d="M260.856 118.721L260.706 127.759C259.399 126.474 257.236 124.739 253.852 122.919C249.718 120.67 228.3 120.391 212.579 120.455C212.579 120.455 247.02 118.999 250.618 119.342C254.195 119.684 260.834 118.721 260.856 118.721Z" fill="#613413"/>
<path fill-rule="evenodd" clip-rule="evenodd" d="M92.0382 43.4359C116.198 43.6287 193.731 48.4906 193.603 46.7772C193.474 45.0637 144.898 38.2742 99.1919 39.1309C-40.3899 41.7653 37.9575 43.029 92.0382 43.4359Z" fill="#8F5124"/>
<path fill-rule="evenodd" clip-rule="evenodd" d="M92.0378 43.4359C116.197 43.6287 193.731 48.4906 193.602 46.7771C193.56 46.1989 188.184 45.0851 179.338 43.8643C180.195 46.6272 137.765 43.1789 108.101 41.6796C78.6729 40.2018 21.6579 41.7011 20.7369 41.7439C20.2443 42.6649 60.3176 43.2003 92.0378 43.4359Z" fill="#7A421A"/>
<path fill-rule="evenodd" clip-rule="evenodd" d="M9.77094 182.482C9.77094 182.482 10.7776 202.637 11.1845 203.451C11.5915 204.286 11.056 207.456 28.2762 206.62C45.4963 205.785 256.872 180.983 256.872 180.983C256.872 180.983 263.34 178.499 263.211 173.551C263.083 168.582 263.211 155.924 263.211 155.924C263.211 155.924 262.719 155.089 260.106 155.196C257.493 155.303 11.3345 180.34 11.3345 180.34C11.3345 180.34 9.47109 181.454 9.77094 182.482Z" fill="#9EA1AB"/>
<path fill-rule="evenodd" clip-rule="evenodd" d="M24.2924 206.749C25.5133 206.749 26.8412 206.685 28.2976 206.62C45.5178 205.785 256.893 180.983 256.893 180.983C256.893 180.983 263.361 178.499 263.233 173.551C263.104 168.582 263.233 155.924 263.233 155.924C263.233 155.924 262.976 155.474 261.776 155.281C261.776 155.281 263.468 170.531 248.583 174.108C233.697 177.685 28.8331 205.807 25.0849 200.838C21.3367 195.869 21.2296 181.925 21.1226 181.883C21.0155 181.861 20.0945 195.076 24.3138 206.749H24.2924Z" fill="#878A96"/>
<path fill-rule="evenodd" clip-rule="evenodd" d="M9.77094 182.482C9.77094 182.482 10.7776 202.637 11.1845 203.451C11.5486 204.179 11.1631 206.77 23.1144 206.749C20.8227 202.658 19.6875 191.564 19.1307 179.527L11.3345 180.319C11.3345 180.319 9.47109 181.433 9.77094 182.461V182.482Z" fill="#8B8E99"/>
<path fill-rule="evenodd" clip-rule="evenodd" d="M11.3347 184.024C11.5488 185.545 11.2061 201.737 13.3908 203.172C15.5754 204.607 18.7453 204.2 19.1094 202.423C19.4735 200.645 16.4964 201.33 15.9395 199.381C15.3827 197.454 15.9395 196.768 16.1537 192.42C16.3679 188.072 17.5245 184.645 15.9395 183.318C14.3546 182.011 11.8058 181.326 11.3132 184.003L11.3347 184.024Z" fill="#787C8C"/>
<path fill-rule="evenodd" clip-rule="evenodd" d="M28.9405 183.853C28.8977 190.643 32.6887 195.247 48.1954 194.219C63.7021 193.191 254.602 174.793 247.727 170.938C240.83 167.083 93.409 185.395 88.1616 182.375C82.9356 179.334 257.536 167.918 252.888 162.135C248.241 156.352 26.1562 181.818 28.9405 183.853Z" fill="#ACB0BB"/>
<path fill-rule="evenodd" clip-rule="evenodd" d="M22.4937 181.711C21.7441 182.589 22.8364 183.553 30.1186 182.739C37.4007 181.925 256.894 159.008 257.536 158.73C258.179 158.451 260.535 162.756 260.406 161.75C259.1 151.854 258.907 157.487 255.266 157.702C253.788 157.787 22.7722 181.176 22.4937 181.711Z" fill="#E1E3E8"/>
<path fill-rule="evenodd" clip-rule="evenodd" d="M195.98 168.154C196.858 169.481 236.353 167.318 252.288 164.298C268.223 161.278 203.498 164.02 195.98 168.154Z" fill="white"/>
<path fill-rule="evenodd" clip-rule="evenodd" d="M29.7114 196.897C32.3673 196.897 34.5305 194.648 34.5305 191.863C34.5305 189.079 32.3673 186.83 29.7114 186.83C27.0556 186.83 24.8923 189.079 24.8923 191.863C24.8923 194.648 27.0556 196.897 29.7114 196.897Z" fill="#787C8C"/>
<path fill-rule="evenodd" clip-rule="evenodd" d="M30.2896 196.361C32.6242 196.361 34.5304 194.262 34.5304 191.671C34.5304 189.079 32.6242 186.98 30.2896 186.98C27.955 186.98 26.0488 189.079 26.0488 191.671C26.0488 194.262 27.955 196.361 30.2896 196.361Z" fill="#ACB0BB"/>
<path fill-rule="evenodd" clip-rule="evenodd" d="M31.5321 187.773C30.4397 187.58 26.9914 187.601 26.7344 190.086C26.0919 195.89 33.2027 196.94 30.4826 193.384C29.2403 191.756 29.6473 190.171 31.1037 189.743C32.5601 189.315 32.3031 188.672 31.5321 187.773Z" fill="#E1E3E8"/>
<path fill-rule="evenodd" clip-rule="evenodd" d="M30.4608 188.779C30.8892 188.779 31.2533 189.143 31.2533 189.572V190.793H32.4741C32.9025 190.793 33.2666 191.157 33.2666 191.585C33.2666 192.013 32.9025 192.377 32.4741 192.377H31.2533V193.598C31.2533 194.027 30.8892 194.391 30.4608 194.391C30.0324 194.391 29.6683 194.027 29.6683 193.598V192.377H28.4475C28.0191 192.377 27.655 192.013 27.655 191.585C27.655 191.157 28.0191 190.793 28.4475 190.793H29.6683V189.572C29.6683 189.143 30.0324 188.779 30.4608 188.779Z" fill="#5C6070"/>
<path fill-rule="evenodd" clip-rule="evenodd" d="M254.43 172.202C257.086 172.202 259.249 169.953 259.249 167.168C259.249 164.384 257.086 162.135 254.43 162.135C251.775 162.135 249.611 164.384 249.611 167.168C249.611 169.953 251.775 172.202 254.43 172.202Z" fill="#787C8C"/>
<path fill-rule="evenodd" clip-rule="evenodd" d="M255.009 171.645C257.343 171.645 259.249 169.546 259.249 166.954C259.249 164.363 257.343 162.264 255.009 162.264C252.674 162.264 250.768 164.363 250.768 166.954C250.768 169.546 252.674 171.645 255.009 171.645Z" fill="#ACB0BB"/>
<path fill-rule="evenodd" clip-rule="evenodd" d="M256.23 163.056C255.137 162.863 251.689 162.885 251.432 165.369C250.79 171.174 257.9 172.223 255.18 168.668C253.938 167.04 254.345 165.455 255.801 165.027C257.258 164.577 257.001 163.956 256.23 163.056Z" fill="#E1E3E8"/>
<path fill-rule="evenodd" clip-rule="evenodd" d="M255.18 164.063C255.608 164.063 255.972 164.427 255.972 164.855V166.076H257.193C257.622 166.076 257.986 166.44 257.986 166.868C257.986 167.297 257.622 167.661 257.193 167.661H255.972V168.882C255.972 169.31 255.608 169.674 255.18 169.674C254.752 169.674 254.388 169.31 254.388 168.882V167.661H253.167C252.738 167.661 252.374 167.297 252.374 166.868C252.374 166.44 252.738 166.076 253.167 166.076H254.388V164.855C254.388 164.427 254.752 164.063 255.18 164.063Z" fill="#5C6070"/>
<path fill-rule="evenodd" clip-rule="evenodd" d="M188.869 106.298C169.293 110.432 158.006 108.783 137.337 106.576C116.669 104.37 118.875 98.5875 99.8557 99.4014C80.8364 100.237 68.4353 98.3091 39.7779 92.5048C11.1204 86.7219 35.3657 90.5772 64.3016 83.4021C93.2375 76.227 95.4435 75.1347 109.494 72.9287C123.544 70.7226 143.12 69.3732 143.12 69.3732C143.12 69.3732 235.839 76.9338 243.036 80.5963C249.204 83.7234 199.043 104.135 188.869 106.277V106.298Z" fill="#BF6C31"/>
<path fill-rule="evenodd" clip-rule="evenodd" d="M196.023 80.4678C204.633 84.73 201.57 101.907 183.472 104.606C167.258 107.005 112.921 100.408 117.418 86.2936C122.345 70.8725 187.027 76.0343 196.023 80.4893V80.4678Z" fill="#B5652B"/>
<path fill-rule="evenodd" clip-rule="evenodd" d="M193.41 83.702C202.47 88.2855 187.349 99.1873 175.826 100.087C158.713 101.436 142.649 97.3881 147.597 87.4716C153.037 76.5912 186.856 80.3822 193.41 83.702Z" fill="#A35823"/>
<path fill-rule="evenodd" clip-rule="evenodd" d="M165.374 95.5462C160.833 93.4686 154.9 88.6496 162.611 86.0365C170.321 83.4235 180.795 81.346 184.8 86.165C188.805 90.9841 175.569 99.9369 171.992 97.3239C168.415 94.7109 182.337 90.4273 175.033 89.3349C167.73 88.2426 171.307 98.5661 165.395 95.5248L165.374 95.5462Z" fill="#944D1B"/>
<path fill-rule="evenodd" clip-rule="evenodd" d="M434.741 40.356L463.248 38V435.67L434.741 430.144V40.356Z" fill="#D27E40"/>
<path fill-rule="evenodd" clip-rule="evenodd" d="M439.688 39.949L443.329 39.6492C440.802 47.9594 437.525 55.5629 434.74 62.9521V51.2364C436.175 47.1884 438.296 43.6758 439.688 39.9705V39.949ZM451.168 39.0067C449.219 47.017 444.978 56.8908 442.815 65.9506C440.652 75.0105 435.062 89.7247 435.297 90.6243C435.533 91.5239 444.164 70.0415 449.09 54.8989C450.954 49.1588 452.432 44.4254 453.931 38.7925L451.168 39.0281V39.0067ZM459.221 38.3427C456.822 47.6167 454.831 55.0917 453.267 61.5385C451.703 67.9854 441.359 88.1184 434.74 107.159V115.234C437.739 106.367 452.989 71.1552 454.381 65.0297C455.773 58.9041 458.193 50.0156 461.17 38.1713L459.221 38.3427ZM463.248 49.5444C458.879 64.5156 454.231 81.0076 451.297 88.7823C445.963 102.983 436.839 117.418 434.719 132.775V155.264C436.732 142.263 438.082 128.534 441.187 120.867C445.364 110.565 453.503 95.4434 459.671 73.3399C461.085 68.2638 462.263 63.8302 463.248 60.0178V49.5444ZM463.248 70.4056V80.4293C461.342 87.0475 459.093 93.9441 456.48 100.605C449.497 118.339 440.652 158.284 434.74 188.912V173.063C435.94 167.622 437.139 162.461 438.253 157.834C445.899 126.35 446.37 115.748 454.766 97.5852C458.236 90.0674 461.106 79.9152 463.269 70.427L463.248 70.4056ZM463.248 104.011V110.051C458.514 127.014 452.603 150.017 450.183 165.074C448.469 175.697 444.7 196.323 441.337 214.442C440.909 214.892 440.48 215.278 440.052 215.642C442.986 196.858 446.477 174.669 448.469 162.054C450.954 146.461 456.544 127.271 463.248 104.032V104.011ZM463.248 143.034V154.986C450.29 203.819 445.042 266.81 434.74 322.475V296.988C440.716 256.272 447.677 187.755 461.663 147.811C462.22 146.226 462.755 144.641 463.269 143.034H463.248ZM463.248 256.807C457.358 277.155 450.011 302.578 443.436 325.881C439.988 338.132 437.075 353.767 434.719 370.495V388.722C441.915 345.264 454.102 298.958 460.678 274.884C461.556 271.672 462.413 268.523 463.248 265.439V256.807ZM463.248 309.903C459.093 323.375 456.673 330.721 451.832 355.395C446.992 380.069 442.686 411.061 440.523 431.237L442.108 431.579C446.178 402.493 452.175 365.569 463.141 332.371L463.226 332.092V309.881L463.248 309.903ZM463.248 351.497V367.111C459.264 387.522 455.923 409.733 455.045 434.064L450.311 433.143C451.318 420.378 452.774 411.339 454.788 395.961C456.801 380.583 460.099 363.898 463.248 351.497ZM434.74 281.909C435.79 273.749 436.475 263.725 436.797 247.619C436.904 242.5 439.709 229.349 434.783 238.067L434.719 238.559V281.909H434.74Z" fill="#B5652B"/>
<path fill-rule="evenodd" clip-rule="evenodd" d="M473.378 43.3117L463.248 38V435.67L473.378 426.974V43.3117Z" fill="#8A4311"/>
<path fill-rule="evenodd" clip-rule="evenodd" d="M463.248 435.67L461.449 345.628L463.248 177.175V435.67Z" fill="#DE925B"/>
<path fill-rule="evenodd" clip-rule="evenodd" d="M325.015 129.134L329.705 120.246C329.705 120.246 333.753 118.489 334.717 118.682C335.681 118.896 337.887 120.545 337.202 121.98C336.516 123.437 329.684 129.155 324.993 129.113L325.015 129.134Z" fill="#7A421A"/>
<path fill-rule="evenodd" clip-rule="evenodd" d="M577.235 175.44C577.235 175.44 576.635 168.929 574.343 168.158C572.073 167.408 404.948 159.162 404.99 157.62C405.055 156.057 418.677 167.258 426.451 170.15C434.205 173.041 574.472 185.164 577.235 175.419V175.44Z" fill="#663613"/>
<path fill-rule="evenodd" clip-rule="evenodd" d="M576.035 213.222L577.235 175.419C577.235 175.419 572.137 173.898 560.015 173.898C547.892 173.898 408.439 159.569 408.439 159.569C408.439 159.569 573.787 169.486 576.271 164.26C578.756 159.034 575.179 96.7499 575.436 90.6885C575.714 84.6272 574.065 53.2069 570.745 52.65C567.447 52.0931 553.118 46.5887 534.377 51.8147C515.636 57.0407 330.027 65.458 330.027 65.458C330.027 65.458 324.651 114.655 324.93 116.583C325.208 118.511 325.422 119.624 325.422 119.624C325.422 119.624 332.383 120.46 333.904 121.274C335.424 122.109 333.411 123.137 332.726 123.48C332.04 123.822 325.079 127.056 325.015 129.134C324.951 131.212 325.829 184.307 325.829 184.307C325.829 184.307 321.695 213.243 332.169 215.727C342.642 218.212 548.235 242.457 555.667 241.365C563.099 240.273 572.758 239.159 573.851 233.933C574.943 228.707 576.035 213.243 576.035 213.243V213.222Z" fill="#CC783D"/>
<path fill-rule="evenodd" clip-rule="evenodd" d="M576.699 192.682L576.764 190.947C569.032 190.347 561.514 189.854 560.272 189.683C535.662 186.32 511.546 181.78 486.765 179.916C464.683 178.117 445.171 174.176 422.917 176.746C417.177 177.496 411.437 178.203 405.697 178.931C389.055 181.137 376.868 183.536 360.783 188.441C357.1 189.619 352.987 190.454 349.196 191.461C346.176 192.317 331.034 198.357 343.178 195.123C345.362 194.588 347.504 194.181 349.689 193.71C353.608 192.96 357.742 192.317 361.597 191.375C383.808 185.506 400.835 183.622 423.41 180.602C445.985 178.032 464.319 181.694 486.551 183.022C497.11 183.579 507.326 184.65 517.8 185.913C538.125 188.526 556.909 191.204 576.699 192.66V192.682Z" fill="#B5652B"/>
<path fill-rule="evenodd" clip-rule="evenodd" d="M576.271 206.261L576.335 204.526C565.776 202.641 554.489 200.542 544.144 200.199C515.122 200.413 485.715 192.746 456.994 193.774C445.835 194.181 434.355 193.774 423.153 193.795C416.363 193.838 409.595 193.945 402.806 194.202C392.825 194.652 383.315 195.316 373.463 196.965C366.588 198.25 360.719 199.471 354.401 202.448C346.712 207.246 364.382 199.792 373.677 198.336C376.718 197.929 379.738 197.586 382.78 197.308C389.398 196.708 396.209 196.387 402.87 196.301C421.118 196.066 438.917 197.008 457.036 197.051C479.718 197.543 498.737 200.906 520.734 202.962C528.701 203.669 536.176 204.055 544.187 203.883C544.893 203.905 564.855 205.661 576.292 206.239L576.271 206.261Z" fill="#B5652B"/>
<path fill-rule="evenodd" clip-rule="evenodd" d="M568.025 211.015C548.899 210.073 531.464 209.066 512.188 207.546C500.815 206.732 489.635 206.175 478.219 206.368C460.142 206.668 442.172 206.453 424.117 206.496C411.416 206.496 388.905 207.996 377.361 207.182C376.975 207.117 376.654 207.075 376.29 206.86C373.72 207.246 374.726 206.389 375.733 205.554C379.181 199.707 418.205 200.049 424.138 199.985C425.659 199.985 427.201 199.985 428.721 199.985C445.213 199.985 461.748 200.435 478.24 200.842C500.708 201.313 521.569 204.826 543.758 207.332C546.05 207.589 580.297 209.473 568.046 211.015H568.025Z" fill="#B5652B"/>
<path fill-rule="evenodd" clip-rule="evenodd" d="M325.615 171.756L325.679 175.783C337.823 175.804 350.867 175.568 354.572 175.419C354.422 175.419 354.294 175.376 354.165 175.269C354.101 175.204 353.908 175.076 353.887 174.947C353.887 174.862 353.78 174.648 353.822 174.54C353.822 174.391 353.887 174.283 353.972 174.155C353.48 174.862 352.816 175.333 352.109 175.804C350.995 176.489 349.924 176.961 348.725 177.432C348.596 177.475 348.425 177.539 348.318 177.582C345.405 178.674 342.385 179.381 339.365 180.023C336.152 180.623 330.091 181.865 325.808 182.401V183.429C329.02 183.279 333.647 182.701 333.861 182.679C335.81 182.465 337.737 182.208 339.686 181.93C343.07 181.416 346.262 180.837 349.539 179.852C350.952 179.402 352.173 178.931 353.501 178.246C354.679 177.582 355.557 176.982 356.393 175.933C356.65 175.568 356.757 175.269 356.821 174.819C356.842 174.391 356.8 174.048 356.607 173.662C356.414 173.277 356.178 173.02 355.814 172.763C355.429 172.527 355.107 172.42 354.679 172.399C345.212 171.863 335.189 171.777 325.615 171.756Z" fill="#B5652B"/>
<path fill-rule="evenodd" clip-rule="evenodd" d="M577.085 179.959L577.149 178.032C575.029 178.053 572.908 178.117 570.873 178.053C534.099 178.203 494.132 175.162 457.871 169.443C447.398 167.772 435.811 167.023 425.637 164.752C421.396 163.51 418.077 161.904 414.843 160.233L408.417 159.569C408.417 159.569 410.516 159.698 414.221 159.912C411.587 158.541 408.974 157.128 405.975 155.821C403.598 159.955 428.4 159.248 433.969 159.462C444.485 159.762 454.98 159.569 465.518 159.205C479.954 158.648 494.111 157.727 508.482 156.335C522.34 154.9 535.726 153.165 549.37 150.252C557.637 148.346 565.883 146.376 573.529 142.627C584.602 135.859 559.415 146.825 549.113 149.031C542.58 150.274 536.112 151.302 529.515 152.159C522.426 153.079 515.422 153.808 508.311 154.429C484.002 156.378 458.514 157.577 434.119 156.442C429.621 156.121 398.329 151.345 405.097 159.119C410.238 162.289 418.912 166.509 424.716 168.244C435.083 170.664 446.563 171.435 457.186 173.234C467.595 175.033 477.897 176.404 488.392 177.496C514.951 180.109 544.251 182.251 570.938 180.495C572.758 180.216 574.964 180.088 577.063 179.959H577.085Z" fill="#B5652B"/>
<path fill-rule="evenodd" clip-rule="evenodd" d="M325.529 166.145V167.28C332.576 167.837 344.077 168.286 344.506 168.329C349.882 168.65 355.193 168.907 360.591 168.993C366.823 168.907 376.44 166.851 382.823 165.78C386.742 165.138 390.683 164.495 394.645 164.131C395.888 164.024 397.194 163.938 398.458 164.003C398.736 164.003 399.079 164.046 399.357 164.131C399.379 164.131 399.443 164.174 399.4 164.131C399.293 164.067 399.186 163.96 399.122 163.874C399.122 163.896 399.207 163.981 399.186 164.024C399.143 164.131 399.1 164.303 399.015 164.388C398.394 165.245 397.301 165.93 396.423 166.466C392.718 168.565 388.691 170.021 384.686 171.392C377.018 173.919 369.008 175.761 361.619 178.267C359.67 178.953 357.699 179.681 355.75 180.366C344.334 184.521 335.296 187.413 325.272 190.283C325.208 191.332 325.144 192.489 325.101 193.71C337.973 191.225 351.381 186.17 362.925 181.951C370.336 179.381 378.196 177.496 385.864 174.84C390.105 173.32 394.324 171.713 398.179 169.357C399.572 168.479 400.814 167.58 401.778 166.209C402.206 165.523 402.442 164.945 402.484 164.131C402.484 163.275 402.27 162.653 401.778 161.947C401.563 161.668 401.349 161.475 401.049 161.304C400.792 161.197 400.557 161.047 400.3 161.004C399.764 160.919 399.229 160.769 398.672 160.769C397.216 160.811 395.845 160.769 394.388 161.004C390.362 161.497 386.378 162.225 382.373 162.996C378.882 163.66 375.39 164.367 371.899 165.052C368.451 165.716 364.125 166.659 360.633 166.851C349.196 166.873 337.159 166.594 325.572 166.145H325.529Z" fill="#B5652B"/>
<path fill-rule="evenodd" clip-rule="evenodd" d="M576.721 128.706L576.656 126.971C574.215 128.684 571.366 130.483 568.646 131.619C561.621 134.146 555.067 135.474 547.721 136.588C547.292 136.652 546.864 136.716 546.414 136.78C533.006 138.579 520.048 138.965 506.812 140.507C474.813 144.726 443.928 149.481 411.587 150.017C400 150.017 389.184 149.61 377.704 148.239C358.085 145.69 342.621 142.006 325.079 135.645L325.122 138.858C353.93 150.466 379.139 153.915 411.651 153.808C442.172 152.951 469.951 148.539 499.98 143.955C502.357 143.591 504.777 143.27 507.155 142.884C520.777 140.978 534.206 140.379 547.978 138.172C555.367 136.887 562.092 135.431 569.074 132.668C572.116 131.34 574.45 130.248 576.721 128.727V128.706Z" fill="#B5652B"/>
<path fill-rule="evenodd" clip-rule="evenodd" d="M567.596 89.6605C553.632 91.2668 544.765 91.8665 530.157 91.888C509.639 91.6309 489.292 90.0674 468.859 89.789C462.862 89.6819 456.608 89.0393 450.589 88.611C445.727 88.2897 441.294 88.1184 436.453 88.0327C427.757 87.6043 447.034 85.2269 450.782 85.2698C456.822 85.3769 462.905 85.8266 468.902 85.8695C469.48 85.8695 470.08 85.8695 470.658 85.8695C498.03 86.255 524.289 89.7461 552.539 89.7247C554.467 89.6819 573.808 87.6258 567.575 89.6605H567.596Z" fill="#B5652B"/>
<path fill-rule="evenodd" clip-rule="evenodd" d="M326.364 100.177L325.979 104.118L326.364 103.989C340.436 98.9131 347.161 99.32 361.383 96.9426C391.604 92.659 441.765 97.628 471.601 104.396C475.67 105.424 479.547 106.538 483.423 108.166C496.21 113.499 505.741 115.062 518.742 118.361C529.943 120.76 530.072 119.539 539.603 119.389C552.818 118.425 524.46 118.361 519.084 117.054C515.465 116.048 511.867 115.127 508.225 114.184C499.423 111.935 492.655 109.965 484.323 106.195C453.802 95.3149 393.96 87.69 360.698 93.0445C359.22 93.3016 357.656 93.58 356.157 93.7942C343.349 95.6575 338.423 95.679 326.364 100.177Z" fill="#B5652B"/>
<path fill-rule="evenodd" clip-rule="evenodd" d="M325.144 112.963C325.101 113.606 325.037 114.184 325.015 114.677C329.449 112.556 333.882 110.393 335.21 109.922C346.947 105.745 357.956 106.752 370.1 106.217C388.434 106.131 406.704 106.774 425.016 106.666C435.682 106.538 446.049 106.131 456.608 104.567C457.143 104.375 473.271 103.411 463.183 102.211C460.956 101.954 458.621 101.826 456.394 101.912C427.458 103.175 398.908 102.276 370.057 103.304C365.131 103.497 360.205 103.689 355.279 104.053C339.494 105.81 334.675 107.909 325.165 112.985L325.144 112.963Z" fill="#B5652B"/>
<path fill-rule="evenodd" clip-rule="evenodd" d="M575.757 102.983L575.672 100.884C572.673 100.584 569.632 100.391 566.397 99.8555C547.528 96.5785 530.115 94.7366 511.032 93.2587C471.108 90.4744 424.995 90.56 386.4 82.3141C382.951 81.3931 377.683 79.1228 374.491 77.5592C373.399 77.0024 372.349 76.4455 371.321 75.7387C370.764 75.3532 370.079 74.8606 369.694 74.3037C369.629 74.218 369.608 74.1109 369.608 74.1966C369.608 74.2394 369.608 74.3251 369.587 74.3465L369.544 74.4322C369.629 74.3251 369.822 74.2394 369.929 74.1752C370.336 74.0253 370.85 73.7468 371.279 73.704C398.115 67.3 419.919 67.5784 447.099 67.3856C447.527 67.3856 447.934 67.3856 448.362 67.3856C481.582 66.893 514.673 65.1367 547.849 64.7726C561.578 64.0658 561.171 63.3805 571.988 58.4543L572.93 58.0045L572.823 57.5119C566.655 59.7608 556.117 63.2305 547.849 63.5732C538.233 63.5304 528.659 63.5946 519.042 63.766C495.054 64.2158 471.13 64.9226 447.12 64.8797C419.769 64.7298 397.43 64.2158 370.486 70.4698C370.079 70.5984 368.708 70.9625 368.43 71.1981C367.787 71.5408 367.338 71.862 366.866 72.4189C366.631 72.7402 366.502 72.9972 366.374 73.3613C366.267 73.7468 366.224 74.0253 366.245 74.4322C366.31 75.1176 366.502 75.6102 366.866 76.1885C367.573 77.2166 368.408 77.8805 369.415 78.5873C370.572 79.3798 371.707 80.0223 372.949 80.6649C376.633 82.4854 381.581 84.6272 385.543 85.8052C413.986 91.9736 443.158 93.4729 472.158 95.015C485.03 95.679 497.924 96.2358 510.796 97.0283C529.601 98.292 547.357 99.8341 566.055 102.319C570.103 102.854 572.694 102.961 575.8 103.025L575.757 102.983Z" fill="#B5652B"/>
<path fill-rule="evenodd" clip-rule="evenodd" d="M355.279 64.28L351.402 64.4728C350.952 68.9706 350.738 71.1124 347.504 76.9167C345.791 79.8296 344.099 82.721 342 85.3554C340.993 86.5763 340.093 87.4972 338.83 88.4396C335.339 90.5814 331.355 91.6524 327.264 91.5667L327.178 92.2949C329.706 92.402 334.182 92.2306 335.638 91.8665C337.245 91.4596 338.444 90.9884 339.901 90.1745C344.548 87.2831 347.268 83.1279 350.224 78.6301C354.294 71.8192 354.508 69.8916 355.279 64.3014V64.28Z" fill="#B5652B"/>
<path fill-rule="evenodd" clip-rule="evenodd" d="M344.891 64.7726L340.565 64.9868C340.136 65.8864 339.729 66.6788 339.387 67.3428C338.016 69.913 336.667 72.2261 334.975 74.6035C334.76 74.9034 333.497 76.574 333.282 76.7239C331.997 78.0733 330.241 79.7439 328.356 80.9005L328.228 82.1855C329.363 81.8 330.455 81.3717 330.991 81.0718C332.426 80.2151 333.561 79.3798 334.803 78.266C337.952 75.396 340.029 72.6331 342.321 69.0777C343.199 67.6641 344.056 66.2076 344.891 64.7512V64.7726Z" fill="#B5652B"/>
<path fill-rule="evenodd" clip-rule="evenodd" d="M576.035 213.222L577.235 175.419C577.235 175.419 574.343 174.562 567.768 174.133C567.789 176.34 567.789 177.817 567.768 178.417C567.447 184.05 568.368 223.845 564.791 239.801C569.374 238.752 573.208 237.081 573.872 233.911C574.965 228.685 576.057 213.222 576.057 213.222H576.035ZM567.597 165.609C572.801 165.395 575.95 164.967 576.271 164.281C578.756 159.055 575.179 96.7713 575.436 90.71C575.714 84.6486 574.065 53.2283 570.745 52.6714C568.753 52.3501 562.799 50.2297 554.296 49.7157C554.446 49.7585 563.527 52.4572 564.063 58.8827C564.513 64.1515 566.89 135.602 567.575 165.609H567.597Z" fill="#AB602B"/>
<path fill-rule="evenodd" clip-rule="evenodd" d="M576.55 175.269C576.185 175.183 575.671 175.076 575.007 174.969C573.144 195.295 570.146 216.349 565.476 236.01C565.262 237.381 565.027 238.666 564.77 239.823C565.391 239.673 565.969 239.523 566.547 239.373C569.91 226.222 573.615 206.004 576.528 175.269H576.55ZM571.988 54.3634C571.216 55.4772 570.467 57.6618 569.739 61.0887C564.513 85.6125 570.338 57.2977 574.087 65.9078C573.551 60.9816 572.844 56.6338 571.988 54.3634ZM577.085 143.12C576.807 150.06 576.421 157.256 575.886 164.581C576.1 164.474 576.228 164.367 576.293 164.26C577.149 162.461 577.278 153.851 577.106 143.12H577.085Z" fill="#874A1F"/>
<path fill-rule="evenodd" clip-rule="evenodd" d="M572.181 174.54C571.666 174.476 571.11 174.412 570.51 174.369C569.696 179.252 568.754 184.35 567.661 189.683C567.661 192.06 567.661 194.673 567.618 197.458C569.246 190.69 570.831 183.065 572.202 174.54H572.181ZM573.551 165.138C573.83 163.039 574.087 160.876 574.344 158.67C575.864 145.133 576.507 132.904 576.486 122.323C576.271 116.262 576.036 110.372 575.843 105.339C574.472 88.354 571.11 78.5873 567.576 78.5231C562.671 78.416 580.855 99.3629 571.859 165.331C572.48 165.266 573.059 165.202 573.551 165.138Z" fill="#874A1F"/>
<path fill-rule="evenodd" clip-rule="evenodd" d="M569.053 165.523C570.617 157.727 571.859 148.517 572.138 138.429C572.951 108.401 567.19 97.7137 565.562 97.4781L565.626 99.2772C567.254 105.66 574.579 128.877 567.918 165.566C568.304 165.566 568.689 165.523 569.053 165.502V165.523Z" fill="#874A1F"/>
<path fill-rule="evenodd" clip-rule="evenodd" d="M567.34 155.05C568.089 150.809 568.646 146.333 568.775 141.963C569.16 128.063 567.019 117.375 566.098 113.477L566.162 115.384C566.804 120.781 567.768 131.876 567.061 144.919C567.169 148.475 567.254 151.88 567.34 155.071V155.05Z" fill="#874A1F"/>
<path fill-rule="evenodd" clip-rule="evenodd" d="M559.821 126.178C562.627 108.508 560.314 80.0009 543.608 67.9854C526.902 55.9912 466.845 82.9566 421.825 88.6538C376.804 94.3725 347.547 101.548 346.84 107.245C346.133 112.963 333.882 125.3 342.706 134.381C351.53 143.484 392.31 144.577 394.795 151.752C397.279 158.927 379.352 164.71 363.096 165.245C346.84 165.802 336.366 168.286 333.603 183.429C330.84 198.593 332.233 206.582 346.561 209.066C360.89 211.551 535.769 237.445 548.791 230.699C561.792 223.952 563.72 201.356 559.864 192.532C556.009 183.707 507.947 187.413 460.184 181.994C412.422 176.554 399.507 159.055 410.516 156.228C458.578 143.891 550.654 183.836 559.8 126.157L559.821 126.178Z" fill="#D27E40"/>
<path fill-rule="evenodd" clip-rule="evenodd" d="M558.644 191.032C557.402 190.047 555.431 189.276 552.818 188.634C549.113 188.098 545.429 187.541 541.745 186.984C534.163 186.278 524.653 185.892 513.987 185.485C515.251 185.635 516.536 185.785 517.821 185.935C531.893 187.755 545.236 189.597 558.665 191.032H558.644ZM445.878 179.831C440.202 178.738 435.168 177.475 430.799 176.083C428.186 176.211 425.552 176.425 422.896 176.747C417.156 177.496 411.416 178.203 405.676 178.931C389.034 181.137 376.847 183.536 360.762 188.441C357.078 189.619 352.966 190.454 349.175 191.461C346.155 192.317 331.012 198.357 343.156 195.123C345.341 194.588 347.483 194.181 349.667 193.71C353.587 192.96 357.721 192.317 361.576 191.375C383.786 185.507 400.814 183.622 423.389 180.602C431.292 179.702 438.66 179.574 445.878 179.831Z" fill="#BF6C31"/>
<path fill-rule="evenodd" clip-rule="evenodd" d="M561.578 205.275C561.642 204.162 561.642 203.069 561.621 201.998C555.688 201.077 549.777 200.371 544.122 200.199C515.101 200.413 485.694 192.746 456.972 193.774C445.813 194.181 434.333 193.774 423.132 193.795C416.342 193.838 409.574 193.945 402.784 194.202C392.803 194.652 383.294 195.316 373.441 196.965C366.566 198.25 360.698 199.471 354.379 202.448C346.69 207.246 364.36 199.792 373.656 198.336C376.697 197.929 379.717 197.586 382.758 197.308C389.377 196.708 396.188 196.387 402.849 196.301C421.097 196.066 438.895 197.008 457.015 197.051C479.697 197.543 498.716 200.906 520.712 202.962C528.68 203.669 536.155 204.055 544.165 203.883C544.615 203.883 552.775 204.611 561.578 205.275Z" fill="#BF6C31"/>
<path fill-rule="evenodd" clip-rule="evenodd" d="M561 210.651C561.107 209.987 561.214 209.323 561.3 208.681C553.996 207.996 544.894 207.46 543.758 207.31C521.569 204.783 500.687 201.292 478.24 200.82C461.77 200.413 445.214 199.964 428.722 199.964C427.201 199.964 425.659 199.964 424.138 199.964C418.205 200.028 379.182 199.685 375.733 205.532C374.748 206.368 373.741 207.246 376.29 206.839C376.633 207.053 376.954 207.096 377.361 207.16C388.905 207.974 411.416 206.475 424.117 206.475C442.172 206.432 460.164 206.646 478.219 206.346C489.635 206.154 500.794 206.689 512.188 207.524C529.087 208.852 544.551 209.795 561 210.651Z" fill="#BF6C31"/>
<path fill-rule="evenodd" clip-rule="evenodd" d="M339.109 171.885C337.995 172.977 337.01 174.262 336.196 175.761C344.592 175.697 351.938 175.547 354.594 175.44C354.444 175.44 354.316 175.397 354.187 175.29C354.123 175.226 353.93 175.097 353.909 174.969C353.909 174.883 353.802 174.669 353.844 174.562C353.844 174.412 353.909 174.305 353.994 174.176C353.502 174.883 352.838 175.354 352.131 175.826C351.017 176.511 349.946 176.982 348.747 177.453C348.618 177.496 348.447 177.56 348.34 177.603C345.427 178.696 342.407 179.402 339.387 180.045C338.038 180.302 336.196 180.666 334.161 181.052C334.011 181.587 333.883 182.144 333.776 182.722H333.883C335.832 182.487 337.759 182.251 339.708 181.951C343.092 181.437 346.284 180.859 349.561 179.874C350.974 179.424 352.195 178.953 353.523 178.267C354.701 177.603 355.579 177.004 356.415 175.954C356.672 175.59 356.779 175.29 356.843 174.84C356.864 174.412 356.821 174.069 356.629 173.684C356.436 173.298 356.2 173.041 355.836 172.784C355.451 172.549 355.129 172.441 354.701 172.42C349.625 172.142 344.378 171.97 339.13 171.885H339.109Z" fill="#BF6C31"/>
<path fill-rule="evenodd" clip-rule="evenodd" d="M406.854 160.147C406.79 159.269 407.047 158.477 407.604 157.834C406.169 157.342 405.505 156.699 405.997 155.842C406.897 156.228 407.754 156.635 408.589 157.02C409.124 156.699 409.767 156.421 410.517 156.228C412.744 155.65 415.057 155.2 417.456 154.836C409.039 154.365 401.414 154.879 405.119 159.098C405.655 159.441 406.254 159.783 406.854 160.126V160.147ZM475.67 156.442C481.111 156.935 486.551 157.427 491.863 157.77C497.388 157.363 502.936 156.892 508.504 156.356C520.327 155.136 531.786 153.679 543.352 151.495C544.401 150.895 545.408 150.252 546.372 149.546C540.76 150.574 535.191 151.43 529.516 152.159C522.426 153.079 515.422 153.808 508.312 154.429C497.581 155.286 486.636 155.992 475.649 156.421L475.67 156.442Z" fill="#BF6C31"/>
<path fill-rule="evenodd" clip-rule="evenodd" d="M349.154 166.787C347.483 167.194 345.941 167.687 344.527 168.308C349.903 168.629 355.215 168.886 360.612 168.95C366.845 168.865 376.462 166.808 382.844 165.738C386.764 165.095 390.705 164.452 394.667 164.088C395.909 163.981 397.216 163.896 398.48 163.96C398.758 163.96 399.101 164.003 399.379 164.088C399.4 164.088 399.465 164.131 399.422 164.088C399.315 164.024 399.208 163.917 399.143 163.831C399.143 163.853 399.229 163.938 399.208 163.981C399.165 164.088 399.122 164.26 399.036 164.345C398.415 165.202 397.323 165.888 396.445 166.423C392.739 168.522 388.713 169.978 384.708 171.349C377.04 173.876 369.03 175.718 361.64 178.224C359.691 178.91 357.721 179.638 355.772 180.323C347.312 183.386 340.158 185.785 332.94 187.991C332.747 189.405 332.619 190.733 332.555 191.996C343.049 189.297 353.609 185.335 362.947 181.93C370.358 179.359 378.218 177.475 385.886 174.819C390.126 173.298 394.346 171.692 398.201 169.336C399.593 168.458 400.835 167.558 401.799 166.187C402.228 165.502 402.463 164.924 402.506 164.11C402.506 163.253 402.292 162.632 401.799 161.925C401.585 161.647 401.371 161.454 401.071 161.283C400.814 161.176 400.578 161.026 400.321 160.983C399.786 160.897 399.251 160.747 398.694 160.747C397.237 160.79 395.866 160.747 394.41 160.983C390.383 161.475 386.4 162.204 382.395 162.975C378.903 163.639 375.412 164.345 371.921 165.031C368.473 165.695 364.146 166.637 360.655 166.83C356.886 166.83 353.073 166.83 349.218 166.766L349.154 166.787Z" fill="#BF6C31"/>
<path fill-rule="evenodd" clip-rule="evenodd" d="M392.632 149.567C393.767 150.231 394.517 150.959 394.795 151.752C395.01 152.351 395.074 152.93 395.01 153.508C400.364 153.743 405.89 153.829 411.63 153.808C442.151 152.951 469.93 148.539 499.958 143.955C502.336 143.591 504.756 143.27 507.133 142.884C520.755 140.978 534.184 140.379 547.956 138.172C551.04 137.637 554.018 137.059 556.93 136.395C557.145 135.881 557.359 135.345 557.573 134.81C554.382 135.517 551.126 136.095 547.721 136.609C547.292 136.673 546.864 136.737 546.414 136.802C533.006 138.601 520.048 138.986 506.812 140.528C474.813 144.748 443.929 149.503 411.587 150.038C405.119 150.038 398.886 149.91 392.632 149.567Z" fill="#BF6C31"/>
<path fill-rule="evenodd" clip-rule="evenodd" d="M557.98 90.6671C557.851 90.2173 557.723 89.7676 557.573 89.3178C555.131 89.5105 553.097 89.7033 552.54 89.7247C524.289 89.7461 498.031 86.255 470.658 85.8695C470.08 85.8695 469.48 85.8695 468.902 85.8695C462.905 85.8481 456.822 85.3983 450.782 85.2698C447.034 85.2483 427.758 87.6258 436.454 88.0327C441.294 88.1398 445.728 88.2897 450.59 88.611C456.587 89.0393 462.862 89.6819 468.859 89.789C489.314 90.0674 509.639 91.6309 530.158 91.888C541.145 91.888 548.877 91.5239 557.98 90.6885V90.6671Z" fill="#BF6C31"/>
<path fill-rule="evenodd" clip-rule="evenodd" d="M400.621 91.6309C392.568 92.8732 385.264 94.1797 378.817 95.4862C408.503 94.4367 446.97 98.7846 471.601 104.375C475.67 105.403 479.547 106.517 483.423 108.144C496.21 113.477 505.741 115.041 518.742 118.339C529.943 120.738 530.072 119.517 539.603 119.367C552.818 118.404 524.46 118.339 519.084 117.033C515.465 116.026 511.867 115.105 508.225 114.163C499.423 111.914 492.655 109.943 484.323 106.174C463.954 98.9131 430.499 93.1088 400.621 91.6309Z" fill="#BF6C31"/>
<path fill-rule="evenodd" clip-rule="evenodd" d="M348.661 104.867C347.568 105.66 346.969 106.452 346.84 107.202C354.444 106.238 362.026 106.559 370.079 106.195C388.413 106.11 406.682 106.752 424.995 106.645C435.661 106.517 446.027 106.11 456.586 104.546C457.122 104.353 473.25 103.389 463.162 102.19C460.934 101.933 458.6 101.805 456.372 101.89C427.436 103.154 398.886 102.254 370.036 103.282C365.11 103.475 360.184 103.668 355.257 104.032C352.816 104.31 350.631 104.589 348.661 104.867Z" fill="#BF6C31"/>
<path fill-rule="evenodd" clip-rule="evenodd" d="M560.143 101.526C560.036 100.605 559.886 99.6627 559.736 98.7418C543.373 96.1502 527.866 94.5652 511.031 93.2587C484.045 91.3739 454.209 90.8171 425.809 88.097C424.481 88.2897 423.131 88.4825 421.825 88.6538C418.013 89.1464 414.329 89.6391 410.752 90.1317C431.078 92.8304 451.66 93.9013 472.136 94.9936C485.008 95.6575 497.902 96.2144 510.774 97.0069C527.609 98.142 543.587 99.4914 560.143 101.548V101.526ZM533.285 64.9868C530.907 64.8583 528.273 64.9226 525.446 65.1796C528.059 65.1153 530.672 65.0511 533.285 64.9868Z" fill="#BF6C31"/>
<path fill-rule="evenodd" clip-rule="evenodd" d="M325.272 149.417C325.358 154.772 325.443 160.533 325.529 165.78C326.836 164.495 328.999 162.76 332.383 160.94C339.258 157.213 393.703 158.862 390.661 158.605C387.62 158.327 349.731 155.029 334.846 152.673C329.62 151.859 326.771 150.659 325.251 149.417H325.272Z" fill="#7A421A"/>
<path fill-rule="evenodd" clip-rule="evenodd" d="M325.379 156.721L325.529 165.759C326.836 164.474 328.999 162.739 332.383 160.919C336.517 158.67 357.935 158.391 373.656 158.455C373.656 158.455 339.215 156.999 335.617 157.342C332.04 157.684 325.401 156.721 325.379 156.721Z" fill="#613413"/>
<path fill-rule="evenodd" clip-rule="evenodd" d="M494.197 81.4359C470.037 81.6287 392.503 86.4906 392.632 84.7772C392.76 83.0637 441.337 76.2742 487.043 77.1309C626.625 79.7653 548.277 81.029 494.197 81.4359Z" fill="#8F5124"/>
<path fill-rule="evenodd" clip-rule="evenodd" d="M494.197 81.4359C470.037 81.6287 392.504 86.4906 392.632 84.7771C392.675 84.1989 398.051 83.0851 406.897 81.8643C406.04 84.6272 448.469 81.1789 478.133 79.6796C507.562 78.2018 564.577 79.7011 565.498 79.7439C565.991 80.6649 525.917 81.2003 494.197 81.4359Z" fill="#7A421A"/>
<path fill-rule="evenodd" clip-rule="evenodd" d="M576.464 220.482C576.464 220.482 575.457 240.637 575.05 241.451C574.643 242.286 575.179 245.456 557.959 244.62C540.739 243.785 329.363 218.983 329.363 218.983C329.363 218.983 322.895 216.499 323.023 211.551C323.152 206.582 323.023 193.924 323.023 193.924C323.023 193.924 323.516 193.089 326.129 193.196C328.742 193.303 574.9 218.34 574.9 218.34C574.9 218.34 576.764 219.454 576.464 220.482Z" fill="#9EA1AB"/>
<path fill-rule="evenodd" clip-rule="evenodd" d="M561.942 244.749C560.722 244.749 559.394 244.685 557.937 244.62C540.717 243.785 329.342 218.983 329.342 218.983C329.342 218.983 322.874 216.499 323.002 211.551C323.131 206.582 323.002 193.924 323.002 193.924C323.002 193.924 323.259 193.474 324.458 193.281C324.458 193.281 322.766 208.531 337.652 212.108C352.538 215.685 557.402 243.807 561.15 238.838C564.898 233.869 565.005 219.925 565.112 219.883C565.219 219.861 566.14 233.076 561.921 244.749H561.942Z" fill="#878A96"/>
<path fill-rule="evenodd" clip-rule="evenodd" d="M576.464 220.482C576.464 220.482 575.457 240.637 575.05 241.451C574.686 242.179 575.072 244.77 563.12 244.749C565.412 240.658 566.547 229.564 567.104 217.527L574.9 218.319C574.9 218.319 576.764 219.433 576.464 220.461V220.482Z" fill="#8B8E99"/>
<path fill-rule="evenodd" clip-rule="evenodd" d="M574.9 222.024C574.686 223.545 575.029 239.737 572.844 241.172C570.659 242.607 567.49 242.2 567.125 240.423C566.761 238.645 569.738 239.33 570.295 237.381C570.852 235.454 570.295 234.768 570.081 230.42C569.867 226.072 568.71 222.645 570.295 221.318C571.88 220.011 574.429 219.326 574.922 222.003L574.9 222.024Z" fill="#787C8C"/>
<path fill-rule="evenodd" clip-rule="evenodd" d="M557.294 221.853C557.337 228.643 553.546 233.247 538.039 232.219C522.533 231.191 331.633 212.793 338.508 208.938C345.405 205.083 492.826 223.395 498.073 220.375C503.299 217.334 328.699 205.918 333.347 200.135C337.994 194.352 560.079 219.818 557.294 221.853Z" fill="#ACB0BB"/>
<path fill-rule="evenodd" clip-rule="evenodd" d="M563.741 219.711C564.491 220.589 563.398 221.553 556.116 220.739C548.834 219.925 329.341 197.008 328.699 196.73C328.056 196.451 325.7 200.756 325.829 199.75C327.135 189.854 327.328 195.487 330.969 195.702C332.447 195.787 563.463 219.176 563.741 219.711Z" fill="#E1E3E8"/>
<path fill-rule="evenodd" clip-rule="evenodd" d="M390.255 206.154C389.376 207.481 349.882 205.318 333.946 202.298C318.011 199.278 382.737 202.02 390.255 206.154Z" fill="white"/>
<path fill-rule="evenodd" clip-rule="evenodd" d="M556.523 234.897C553.868 234.897 551.704 232.648 551.704 229.863C551.704 227.079 553.868 224.83 556.523 224.83C559.179 224.83 561.343 227.079 561.343 229.863C561.343 232.648 559.179 234.897 556.523 234.897Z" fill="#787C8C"/>
<path fill-rule="evenodd" clip-rule="evenodd" d="M555.945 234.361C553.611 234.361 551.704 232.262 551.704 229.671C551.704 227.079 553.611 224.98 555.945 224.98C558.28 224.98 560.186 227.079 560.186 229.671C560.186 232.262 558.28 234.361 555.945 234.361Z" fill="#ACB0BB"/>
<path fill-rule="evenodd" clip-rule="evenodd" d="M554.703 225.773C555.795 225.58 559.243 225.601 559.5 228.086C560.143 233.89 553.032 234.94 555.752 231.384C556.995 229.756 556.588 228.171 555.131 227.743C553.675 227.315 553.932 226.672 554.703 225.773Z" fill="#E1E3E8"/>
<path fill-rule="evenodd" clip-rule="evenodd" d="M555.774 226.779C555.346 226.779 554.982 227.143 554.982 227.572V228.793H553.761C553.332 228.793 552.968 229.157 552.968 229.585C552.968 230.013 553.332 230.377 553.761 230.377H554.982V231.598C554.982 232.027 555.346 232.391 555.774 232.391C556.202 232.391 556.567 232.027 556.567 231.598V230.377H557.787C558.216 230.377 558.58 230.013 558.58 229.585C558.58 229.157 558.216 228.793 557.787 228.793H556.567V227.572C556.567 227.143 556.202 226.779 555.774 226.779Z" fill="#5C6070"/>
<path fill-rule="evenodd" clip-rule="evenodd" d="M331.804 210.202C329.149 210.202 326.985 207.953 326.985 205.168C326.985 202.384 329.149 200.135 331.804 200.135C334.46 200.135 336.624 202.384 336.624 205.168C336.624 207.953 334.46 210.202 331.804 210.202Z" fill="#787C8C"/>
<path fill-rule="evenodd" clip-rule="evenodd" d="M331.226 209.645C328.892 209.645 326.985 207.546 326.985 204.954C326.985 202.363 328.892 200.264 331.226 200.264C333.561 200.264 335.467 202.363 335.467 204.954C335.467 207.546 333.561 209.645 331.226 209.645Z" fill="#ACB0BB"/>
<path fill-rule="evenodd" clip-rule="evenodd" d="M330.005 201.056C331.097 200.863 334.546 200.885 334.803 203.369C335.445 209.174 328.334 210.223 331.055 206.668C332.297 205.04 331.89 203.455 330.433 203.027C328.977 202.577 329.234 201.956 330.005 201.056Z" fill="#E1E3E8"/>
<path fill-rule="evenodd" clip-rule="evenodd" d="M331.055 202.063C330.626 202.063 330.262 202.427 330.262 202.855V204.076H329.042C328.613 204.076 328.249 204.44 328.249 204.868C328.249 205.297 328.613 205.661 329.042 205.661H330.262V206.882C330.262 207.31 330.626 207.674 331.055 207.674C331.483 207.674 331.847 207.31 331.847 206.882V205.661H333.068C333.496 205.661 333.861 205.297 333.861 204.868C333.861 204.44 333.496 204.076 333.068 204.076H331.847V202.855C331.847 202.427 331.483 202.063 331.055 202.063Z" fill="#5C6070"/>
<path fill-rule="evenodd" clip-rule="evenodd" d="M397.366 144.298C416.942 148.432 428.229 146.783 448.898 144.576C469.566 142.37 467.36 136.588 486.379 137.401C505.398 138.237 517.8 136.309 546.457 130.505C575.114 124.722 550.869 128.577 521.933 121.402C492.997 114.227 490.791 113.135 476.741 110.929C462.691 108.723 443.115 107.373 443.115 107.373C443.115 107.373 350.396 114.934 343.199 118.596C337.031 121.723 387.192 142.135 397.366 144.277V144.298Z" fill="#BF6C31"/>
<path fill-rule="evenodd" clip-rule="evenodd" d="M390.212 118.468C381.602 122.73 384.665 139.907 402.763 142.606C418.977 145.005 473.314 138.408 468.817 124.294C463.89 108.873 399.208 114.034 390.212 118.489V118.468Z" fill="#B5652B"/>
<path fill-rule="evenodd" clip-rule="evenodd" d="M392.825 121.702C383.765 126.285 398.886 137.187 410.409 138.087C427.522 139.436 443.586 135.388 438.638 125.472C433.198 114.591 399.379 118.382 392.825 121.702Z" fill="#A35823"/>
<path fill-rule="evenodd" clip-rule="evenodd" d="M420.861 133.546C425.402 131.469 431.335 126.65 423.624 124.037C415.914 121.424 405.44 119.346 401.435 124.165C397.43 128.984 410.666 137.937 414.243 135.324C417.82 132.711 403.898 128.427 411.202 127.335C418.505 126.243 414.928 136.566 420.84 133.525L420.861 133.546Z" fill="#944D1B"/>
</svg>
