<svg width="183" height="58" viewBox="0 0 183 58" fill="none" xmlns="http://www.w3.org/2000/svg">
<g clip-path="url(#clip0_2742_31031)">
<path d="M0.5 45.0895V44.9789L6.01278 34.6948C6.0576 34.6126 6.07361 34.5175 6.05828 34.4247C5.90783 33.4943 5.78346 32.5397 5.68518 31.561C4.78064 22.493 8.71548 13.677 16.081 8.35735C27.1321 0.375103 42.3691 2.36885 51.0396 12.8433C51.0577 12.8654 51.0807 12.8832 51.1068 12.8954C51.1329 12.9076 51.1616 12.914 51.1906 12.914H61.8249C61.8335 12.9139 61.842 12.916 61.8495 12.9202C61.857 12.9243 61.8632 12.9304 61.8677 12.9377C61.8721 12.9451 61.8745 12.9534 61.8746 12.962C61.8748 12.9705 61.8727 12.979 61.8686 12.9865L56.323 23.3395C56.2903 23.4011 56.2794 23.4664 56.2903 23.5352C56.505 24.9296 56.6349 25.845 56.6798 26.2812C58.558 44.3844 41.6138 58.4458 24.1145 53.5539C19.0719 52.1449 14.8143 49.347 11.3417 45.1602C11.3029 45.113 11.2526 45.0895 11.1907 45.0895H0.5ZM11.6803 44.4225C16.6889 50.5143 23.9525 54.0233 31.895 53.7931C41.3972 53.5176 50.0404 47.7502 53.8788 39.2007C55.7704 34.9872 56.4316 30.5774 55.8626 25.9712C55.7558 25.1 55.6454 24.2258 55.5313 23.3485C55.5229 23.2833 55.5338 23.2217 55.5641 23.1637L60.631 13.7133C60.6351 13.7055 60.6371 13.6968 60.6368 13.6881C60.6365 13.6793 60.6339 13.6708 60.6294 13.6633C60.6248 13.6558 60.6183 13.6496 60.6106 13.6454C60.603 13.6411 60.5943 13.6389 60.5855 13.639H50.8685C50.8269 13.6389 50.7859 13.6298 50.7485 13.6123C50.711 13.5947 50.6781 13.5692 50.6519 13.5375C46.3949 8.3936 40.6747 5.17279 34.0717 4.37167C23.7869 3.12648 13.806 8.53317 9.08312 17.5667C6.83845 21.8599 5.95211 26.4703 6.4241 31.3979C6.52602 32.4648 6.65888 33.5136 6.82268 34.5443C6.84038 34.661 6.81997 34.7804 6.76444 34.8851L1.72486 44.2938C1.72113 44.3006 1.71931 44.3083 1.71958 44.3161C1.71985 44.3239 1.7222 44.3316 1.72641 44.3383C1.73061 44.345 1.73653 44.3506 1.74359 44.3546C1.75065 44.3585 1.75862 44.3607 1.76672 44.3609H11.5474C11.602 44.3609 11.6463 44.3814 11.6803 44.4225Z" fill="#232323"/>
<path d="M9.82568 29.984C9.45258 30.709 9.06492 31.4267 8.69 32.1517C8.59414 32.3366 8.53226 32.3263 8.50436 32.1209C6.26576 15.7414 21.6102 2.55905 37.5807 7.11387C41.6745 8.28112 45.2926 10.5715 48.4352 13.9851C48.4397 13.9903 48.4426 13.9967 48.4435 14.0035C48.4445 14.0104 48.4435 14.0173 48.4406 14.0236C48.4378 14.0299 48.4332 14.0352 48.4274 14.039C48.4216 14.0428 48.4148 14.0448 48.4079 14.0449L46.1347 14.0485C46.1031 14.0485 46.0758 14.037 46.0528 14.0141C32.4701 0.869803 9.97856 10.3836 10.0004 29.2463C10.0004 29.5109 9.94216 29.7568 9.82568 29.984Z" fill="#232323"/>
<path d="M32.1348 21.4423L45.7903 37.0987C45.7981 37.1078 45.803 37.1191 45.8043 37.1311C45.8056 37.1431 45.8033 37.1551 45.7976 37.1658L43.3296 41.7749C43.325 41.7831 43.3184 41.7901 43.3105 41.7953C43.3026 41.8005 43.2936 41.8038 43.2842 41.8048C43.2748 41.8059 43.2653 41.8047 43.2564 41.8014C43.2475 41.7981 43.2396 41.7928 43.2332 41.7858L20.1374 15.7783C20.1297 15.7697 20.1247 15.7592 20.1228 15.7479C20.121 15.7365 20.1225 15.725 20.1271 15.7145C20.1317 15.704 20.1392 15.695 20.1488 15.6886C20.1583 15.6823 20.1696 15.6788 20.1811 15.6786L57.2053 15.6768C57.2158 15.6767 57.2261 15.6794 57.2352 15.6845C57.2443 15.6897 57.2519 15.6971 57.2573 15.7061C57.2626 15.7151 57.2655 15.7253 57.2656 15.7357C57.2658 15.7462 57.2632 15.7564 57.2581 15.7656L48.6368 31.8678C48.6321 31.8764 48.6255 31.8836 48.6175 31.8891C48.6094 31.8945 48.6001 31.8979 48.5905 31.899C48.5808 31.9 48.571 31.8987 48.562 31.8952C48.5529 31.8917 48.5448 31.886 48.5385 31.8787L39.3693 21.3626C39.3636 21.3562 39.3566 21.3511 39.3487 21.3477C39.3409 21.3443 39.3324 21.3425 39.3238 21.3426H32.1803C32.1687 21.3425 32.1572 21.3457 32.1474 21.352C32.1375 21.3582 32.1297 21.3671 32.1249 21.3777C32.1201 21.3883 32.1184 21.4 32.1202 21.4115C32.122 21.423 32.127 21.4337 32.1348 21.4423Z" fill="#232323"/>
<path d="M30.2129 36.5526L16.5683 20.9053C16.5599 20.8958 16.5545 20.884 16.5529 20.8714C16.5513 20.8588 16.5535 20.846 16.5592 20.8346L19.0235 16.2309C19.0285 16.222 19.0355 16.2144 19.0441 16.2088C19.0526 16.2032 19.0624 16.1997 19.0726 16.1986C19.0827 16.1975 19.093 16.1989 19.1025 16.2026C19.1121 16.2064 19.1205 16.2123 19.1273 16.22L42.214 42.2167C42.2221 42.226 42.2273 42.2374 42.229 42.2495C42.2308 42.2617 42.2289 42.2741 42.2237 42.2852C42.2185 42.2963 42.2102 42.3057 42.1997 42.3122C42.1893 42.3187 42.1772 42.3221 42.1648 42.3218H5.15331C5.14241 42.3218 5.13171 42.319 5.12222 42.3136C5.11273 42.3083 5.10477 42.3006 5.09911 42.2914C5.09345 42.2821 5.09027 42.2715 5.08988 42.2607C5.0895 42.2498 5.09191 42.2391 5.09689 42.2294L13.7182 26.138C13.723 26.129 13.7299 26.1212 13.7384 26.1154C13.7469 26.1096 13.7566 26.106 13.7668 26.1047C13.777 26.1035 13.7873 26.1047 13.7969 26.1083C13.8065 26.1119 13.8151 26.1177 13.822 26.1253L22.9857 36.636C22.9916 36.6428 22.9988 36.6482 23.007 36.6519C23.0151 36.6557 23.024 36.6577 23.033 36.6578H30.1638C30.1761 36.658 30.1882 36.6546 30.1986 36.6481C30.2091 36.6416 30.2174 36.6322 30.2226 36.6211C30.2278 36.61 30.2297 36.5976 30.228 36.5854C30.2262 36.5733 30.221 36.5619 30.2129 36.5526Z" fill="#232323"/>
<path d="M115.26 34.6353C113.282 35.083 111.842 35.0141 110.039 35.0286C109.98 35.0298 109.946 35.0594 109.937 35.1174L109.323 38.9617C109.319 38.989 109.304 39.0138 109.284 39.0317C109.263 39.0496 109.236 39.0595 109.209 39.0596H74.3465C74.2701 39.0596 74.2519 39.0276 74.2919 38.9635C74.3004 38.949 74.3083 38.9333 74.3156 38.9164C74.3398 38.8584 74.321 38.8355 74.2591 38.8475C73.6713 38.9527 73.0943 39.056 72.4846 39.056C68.2683 39.0608 64.0574 39.0614 59.852 39.0578C59.8407 39.0576 59.8296 39.0551 59.8194 39.0504C59.8092 39.0457 59.8001 39.0388 59.7929 39.0304C59.7856 39.022 59.7803 39.0121 59.7773 39.0015C59.7743 38.9909 59.7737 38.9798 59.7756 38.969L61.1442 30.3487C61.1588 30.2617 61.2097 30.2188 61.2971 30.22L61.6939 30.2273C61.7642 30.2285 61.7897 30.1953 61.7703 30.1276C61.2279 28.2698 61.5428 26.0658 62.2217 24.2497C63.3719 21.172 65.9636 20.0737 69.0649 20.0737C76.9661 20.0737 84.8576 20.0737 92.7394 20.0737C92.766 20.0737 92.7917 20.0824 92.8125 20.0985C92.8333 20.1146 92.8479 20.1372 92.8541 20.1625L93.8915 24.2968C93.9255 24.4321 93.9776 24.4394 94.048 24.3185L96.4577 20.1625C96.4917 20.1057 96.542 20.0773 96.6087 20.0773C102.186 20.07 107.762 20.0706 113.335 20.0791C114.927 20.0809 116.099 20.2277 117.433 20.8005C117.528 20.8416 117.583 20.8107 117.599 20.708L117.675 20.1733C117.685 20.1069 117.723 20.0737 117.79 20.0737H127.172C127.233 20.0737 127.258 20.1039 127.248 20.1643L125.656 30.1838C125.641 30.2708 125.678 30.3143 125.767 30.3143H129.159C129.213 30.3143 129.244 30.2883 129.252 30.2363L130.847 20.2023C130.861 20.1166 130.912 20.0737 130.999 20.0737H152.51C152.539 20.0737 152.568 20.0815 152.594 20.0961C152.619 20.1107 152.641 20.1317 152.656 20.157L153.66 21.8463C153.693 21.9007 153.731 21.9043 153.775 21.8572L155.366 20.1425C155.408 20.0966 155.461 20.0737 155.524 20.0737H167.13C167.236 20.0737 167.25 20.1099 167.174 20.1824L167.032 20.3165C166.988 20.3576 166.981 20.4041 167.012 20.4561L168.282 22.5876C168.285 22.5917 168.288 22.5952 168.292 22.5978C168.296 22.6004 168.301 22.602 168.305 22.6025C168.31 22.6031 168.315 22.6025 168.319 22.6008C168.324 22.5992 168.328 22.5965 168.331 22.593L170.574 20.1425C170.615 20.0966 170.666 20.0737 170.726 20.0737H182.416C182.427 20.0734 182.438 20.0764 182.447 20.0823C182.457 20.0882 182.464 20.0968 182.468 20.107C182.473 20.1172 182.474 20.1286 182.472 20.1397C182.471 20.1509 182.466 20.1613 182.458 20.1697L171.971 31.6138C171.898 31.6941 171.85 31.795 171.833 31.9038L170.708 38.978C170.7 39.0324 170.668 39.0596 170.614 39.0596H153.285C153.21 39.0596 153.154 39.0276 153.116 38.9635L151.893 36.9299C151.888 36.921 151.88 36.9134 151.871 36.9078C151.863 36.9022 151.853 36.8987 151.842 36.8977C151.832 36.8966 151.821 36.898 151.811 36.9017C151.802 36.9054 151.793 36.9113 151.786 36.919L149.893 38.9907C149.85 39.0366 149.798 39.0596 149.736 39.0596H114.783C114.713 39.0596 114.683 39.0252 114.694 38.9563L115.364 34.7313C115.377 34.6492 115.343 34.6172 115.26 34.6353ZM75.2656 37.7546L75.2055 38.1878C75.1958 38.2555 75.225 38.2893 75.2929 38.2893H108.528C108.597 38.2893 108.637 38.2555 108.646 38.1878L109.26 34.3453C109.268 34.2861 109.303 34.2565 109.363 34.2565C110.701 34.2583 112.108 34.3036 113.387 34.1803C114.578 34.0662 115.313 33.7598 116.276 33.4046C116.348 33.378 116.379 33.4028 116.367 33.4789L115.608 38.2349C115.607 38.2417 115.607 38.2487 115.609 38.2553C115.611 38.2619 115.614 38.268 115.618 38.2732C115.622 38.2783 115.628 38.2825 115.634 38.2853C115.64 38.288 115.647 38.2894 115.653 38.2893H149.374C149.397 38.2892 149.42 38.2844 149.441 38.275C149.463 38.2657 149.482 38.252 149.498 38.2349L151.864 35.6412C151.94 35.5566 152.008 35.5633 152.068 35.6612L153.597 38.2059C153.631 38.2615 153.68 38.2893 153.744 38.2893H169.957C169.997 38.2893 170.02 38.2693 170.026 38.2295L171.101 31.458C171.112 31.3903 171.141 31.3317 171.187 31.2822L180.636 20.969C180.713 20.8857 180.695 20.844 180.582 20.844H171.13C171.055 20.844 170.992 20.8718 170.941 20.9273L168.24 23.8817C168.232 23.8912 168.221 23.8985 168.209 23.9031C168.197 23.9077 168.184 23.9095 168.172 23.9083C168.159 23.907 168.147 23.9028 168.136 23.896C168.125 23.8892 168.116 23.88 168.109 23.869L166.364 20.9273C166.331 20.8718 166.282 20.844 166.216 20.844H155.893C155.832 20.844 155.78 20.8669 155.739 20.9128L153.684 23.1477C153.671 23.1613 153.656 23.1717 153.639 23.1783C153.621 23.1848 153.603 23.1872 153.584 23.1853C153.566 23.1833 153.548 23.1771 153.533 23.1671C153.517 23.1571 153.504 23.1436 153.495 23.1277L152.19 20.94C152.151 20.876 152.094 20.844 152.02 20.844H131.635C131.575 20.844 131.541 20.873 131.531 20.931L129.933 30.9867C129.923 31.052 129.885 31.0846 129.818 31.0846H124.804C124.741 31.0846 124.714 31.0538 124.724 30.9922L126.32 20.9491C126.322 20.9362 126.322 20.923 126.318 20.9105C126.314 20.8979 126.308 20.8862 126.299 20.8762C126.291 20.8662 126.28 20.8582 126.268 20.8526C126.256 20.8471 126.243 20.8441 126.229 20.844H118.474C118.406 20.844 118.367 20.8772 118.356 20.9437L118.181 22.0982C118.179 22.1077 118.175 22.1166 118.169 22.1241C118.163 22.1316 118.156 22.1374 118.147 22.141C118.138 22.1447 118.129 22.146 118.119 22.1448C118.11 22.1437 118.101 22.1401 118.094 22.1345C116.935 21.2681 115.311 20.844 113.975 20.844C108.349 20.844 102.718 20.844 97.0838 20.844C97.0207 20.844 96.9739 20.8712 96.9436 20.9255L93.7386 26.45C93.6804 26.5503 93.6373 26.5443 93.6094 26.4319L92.2171 20.8929C92.2098 20.8603 92.1886 20.844 92.1534 20.844C84.4463 20.844 76.741 20.844 69.0376 20.844C66.9955 20.844 65.0427 21.3877 63.7814 23.0298C62.2981 24.9583 61.7157 28.7084 62.9879 30.8816C63.0316 30.9565 63.0097 30.994 62.9224 30.994H61.9305C61.8734 30.994 61.8401 31.0224 61.8304 31.0792L60.6892 38.2422C60.6884 38.2481 60.6889 38.2541 60.6905 38.2599C60.6922 38.2656 60.695 38.2709 60.6988 38.2753C60.7026 38.2798 60.7073 38.2834 60.7125 38.2858C60.7178 38.2882 60.7235 38.2894 60.7293 38.2893C64.5416 38.2893 68.3526 38.2899 72.1625 38.2911C73.212 38.2911 74.2191 38.0911 75.1837 37.6912C75.248 37.6646 75.2753 37.6857 75.2656 37.7546Z" fill="#232323"/>
<path d="M68.0587 27.6401C68.0932 28.2727 68.7339 28.2328 69.2216 28.231C71.1617 28.2201 72.6353 28.2238 73.6424 28.2419C75.5134 28.2745 76.5963 29.0031 76.5781 30.9806C76.5544 33.5996 75.6226 36.0592 72.5267 36.081C69.4449 36.1039 66.3624 36.1166 63.2793 36.119C63.2725 36.1191 63.2656 36.1177 63.2594 36.1148C63.2531 36.1119 63.2475 36.1077 63.243 36.1023C63.2385 36.097 63.2352 36.0907 63.2333 36.0839C63.2314 36.077 63.231 36.0699 63.232 36.0628L63.6779 33.2625C63.6876 33.2009 63.7228 33.1701 63.7835 33.1701C66.3205 33.1653 68.8558 33.1653 71.3892 33.1701C72.1373 33.1719 72.7215 33.0921 72.9271 32.3291C73.091 31.7201 73.1783 30.8591 72.2537 30.8591C70.6461 30.8579 69.0384 30.8573 67.4307 30.8573C66.0166 30.8573 64.6207 30.2955 64.5024 28.7276C64.2949 25.9871 65.1576 23.0835 68.4317 23.0545C71.4226 23.0279 74.4135 23.0146 77.4043 23.0146C77.4723 23.0146 77.5014 23.0479 77.4917 23.1143L77.0567 25.8675C77.047 25.9291 77.0106 25.96 76.9475 25.96C74.3789 25.9624 71.8139 25.9714 69.2526 25.9871C68.2752 25.9926 68.0168 26.8426 68.0587 27.6401Z" fill="#232323"/>
<path d="M77.7412 36.0196L79.7978 23.0874C79.8008 23.0684 79.8105 23.051 79.8252 23.0384C79.8399 23.0258 79.8585 23.0188 79.8779 23.0186H83.2868C83.2987 23.0184 83.3105 23.0209 83.3214 23.0257C83.3322 23.0306 83.3419 23.0378 83.3497 23.0467C83.3575 23.0557 83.3632 23.0663 83.3665 23.0777C83.3698 23.0891 83.3705 23.1011 83.3687 23.1128L81.3121 36.045C81.3091 36.0641 81.2994 36.0814 81.2847 36.094C81.27 36.1067 81.2514 36.1137 81.232 36.1139H77.8231C77.8112 36.114 77.7994 36.1116 77.7885 36.1067C77.7777 36.1018 77.768 36.0947 77.7602 36.0857C77.7524 36.0767 77.7467 36.0662 77.7434 36.0547C77.7401 36.0433 77.7394 36.0313 77.7412 36.0196Z" fill="#232323"/>
<path d="M98.8506 27.9105C98.8834 27.7087 98.8482 27.6966 98.745 27.8742L94.0403 36.0341C94.0088 36.0873 93.9621 36.1139 93.9002 36.1139H90.5496C90.5071 36.1139 90.4804 36.0933 90.4695 36.0522L88.3983 27.8634C88.3474 27.6604 88.3055 27.6622 88.2728 27.8688L86.9769 36.0142C86.9722 36.0421 86.9575 36.0674 86.9355 36.0857C86.9135 36.1039 86.8856 36.1139 86.8568 36.1139H83.7974C83.7843 36.1138 83.7713 36.1109 83.7594 36.1053C83.7475 36.0998 83.737 36.0917 83.7285 36.0817C83.72 36.0717 83.7138 36.06 83.7103 36.0475C83.7068 36.0349 83.7061 36.0216 83.7082 36.0087L85.7593 23.1056C85.7632 23.0814 85.7756 23.0594 85.7943 23.0434C85.8129 23.0275 85.8367 23.0187 85.8613 23.0186H90.4422C90.4659 23.0187 90.4889 23.0266 90.5074 23.0411C90.5259 23.0555 90.5388 23.0757 90.5441 23.0983L92.7918 32.1227C92.8209 32.2387 92.8652 32.2448 92.9247 32.1409L98.1645 23.1146C98.2009 23.0506 98.2567 23.0186 98.3319 23.0186H102.818C102.872 23.0186 102.894 23.0451 102.886 23.0983L100.829 36.0305C100.82 36.0861 100.788 36.1139 100.731 36.1139H97.5948C97.5888 36.1139 97.5829 36.1127 97.5774 36.1103C97.5719 36.1078 97.5671 36.1043 97.5631 36.0998C97.5591 36.0953 97.5562 36.0901 97.5544 36.0844C97.5527 36.0787 97.5522 36.0727 97.5529 36.0667L98.8506 27.9105Z" fill="#232323"/>
<path d="M107.407 32.1881L106.799 36.0052C106.788 36.0777 106.746 36.114 106.672 36.114H103.316C103.244 36.114 103.214 36.0783 103.225 36.007L105.276 23.1093C105.286 23.0501 105.32 23.0205 105.38 23.0205C108.337 23.0156 111.309 23.0169 114.296 23.0241C114.485 23.0241 114.812 23.0761 115.275 23.18C116.922 23.5497 117.865 24.6137 117.874 26.3736C117.892 30.285 115.759 32.0939 111.975 32.0775C110.491 32.0703 109.008 32.0739 107.524 32.0884C107.456 32.0896 107.417 32.1229 107.407 32.1881ZM114.083 26.3337C113.917 26.1344 113.481 25.9332 113.238 25.9277C112.054 25.906 110.47 25.906 108.486 25.9277C108.431 25.9277 108.398 25.9555 108.388 26.0111L107.884 29.1848C107.882 29.1953 107.883 29.206 107.886 29.2161C107.889 29.2263 107.894 29.2358 107.901 29.2438C107.908 29.2519 107.916 29.2584 107.926 29.2629C107.936 29.2674 107.946 29.2698 107.957 29.27C109.342 29.2748 110.734 29.2742 112.13 29.2682C113.087 29.2627 113.724 29.1449 114.09 28.2532C114.294 27.7547 114.454 26.785 114.083 26.3337Z" fill="#232323"/>
<path d="M122.257 33.2592H130.206C130.217 33.2593 130.227 33.2617 130.237 33.2662C130.247 33.2707 130.255 33.2773 130.262 33.2853C130.269 33.2934 130.274 33.3028 130.277 33.313C130.28 33.3232 130.281 33.3339 130.279 33.3444L129.848 36.0504C129.845 36.0679 129.836 36.0839 129.823 36.0955C129.81 36.1071 129.793 36.1136 129.775 36.1139H118.229C118.218 36.1137 118.208 36.1113 118.198 36.1068C118.189 36.1023 118.18 36.0958 118.173 36.0877C118.166 36.0797 118.161 36.0702 118.158 36.06C118.155 36.0498 118.155 36.0392 118.156 36.0287L120.214 23.082C120.217 23.0645 120.226 23.0486 120.239 23.0369C120.253 23.0253 120.27 23.0188 120.287 23.0186H123.711C123.721 23.0187 123.732 23.0211 123.741 23.0256C123.751 23.0301 123.76 23.0366 123.767 23.0447C123.773 23.0528 123.778 23.0622 123.781 23.0724C123.784 23.0826 123.785 23.0933 123.784 23.1037L122.184 33.174C122.182 33.1845 122.183 33.1952 122.186 33.2053C122.189 33.2155 122.194 33.225 122.201 33.233C122.208 33.2411 122.216 33.2476 122.226 33.2521C122.235 33.2566 122.246 33.259 122.257 33.2592Z" fill="#232323"/>
<path d="M135.428 33.2592H143.896C143.907 33.2591 143.917 33.2613 143.927 33.2657C143.937 33.2701 143.946 33.2765 143.953 33.2846C143.96 33.2927 143.965 33.3023 143.968 33.3126C143.971 33.3229 143.972 33.3337 143.971 33.3444L143.541 36.0504C143.539 36.0679 143.53 36.0839 143.516 36.0955C143.503 36.1071 143.486 36.1136 143.468 36.1139H131.4C131.389 36.1137 131.379 36.1113 131.369 36.1068C131.36 36.1023 131.351 36.0958 131.344 36.0877C131.337 36.0797 131.332 36.0702 131.329 36.06C131.326 36.0499 131.326 36.0392 131.327 36.0287L133.386 23.082C133.388 23.0645 133.397 23.0486 133.41 23.0369C133.424 23.0253 133.441 23.0188 133.458 23.0186H145.489C145.499 23.0184 145.51 23.0207 145.52 23.0251C145.53 23.0294 145.538 23.0359 145.546 23.044C145.553 23.0521 145.558 23.0616 145.561 23.072C145.564 23.0823 145.565 23.0931 145.563 23.1037L145.132 25.8098C145.129 25.8273 145.12 25.8432 145.107 25.8549C145.094 25.8665 145.077 25.873 145.059 25.8732H136.576C136.558 25.8735 136.541 25.88 136.528 25.8916C136.515 25.9033 136.506 25.9192 136.503 25.9367L136.148 28.1896C136.147 28.2003 136.147 28.2111 136.15 28.2214C136.154 28.2317 136.159 28.2413 136.166 28.2494C136.173 28.2574 136.182 28.2639 136.192 28.2683C136.201 28.2727 136.212 28.2749 136.223 28.2748H144.617C144.628 28.2747 144.638 28.2769 144.648 28.2813C144.658 28.2857 144.667 28.2922 144.674 28.3003C144.681 28.3084 144.686 28.3179 144.689 28.3282C144.692 28.3385 144.693 28.3494 144.691 28.36L144.307 30.7942C144.305 30.8116 144.296 30.8276 144.283 30.8392C144.269 30.8509 144.252 30.8574 144.235 30.8576H135.788C135.77 30.8574 135.752 30.8637 135.739 30.8754C135.725 30.8871 135.716 30.9033 135.713 30.9211L135.355 33.174C135.353 33.1845 135.354 33.1952 135.357 33.2053C135.36 33.2155 135.365 33.225 135.372 33.233C135.379 33.2411 135.387 33.2476 135.397 33.2521C135.406 33.2566 135.417 33.259 135.428 33.2592Z" fill="#232323"/>
<path d="M148.492 36.1139H144.759C144.747 36.1139 144.735 36.1104 144.725 36.1038C144.715 36.0973 144.707 36.0879 144.702 36.077C144.698 36.066 144.696 36.0539 144.698 36.0421C144.7 36.0303 144.705 36.0194 144.714 36.0106L150.718 29.3333C150.727 29.3236 150.732 29.3113 150.733 29.2982C150.735 29.2852 150.732 29.2721 150.725 29.2608L147.04 23.1128C147.034 23.1035 147.031 23.0929 147.031 23.0822C147.031 23.0714 147.034 23.0609 147.039 23.0515C147.045 23.0422 147.052 23.0344 147.062 23.0289C147.071 23.0235 147.082 23.0205 147.092 23.0204L150.887 23.0186C150.898 23.0187 150.908 23.0216 150.917 23.027C150.927 23.0324 150.934 23.0401 150.94 23.0494L153.166 26.765C153.171 26.7731 153.178 26.7799 153.186 26.7849C153.194 26.7899 153.203 26.793 153.213 26.7939C153.222 26.7947 153.232 26.7934 153.241 26.79C153.249 26.7865 153.257 26.7811 153.264 26.7741L156.706 23.0385C156.711 23.0322 156.718 23.0272 156.726 23.0238C156.734 23.0203 156.743 23.0186 156.751 23.0186H160.482C160.494 23.0186 160.506 23.0221 160.516 23.0286C160.526 23.0352 160.534 23.0445 160.539 23.0554C160.543 23.0664 160.545 23.0785 160.543 23.0903C160.541 23.1021 160.536 23.1131 160.528 23.1219L154.818 29.4348C154.809 29.4447 154.803 29.4573 154.802 29.4707C154.801 29.4842 154.804 29.4976 154.811 29.5091L158.735 36.0214C158.74 36.0307 158.743 36.0413 158.743 36.052C158.743 36.0628 158.74 36.0734 158.735 36.0827C158.73 36.0921 158.722 36.0998 158.713 36.1053C158.703 36.1108 158.693 36.1137 158.682 36.1139H154.884C154.873 36.1137 154.863 36.1108 154.853 36.1054C154.844 36.1 154.836 36.0923 154.831 36.0831L152.374 32.0031C152.369 31.9947 152.362 31.9876 152.354 31.9823C152.345 31.9771 152.336 31.9739 152.326 31.973C152.316 31.9721 152.307 31.9736 152.298 31.9772C152.288 31.9809 152.28 31.9867 152.274 31.9941L148.537 36.0939C148.532 36.1002 148.525 36.1052 148.517 36.1086C148.509 36.1121 148.5 36.1139 148.492 36.1139Z" fill="#232323"/>
<path d="M167.844 27.4954L171.929 23.0367C171.935 23.0309 171.941 23.0263 171.948 23.0232C171.956 23.0201 171.963 23.0185 171.971 23.0186L175.715 23.0204C175.726 23.0203 175.737 23.0234 175.746 23.0294C175.755 23.0353 175.763 23.0438 175.767 23.0538C175.771 23.0638 175.773 23.0749 175.771 23.0857C175.769 23.0965 175.764 23.1066 175.757 23.1146L169.087 30.3882C169.08 30.3964 169.075 30.4065 169.074 30.4172L168.175 36.0667C168.173 36.0797 168.166 36.0915 168.156 36.1002C168.146 36.1088 168.133 36.1136 168.12 36.1139H164.659C164.65 36.1137 164.643 36.1118 164.635 36.1083C164.628 36.1049 164.621 36.0999 164.616 36.0937C164.611 36.0875 164.607 36.0803 164.605 36.0725C164.603 36.0647 164.603 36.0566 164.604 36.0486L165.505 30.3755C165.507 30.3624 165.504 30.3489 165.498 30.3374L161.213 23.1056C161.208 23.0971 161.205 23.0875 161.205 23.0776C161.205 23.0677 161.207 23.058 161.212 23.0494C161.217 23.0407 161.224 23.0335 161.233 23.0284C161.241 23.0233 161.251 23.0205 161.261 23.0204L165.068 23.0186C165.078 23.0184 165.088 23.0209 165.096 23.0256C165.105 23.0304 165.112 23.0373 165.117 23.0457L167.754 27.4864C167.759 27.4937 167.765 27.4999 167.772 27.5045C167.78 27.5091 167.788 27.512 167.797 27.5129C167.805 27.5137 167.814 27.5126 167.822 27.5096C167.83 27.5066 167.838 27.5017 167.844 27.4954Z" fill="#232323"/>
<path d="M29.9838 50.0562C42.2215 50.7739 52.4536 40.8867 52.3535 28.7104C52.351 28.4602 52.4069 28.2288 52.5209 28.0162C52.9298 27.2549 53.3241 26.5166 53.7039 25.8013C53.7791 25.6611 53.8277 25.6696 53.8495 25.8267C55.6677 39.3461 45.4247 51.5189 31.6692 51.7889C24.917 51.9212 18.5379 49.1499 14.0334 44.1021C13.9436 44.0018 13.966 43.9517 14.1007 43.9517L16.11 43.9535C16.2131 43.9535 16.3023 43.9885 16.3775 44.0586C20.2487 47.6492 24.7331 49.748 29.9838 50.0562Z" fill="#232323"/>
<path d="M162.083 37.4116L157.477 29.7665C157.47 29.755 157.467 29.7415 157.468 29.7281C157.469 29.7147 157.475 29.7021 157.484 29.6922L160.527 26.3282C160.534 26.3209 160.542 26.3152 160.551 26.3117C160.56 26.3082 160.57 26.3069 160.58 26.308C160.59 26.309 160.599 26.3124 160.607 26.3178C160.616 26.3232 160.622 26.3305 160.627 26.3391L163.237 30.7489C163.244 30.7615 163.247 30.7762 163.244 30.7906L162.198 37.3899C162.196 37.4025 162.19 37.4142 162.181 37.4234C162.172 37.4326 162.161 37.4388 162.148 37.4412C162.136 37.4435 162.123 37.442 162.111 37.4367C162.099 37.4314 162.09 37.4226 162.083 37.4116ZM161.643 35.1242C161.649 35.1353 161.659 35.144 161.671 35.1493C161.682 35.1546 161.695 35.1562 161.708 35.1538C161.72 35.1514 161.732 35.1452 161.741 35.136C161.75 35.1268 161.755 35.1151 161.757 35.1025L162.418 30.9627C162.421 30.9484 162.418 30.9337 162.411 30.9211L160.491 27.6857C160.486 27.6772 160.479 27.6699 160.471 27.6645C160.463 27.6591 160.453 27.6557 160.443 27.6547C160.434 27.6536 160.424 27.6549 160.415 27.6584C160.405 27.6619 160.397 27.6676 160.391 27.6749L158.48 29.7883C158.47 29.7981 158.465 29.8108 158.463 29.8242C158.462 29.8376 158.465 29.8511 158.472 29.8626L161.643 35.1242Z" fill="#232323"/>
<path d="M147.143 27.479L148.066 29.0087C148.072 29.019 148.075 29.0311 148.074 29.0432C148.073 29.0553 148.068 29.0667 148.06 29.0758L146.612 30.6799C146.603 30.6884 146.593 30.6942 146.581 30.6962C146.569 30.6983 146.557 30.6966 146.546 30.6913C146.535 30.6861 146.527 30.6776 146.521 30.6671C146.516 30.6565 146.514 30.6445 146.515 30.6327L147.039 27.4989C147.041 27.4877 147.047 27.4772 147.055 27.4691C147.063 27.4609 147.073 27.4553 147.084 27.4532C147.096 27.451 147.107 27.4523 147.118 27.4569C147.128 27.4615 147.137 27.4692 147.143 27.479Z" fill="#232323"/>
</g>
<defs>
<clipPath id="clip0_2742_31031">
<rect width="182" height="58" fill="white" transform="translate(0.5)"/>
</clipPath>
</defs>
</svg>
