<svg width="539" height="190" viewBox="0 0 539 190" fill="none" xmlns="http://www.w3.org/2000/svg">
<path d="M498.498 129.872C362.058 130.797 225.618 131.722 89.1788 132.647C70.9358 132.773 50.8903 132.259 37.1654 120.232C25.3685 109.884 21.227 93.5398 17.6903 78.2462C13.0582 58.2013 9.01949 35.0725 21.5237 18.7396C34.3245 2.01837 58.4316 0.270889 79.4697 0.202359C206.531 -0.208819 333.456 7.69494 460.266 15.5873C482.183 16.9579 506.176 19.2193 521.692 34.7641C536.592 49.7036 539.33 72.8552 538.144 93.9281C536.82 117.4 531.139 141.693 515.714 159.42C500.289 177.146 473.193 186.158 452.337 175.353C476.102 179.282 500.483 156.987 498.714 132.933L498.509 129.838L498.498 129.872Z" fill="#A7D7F8"/>
<path d="M525.019 140.342C530.98 122.525 532.669 102.716 531.105 84.0458C529.712 67.4132 524.597 49.9495 512.06 38.1552C498.678 25.5755 479.93 22.0577 462.186 20.794C439.339 19.1661 416.309 18.9953 393.416 18.2325C344.615 16.5932 295.815 15.136 246.992 14.3277C198.191 13.5194 149.368 13.3486 100.556 14.2935C80.3237 14.6806 58.9606 13.6333 39.0705 18.0049C22.857 21.5682 8.41331 30.6415 3.16104 47.0237C-2.331 64.1231 2.36178 82.9756 6.80338 99.7563C11.2107 116.412 16.9768 134.433 32.2198 144.394C48.6045 155.096 69.7963 153.365 88.4419 152.739C112.705 151.92 136.968 151.111 161.231 150.292C259.038 147.001 356.844 143.711 454.65 140.421C466.034 140.034 477.418 139.659 488.802 139.271C488.939 149.313 485.673 158.386 478.537 166.07C470.065 175.178 457.893 180.426 445.39 179.026C442.376 178.684 443.723 184.616 445.516 185.435C461.044 192.505 478.388 190.205 493.003 181.986C508.989 172.992 519.31 157.384 525.008 140.353L525.019 140.342ZM465.052 183.101C472.108 180.358 478.445 175.736 483.367 169.748C491.279 160.128 493.86 149.039 492.844 136.938C492.958 135.002 491.896 132.543 490.366 132.589C399.764 135.64 309.163 138.68 218.55 141.731C173.437 143.245 128.325 144.782 83.2124 146.284C65.4232 146.876 44.2886 148.015 29.6393 136.05C15.6523 124.631 11.6217 104.23 7.86524 87.5408C3.82328 69.5534 2.23618 48.3215 17.7532 35.0815C30.2445 24.4257 48.1707 22.6042 63.9503 21.887C109.211 19.815 154.689 20.054 199.973 20.3728C245.005 20.6916 290.038 21.682 335.059 22.9912C357.381 23.6402 379.703 24.3574 402.025 25.1201C423.148 25.8373 444.443 25.8487 465.509 27.6133C483.127 29.0933 502.138 33.0892 514.07 47.2059C525.956 61.2656 527.84 81.2338 527.234 98.8569C526.024 134.205 511.558 175.998 471.526 182.498C469.368 182.851 467.199 183.045 465.041 183.101H465.052Z" fill="#232323"/>
</svg>
