<svg width="539" height="190" viewBox="0 0 539 190" fill="none" xmlns="http://www.w3.org/2000/svg">
<path d="M498.498 129.872C362.058 130.797 225.618 131.722 89.1788 132.647C70.9358 132.773 50.8903 132.259 37.1654 120.232C25.3685 109.884 21.227 93.5398 17.6903 78.2462C13.0582 58.2013 9.01949 35.0725 21.5237 18.7396C34.3245 2.01837 58.4316 0.270889 79.4697 0.202359C206.531 -0.208819 333.456 7.69494 460.266 15.5873C482.183 16.9579 506.176 19.2193 521.692 34.7641C536.592 49.7036 539.33 72.8552 538.144 93.9281C536.82 117.4 531.139 141.693 515.714 159.42C500.289 177.146 473.193 186.158 452.337 175.353C476.102 179.282 500.483 156.987 498.714 132.933L498.509 129.838L498.498 129.872Z" fill="#A7D7F8"/>
<path d="M525.019 140.342C530.98 122.525 532.669 102.716 531.105 84.0458C529.712 67.4132 524.597 49.9495 512.06 38.1552C498.678 25.5755 479.93 22.0577 462.186 20.794C439.339 19.1661 416.309 18.9953 393.416 18.2325C344.615 16.5932 295.815 15.136 246.992 14.3277C198.191 13.5194 149.368 13.3486 100.556 14.2935C80.3237 14.6806 58.9606 13.6333 39.0705 18.0049C22.857 21.5682 8.41331 30.6415 3.16104 47.0237C-2.331 64.1231 2.36178 82.9756 6.80338 99.7563C11.2107 116.412 16.9768 134.433 32.2198 144.394C48.6045 155.096 69.7963 153.365 88.4419 152.739C112.705 151.92 136.968 151.111 161.231 150.292C259.038 147.001 356.844 143.711 454.65 140.421C466.034 140.034 477.418 139.659 488.802 139.271C488.939 149.313 485.673 158.386 478.537 166.07C470.065 175.178 457.893 180.426 445.39 179.026C442.376 178.684 443.723 184.616 445.516 185.435C461.044 192.505 478.388 190.205 493.003 181.986C508.989 172.992 519.31 157.384 525.008 140.353L525.019 140.342ZM465.052 183.101C472.108 180.358 478.445 175.736 483.367 169.748C491.279 160.128 493.86 149.039 492.844 136.938C492.958 135.002 491.896 132.543 490.366 132.589C399.764 135.64 309.163 138.68 218.55 141.731C173.437 143.245 128.325 144.782 83.2124 146.284C65.4232 146.876 44.2886 148.015 29.6393 136.05C15.6523 124.631 11.6217 104.23 7.86524 87.5408C3.82328 69.5534 2.23618 48.3215 17.7532 35.0815C30.2445 24.4257 48.1707 22.6042 63.9503 21.887C109.211 19.815 154.689 20.054 199.973 20.3728C245.005 20.6916 290.038 21.682 335.059 22.9912C357.381 23.6402 379.703 24.3574 402.025 25.1201C423.148 25.8373 444.443 25.8487 465.509 27.6133C483.127 29.0933 502.138 33.0892 514.07 47.2059C525.956 61.2656 527.84 81.2338 527.234 98.8569C526.024 134.205 511.558 175.998 471.526 182.498C469.368 182.851 467.199 183.045 465.041 183.101H465.052Z" fill="#232323"/>
<path d="M189.01 71.235V90H185.932V81.792H177.103V90H174.025V71.235H177.103V79.281H185.932V71.235H189.01ZM206.697 82.197C206.697 82.755 206.661 83.259 206.589 83.709H195.222C195.312 84.897 195.753 85.851 196.545 86.571C197.337 87.291 198.309 87.651 199.461 87.651C201.117 87.651 202.287 86.958 202.971 85.572H206.292C205.842 86.94 205.023 88.065 203.835 88.947C202.665 89.811 201.207 90.243 199.461 90.243C198.039 90.243 196.761 89.928 195.627 89.298C194.511 88.65 193.629 87.75 192.981 86.598C192.351 85.428 192.036 84.078 192.036 82.548C192.036 81.018 192.342 79.677 192.954 78.525C193.584 77.355 194.457 76.455 195.573 75.825C196.707 75.195 198.003 74.88 199.461 74.88C200.865 74.88 202.116 75.186 203.214 75.798C204.312 76.41 205.167 77.274 205.779 78.39C206.391 79.488 206.697 80.757 206.697 82.197ZM203.484 81.225C203.466 80.091 203.061 79.182 202.269 78.498C201.477 77.814 200.496 77.472 199.326 77.472C198.264 77.472 197.355 77.814 196.599 78.498C195.843 79.164 195.393 80.073 195.249 81.225H203.484ZM212.804 70.02V90H209.726V70.02H212.804ZM219.923 70.02V90H216.845V70.02H219.923ZM230.417 90.243C229.013 90.243 227.744 89.928 226.61 89.298C225.476 88.65 224.585 87.75 223.937 86.598C223.289 85.428 222.965 84.078 222.965 82.548C222.965 81.036 223.298 79.695 223.964 78.525C224.63 77.355 225.539 76.455 226.691 75.825C227.843 75.195 229.13 74.88 230.552 74.88C231.974 74.88 233.261 75.195 234.413 75.825C235.565 76.455 236.474 77.355 237.14 78.525C237.806 79.695 238.139 81.036 238.139 82.548C238.139 84.06 237.797 85.401 237.113 86.571C236.429 87.741 235.493 88.65 234.305 89.298C233.135 89.928 231.839 90.243 230.417 90.243ZM230.417 87.57C231.209 87.57 231.947 87.381 232.631 87.003C233.333 86.625 233.9 86.058 234.332 85.302C234.764 84.546 234.98 83.628 234.98 82.548C234.98 81.468 234.773 80.559 234.359 79.821C233.945 79.065 233.396 78.498 232.712 78.12C232.028 77.742 231.29 77.553 230.498 77.553C229.706 77.553 228.968 77.742 228.284 78.12C227.618 78.498 227.087 79.065 226.691 79.821C226.295 80.559 226.097 81.468 226.097 82.548C226.097 84.15 226.502 85.392 227.312 86.274C228.14 87.138 229.175 87.57 230.417 87.57ZM251.274 71.235V90H248.196V71.235H251.274ZM255.801 71.235H259.149L256.314 77.661H254.154L255.801 71.235ZM279.863 74.88C281.033 74.88 282.077 75.123 282.995 75.609C283.931 76.095 284.66 76.815 285.182 77.769C285.722 78.723 285.992 79.875 285.992 81.225V90H282.941V81.684C282.941 80.352 282.608 79.335 281.942 78.633C281.276 77.913 280.367 77.553 279.215 77.553C278.063 77.553 277.145 77.913 276.461 78.633C275.795 79.335 275.462 80.352 275.462 81.684V90H272.411V81.684C272.411 80.352 272.078 79.335 271.412 78.633C270.746 77.913 269.837 77.553 268.685 77.553C267.533 77.553 266.615 77.913 265.931 78.633C265.265 79.335 264.932 80.352 264.932 81.684V90H261.854V75.123H264.932V76.824C265.436 76.212 266.075 75.735 266.849 75.393C267.623 75.051 268.451 74.88 269.333 74.88C270.521 74.88 271.583 75.132 272.519 75.636C273.455 76.14 274.175 76.869 274.679 77.823C275.129 76.923 275.831 76.212 276.785 75.69C277.739 75.15 278.765 74.88 279.863 74.88ZM310.044 76.824C310.044 77.778 309.819 78.678 309.369 79.524C308.919 80.37 308.199 81.063 307.209 81.603C306.219 82.125 304.95 82.386 303.402 82.386H300V90H296.922V71.235H303.402C304.842 71.235 306.057 71.487 307.047 71.991C308.055 72.477 308.802 73.143 309.288 73.989C309.792 74.835 310.044 75.78 310.044 76.824ZM303.402 79.875C304.572 79.875 305.445 79.614 306.021 79.092C306.597 78.552 306.885 77.796 306.885 76.824C306.885 74.772 305.724 73.746 303.402 73.746H300V79.875H303.402ZM311.954 82.494C311.954 81 312.26 79.677 312.872 78.525C313.502 77.373 314.348 76.482 315.41 75.852C316.49 75.204 317.678 74.88 318.974 74.88C320.144 74.88 321.161 75.114 322.025 75.582C322.907 76.032 323.609 76.599 324.131 77.283V75.123H327.236V90H324.131V87.786C323.609 88.488 322.898 89.073 321.998 89.541C321.098 90.009 320.072 90.243 318.92 90.243C317.642 90.243 316.472 89.919 315.41 89.271C314.348 88.605 313.502 87.687 312.872 86.517C312.26 85.329 311.954 83.988 311.954 82.494ZM324.131 82.548C324.131 81.522 323.915 80.631 323.483 79.875C323.069 79.119 322.52 78.543 321.836 78.147C321.152 77.751 320.414 77.553 319.622 77.553C318.83 77.553 318.092 77.751 317.408 78.147C316.724 78.525 316.166 79.092 315.734 79.848C315.32 80.586 315.113 81.468 315.113 82.494C315.113 83.52 315.32 84.42 315.734 85.194C316.166 85.968 316.724 86.562 317.408 86.976C318.11 87.372 318.848 87.57 319.622 87.57C320.414 87.57 321.152 87.372 321.836 86.976C322.52 86.58 323.069 86.004 323.483 85.248C323.915 84.474 324.131 83.574 324.131 82.548ZM344.752 75.123V90H341.674V88.245C341.188 88.857 340.549 89.343 339.757 89.703C338.983 90.045 338.155 90.216 337.273 90.216C336.103 90.216 335.05 89.973 334.114 89.487C333.196 89.001 332.467 88.281 331.927 87.327C331.405 86.373 331.144 85.221 331.144 83.871V75.123H334.195V83.412C334.195 84.744 334.528 85.77 335.194 86.49C335.86 87.192 336.769 87.543 337.921 87.543C339.073 87.543 339.982 87.192 340.648 86.49C341.332 85.77 341.674 84.744 341.674 83.412V75.123H344.752ZM351.891 70.02V90H348.813V70.02H351.891Z" fill="black"/>
</svg>
