<svg width="280" height="324" viewBox="0 0 280 324" fill="none" xmlns="http://www.w3.org/2000/svg">
<rect width="280" height="324" fill="#F5F5F5"/>
<path d="M166.625 108.75H112.375C109.292 108.75 106.335 109.975 104.155 112.155C101.975 114.335 100.75 117.292 100.75 120.375V174.625C100.75 177.708 101.975 180.665 104.155 182.845C106.335 185.025 109.292 186.25 112.375 186.25H166.625C167.262 186.241 167.898 186.176 168.524 186.056L169.686 185.785H169.958H170.151L171.585 185.243L172.089 184.971C172.476 184.739 172.902 184.545 173.29 184.274C173.807 183.893 174.299 183.479 174.763 183.034L175.034 182.685C175.414 182.299 175.764 181.885 176.08 181.445L176.429 180.941C176.699 180.51 176.933 180.056 177.126 179.585C177.233 179.399 177.323 179.205 177.397 179.004C177.591 178.539 177.707 178.035 177.862 177.531V176.95C178.082 176.193 178.212 175.412 178.25 174.625V120.375C178.25 117.292 177.025 114.335 174.845 112.155C172.665 109.975 169.708 108.75 166.625 108.75ZM112.375 178.5C111.347 178.5 110.362 178.092 109.635 177.365C108.908 176.638 108.5 175.653 108.5 174.625V157.924L121.249 145.136C121.609 144.773 122.038 144.485 122.51 144.288C122.982 144.091 123.488 143.99 124 143.99C124.512 143.99 125.018 144.091 125.49 144.288C125.962 144.485 126.391 144.773 126.751 145.136L160.076 178.5H112.375ZM170.5 174.625C170.496 175.103 170.404 175.576 170.229 176.02C170.14 176.209 170.037 176.39 169.919 176.562C169.815 176.727 169.698 176.882 169.57 177.028L148.839 156.296L152.249 152.886C152.609 152.523 153.038 152.235 153.51 152.038C153.982 151.841 154.488 151.74 155 151.74C155.512 151.74 156.018 151.841 156.49 152.038C156.962 152.235 157.391 152.523 157.751 152.886L170.5 165.674V174.625ZM170.5 154.708L163.215 147.5C160.997 145.396 158.057 144.223 155 144.223C151.943 144.223 149.003 145.396 146.785 147.5L143.375 150.91L132.215 139.75C129.997 137.646 127.057 136.473 124 136.473C120.943 136.473 118.003 137.646 115.785 139.75L108.5 146.958V120.375C108.5 119.347 108.908 118.362 109.635 117.635C110.362 116.908 111.347 116.5 112.375 116.5H166.625C167.653 116.5 168.638 116.908 169.365 117.635C170.092 118.362 170.5 119.347 170.5 120.375V154.708ZM145.312 124.25C144.163 124.25 143.039 124.591 142.083 125.23C141.127 125.868 140.382 126.776 139.942 127.838C139.503 128.9 139.387 130.069 139.612 131.196C139.836 132.324 140.39 133.36 141.202 134.173C142.015 134.985 143.051 135.539 144.179 135.763C145.306 135.988 146.475 135.872 147.537 135.433C148.599 134.993 149.507 134.248 150.145 133.292C150.784 132.336 151.125 131.212 151.125 130.062C151.125 128.521 150.513 127.042 149.423 125.952C148.333 124.862 146.854 124.25 145.312 124.25Z" fill="#CDCDCD"/>
</svg>
