<svg width="20" height="23" viewBox="0 0 20 23" fill="none" xmlns="http://www.w3.org/2000/svg">
<path d="M12.66 11.3781C13.8735 10.7779 14.8484 9.78496 15.4262 8.56059C16.004 7.33622 16.1507 5.95244 15.8425 4.63414C15.5343 3.31584 14.7893 2.14052 13.7286 1.29919C12.6679 0.45787 11.3538 0 10 0C8.64615 0 7.3321 0.45787 6.27141 1.29919C5.21071 2.14052 4.46573 3.31584 4.15753 4.63414C3.84934 5.95244 3.99605 7.33622 4.57382 8.56059C5.1516 9.78496 6.12647 10.7779 7.34 11.3781C5.23185 11.9599 3.37252 13.2166 2.04682 14.9559C0.72111 16.6953 0.00212824 18.8212 0 21.0081V22.0081C0 22.2734 0.105357 22.5277 0.292893 22.7152C0.48043 22.9028 0.734784 23.0081 1 23.0081H19C19.2652 23.0081 19.5196 22.9028 19.7071 22.7152C19.8946 22.5277 20 22.2734 20 22.0081V21.0081C19.9979 18.8212 19.2789 16.6953 17.9532 14.9559C16.6275 13.2166 14.7682 11.9599 12.66 11.3781Z" fill="#FCF9DB"/>
</svg>
