<svg width="41" height="40" viewBox="0 0 41 40" fill="none" xmlns="http://www.w3.org/2000/svg">
<g clip-path="url(#clip0_161_4044)">
<rect width="40" height="40" transform="translate(0.5)" fill="#F1F3F7"/>
<path fill-rule="evenodd" clip-rule="evenodd" d="M20.4998 13.6C19.104 13.6 17.9726 14.7315 17.9726 16.1272C17.9726 17.5229 19.104 18.6544 20.4998 18.6544C21.8955 18.6544 23.0269 17.5229 23.0269 16.1272C23.0269 14.7315 21.8955 13.6 20.4998 13.6ZM16.7339 16.1272C16.7339 14.0474 18.4199 12.3613 20.4998 12.3613C22.5796 12.3613 24.2656 14.0474 24.2656 16.1272C24.2656 18.207 22.5796 19.893 20.4998 19.893C18.4199 19.893 16.7339 18.207 16.7339 16.1272Z" fill="#232323"/>
<path fill-rule="evenodd" clip-rule="evenodd" d="M15.7756 22.442C16.9074 21.7664 18.4387 21.3164 20.4998 21.3164C22.561 21.3164 24.0923 21.7664 25.2241 22.442C26.3564 23.1179 27.0526 23.998 27.4769 24.8011L27.4769 24.8012C27.8565 25.52 27.7323 26.2658 27.3014 26.8069C26.887 27.3273 26.2124 27.6379 25.4883 27.6379H15.5114C14.7873 27.6379 14.1127 27.3273 13.6983 26.8069C13.2674 26.2658 13.1432 25.52 13.5229 24.8012C13.947 23.998 14.6433 23.1179 15.7756 22.442ZM16.4105 23.5056C15.5026 24.0476 14.9534 24.7448 14.6182 25.3796L14.6182 25.3796C14.4815 25.6383 14.525 25.8566 14.6672 26.0353C14.8259 26.2345 15.13 26.3992 15.5114 26.3992H25.4883C25.8697 26.3992 26.1737 26.2345 26.3324 26.0352C26.4747 25.8566 26.5182 25.6383 26.3816 25.3796C26.0463 24.7448 25.4971 24.0476 24.5892 23.5056C23.6808 22.9634 22.3772 22.5551 20.4998 22.5551C18.6225 22.5551 17.3189 22.9634 16.4105 23.5056Z" fill="#232323"/>
</g>
<defs>
<clipPath id="clip0_161_4044">
<rect x="0.5" width="40" height="40" rx="20" fill="white"/>
</clipPath>
</defs>
</svg>
