<svg width="99" height="99" viewBox="0 0 99 99" fill="none" xmlns="http://www.w3.org/2000/svg">
<g id="&#240;&#159;&#166;&#134; icon &#34;explore&#34;">
<path id="Vector" d="M49.5 12.3745C56.8427 12.3745 64.0204 14.5518 70.1256 18.6312C76.2307 22.7105 80.9892 28.5087 83.7991 35.2924C86.609 42.0761 87.3442 49.5407 85.9117 56.7422C84.4792 63.9438 80.9434 70.5588 75.7514 75.7508C70.5593 80.9429 63.9443 84.4787 56.7427 85.9112C49.5412 87.3436 42.0766 86.6084 35.2929 83.7985C28.5092 80.9886 22.7111 76.2302 18.6317 70.125C14.5524 64.0199 12.375 56.8421 12.375 49.4995C12.4292 39.67 16.3579 30.2586 23.3085 23.308C30.2591 16.3574 39.6706 12.4287 49.5 12.3745ZM49.5 4.1245C40.5257 4.1245 31.7529 6.78569 24.291 11.7716C16.8291 16.7574 11.0133 23.844 7.57899 32.1352C4.14466 40.4264 3.24608 49.5498 4.99689 58.3517C6.74769 67.1536 11.0692 75.2387 17.4151 81.5845C23.7609 87.9303 31.8459 92.2518 40.6478 94.0026C49.4497 95.7534 58.5731 94.8549 66.8643 91.4205C75.1555 87.9862 82.2421 82.1704 87.228 74.7085C92.2138 67.2466 94.875 58.4738 94.875 49.4995C94.9023 43.5331 93.7473 37.6205 91.4767 32.103C89.206 26.5855 85.8648 21.5725 81.6459 17.3536C77.427 13.1347 72.414 9.79348 66.8965 7.52284C61.3791 5.25221 55.4664 4.09719 49.5 4.1245Z" fill="#2D2D2D"/>
<path id="Vector_2" d="M68.6812 27.4312L41.25 41.25L27.4312 68.6812C27.2914 69.0838 27.2678 69.5176 27.3631 69.933C27.4585 70.3483 27.6688 70.7285 27.9702 71.0298C28.2715 71.3311 28.6516 71.5415 29.067 71.6368C29.4824 71.7321 29.9162 71.7085 30.3187 71.5687L57.75 57.75L71.5687 30.3187C71.7085 29.9162 71.7321 29.4824 71.6368 29.067C71.5415 28.6516 71.3311 28.2715 71.0298 27.9702C70.7285 27.6688 70.3483 27.4585 69.933 27.3631C69.5176 27.2678 69.0838 27.2914 68.6812 27.4312ZM49.5 53.625C48.6841 53.625 47.8866 53.3831 47.2083 52.9298C46.5299 52.4765 46.0012 51.8323 45.689 51.0786C45.3768 50.3248 45.2951 49.4954 45.4542 48.6952C45.6134 47.8951 46.0063 47.1601 46.5832 46.5832C47.1601 46.0063 47.8951 45.6134 48.6952 45.4542C49.4954 45.2951 50.3248 45.3768 51.0786 45.689C51.8323 46.0012 52.4765 46.5299 52.9298 47.2083C53.3831 47.8866 53.625 48.6841 53.625 49.5C53.625 50.594 53.1904 51.6432 52.4168 52.4168C51.6432 53.1904 50.594 53.625 49.5 53.625Z" fill="#2D2D2D"/>
</g>
</svg>
