<svg width="24" height="25" viewBox="0 0 24 25" fill="none" xmlns="http://www.w3.org/2000/svg">
<g id="Group 73">
<rect id="Social Media Icon" y="0.5" width="24" height="24" rx="4" fill="#2D2D2D"/>
<path id="LinkedIn" d="M6 8.11369C6 7.72889 6.13514 7.41143 6.40541 7.16131C6.67567 6.91119 7.02703 6.78613 7.45946 6.78613C7.88417 6.78613 8.2278 6.90926 8.49035 7.15554C8.76061 7.40951 8.89575 7.74043 8.89575 8.14833C8.89575 8.51773 8.76448 8.82557 8.50193 9.07185C8.23166 9.32581 7.87645 9.4528 7.43629 9.4528H7.42471C7 9.4528 6.65637 9.32581 6.39382 9.07185C6.13127 8.81788 6 8.49849 6 8.11369ZM6.15058 18.2147V10.5033H8.72201V18.2147H6.15058ZM10.1467 18.2147H12.7181V13.9088C12.7181 13.6394 12.749 13.4316 12.8108 13.2854C12.9189 13.0237 13.083 12.8025 13.3031 12.6216C13.5232 12.4408 13.7992 12.3503 14.1313 12.3503C14.9961 12.3503 15.4286 12.9314 15.4286 14.0935V18.2147H18V13.7933C18 12.6543 17.7297 11.7905 17.1892 11.2017C16.6486 10.613 15.9344 10.3186 15.0463 10.3186C14.0502 10.3186 13.2741 10.7457 12.7181 11.6V11.6231H12.7066L12.7181 11.6V10.5033H10.1467C10.1622 10.7496 10.1699 11.5153 10.1699 12.8006C10.1699 14.0858 10.1622 15.8905 10.1467 18.2147Z" fill="white"/>
</g>
</svg>
