<svg width="34" height="28" viewBox="0 0 34 28" fill="none" xmlns="http://www.w3.org/2000/svg">
<path id="Quotes" d="M26.5475 14.2393C28.6215 14.3989 30.2967 15.0769 31.5731 16.2735C32.8495 17.4701 33.4876 19.0655 33.4876 21.0598C33.4876 23.2934 32.8096 25.0086 31.4534 26.2051C30.0973 27.4017 28.4221 28 26.4278 28C23.7156 27.8405 21.7611 26.8433 20.5646 25.0085C19.368 23.1738 18.7697 21.0997 18.7697 18.7863C18.7697 16.5527 19.0888 14.4786 19.7269 12.5641C20.4449 10.6496 21.3623 8.8547 22.4791 7.17949C23.5959 5.50428 24.8722 4.02849 26.3081 2.75214C27.8238 1.47579 29.3794 0.558407 30.9748 0L33.8466 3.94873C32.2512 5.06554 30.7355 6.58121 29.2996 8.49573C27.9435 10.4103 27.0261 12.3248 26.5475 14.2393ZM7.93207 14.2393C10.0061 14.3989 11.6814 15.0769 12.9577 16.2735C14.2341 17.4701 14.8722 19.0655 14.8722 21.0598C14.8722 23.2934 14.1543 25.0086 12.7184 26.2051C11.3623 27.4017 9.76683 28 7.93207 28C5.14005 27.9202 3.14575 26.963 1.94917 25.1282C0.752587 23.2137 0.154297 21.0997 0.154297 18.7863C0.154297 16.5527 0.473385 14.4786 1.11156 12.5641C1.82951 10.6496 2.74689 8.8547 3.8637 7.17949C4.98051 5.50428 6.25686 4.02849 7.69276 2.75214C9.20843 1.47579 10.764 0.558407 12.3594 0L15.2312 3.94873C13.6358 5.06554 12.1201 6.58121 10.6842 8.49573C9.32809 10.4103 8.41071 12.3248 7.93207 14.2393Z" fill="#232323"/>
</svg>
