<svg width="48" height="48" viewBox="0 0 48 48" fill="none" xmlns="http://www.w3.org/2000/svg">
<g clip-path="url(#clip0_1533_50183)">
<rect width="48" height="48" fill="#F1F3F7"/>
<path fill-rule="evenodd" clip-rule="evenodd" d="M24.0002 16.3204C22.3254 16.3204 20.9676 17.6781 20.9676 19.353C20.9676 21.0279 22.3254 22.3856 24.0002 22.3856C25.6751 22.3856 27.0329 21.0279 27.0329 19.353C27.0329 17.6781 25.6751 16.3204 24.0002 16.3204ZM19.4812 19.353C19.4812 16.8572 21.5044 14.834 24.0002 14.834C26.496 14.834 28.5193 16.8572 28.5193 19.353C28.5193 21.8488 26.496 23.872 24.0002 23.872C21.5044 23.872 19.4812 21.8488 19.4812 19.353Z" fill="#6D758F"/>
<path fill-rule="evenodd" clip-rule="evenodd" d="M18.331 26.9313C19.6892 26.1206 21.5267 25.5806 24.0001 25.5806C26.4735 25.5806 28.311 26.1206 29.6692 26.9313C31.0279 27.7424 31.8635 28.7984 32.3725 29.7622L32.3725 29.7623C32.8281 30.6249 32.679 31.5199 32.162 32.1691C31.6647 32.7936 30.8552 33.1664 29.9863 33.1664H18.014C17.145 33.1664 16.3355 32.7936 15.8382 32.1691C15.3212 31.5198 15.1721 30.6249 15.6277 29.7623C16.1367 28.7985 16.9723 27.7424 18.331 26.9313ZM19.0929 28.2076C18.0034 28.8579 17.3444 29.6946 16.9421 30.4564L16.9421 30.4564C16.7781 30.7669 16.8303 31.0288 17.001 31.2432C17.1914 31.4823 17.5562 31.68 18.014 31.68H29.9863C30.444 31.68 30.8088 31.4823 30.9992 31.2432C31.1699 31.0288 31.2221 30.7669 31.0582 30.4564C30.6558 29.6946 29.9968 28.8579 28.9073 28.2076C27.8173 27.5569 26.2529 27.067 24.0001 27.067C21.7473 27.067 20.1829 27.5569 19.0929 28.2076Z" fill="#6D758F"/>
</g>
<defs>
<clipPath id="clip0_1533_50183">
<rect width="48" height="48" rx="24" fill="white"/>
</clipPath>
</defs>
</svg>
