<svg width="158" height="110" viewBox="0 0 158 110" fill="none" xmlns="http://www.w3.org/2000/svg">
<path d="M134.576 2H22.5848C11.2161 2 2 11.2498 2 22.66V48.29C2 59.7002 11.2161 68.95 22.5848 68.95H134.576C145.945 68.95 155.161 59.7002 155.161 48.29V22.66C155.161 11.2498 145.945 2 134.576 2Z" fill="#A8DFF5" stroke="#231F20" stroke-width="4" stroke-miterlimit="10"/>
<path d="M134.834 10.6504H23.68C17.1042 10.6504 11.7734 16.0006 11.7734 22.6004V48.1204C11.7734 54.7202 17.1042 60.0704 23.68 60.0704H134.834C141.41 60.0704 146.741 54.7202 146.741 48.1204V22.6004C146.741 16.0006 141.41 10.6504 134.834 10.6504Z" fill="#EEEEF7" stroke="#231F20" stroke-width="4" stroke-miterlimit="10"/>
<path d="M134.527 15.1797H24.239C19.8478 15.1797 16.2881 18.7524 16.2881 23.1597V47.5597C16.2881 51.9669 19.8478 55.5397 24.239 55.5397H134.527C138.918 55.5397 142.478 51.9669 142.478 47.5597V23.1597C142.478 18.7524 138.918 15.1797 134.527 15.1797Z" fill="#C8E092"/>
<path d="M28.4836 50.8713C27.0389 50.4913 25.7536 50.0313 24.6476 49.4913C23.6014 48.9813 23.1531 47.7113 23.6313 46.6413L24.6974 44.2413C25.1856 43.1313 26.4909 42.6212 27.5869 43.1512C28.4537 43.5712 29.3903 43.9313 30.4066 44.2413C32.2001 44.7913 33.9736 45.0713 35.7073 45.0713C39.0152 45.0713 40.6592 44.2413 40.6592 42.5813C40.6592 41.7113 40.1909 41.0613 39.2443 40.6413C38.2978 40.2213 36.7833 39.7813 34.7009 39.3113C32.4093 38.8113 30.4963 38.2813 28.9619 37.7213C27.4275 37.1513 26.1123 36.2413 25.0063 34.9913C23.9103 33.7413 23.3623 32.0513 23.3623 29.9313C23.3623 28.0713 23.8704 26.3913 24.8867 24.8913C25.903 23.4013 27.4075 22.2112 29.4301 21.3412C31.4428 20.4712 33.9138 20.0312 36.8431 20.0312C38.8458 20.0312 40.8087 20.2612 42.7516 20.7112C43.9173 20.9812 45.0033 21.3313 45.9997 21.7513C47.0757 22.2113 47.5441 23.4913 47.0957 24.5713L46.0993 26.9813C45.631 28.1113 44.3357 28.6113 43.2099 28.1313C41.0179 27.2113 38.8757 26.7513 36.7833 26.7513C35.0795 26.7513 33.8341 27.0113 33.0469 27.5113C32.2598 28.0113 31.8712 28.6813 31.8712 29.4913C31.8712 30.3013 32.3395 30.9113 33.2662 31.3213C34.1928 31.7313 35.6873 32.1513 37.7398 32.5813C40.0614 33.0813 41.9744 33.6113 43.4988 34.1713C45.0233 34.7313 46.3384 35.6413 47.4544 36.8813C48.5703 38.1213 49.1283 39.7913 49.1283 41.9213C49.1283 43.7513 48.6201 45.4113 47.6038 46.8913C46.5876 48.3713 45.0631 49.5613 43.0405 50.4413C41.0079 51.3313 38.5469 51.7712 35.6475 51.7712C33.1865 51.7712 30.7952 51.4613 28.4737 50.8513L28.4836 50.8713Z" fill="#231F20"/>
<path d="M77.5146 46.6904V49.0004C77.5146 50.2004 76.5382 51.1804 75.3426 51.1804H55.2659C54.0702 51.1804 53.0938 50.2004 53.0938 49.0004V22.8304C53.0938 21.6304 54.0702 20.6504 55.2659 20.6504H74.7846C75.9802 20.6504 76.9567 21.6304 76.9567 22.8304V25.1404C76.9567 26.3404 75.9802 27.3204 74.7846 27.3204H63.7947C62.5991 27.3204 61.6227 28.3004 61.6227 29.5004V30.2804C61.6227 31.4804 62.5991 32.4604 63.7947 32.4604H72.9612C74.1569 32.4604 75.1334 33.4404 75.1334 34.6404V36.7304C75.1334 37.9304 74.1569 38.9104 72.9612 38.9104H63.7947C62.5991 38.9104 61.6227 39.8904 61.6227 41.0904V42.3104C61.6227 43.5104 62.5991 44.4904 63.7947 44.4904H75.3525C76.5482 44.4904 77.5246 45.4704 77.5246 46.6704L77.5146 46.6904Z" fill="#231F20"/>
<path d="M96.7644 8.19877C82.088 16.1388 76.608 34.4987 84.5191 49.2187C92.4303 63.9487 110.723 69.4488 125.4 61.5088C140.076 53.5688 145.546 35.2088 137.635 20.4888C129.734 5.76875 111.431 0.268773 96.7644 8.19877ZM122.212 55.5788C110.803 61.7488 96.5751 57.4687 90.4276 46.0187C84.28 34.5687 88.5444 20.2888 99.9528 14.1288C111.361 7.96877 125.579 12.2388 131.727 23.6788C137.874 35.1288 133.62 49.4088 122.212 55.5788Z" fill="#FDE783" stroke="#231F20" stroke-width="4" stroke-miterlimit="10"/>
<path d="M111.073 58.3983C124.026 58.3983 134.527 47.8591 134.527 34.8583C134.527 21.8576 124.026 11.3184 111.073 11.3184C98.119 11.3184 87.6182 21.8576 87.6182 34.8583C87.6182 47.8591 98.119 58.3983 111.073 58.3983Z" fill="#CCC9E5"/>
<mask id="mask0_2_43171" style="mask-type:luminance" maskUnits="userSpaceOnUse" x="87" y="11" width="48" height="48">
<path d="M111.073 58.3983C124.026 58.3983 134.527 47.8591 134.527 34.8583C134.527 21.8576 124.026 11.3184 111.073 11.3184C98.119 11.3184 87.6182 21.8576 87.6182 34.8583C87.6182 47.8591 98.119 58.3983 111.073 58.3983Z" fill="white"/>
</mask>
<g mask="url(#mask0_2_43171)">
<path d="M93.3357 11.6969L84.2188 18.0684L117.708 66.3391L126.825 59.9676L93.3357 11.6969Z" fill="white"/>
<path d="M105.538 4.99378L96.4209 11.3652L129.91 59.6359L139.027 53.2644L105.538 4.99378Z" fill="white"/>
</g>
<path d="M111.073 58.3983C124.026 58.3983 134.527 47.8591 134.527 34.8583C134.527 21.8576 124.026 11.3184 111.073 11.3184C98.119 11.3184 87.6182 21.8576 87.6182 34.8583C87.6182 47.8591 98.119 58.3983 111.073 58.3983Z" stroke="#231F20" stroke-width="4" stroke-miterlimit="10"/>
<path d="M150.548 99.3975L143.813 103.037L122.022 63.3375L128.758 59.6875L150.548 99.3975Z" fill="#DDDDEF" stroke="#231F20" stroke-width="4" stroke-miterlimit="10"/>
<path d="M149.94 106.359C147.12 107.889 143.603 106.829 142.079 103.999L123.038 69.4186L133.251 63.8887L152.291 98.4686C153.816 101.299 152.76 104.829 149.94 106.359Z" fill="#5899CD" stroke="#231F20" stroke-width="4" stroke-miterlimit="10"/>
</svg>
