<svg width="18" height="18" viewBox="0 0 18 18" fill="none" xmlns="http://www.w3.org/2000/svg">
<path d="M18 7.20651C17.9911 7.41849 17.879 7.66059 17.6616 7.85179C16.791 8.61656 15.9199 9.38062 15.0484 10.144C14.6415 10.501 14.234 10.8575 13.826 11.2135C13.7677 11.2641 13.7528 11.309 13.7708 11.3877C14.084 12.7565 14.3947 14.1258 14.7028 15.4957C14.7652 15.771 14.8266 16.0468 14.894 16.3212C14.9923 16.7275 14.8668 17.129 14.5501 17.3563C14.2017 17.6063 13.8317 17.6225 13.4634 17.4041C12.2903 16.7067 11.1187 16.0065 9.94856 15.3036C9.67539 15.1403 9.39888 14.9809 9.13025 14.8117C9.04039 14.7551 8.97514 14.7546 8.88289 14.81C7.45993 15.6642 6.03387 16.5131 4.61258 17.367C4.31073 17.5482 4.00243 17.6163 3.6688 17.4794C3.22738 17.2982 2.99675 16.8341 3.10645 16.3518C3.41666 14.9867 3.72735 13.6215 4.03852 12.2564C4.104 11.9696 4.16256 11.6807 4.23354 11.396C4.25409 11.3138 4.23975 11.2653 4.17737 11.2111C3.64267 10.746 3.10932 10.2793 2.57732 9.81105C1.8319 9.15668 1.08362 8.50687 0.342505 7.84772C0.0399405 7.5791 -0.0747758 7.23614 0.0492612 6.84396C0.173298 6.45177 0.450529 6.21565 0.863986 6.17311C1.59674 6.09806 2.33068 6.03521 3.06415 5.96805C3.78973 5.90161 4.51531 5.83565 5.24089 5.77016C5.48275 5.74842 5.72461 5.72404 5.96671 5.70564C6.04462 5.6999 6.08621 5.66573 6.11536 5.59474C6.77259 4.05038 7.43094 2.50665 8.09039 0.963553C8.27251 0.536952 8.59778 0.298676 9.01123 0.309431C9.42469 0.320186 9.72295 0.522134 9.8869 0.901893C10.3331 1.93506 10.7736 2.97061 11.2159 4.00569C11.4411 4.53147 11.6667 5.05869 11.888 5.58686C11.9219 5.66812 11.9704 5.69966 12.0553 5.70635C12.6384 5.75575 13.2214 5.80753 13.8042 5.8617C14.6528 5.93881 15.5013 6.01657 16.3497 6.09496C16.6193 6.11885 16.8891 6.14275 17.158 6.17287C17.647 6.2307 18.0038 6.63866 18 7.20651Z" fill="#FAD40E"/>
</svg>
