<svg width="135" height="135" viewBox="0 0 135 135" fill="none" xmlns="http://www.w3.org/2000/svg">
<path id="Vector" d="M114.75 0H20.25C14.8794 0 9.7287 2.13348 5.93109 5.93109C2.13348 9.7287 0 14.8794 0 20.25V114.75C0 120.121 2.13348 125.271 5.93109 129.069C9.7287 132.867 14.8794 135 20.25 135H114.75C115.86 134.985 116.967 134.872 118.057 134.663L120.083 134.19H120.555H120.893L123.39 133.245L124.268 132.773C124.942 132.368 125.685 132.03 126.36 131.557C127.261 130.894 128.118 130.173 128.925 129.398L129.398 128.79C130.06 128.118 130.67 127.396 131.22 126.63L131.827 125.752C132.299 125.001 132.705 124.211 133.042 123.39C133.228 123.066 133.386 122.727 133.515 122.377C133.853 121.567 134.055 120.69 134.325 119.812V118.8C134.708 117.481 134.934 116.122 135 114.75V20.25C135 14.8794 132.867 9.7287 129.069 5.93109C125.271 2.13348 120.121 0 114.75 0ZM20.25 121.5C18.4598 121.5 16.7429 120.789 15.477 119.523C14.2112 118.257 13.5 116.54 13.5 114.75V85.6575L35.7075 63.3825C36.335 62.7498 37.0816 62.2477 37.9041 61.905C38.7267 61.5623 39.6089 61.3859 40.5 61.3859C41.3911 61.3859 42.2733 61.5623 43.0959 61.905C43.9184 62.2477 44.665 62.7498 45.2925 63.3825L103.342 121.5H20.25ZM121.5 114.75C121.494 115.582 121.333 116.406 121.028 117.18C120.873 117.509 120.693 117.825 120.488 118.125C120.307 118.411 120.104 118.682 119.88 118.935L83.7675 82.8225L89.7075 76.8825C90.335 76.2498 91.0816 75.7477 91.9041 75.405C92.7267 75.0623 93.6089 74.8859 94.5 74.8859C95.3911 74.8859 96.2733 75.0623 97.0959 75.405C97.9184 75.7477 98.665 76.2498 99.2925 76.8825L121.5 99.1575V114.75ZM121.5 80.055L108.81 67.5C104.947 63.8347 99.8251 61.7914 94.5 61.7914C89.1749 61.7914 84.0529 63.8347 80.19 67.5L74.25 73.44L54.81 54C50.9471 50.3347 45.8251 48.2914 40.5 48.2914C35.1749 48.2914 30.0529 50.3347 26.19 54L13.5 66.555V20.25C13.5 18.4598 14.2112 16.7429 15.477 15.477C16.7429 14.2112 18.4598 13.5 20.25 13.5H114.75C116.54 13.5 118.257 14.2112 119.523 15.477C120.789 16.7429 121.5 18.4598 121.5 20.25V80.055ZM77.625 27C75.6225 27 73.6649 27.5938 71.9999 28.7064C70.3348 29.8189 69.0371 31.4002 68.2707 33.2503C67.5044 35.1004 67.3039 37.1362 67.6945 39.1003C68.0852 41.0643 69.0495 42.8685 70.4655 44.2845C71.8815 45.7005 73.6856 46.6648 75.6497 47.0555C77.6138 47.4461 79.6496 47.2456 81.4997 46.4793C83.3498 45.7129 84.9311 44.4152 86.0436 42.7501C87.1562 41.0851 87.75 39.1275 87.75 37.125C87.75 34.4397 86.6833 31.8643 84.7845 29.9655C82.8857 28.0667 80.3103 27 77.625 27Z" fill="white"/>
</svg>
