<svg width="24" height="25" viewBox="0 0 24 25" fill="none" xmlns="http://www.w3.org/2000/svg">
<g id="Group 73">
<rect id="Social Media Icon" y="0.5" width="24" height="24" rx="4" fill="#2D2D2D"/>
<path id="YouTube" d="M12.2923 17.1528L9.58421 17.1022C8.70738 17.0845 7.82837 17.1198 6.96873 16.937C5.66102 16.664 5.56837 15.3254 5.47143 14.2026C5.33786 12.624 5.38957 11.0168 5.64164 9.45144C5.78395 8.57309 6.34397 8.04898 7.21002 7.99194C10.1336 7.78496 13.0766 7.80949 15.9937 7.90606C16.3018 7.91491 16.612 7.96329 16.9157 8.01837C18.4153 8.28698 18.4519 9.80391 18.5491 11.0809C18.646 12.371 18.6051 13.6678 18.4198 14.9492C18.2711 16.0101 17.9867 16.8998 16.7865 16.9857C15.2826 17.098 13.8133 17.1884 12.3052 17.1596C12.3053 17.1528 12.2966 17.1528 12.2923 17.1528ZM10.7002 14.4668C11.8335 13.8019 12.9451 13.148 14.0719 12.4875C12.9365 11.8226 11.827 11.1687 10.7002 10.5082V14.4668Z" fill="white"/>
</g>
</svg>
